<svg xmlns="http://www.w3.org/2000/svg" viewBox="0 0 24 24"><title>ic_close_password</title><g id="Слой_25" data-name="Слой 25"><path d="M0,0V24H24V0ZM4.9,20.5,3.5,19.1l1.7-1.7A11.8,11.8,0,0,1,1,12,11.8,11.8,0,0,1,12,4.5a11.5,11.5,0,0,1,5,1.1l2.1-2.1,1.4,1.4L18.8,6.6,16.2,9.2,9.2,16.2,7,18.4ZM9,12a3,3,0,0,1,3-3,3.1,3.1,0,0,1,1.3.3l1.5-1.5A5.1,5.1,0,0,0,12,7a5,5,0,0,0-5,5,5.1,5.1,0,0,0,.8,2.8l1.5-1.5A3.1,3.1,0,0,1,9,12Z" fill="none"/><path d="M14.7,10.7l-4,4h.1l3.9-3.9Zm0,0-4,4h.1l3.9-3.9ZM20.4,8h-.1l-2.6,2.6-.7.7a4.9,4.9,0,0,1,0,.5,5,5,0,0,1-5,5h-.5L9.3,19.2a11.3,11.3,0,0,0,2.8.3A11.8,11.8,0,0,0,23,12,11.6,11.6,0,0,0,20.4,8Zm-5.7,2.7-4,4h.1l3.9-3.9Z" fill="#dcdcdc"/><path d="M13.3,9.3l-4,4A3.1,3.1,0,0,1,9,12a3,3,0,0,1,3-3A3.1,3.1,0,0,1,13.3,9.3Z" fill="#dcdcdc"/><path d="M17,5.6,14.8,7.8A5.1,5.1,0,0,0,12,7a5,5,0,0,0-5,5,5.1,5.1,0,0,0,.8,2.8L5.2,17.4A11.8,11.8,0,0,1,1,12,11.8,11.8,0,0,1,12,4.5,11.5,11.5,0,0,1,17,5.6Z" fill="#dcdcdc"/><polygon points="20.5 4.9 4.9 20.5 3.5 19.1 19.1 3.5 20.5 4.9 20.5 4.9" fill="#dcdcdc"/></g></svg>