<svg width="16" height="16" viewBox="0 0 16 16" fill="none" xmlns="http://www.w3.org/2000/svg">
<rect width="16" height="16" fill="white"/>
<path fill-rule="evenodd" clip-rule="evenodd" d="M7 4C5.34315 4 4 5.34315 4 7V13C4 14.6569 5.34315 16 7 16H7.03192L8 10.0973L8.96808 16H9C10.6569 16 12 14.6569 12 13V7C12 5.34315 10.6569 4 9 4H7Z" fill="black"/>
<rect x="10" y="2" width="3" height="4" rx="1.5" transform="rotate(90 10 2)" fill="black"/>
<path d="M10.5 11L13.8333 12.1429L15.5 15" stroke="black"/>
<path d="M5.5 11L2.16667 12.1429L0.5 15" stroke="black"/>
<path d="M11.5 9H14.1667L15.5 7" stroke="black"/>
<path d="M4.5 9H1.83333L0.5 7" stroke="black"/>
<path d="M10.5 6L12.9 5.6L14.5 4" stroke="black"/>
<path d="M5.5 6L3.1 5.6L1.5 4" stroke="black"/>
<path d="M9 4C9 2.83333 9.6 0.5 12 0.5" stroke="black"/>
<path d="M7 4C7 2.83333 6.4 0.5 4 0.5" stroke="black"/>
</svg>
