<svg width="20" height="21" viewBox="0 0 20 21" fill="none" xmlns="http://www.w3.org/2000/svg">
<path fill-rule="evenodd" clip-rule="evenodd" d="M10 7C10.9625 7 11.75 6.2125 11.75 5.25C11.75 4.2875 10.9625 3.5 10 3.5C9.0375 3.5 8.25 4.2875 8.25 5.25C8.25 6.2125 9.0375 7 10 7ZM10 8.75C9.0375 8.75 8.25 9.5375 8.25 10.5C8.25 11.4625 9.0375 12.25 10 12.25C10.9625 12.25 11.75 11.4625 11.75 10.5C11.75 9.5375 10.9625 8.75 10 8.75ZM10 14C9.0375 14 8.25 14.7875 8.25 15.75C8.25 16.7125 9.0375 17.5 10 17.5C10.9625 17.5 11.75 16.7125 11.75 15.75C11.75 14.7875 10.9625 14 10 14Z" fill="white" fill-opacity="0.54"/>
</svg>
