<svg width="20" height="20" viewBox="0 0 20 20" fill="none" xmlns="http://www.w3.org/2000/svg">
<path fill-rule="evenodd" clip-rule="evenodd" d="M10.9875 1.99983H8.99032V8.99633H5.9946L4.99603 11.9948H8.99032H10.9875H14.9818L13.9832 8.99633H10.9875V1.99983Z" fill="#BDE0BB"/>
<path fill-rule="evenodd" clip-rule="evenodd" d="M10.9875 1.99983H8.99032V8.99633H5.9946L4.99603 11.9948H8.99032H10.9875H14.9818L13.9832 8.99633H10.9875V1.99983Z" fill="#92D08D"/>
<path fill-rule="evenodd" clip-rule="evenodd" d="M16.9889 13.993L16.9989 14.003H10.9975V20H9.00033V14.003H2.9989L3.0089 13.993C3.01164 12.6715 3.38822 11.3777 4.09511 10.2616C4.802 9.14544 5.81029 8.25258 7.00319 7.68622V3.0085C6.21096 3.00667 5.45161 2.69152 4.89048 2.13175C4.32936 1.57197 4.01195 0.812958 4.00747 0.0200095L3.98748 0H16.0003L15.9903 0.0100048C15.9903 0.805256 15.6747 1.56795 15.1129 2.13028C14.5511 2.69261 13.7891 3.0085 12.9946 3.0085V7.68622C14.1871 8.25316 15.1949 9.14618 15.9017 10.2622C16.6085 11.3782 16.9854 12.6716 16.9889 13.993ZM10.9975 9.10543V2.009H9.00033V9.10543C8.2181 9.26864 7.48625 9.617 6.86605 10.1213C6.24585 10.6256 5.75537 11.2711 5.43548 12.004H14.5623C14.2424 11.2711 13.752 10.6256 13.1318 10.1213C12.5115 9.617 11.7797 9.26864 10.9975 9.10543Z" fill="#5BB254"/>
<path fill-rule="evenodd" clip-rule="evenodd" d="M16.9889 13.993L16.9989 14.003H10.9975V20H9.00033V14.003H2.9989L3.0089 13.993C3.01164 12.6715 3.38822 11.3777 4.09511 10.2616C4.802 9.14544 5.81029 8.25258 7.00319 7.68622V3.0085C6.21096 3.00667 5.45161 2.69152 4.89048 2.13175C4.32936 1.57197 4.01195 0.812958 4.00747 0.0200095L3.98748 0H16.0003L15.9903 0.0100048C15.9903 0.805256 15.6747 1.56795 15.1129 2.13028C14.5511 2.69261 13.7891 3.0085 12.9946 3.0085V7.68622C14.1871 8.25316 15.1949 9.14618 15.9017 10.2622C16.6085 11.3782 16.9854 12.6716 16.9889 13.993ZM10.9975 9.10543V2.009H9.00033V9.10543C8.2181 9.26864 7.48625 9.617 6.86605 10.1213C6.24585 10.6256 5.75537 11.2711 5.43548 12.004H14.5623C14.2424 11.2711 13.752 10.6256 13.1318 10.1213C12.5115 9.617 11.7797 9.26864 10.9975 9.10543Z" fill="#31A528"/>
</svg>
