<svg width="20" height="20" viewBox="0 0 20 20" fill="none" xmlns="http://www.w3.org/2000/svg">
<path d="M2 3C2 2.44772 2.44772 2 3 2H12C12.5523 2 13 2.44772 13 3V18H2V3Z" fill="#92D08D" stroke="#479540" stroke-width="2"/>
<path d="M3 3H12V5H3V3Z" fill="#479540"/>
<path d="M3 12H12V17H3V12Z" fill="#92D08D"/>
<path d="M3 12H12V14H3V12Z" fill="#479540"/>
<rect x="3" y="5" width="9" height="7" fill="white"/>
<path d="M4 7H5.5V10H4V7Z" fill="#479540"/>
<path d="M6.75 7H8.25V10H6.75V7Z" fill="#479540"/>
<path d="M9.5 7H11V10H9.5V7Z" fill="#479540"/>
<path fill-rule="evenodd" clip-rule="evenodd" d="M18 7V12C18 13.6569 16.6569 15 15 15H13V13H15C15.5523 13 16 12.5523 16 12V7H18Z" fill="#479540"/>
<path d="M19 7C19 8.10457 18.1046 9 17 9C15.8954 9 15 8.10457 15 7C15 5.89543 15.8954 5 17 5C18.1046 5 19 5.89543 19 7Z" fill="#479540"/>
</svg>
