<svg width="72" height="72" viewBox="0 0 72 72" fill="none" xmlns="http://www.w3.org/2000/svg">
<g filter="url(#filter0_ddd)">
<circle cx="36" cy="35" r="28" fill="#2979FF"/>
</g>
<circle cx="36" cy="35" r="28" fill="#2979FF"/>
<path fill-rule="evenodd" clip-rule="evenodd" d="M29 28H30V30V32H35H38H40V30V28H40.1716L43 30.8284V42H29V28ZM29 26H30H35H38H40H41L45 30V42C45 43.1 44.1 44 43 44H29C27.89 44 27 43.1 27 42V28C27 26.9 27.89 26 29 26ZM35 30V28H38V30H35ZM37 37C37 37.5523 36.5523 38 36 38C35.4477 38 35 37.5523 35 37C35 36.4477 35.4477 36 36 36C36.5523 36 37 36.4477 37 37ZM39 37C39 38.6569 37.6569 40 36 40C34.3431 40 33 38.6569 33 37C33 35.3431 34.3431 34 36 34C37.6569 34 39 35.3431 39 37Z" fill="white"/>
<defs>
<filter id="filter0_ddd" x="0" y="0" width="72" height="72" filterUnits="userSpaceOnUse" color-interpolation-filters="sRGB">
<feFlood flood-opacity="0" result="BackgroundImageFix"/>
<feColorMatrix in="SourceAlpha" type="matrix" values="0 0 0 0 0 0 0 0 0 0 0 0 0 0 0 0 0 0 127 0"/>
<feOffset dy="1"/>
<feGaussianBlur stdDeviation="4"/>
<feColorMatrix type="matrix" values="0 0 0 0 0 0 0 0 0 0 0 0 0 0 0 0 0 0 0.2 0"/>
<feBlend mode="normal" in2="BackgroundImageFix" result="effect1_dropShadow"/>
<feColorMatrix in="SourceAlpha" type="matrix" values="0 0 0 0 0 0 0 0 0 0 0 0 0 0 0 0 0 0 127 0"/>
<feOffset dy="3"/>
<feGaussianBlur stdDeviation="2"/>
<feColorMatrix type="matrix" values="0 0 0 0 0 0 0 0 0 0 0 0 0 0 0 0 0 0 0.12 0"/>
<feBlend mode="normal" in2="effect1_dropShadow" result="effect2_dropShadow"/>
<feColorMatrix in="SourceAlpha" type="matrix" values="0 0 0 0 0 0 0 0 0 0 0 0 0 0 0 0 0 0 127 0"/>
<feOffset dy="3"/>
<feGaussianBlur stdDeviation="1.5"/>
<feColorMatrix type="matrix" values="0 0 0 0 0 0 0 0 0 0 0 0 0 0 0 0 0 0 0.14 0"/>
<feBlend mode="normal" in2="effect2_dropShadow" result="shape"/>
</filter>
</defs>
</svg>
