<svg width="20" height="20" viewBox="0 0 20 20" fill="none" xmlns="http://www.w3.org/2000/svg">
<path d="M17 4H3V16H17V4Z" fill="white"/>
<path fill-rule="evenodd" clip-rule="evenodd" d="M2 0.75C2 0.335786 2.33579 0 2.75 0H17.25C17.6642 0 18 0.335786 18 0.75C18 1.16421 17.6642 1.5 17.25 1.5H2.75C2.33579 1.5 2 1.16421 2 0.75ZM2 19.25C2 18.8358 2.33579 18.5 2.75 18.5H17.25C17.6642 18.5 18 18.8358 18 19.25C18 19.6642 17.6642 20 17.25 20H2.75C2.33579 20 2 19.6642 2 19.25ZM5 5H15C15.5523 5 16 5.44771 16 6V14C16 14.5523 15.5523 15 15 15H5C4.44771 15 4 14.5523 4 14V6C4 5.44772 4.44772 5 5 5ZM15 3H5C3.34315 3 2 4.34315 2 6V14C2 15.6569 3.34315 17 5 17H15C16.6569 17 18 15.6569 18 14V6C18 4.34315 16.6569 3 15 3Z" fill="#7E8C99"/>
<path fill-rule="evenodd" clip-rule="evenodd" d="M14 12.8292V14H6V12.8292C6 11.5258 8.664 10.8772 10 10.8772C11.336 10.8772 14 11.5258 14 12.8292ZM11.8 7.75605C11.8073 8.11207 11.708 8.46219 11.5147 8.76177C11.3214 9.06135 11.0429 9.29681 10.7147 9.43813C10.3865 9.57945 10.0235 9.62022 9.67194 9.55524C9.32038 9.49027 8.99623 9.32249 8.7408 9.07331C8.48537 8.82413 8.31024 8.50483 8.23775 8.15613C8.16527 7.80743 8.1987 7.44513 8.33379 7.11542C8.46888 6.78572 8.6995 6.50356 8.99625 6.30491C9.29301 6.10627 9.64244 6.00014 10 6.00007C10.4723 5.99603 10.9269 6.17857 11.2643 6.5077C11.6017 6.83684 11.7943 7.28573 11.8 7.75605V7.75605Z" fill="#2979FF"/>
</svg>
