<svg width="108" height="81" viewBox="0 0 108 81" fill="none" xmlns="http://www.w3.org/2000/svg">
<path fill-rule="evenodd" clip-rule="evenodd" d="M34.976 14.9797H38.9678C38.964 13.5616 38.6071 12.2108 37.8479 11.0131C37.0886 9.81541 36.0061 8.88078 34.7252 8.27236V3.13008C35.5786 3.13008 36.3971 2.88963 37.0006 2.28616C37.604 1.68268 37.8499 0.853441 37.8499 0H24.8824C24.8872 0.850969 25.1936 1.687 25.7964 2.28773C26.3991 2.88846 27.1615 3.12811 28.0125 3.13008V8.27236C26.7311 8.88016 25.7013 9.81461 24.942 11.0124C24.2967 12.0305 23.8998 13.1594 23.7935 14.346L8.50497 17.5957C3.10281 18.744 -0.345657 24.0541 0.802608 29.4563L4.82561 48.383C5.37703 50.9772 6.88822 53.1209 8.90847 54.5214C8.03661 55.4213 7.5 56.648 7.5 58V76C7.5 78.7614 9.73858 81 12.5 81H30.5C33.2614 81 35.5 78.7614 35.5 76V58C35.5 55.427 33.5565 53.3079 31.0573 53.0307L35.613 52.0624C41.0151 50.9141 44.4636 45.604 43.3153 40.2018L39.2923 21.275C38.7199 18.5818 37.113 16.3742 34.976 14.9797ZM28.1863 30.6289L14.6275 33.5109C13.6612 33.7163 13.0444 34.6661 13.2498 35.6323L15.2951 45.2548C15.5005 46.221 16.4503 46.8378 17.4165 46.6324L30.9754 43.7504C31.9416 43.545 32.5584 42.5952 32.3531 41.629L30.3077 32.0066C30.1024 31.0403 29.1526 30.4235 28.1863 30.6289Z" fill="#AFB3B6" fill-opacity="0.2"/>
<path d="M43.5 22C43.5 19.2386 45.7386 17 48.5 17H66.5C69.2614 17 71.5 19.2386 71.5 22V40C71.5 42.7614 69.2614 45 66.5 45H48.5C45.7386 45 43.5 42.7614 43.5 40V22Z" fill="#AFB3B6" fill-opacity="0.2"/>
<path d="M84.5 17C81.7386 17 79.5 19.2386 79.5 22V40C79.5 42.7614 81.7386 45 84.5 45H102.5C105.261 45 107.5 42.7614 107.5 40V22C107.5 19.2386 105.261 17 102.5 17H84.5Z" fill="#AFB3B6" fill-opacity="0.2"/>
<path d="M84.5 53C81.7386 53 79.5 55.2386 79.5 58V76C79.5 78.7614 81.7386 81 84.5 81H102.5C105.261 81 107.5 78.7614 107.5 76V58C107.5 55.2386 105.261 53 102.5 53H84.5Z" fill="#AFB3B6" fill-opacity="0.2"/>
<path d="M48.5 53C45.7386 53 43.5 55.2386 43.5 58V76C43.5 78.7614 45.7386 81 48.5 81H66.5C69.2614 81 71.5 78.7614 71.5 76V58C71.5 55.2386 69.2614 53 66.5 53H48.5Z" fill="#AFB3B6" fill-opacity="0.2"/>
<path d="M24.0145 41.1152L23.71 39.6828C24.1148 39.435 24.4191 39.0521 24.5689 38.6016C24.7187 38.1512 24.7044 37.6624 24.5286 37.2214C24.3528 36.7805 24.0268 36.4159 23.6083 36.1921C23.1897 35.9683 22.7054 35.8997 22.2411 35.9984C21.7768 36.0971 21.3624 36.3567 21.071 36.7314C20.7796 37.1062 20.6301 37.5718 20.6489 38.0461C20.6676 38.5204 20.8534 38.9728 21.1735 39.3233C21.4935 39.6739 21.9272 39.9 22.3978 39.9617L22.7023 41.3942L24.0145 41.1152Z" fill="#AFB3B6"/>
<path fill-rule="evenodd" clip-rule="evenodd" d="M26.893 28.8464L27.3113 30.8145L28.1858 30.6287C29.152 30.4233 30.1018 31.0401 30.3072 32.0063L32.3525 41.6287C32.5579 42.595 31.9411 43.5448 30.9749 43.7502L17.416 46.6322C16.4498 46.8376 15.5 46.2208 15.2946 45.2545L13.2493 35.6321C13.0439 34.6659 13.6607 33.7161 14.6269 33.5107L15.502 33.3247L15.0836 31.3566C14.7508 29.7906 15.0536 28.1565 15.9256 26.8137C16.7976 25.471 18.1672 24.5297 19.7332 24.1968C21.2993 23.864 22.9334 24.1668 24.2761 25.0388C25.6188 25.9108 26.5601 27.2804 26.893 28.8464ZM17.603 27.903C17.0199 28.8009 16.8174 29.8936 17.0399 30.9408L17.4363 32.8056L25.3331 31.1271L24.9367 29.2622C24.7141 28.2151 24.0847 27.2992 23.1868 26.7161C22.2889 26.1331 21.1962 25.9305 20.1491 26.1531C19.1019 26.3757 18.186 27.0052 17.603 27.903ZM15.2495 35.423L17.2069 44.6319L30.3523 41.8378L28.3949 32.6289L15.2495 35.423Z" fill="#AFB3B6"/>
<path fill-rule="evenodd" clip-rule="evenodd" d="M28.0126 8.27236C26.7312 8.88016 25.7015 9.81461 24.9422 11.0124C24.5499 11.6312 24.2495 12.2909 24.0503 12.9797C23.9217 13.4241 23.8353 13.8806 23.7936 14.3459L8.50497 17.5956C3.10281 18.7439 -0.345657 24.0541 0.802608 29.4562L4.82561 48.383C5.97388 53.7851 11.284 57.2336 16.6862 56.0853L21.7926 55H24.2V54.4883L27.8 53.7231V55H30.5C30.9941 55 31.4548 55.1179 31.861 55.3253L32.7704 53.544C32.2461 53.2763 31.6684 53.0985 31.0573 53.0307L35.613 52.0623C41.0151 50.9141 44.4636 45.6039 43.3153 40.2017L39.2923 21.275C38.7199 18.5818 37.113 16.3742 34.9761 14.9797H38.9679C38.9661 14.2941 38.8817 13.6242 38.7092 12.9797C38.525 12.2912 38.2402 11.6317 37.848 11.0131C37.0888 9.81541 36.0062 8.88078 34.7253 8.27236V3.13008C35.5787 3.13008 36.3972 2.88963 37.0007 2.28616C37.0913 2.19562 37.1737 2.10001 37.2485 2C37.6724 1.43334 37.85 0.72541 37.85 0H24.8825C24.8866 0.722362 25.108 1.43396 25.5436 2C25.6211 2.10078 25.7054 2.19694 25.7965 2.28773C26.3993 2.88846 27.1616 3.12811 28.0126 3.13008V8.27236ZM30.0126 2V9.53727L28.8698 10.0794C27.9454 10.5178 27.1979 11.1895 26.6314 12.0832C26.4474 12.3734 26.2919 12.6728 26.1657 12.9797H36.6094C36.4895 12.6676 36.3394 12.3687 36.1588 12.0839C35.611 11.2197 34.8233 10.5331 33.8672 10.0789L32.7253 9.53652V2H30.0126ZM30.0244 15.3686C29.3115 15.3231 28.5806 15.3731 27.8475 15.5289L8.92079 19.5519C4.59906 20.4705 1.84029 24.7187 2.7589 29.0404L6.78191 47.9672C7.70052 52.2889 11.9487 55.0477 16.2704 54.129L35.1971 50.106C39.5189 49.1874 42.2776 44.9393 41.359 40.6176L37.336 21.6908C36.7781 19.0661 34.9921 17.0178 32.7073 16.0198V20.3458C32.7073 20.9014 32.1067 21.4636 31.3659 21.4636C30.625 21.4636 30.0244 20.9014 30.0244 20.3458V15.3686Z" fill="#AFB3B6"/>
<path d="M51.2 17H48.5C47.6825 17 46.9109 17.1962 46.2296 17.544L47.139 19.3253C47.5452 19.1179 48.0059 19 48.5 19H51.2V17Z" fill="#AFB3B6"/>
<path d="M69.5 24.7H71.5V22C71.5 21.1825 71.3038 20.4109 70.956 19.7296L69.1747 20.639C69.3821 21.0452 69.5 21.5059 69.5 22V24.7Z" fill="#AFB3B6"/>
<path d="M47.139 42.6747L46.2296 44.456C46.9109 44.8038 47.6825 45 48.5 45H51.2V43H48.5C48.0059 43 47.5452 42.8821 47.139 42.6747Z" fill="#AFB3B6"/>
<path d="M63.8 45V43H66.5C66.9941 43 67.4548 42.8821 67.861 42.6747L68.7704 44.456C68.0891 44.8038 67.3175 45 66.5 45H63.8Z" fill="#AFB3B6"/>
<path d="M45.5 37.3H43.5V40C43.5 40.8175 43.6962 41.5891 44.044 42.2704L45.8253 41.361C45.6179 40.9548 45.5 40.4941 45.5 40V37.3Z" fill="#AFB3B6"/>
<path d="M43.5 33.7H45.5V28.3H43.5V33.7Z" fill="#AFB3B6"/>
<path d="M45.5 24.7H43.5V22C43.5 21.1825 43.6962 20.4109 44.044 19.7296L45.8253 20.639C45.6179 21.0452 45.5 21.5059 45.5 22V24.7Z" fill="#AFB3B6"/>
<path d="M54.8 17V19H60.2V17H54.8Z" fill="#AFB3B6"/>
<path d="M63.8 19V17H66.5C67.3175 17 68.0891 17.1962 68.7704 17.544L67.861 19.3253C67.4548 19.1179 66.9941 19 66.5 19H63.8Z" fill="#AFB3B6"/>
<path d="M71.5 28.3H69.5V33.7H71.5V28.3Z" fill="#AFB3B6"/>
<path d="M69.5 37.3H71.5V40C71.5 40.8175 71.3038 41.5891 70.956 42.2704L69.1747 41.361C69.3821 40.9548 69.5 40.4941 69.5 40V37.3Z" fill="#AFB3B6"/>
<path d="M60.2 45V43H54.8V45H60.2Z" fill="#AFB3B6"/>
<path d="M82.2296 44.456L83.139 42.6747C83.5452 42.8821 84.0059 43 84.5 43H87.2V45H84.5C83.6825 45 82.9109 44.8038 82.2296 44.456Z" fill="#AFB3B6"/>
<path d="M99.8 43V45H102.5C103.317 45 104.089 44.8038 104.77 44.456L103.861 42.6747C103.455 42.8821 102.994 43 102.5 43H99.8Z" fill="#AFB3B6"/>
<path d="M107.5 24.7H105.5V22C105.5 21.5059 105.382 21.0452 105.175 20.639L106.956 19.7296C107.304 20.4109 107.5 21.1825 107.5 22V24.7Z" fill="#AFB3B6"/>
<path d="M84.5 17H87.2V19H84.5C84.0059 19 83.5452 19.1179 83.139 19.3253L82.2296 17.544C82.9109 17.1962 83.6825 17 84.5 17Z" fill="#AFB3B6"/>
<path d="M79.5 37.3H81.5V40C81.5 40.4941 81.6179 40.9548 81.8253 41.361L80.044 42.2704C79.6962 41.5891 79.5 40.8175 79.5 40V37.3Z" fill="#AFB3B6"/>
<path d="M81.5 33.7H79.5V28.3H81.5V33.7Z" fill="#AFB3B6"/>
<path d="M79.5 24.7H81.5V22C81.5 21.5059 81.6179 21.0452 81.8253 20.639L80.044 19.7296C79.6962 20.4109 79.5 21.1825 79.5 22V24.7Z" fill="#AFB3B6"/>
<path d="M90.8 19V17H96.2V19H90.8Z" fill="#AFB3B6"/>
<path d="M99.8 17V19H102.5C102.994 19 103.455 19.1179 103.861 19.3253L104.77 17.544C104.089 17.1962 103.317 17 102.5 17H99.8Z" fill="#AFB3B6"/>
<path d="M105.5 28.3H107.5V33.7H105.5V28.3Z" fill="#AFB3B6"/>
<path d="M107.5 37.3H105.5V40C105.5 40.4941 105.382 40.9548 105.175 41.361L106.956 42.2704C107.304 41.5891 107.5 40.8175 107.5 40V37.3Z" fill="#AFB3B6"/>
<path d="M96.2 43V45H90.8V43H96.2Z" fill="#AFB3B6"/>
<path d="M82.2296 80.456L83.139 78.6747C83.5452 78.8821 84.0059 79 84.5 79H87.2V81H84.5C83.6825 81 82.9109 80.8038 82.2296 80.456Z" fill="#AFB3B6"/>
<path d="M99.8 79V81H102.5C103.317 81 104.089 80.8038 104.77 80.456L103.861 78.6747C103.455 78.8821 102.994 79 102.5 79H99.8Z" fill="#AFB3B6"/>
<path d="M107.5 60.7H105.5V58C105.5 57.5059 105.382 57.0452 105.175 56.639L106.956 55.7296C107.304 56.4109 107.5 57.1825 107.5 58V60.7Z" fill="#AFB3B6"/>
<path d="M84.5 53H87.2V55H84.5C84.0059 55 83.5452 55.1179 83.139 55.3253L82.2296 53.544C82.9109 53.1962 83.6825 53 84.5 53Z" fill="#AFB3B6"/>
<path d="M79.5 73.3H81.5V76C81.5 76.4941 81.6179 76.9548 81.8253 77.361L80.044 78.2705C79.6962 77.5891 79.5 76.8175 79.5 76V73.3Z" fill="#AFB3B6"/>
<path d="M81.5 69.7H79.5V64.3H81.5V69.7Z" fill="#AFB3B6"/>
<path d="M79.5 60.7H81.5V58C81.5 57.5059 81.6179 57.0452 81.8253 56.639L80.044 55.7296C79.6962 56.4109 79.5 57.1825 79.5 58V60.7Z" fill="#AFB3B6"/>
<path d="M90.8 55V53H96.2V55H90.8Z" fill="#AFB3B6"/>
<path d="M99.8 53V55H102.5C102.994 55 103.455 55.1179 103.861 55.3253L104.77 53.544C104.089 53.1962 103.317 53 102.5 53H99.8Z" fill="#AFB3B6"/>
<path d="M105.5 64.3H107.5V69.7H105.5V64.3Z" fill="#AFB3B6"/>
<path d="M107.5 73.3H105.5V76C105.5 76.4941 105.382 76.9548 105.175 77.361L106.956 78.2705C107.304 77.5891 107.5 76.8175 107.5 76V73.3Z" fill="#AFB3B6"/>
<path d="M96.2 79V81H90.8V79H96.2Z" fill="#AFB3B6"/>
<path d="M46.2296 80.456L47.139 78.6747C47.5452 78.8821 48.0059 79 48.5 79H51.2V81H48.5C47.6825 81 46.9109 80.8038 46.2296 80.456Z" fill="#AFB3B6"/>
<path d="M63.8 79V81H66.5C67.3175 81 68.0891 80.8038 68.7704 80.456L67.861 78.6747C67.4548 78.8821 66.9941 79 66.5 79H63.8Z" fill="#AFB3B6"/>
<path d="M71.5 60.7H69.5V58C69.5 57.5059 69.3821 57.0452 69.1747 56.639L70.956 55.7296C71.3038 56.4109 71.5 57.1825 71.5 58V60.7Z" fill="#AFB3B6"/>
<path d="M48.5 53H51.2V55H48.5C48.0059 55 47.5452 55.1179 47.139 55.3253L46.2296 53.544C46.9109 53.1962 47.6825 53 48.5 53Z" fill="#AFB3B6"/>
<path d="M43.5 73.3H45.5V76C45.5 76.4941 45.6179 76.9548 45.8253 77.361L44.044 78.2705C43.6962 77.5891 43.5 76.8175 43.5 76V73.3Z" fill="#AFB3B6"/>
<path d="M45.5 69.7H43.5V64.3H45.5V69.7Z" fill="#AFB3B6"/>
<path d="M43.5 60.7H45.5V58C45.5 57.5059 45.6179 57.0452 45.8253 56.639L44.044 55.7296C43.6962 56.4109 43.5 57.1825 43.5 58V60.7Z" fill="#AFB3B6"/>
<path d="M54.8 55V53H60.2V55H54.8Z" fill="#AFB3B6"/>
<path d="M63.8 53V55H66.5C66.9941 55 67.4548 55.1179 67.861 55.3253L68.7704 53.544C68.0891 53.1962 67.3175 53 66.5 53H63.8Z" fill="#AFB3B6"/>
<path d="M69.5 64.3H71.5V69.7H69.5V64.3Z" fill="#AFB3B6"/>
<path d="M71.5 73.3H69.5V76C69.5 76.4941 69.3821 76.9548 69.1747 77.361L70.956 78.2705C71.3038 77.5891 71.5 76.8175 71.5 76V73.3Z" fill="#AFB3B6"/>
<path d="M60.2 79V81H54.8V79H60.2Z" fill="#AFB3B6"/>
<path d="M11.139 78.6747L10.2296 80.456C10.9109 80.8038 11.6825 81 12.5 81H15.2V79H12.5C12.0059 79 11.5452 78.8821 11.139 78.6747Z" fill="#AFB3B6"/>
<path d="M27.8 81V79H30.5C30.9941 79 31.4548 78.8821 31.861 78.6747L32.7704 80.456C32.0891 80.8038 31.3175 81 30.5 81H27.8Z" fill="#AFB3B6"/>
<path d="M33.5 60.7H35.5V58C35.5 57.1825 35.3038 56.4109 34.956 55.7296L33.1747 56.639C33.3821 57.0452 33.5 57.5059 33.5 58V60.7Z" fill="#AFB3B6"/>
<path d="M7.5 73.3H9.5V76C9.5 76.4941 9.61789 76.9548 9.8253 77.361L8.04402 78.2705C7.69618 77.5891 7.5 76.8175 7.5 76V73.3Z" fill="#AFB3B6"/>
<path d="M9.5 69.7H7.5V64.3H9.5V69.7Z" fill="#AFB3B6"/>
<path d="M7.5 60.7H9.5V58C9.5 57.5059 9.61789 57.0452 9.8253 56.639L8.04403 55.7296C7.69618 56.4109 7.5 57.1825 7.5 58V60.7Z" fill="#AFB3B6"/>
<path d="M33.5 64.3H35.5V69.7H33.5V64.3Z" fill="#AFB3B6"/>
<path d="M35.5 73.3H33.5V76C33.5 76.4941 33.3821 76.9548 33.1747 77.361L34.956 78.2705C35.3038 77.5891 35.5 76.8175 35.5 76V73.3Z" fill="#AFB3B6"/>
<path d="M24.2 79V81H18.8V79H24.2Z" fill="#AFB3B6"/>
</svg>
