<svg width="95" height="66" viewBox="0 0 95 66" fill="none" xmlns="http://www.w3.org/2000/svg">
<path fill-rule="evenodd" clip-rule="evenodd" d="M31.4241 27H18.5C16.2909 27 14.5 28.7909 14.5 31V34.1238C6.60738 35.108 0.5 41.8408 0.5 50C0.5 58.8366 7.66344 66 16.5 66C16.9497 66 17.3951 65.9814 17.8355 65.9451C18.0516 65.9812 18.2736 66 18.5 66H64.5C64.5026 66 64.5053 66 64.5079 66H64C60.6863 66 58 63.3137 58 60V36.1548L36.6019 38.3384C34.4042 38.5627 32.4407 36.9629 32.2165 34.7651L31.4241 27ZM28.5 50C28.5 56.6274 23.1274 62 16.5 62C9.87258 62 4.5 56.6274 4.5 50C4.5 43.3726 9.87258 38 16.5 38C23.1274 38 28.5 43.3726 28.5 50Z" fill="#AFB3B6" fill-opacity="0.2"/>
<path d="M83 45H70V47H83V45Z" fill="#AFB3B6"/>
<path d="M70 50H79V52H70V50Z" fill="#AFB3B6"/>
<path fill-rule="evenodd" clip-rule="evenodd" d="M55.1092 14.389C55.1515 14.731 55.1436 15.1187 55.0801 15.5312C55.4296 15.0064 55.848 14.4553 56.3495 14.0229C57.0001 13.4619 57.8603 13.0444 58.9182 13.1971C59.4648 13.2759 59.844 13.783 59.7651 14.3296C59.6863 14.8762 59.1792 15.2554 58.6326 15.1766C58.3163 15.1309 58.016 15.2268 57.6555 15.5376C57.2711 15.869 56.9063 16.3737 56.5245 16.9812C56.4242 17.1408 56.3185 17.3153 56.2099 17.4945L56.2088 17.4962C55.9467 17.9288 55.6679 18.3888 55.4085 18.7344C55.2177 18.9887 54.9756 19.2702 54.6762 19.476C54.3579 19.6948 53.9082 19.8695 53.3841 19.7523C53.2405 19.7202 53.107 19.6741 52.9832 19.6168C52.2598 20.6609 51.3667 21.8819 50.5188 22.7572C50.1713 23.116 49.7996 23.4512 49.4201 23.7006C49.0603 23.9371 48.5753 24.1756 48.0294 24.1575C47.3916 24.1363 46.8992 23.7786 46.5934 23.2712C46.5086 23.1304 46.4367 22.977 46.3759 22.8129C46.1161 23.1222 45.8655 23.4153 45.6343 23.6834C45.3881 23.9689 45.1723 24.2168 44.9916 24.4242L44.991 24.425C44.6715 24.792 44.4616 25.0331 44.3888 25.1316C44.0717 25.561 43.6777 25.9157 43.1898 26.0979C42.6798 26.2883 42.1684 26.2518 41.7163 26.0685C41.5495 26.0008 41.3915 25.9138 41.2422 25.8116C40.9497 26.118 40.6352 26.394 40.2982 26.6268C39.1868 27.3946 37.8248 27.6859 36.358 27.0563C35.8505 26.8385 35.6156 26.2505 35.8334 25.743C36.0512 25.2355 36.6392 25.0006 37.1468 25.2184C37.8874 25.5363 38.5265 25.4199 39.1615 24.9812C39.4256 24.7987 39.6851 24.5612 39.9364 24.2774C39.9131 24.2362 39.8905 24.1949 39.8683 24.1537C39.0149 22.5655 38.4843 20.187 38.839 18.4078C39.1865 16.6647 40.1861 15.4199 41.4233 15.0295C42.0457 14.8331 42.7357 14.8617 43.3344 15.2113C43.9381 15.5638 44.3249 16.1696 44.4799 16.8886C44.5661 17.2884 44.5583 17.7673 44.5114 18.2356C44.4626 18.723 44.363 19.2754 44.2203 19.8553C43.9356 21.0126 43.4652 22.3363 42.8276 23.5417C42.7092 23.7655 42.5835 23.9882 42.4502 24.2073L42.4604 24.2119L42.468 24.2151C42.4795 24.2197 42.4875 24.2221 42.4924 24.2233C42.513 24.2149 42.6179 24.163 42.78 23.9434C42.9019 23.7784 43.2134 23.4204 43.5984 22.9782C43.7619 22.7903 43.9387 22.5871 44.1197 22.3772C44.6985 21.7062 45.383 20.8965 46.0188 20.08C46.0024 19.4484 46.0149 18.732 46.0976 18.0708C46.1768 17.4382 46.3369 16.6959 46.7181 16.1419C46.9218 15.8457 47.2229 15.5541 47.6508 15.4053C48.086 15.254 48.5294 15.2932 48.9324 15.4382C49.2237 15.543 49.4964 15.731 49.6892 16.0203C49.8762 16.3009 49.9395 16.6037 49.9473 16.864C49.9619 17.3492 49.7887 17.8415 49.6035 18.2477C49.261 18.9989 48.6769 19.8729 48.0492 20.7154C48.0656 20.9751 48.0852 21.1998 48.1024 21.3687C48.1378 21.7158 48.191 21.9415 48.2381 22.0811C48.263 22.0666 48.2908 22.0495 48.3217 22.0292C48.5298 21.8925 48.7862 21.6714 49.0823 21.3657C49.9684 20.4509 50.9254 19.0881 51.681 17.9781C51.5633 17.6094 51.497 17.2194 51.4692 16.8406C51.3875 15.7266 51.6201 14.3286 52.3557 13.4463C52.5392 13.2261 52.7831 13.0012 53.0989 12.8716C53.4477 12.7286 53.8593 12.717 54.2387 12.9154C54.5814 13.0947 54.7822 13.385 54.8961 13.6224C55.0135 13.8671 55.0776 14.1335 55.1092 14.389ZM40.8004 18.7988C40.6112 19.7479 40.8013 21.1174 41.2234 22.2855C41.694 21.3286 42.0528 20.2935 42.2782 19.3774C42.4034 18.8688 42.4839 18.411 42.5214 18.0363C42.5609 17.6424 42.5457 17.4071 42.5248 17.3101C42.4656 17.0353 42.3596 16.958 42.3259 16.9384C42.2872 16.9158 42.1953 16.8831 42.0252 16.9368C41.6774 17.0465 41.0499 17.5474 40.8004 18.7988Z" fill="#AFB3B6"/>
<path d="M17.9809 49.5268C19.1737 48.9812 20 47.7969 20 46.4237C20 44.5328 18.4331 43 16.5003 43C14.5675 43 13.0006 44.5328 13.0006 46.4237C13.0006 47.7964 13.8265 48.9805 15.0186 49.5263L13 56.0001H19.9994L17.9809 49.5268Z" fill="#AFB3B6"/>
<path fill-rule="evenodd" clip-rule="evenodd" d="M28.5 50C28.5 56.6274 23.1274 62 16.5 62C9.87258 62 4.5 56.6274 4.5 50C4.5 43.3726 9.87258 38 16.5 38C23.1274 38 28.5 43.3726 28.5 50ZM26.5 50C26.5 55.5228 22.0228 60 16.5 60C10.9772 60 6.5 55.5228 6.5 50C6.5 44.4771 10.9772 40 16.5 40C22.0228 40 26.5 44.4771 26.5 50Z" fill="#AFB3B6"/>
<path fill-rule="evenodd" clip-rule="evenodd" d="M41.9131 0.82401V5.30202L29.3408 6.58496L31.4241 27H18.5C16.2909 27 14.5 28.7909 14.5 31V34.1238C14.5 34.1238 14.5 34.1238 14.5 34.1238C6.60736 35.108 0.5 41.8408 0.5 50C0.5 58.8366 7.66344 66 16.5 66C16.9497 66 17.3951 65.9814 17.8355 65.9451C18.0516 65.9812 18.2736 66 18.5 66H89C92.3137 66 95 63.3137 95 60V33.12L84.88 23H64C63.8358 23 63.6732 23.0066 63.5123 23.0195L61.5003 3.30323L49.5457 4.52314V1.03899C49.4809 1.03883 49.4159 1.03629 49.3522 1.0338C49.2892 1.03133 49.2274 1.02892 49.1684 1.02892C49.0524 1.02892 48.9443 0.999093 48.8379 0.954088C48.7559 0.919375 48.6745 0.867097 48.5926 0.814477C48.4785 0.7412 48.3633 0.667258 48.244 0.639179C47.8702 0.551242 47.5769 0.670499 47.2603 0.832489C47.1914 0.867708 47.1351 0.911575 47.0774 0.956526C47.0518 0.976479 47.0258 0.996729 46.9984 1.01645C46.9115 1.07901 46.7857 1.08099 46.6787 1.08267C46.6643 1.0829 46.6503 1.08312 46.6367 1.08348C46.5979 1.08452 46.5499 1.08898 46.4973 1.09388C46.3273 1.10971 46.1087 1.13005 45.9944 1.05386C45.8777 0.976057 45.7787 0.937858 45.639 0.913555C45.4768 0.885353 45.3256 0.821847 45.1749 0.758579C45.0722 0.715434 44.9697 0.672385 44.8642 0.640737C44.6681 0.581921 44.5569 0.699692 44.4448 0.818452C44.3893 0.877298 44.3335 0.936386 44.2671 0.974354L44.2129 1.00546C43.9124 1.17845 43.7571 1.26783 43.4408 1.05698C43.0831 0.818475 42.6439 0.804428 42.2311 0.804428C42.1154 0.804428 42.0131 0.80864 41.9131 0.82401ZM59.5278 64C58.5777 62.9385 58 61.5367 58 60V42.181L41.5 53.0144L32.2018 46.9094C32.3975 47.9094 32.5 48.9427 32.5 50C32.5 56.0241 29.1708 61.2705 24.252 64H59.5278ZM31.3086 43.9305C31.3086 43.9305 31.3087 43.9305 31.3086 43.9305L41.5 50.6218L58 39.7885V36.1548L37.0402 38.2937C36.9279 38.3136 36.814 38.3296 36.6986 38.3414L36.6973 38.3287L36.6019 38.3384C34.4042 38.5627 32.4407 36.9629 32.2165 34.7652L31.6282 29H18.5C17.3954 29 16.5 29.8954 16.5 31V34C23.1882 34 28.9179 38.1037 31.3086 43.9305ZM63.7154 25.01L64.376 31.4834C64.6003 33.6811 63.0005 35.6446 60.8027 35.8688L60 35.9507V60C60 62.2091 61.7909 64 64 64H89C91.2091 64 93 62.2091 93 60V34.1348L92.8642 34H84V25.2007L83.7978 25H64C63.9043 25 63.8094 25.0034 63.7154 25.01ZM31.5335 8.37159L41.9131 7.31241V9.75604H49.5457V6.53353L59.7137 5.49594L62.3863 31.6865C62.4168 31.9845 62.3801 32.274 62.2885 32.5398L38.3138 28.6387L38.8109 33.5101C38.9474 34.8473 38.0416 36.0507 36.7515 36.3128L36.3988 36.3487C35.3 36.4609 34.3183 35.661 34.2061 34.5621L31.5335 8.37159ZM40.8006 33.3071C40.8976 34.2582 40.6971 35.1712 40.2743 35.9533L59.0431 34.038L40.5684 31.0319L40.8006 33.3071ZM86 27.1861L90.8494 32H86V27.1861ZM16.5 64C24.232 64 30.5 57.732 30.5 50C30.5 42.268 24.232 36 16.5 36C8.76801 36 2.5 42.268 2.5 50C2.5 57.732 8.76801 64 16.5 64Z" fill="#AFB3B6"/>
</svg>
