<svg width="110" height="65" viewBox="0 0 110 65" fill="none" xmlns="http://www.w3.org/2000/svg">
<path d="M26 23C26 20.2386 28.2386 18 31 18H78C80.7614 18 83 20.2386 83 23C83 25.7614 80.7614 28 78 28H31C28.2386 28 26 25.7614 26 23Z" fill="#AFB3B6" fill-opacity="0.2"/>
<path d="M26 38C26 35.2386 28.2386 33 31 33H78C80.7614 33 83 35.2386 83 38H106.458C107.398 38 108.298 38.3793 108.963 39.0544C109.627 39.7295 110 40.6452 110 41.6V61.4C110 62.3548 109.627 63.2705 108.963 63.9456C108.298 64.6207 107.398 65 106.458 65H79.5417C78.6024 65 77.7015 64.6207 77.0373 63.9456C76.3731 63.2705 76 62.3548 76 61.4V57H61C58.2386 57 56 54.7614 56 52C56 49.2386 58.2386 47 61 47H76V43H31C28.2386 43 26 40.7614 26 38Z" fill="#AFB3B6" fill-opacity="0.2"/>
<path fill-rule="evenodd" clip-rule="evenodd" d="M7.53609 46.6824C4.95432 43.6531 4.41639 39.2031 6.5158 35.5547C9.17877 30.927 15.0766 29.3414 19.689 32.0132C24.3014 34.6851 25.8818 40.6026 23.2188 45.2303C21.1194 48.8787 17.0094 50.6363 13.1038 49.9076L9.8158 55.6215L11.2111 56.4297C12.748 57.32 13.2748 59.286 12.3889 60.8254C11.4995 62.3712 9.52373 62.9006 7.98057 62.0066L6.60131 61.2077L6.20145 61.9026C5.31347 63.4457 3.341 63.9742 1.80041 63.0818C0.266079 62.193 -0.259824 60.2303 0.624552 58.6934L7.53609 46.6824ZM12.0835 38.7799C11.1958 40.3225 11.7226 42.295 13.26 43.1856C14.7975 44.0762 16.7635 43.5477 17.6511 42.0051C18.5388 40.4625 18.012 38.49 16.4745 37.5994C14.9371 36.7088 12.9711 37.2373 12.0835 38.7799Z" fill="#AFB3B6" fill-opacity="0.2"/>
<path fill-rule="evenodd" clip-rule="evenodd" d="M31 18C28.2386 18 26 20.2386 26 23C26 25.7614 28.2386 28 31 28H78C80.7614 28 83 25.7614 83 23C83 20.2386 80.7614 18 78 18H31ZM78 20H31C29.3431 20 28 21.3431 28 23C28 24.6569 29.3431 26 31 26H78C79.6569 26 81 24.6569 81 23C81 21.3431 79.6569 20 78 20Z" fill="#AFB3B6"/>
<path d="M94.3333 53.7598V56.6667H91.6667V53.7598C90.7771 53.4458 90.0273 52.8278 89.5498 52.0151C89.0724 51.2024 88.8981 50.2473 89.0576 49.3187C89.2172 48.3901 89.7004 47.5477 90.4218 46.9404C91.1432 46.3331 92.0564 46 93 46C93.9436 46 94.8568 46.3331 95.5782 46.9404C96.2996 47.5477 96.7828 48.3901 96.9424 49.3187C97.1019 50.2473 96.9276 51.2024 96.4502 52.0151C95.9727 52.8278 95.2229 53.4458 94.3333 53.7598Z" fill="#AFB3B6"/>
<path fill-rule="evenodd" clip-rule="evenodd" d="M12.2576 44.9162C9.76355 43.4715 8.91409 40.2777 10.35 37.7824C11.7881 35.2832 14.9791 34.4218 17.477 35.8688C19.971 37.3135 20.8205 40.5073 19.3846 43.0026C17.9465 45.5018 14.7555 46.3632 12.2576 44.9162ZM12.0835 38.7799C11.1958 40.3225 11.7226 42.295 13.26 43.1856C14.7975 44.0762 16.7635 43.5477 17.6511 42.0051C18.5388 40.4625 18.012 38.49 16.4745 37.5994C14.9371 36.7088 12.9711 37.2373 12.0835 38.7799Z" fill="#AFB3B6"/>
<path fill-rule="evenodd" clip-rule="evenodd" d="M91 22.1695V4C91 1.79086 89.2091 0 87 0H23C20.7909 0 19 1.79086 19 4V31.6499C14.5046 29.5046 9.04786 31.1545 6.5158 35.5547C4.41639 39.2031 4.95432 43.6531 7.53609 46.6824L0.624552 58.6934C-0.259824 60.2303 0.266079 62.193 1.80041 63.0818C3.30252 63.9519 5.2152 63.4712 6.1329 62.0163C6.15641 61.979 6.17927 61.9411 6.20145 61.9026L6.60131 61.2077L7.98057 62.0066C8.03375 62.0374 8.08744 62.0666 8.14157 62.094C9.6586 62.8629 11.5301 62.3179 12.3889 60.8254C13.2748 59.286 12.748 57.32 11.2111 56.4297L9.8158 55.6215L13.1038 49.9076C15.1159 50.283 17.1823 49.9985 19 49.1356V61C19 63.2091 20.7909 65 23 65H106.458C107.398 65 108.298 64.6207 108.963 63.9456C109.627 63.2705 110 62.3548 110 61.4V41.6C110 40.6452 109.627 39.7295 108.963 39.0544C108.298 38.3793 107.398 38 106.458 38H105V34.1219C105 30.9069 103.736 27.8237 101.485 25.5504C99.2348 23.2771 96.1826 22 93 22C92.3253 22 91.6565 22.0574 91 22.1695ZM89 11H21V32.9236C24.5788 35.8745 25.6111 41.0728 23.2188 45.2303C22.6239 46.2642 21.8675 47.1463 21 47.8629V61C21 62.1046 21.8954 63 23 63H76.369C76.1285 62.5073 76 61.9604 76 61.4V57H61C58.2386 57 56 54.7614 56 52C56 49.2386 58.2386 47 61 47H76V43H31C28.2386 43 26 40.7614 26 38C26 35.2386 28.2386 33 31 33H78C79.1259 33 80.1648 33.3721 81.0006 34.0001C81.0321 30.8292 82.2927 27.795 84.5147 25.5504C85.7923 24.2598 87.3284 23.2903 89 22.6933V11ZM89 24.845C87.8688 25.3447 86.8275 26.057 85.9361 26.9575C84.0584 28.8542 83 31.4309 83 34.1219V38H89V24.845ZM91 38H103V34.1219C103 31.4309 101.942 28.8542 100.064 26.9575C98.187 25.0614 95.6456 24 93 24C92.3234 24 91.6536 24.0694 91 24.2045V38ZM78 35H31C29.3431 35 28 36.3431 28 38C28 39.6569 29.3431 41 31 41H76.0495C76.1713 40.2678 76.5139 39.5864 77.0373 39.0544C77.7015 38.3793 78.6024 38 79.5417 38H81C81 36.3431 79.6569 35 78 35ZM76 49H61C59.3431 49 58 50.3431 58 52C58 53.6569 59.3431 55 61 55H76V49ZM79.5417 40C79.1434 40 78.7548 40.1605 78.4631 40.457C78.1702 40.7547 78 41.1652 78 41.6V61.4C78 61.8348 78.1702 62.2453 78.4631 62.543C78.7548 62.8395 79.1434 63 79.5417 63H106.458C106.857 63 107.245 62.8395 107.537 62.543C107.83 62.2453 108 61.8348 108 61.4V41.6C108 41.1652 107.83 40.7547 107.537 40.457C107.245 40.1605 106.857 40 106.458 40H79.5417ZM9.97269 46.4581L2.35804 59.6909C2.02345 60.2724 2.22242 61.0149 2.80291 61.3512C3.38576 61.6888 4.13201 61.4889 4.46796 60.9051L5.86821 58.4717L8.98307 60.276C9.56849 60.6152 10.318 60.4143 10.6554 59.8279C10.9915 59.2439 10.7917 58.4981 10.2086 58.1604L7.08768 56.3525L12.0772 47.6816L13.4706 47.9415C16.565 48.5189 19.8212 47.1247 21.4853 44.2328C23.6 40.5578 22.3424 35.8616 18.6865 33.7438C15.0346 31.6284 10.3618 32.8811 8.24929 36.5522C6.58424 39.4458 7.00809 42.9796 9.05826 45.3851L9.97269 46.4581Z" fill="#AFB3B6"/>
</svg>
