<svg width="110" height="81" viewBox="0 0 110 81" fill="none" xmlns="http://www.w3.org/2000/svg">
<path fill-rule="evenodd" clip-rule="evenodd" d="M42.9998 13.82C42.9034 7.11627 37.506 1.91636 31 2.00102C24.494 1.91636 19.0966 7.11627 19.0002 13.82L19 13.8324V13.8448C19 17.3049 20.8141 21.3311 22.9205 24.9019C25.0717 28.5487 27.7174 32.0288 29.7339 34.4767L30.9888 36L32.2567 34.488C32.7999 33.8402 33.3882 33.1166 34 32.334V66H7C5.89543 66 5 66.8954 5 68C5 69.1046 5.89543 70 7 70H34V81H73C69.6863 81 67 78.3137 67 75V52C67 48.6863 69.6863 46 73 46H76V24.4583C76 23.8063 75.7435 23.1811 75.2869 22.72C74.8303 22.259 74.211 22 73.5652 22H40.6863C42.0317 19.2542 43 16.4037 43 13.8448V13.8324L42.9998 13.82ZM31 18.9207C28.521 18.9207 26.4483 16.8019 26.4483 14.2678C26.4483 11.7338 28.521 9.61495 31 9.61495C33.479 9.61495 35.5517 11.7338 35.5517 14.2678C35.5517 16.8019 33.479 18.9207 31 18.9207Z" fill="#AFB3B6" fill-opacity="0.2"/>
<path d="M5 48C5 46.8954 5.89543 46 7 46H31C32.1046 46 33 46.8954 33 48C33 49.1046 32.1046 50 31 50H7C5.89543 50 5 49.1046 5 48Z" fill="#AFB3B6" fill-opacity="0.2"/>
<path d="M5 75C5 73.8954 5.89543 73 7 73H21C22.1046 73 23 73.8954 23 75C23 76.1046 22.1046 77 21 77H7C5.89543 77 5 76.1046 5 75Z" fill="#AFB3B6" fill-opacity="0.2"/>
<path d="M5 56C5 54.8954 5.89543 54 7 54V56H5Z" fill="#AFB3B6" fill-opacity="0.2"/>
<path d="M5 59V57H7V59H5Z" fill="#AFB3B6" fill-opacity="0.2"/>
<path d="M7 62C5.89543 62 5 61.1046 5 60H7V62Z" fill="#AFB3B6" fill-opacity="0.2"/>
<path d="M8 54V62H12V56H15C15 54.8954 14.1046 54 13 54H8Z" fill="#AFB3B6" fill-opacity="0.2"/>
<path d="M13 57V59H15V57H13Z" fill="#AFB3B6" fill-opacity="0.2"/>
<path d="M13 62V60H15C15 61.1046 14.1046 62 13 62Z" fill="#AFB3B6" fill-opacity="0.2"/>
<path d="M86 46H91C91.5523 46 92 46.4477 92 47C92 47.5523 91.5523 48 91 48H86C85.4477 48 85 47.5523 85 47C85 46.4477 85.4477 46 86 46Z" fill="#AFB3B6" fill-opacity="0.2"/>
<path fill-rule="evenodd" clip-rule="evenodd" d="M31 18.9207C28.521 18.9207 26.4483 16.8019 26.4483 14.2678C26.4483 11.7338 28.521 9.61496 31 9.61496C33.479 9.61496 35.5517 11.7338 35.5517 14.2678C35.5517 16.8019 33.479 18.9207 31 18.9207ZM31 16.9207C29.6668 16.9207 28.4483 15.739 28.4483 14.2678C28.4483 12.7967 29.6668 11.615 31 11.615C32.3332 11.615 33.5517 12.7967 33.5517 14.2678C33.5517 15.739 32.3332 16.9207 31 16.9207Z" fill="#AFB3B6"/>
<path d="M50 29C49.4477 29 49 29.4477 49 30C49 30.5523 49.4477 31 50 31H60C60.5523 31 61 30.5523 61 30C61 29.4477 60.5523 29 60 29H50Z" fill="#AFB3B6"/>
<path d="M47 33C46.4477 33 46 33.4477 46 34C46 34.5523 46.4477 35 47 35H63C63.5523 35 64 34.5523 64 34C64 33.4477 63.5523 33 63 33H47Z" fill="#AFB3B6"/>
<path d="M84 56H76C74.8954 56 74 56.8954 74 58V68C74 69.1046 74.8954 70 76 70H84C85.1046 70 86 69.1046 86 68V58C86 56.8954 85.1046 56 84 56Z" fill="#AFB3B6"/>
<path d="M91 59H103V61H91V59Z" fill="#AFB3B6"/>
<path d="M91 64H99V66H91V64Z" fill="#AFB3B6"/>
<path fill-rule="evenodd" clip-rule="evenodd" d="M30.869 39L28.1903 35.7484C26.1375 33.2565 23.4215 29.6877 21.1979 25.9181C19.0698 22.3105 17 17.8822 17 13.8448V13.818L17.0004 13.7912C17.1124 6.00321 23.3921 -0.0840829 31 0.000878589C38.6079 -0.0840829 44.8876 6.00321 44.9996 13.7912L45 13.818V13.8448C45 16.516 44.1128 19.3468 42.8998 22H73.5652C74.211 22 74.8303 22.259 75.2869 22.72C75.7435 23.1811 76 23.8063 76 24.4583V46H83.1707C83.5825 44.8348 84.6938 44 86 44H91C92.3062 44 93.4175 44.8348 93.8293 46H104C107.314 46 110 48.6863 110 52V75C110 78.3137 107.314 81 104 81H6C2.68629 81 0 78.3137 0 75V45C0 41.6863 2.68629 39 6 39H30.869ZM19.0002 13.82L19 13.8324V13.8448C19 17.3049 20.8141 21.3311 22.9205 24.9019C25.058 28.5255 27.6837 31.9845 29.6954 34.4299L30.9888 36L32.2959 34.4412C32.8282 33.8054 33.4029 33.0978 34 32.334V22H40.6863C42.0317 19.2542 43 16.4037 43 13.8448V13.8324L42.9998 13.82C42.9034 7.11627 37.506 1.91636 31 2.00102C24.494 1.91636 19.0966 7.11627 19.0002 13.82ZM34 39V35.5206C33.929 35.6059 33.8588 35.6901 33.7892 35.773L31.0834 39H34ZM34 66H7C5.89543 66 5 66.8954 5 68C5 69.1046 5.89543 70 7 70H34V66ZM68.5278 79C67.5777 77.9385 67 76.5367 67 75V55.0088C65.58 58.4068 62.7588 61.0734 59.2585 62.2865C58.4128 62.5795 57.5274 62.7879 56.6126 62.901C56.0842 62.9664 55.5461 63 55 63C54.4539 63 53.9157 62.9663 53.3873 62.901C52.4725 62.7878 51.5872 62.5796 50.7416 62.2866C48.3506 61.458 46.2764 59.951 44.7492 57.9961C44.3335 57.4638 43.9582 56.8985 43.6282 56.3045C42.5908 54.4372 42 52.2876 42 50C42 47.7124 42.5909 45.5629 43.6283 43.6956C43.9583 43.1016 44.3335 42.5362 44.7492 42.0039C47.1285 38.9581 50.8356 37 55 37C61.7649 37 67.323 42.1673 67.9426 48.7702C69.0087 47.1043 70.8754 46 73 46H74V24.4583C74 24.3306 73.9496 24.2119 73.8659 24.1274C73.7828 24.0436 73.6743 24 73.5652 24H36V79H68.5278ZM57.8354 60.6311C57.2418 60.789 56.6285 60.8985 56 60.9552V56.0171C57.1295 56.0557 58.2281 56.1592 59.2875 56.3209C58.9236 57.8752 58.4312 59.3223 57.8354 60.6311ZM54 56.0171V60.9552C53.3715 60.8985 52.7582 60.789 52.1646 60.6311C51.5688 59.3223 51.0764 57.8752 50.7125 56.3209C51.7719 56.1592 52.8705 56.0557 54 56.0171ZM59.6686 54.3561C58.4832 54.1719 57.2569 54.0562 56 54.016V51H59.983C59.9435 52.154 59.8363 53.2756 59.6686 54.3561ZM54 54.016V51H50.017C50.0565 52.1539 50.1637 53.2756 50.3314 54.3561C51.5168 54.1718 52.7431 54.0562 54 54.016ZM59.983 49H56V45.984C57.2569 45.9438 58.4832 45.8282 59.6686 45.6439C59.8363 46.7244 59.9435 47.8461 59.983 49ZM54 49V45.984C52.7431 45.9438 51.5168 45.8282 50.3314 45.6439C50.1637 46.7244 50.0565 47.8461 50.017 49H54ZM59.2874 43.6791C58.2281 43.8408 57.1295 43.9444 56 43.983V39.0448C56.6285 39.1015 57.2418 39.211 57.8353 39.3689C58.4311 40.6777 58.9235 42.1248 59.2874 43.6791ZM54 43.983V39.0448C53.3715 39.1015 52.7582 39.211 52.1647 39.3689C51.5689 40.6777 51.0764 42.1248 50.7126 43.6792C51.7719 43.8408 52.8705 43.9444 54 43.983ZM61.984 51C61.9431 52.2794 61.824 53.5272 61.634 54.7323C62.626 54.9589 63.5823 55.235 64.4958 55.5559C65.2929 54.1966 65.8064 52.6509 65.9552 51H61.984ZM65.9552 49H61.984C61.9431 47.7206 61.824 46.4729 61.6339 45.2678C62.626 45.0411 63.5823 44.765 64.4958 44.4441C65.2929 45.8034 65.8064 47.3491 65.9552 49ZM48.016 49C48.0569 47.7206 48.176 46.4729 48.3661 45.2678C47.374 45.0412 46.4176 44.7651 45.5041 44.4442C44.7071 45.8035 44.1936 47.3492 44.0448 49H48.016ZM44.0448 51C44.1936 52.6509 44.7071 54.1965 45.5041 55.5559C46.4176 55.2349 47.3739 54.9589 48.366 54.7322C48.176 53.5271 48.0569 52.2794 48.016 51H44.0448ZM61.2533 43.3031C61.9477 43.1426 62.6209 42.9564 63.27 42.7468C62.4581 41.8218 61.4935 41.0341 60.4155 40.4232C60.7418 41.3419 61.0226 42.3042 61.2533 43.3031ZM61.2533 56.6969C61.9477 56.8575 62.6209 57.0437 63.27 57.2533C62.4581 58.1782 61.4935 58.9659 60.4156 59.5767C60.7419 58.6581 61.0227 57.6958 61.2533 56.6969ZM46.7299 42.7468C47.3791 42.9564 48.0523 43.1426 48.7467 43.3032C48.9774 42.3043 49.2582 41.3419 49.5845 40.4232C48.5065 41.0341 47.5418 41.8218 46.7299 42.7468ZM49.5844 59.5767C48.5065 58.9658 47.5418 58.1782 46.7299 57.2532C47.3791 57.0436 48.0523 56.8574 48.7467 56.6968C48.9773 57.6957 49.2581 58.6581 49.5844 59.5767ZM86 46H91C91.5523 46 92 46.4477 92 47C92 47.5523 91.5523 48 91 48H86C85.4477 48 85 47.5523 85 47C85 46.4477 85.4477 46 86 46ZM83.1707 48H73C70.7909 48 69 49.7909 69 52V75C69 77.2091 70.7909 79 73 79H104C106.209 79 108 77.2091 108 75V52C108 49.7909 106.209 48 104 48H93.8293C93.4175 49.1652 92.3062 50 91 50H86C84.6938 50 83.5825 49.1652 83.1707 48ZM7 46C5.89543 46 5 46.8954 5 48C5 49.1046 5.89543 50 7 50H31C32.1046 50 33 49.1046 33 48C33 46.8954 32.1046 46 31 46H7ZM7 73C5.89543 73 5 73.8954 5 75C5 76.1046 5.89543 77 7 77H21C22.1046 77 23 76.1046 23 75C23 73.8954 22.1046 73 21 73H7ZM7 54C5.89543 54 5 54.8954 5 56H7V54ZM5 57V59H7V57H5ZM5 60C5 61.1046 5.89543 62 7 62V60H5ZM8 62V54H13C14.1046 54 15 54.8954 15 56H12V62H8ZM13 59V57H15V59H13ZM13 60V62C14.1046 62 15 61.1046 15 60H13Z" fill="#AFB3B6"/>
</svg>
