<svg width="48" height="48" viewBox="0 0 48 48" fill="none" xmlns="http://www.w3.org/2000/svg">
<path fill-rule="evenodd" clip-rule="evenodd" d="M37.52 12.983C37.005 12.75 36.488 12.543 35.975 12.359C36.552 12.195 37.134 12.009 37.712 11.787C42.055 10.122 45.892 6.95098 44.823 4.11598C44.515 3.29798 43.523 1.92698 40.356 1.92698C38.3327 1.98193 36.3352 2.39498 34.456 3.14698C32.5444 3.84297 30.7735 4.8771 29.228 6.19998V4.39998C29.228 3.24297 28.7684 2.13335 27.9503 1.31522C27.1321 0.497095 26.0225 0.0374756 24.8655 0.0374756C23.7085 0.0374756 22.5989 0.497095 21.7808 1.31522C20.9626 2.13335 20.503 3.24297 20.503 4.39998V13.311C19.6954 12.9365 18.7917 12.8212 17.916 12.9809C17.0402 13.1406 16.2354 13.5675 15.612 14.203C15.0936 13.6771 14.4494 13.2923 13.7406 13.085C13.0319 12.8778 12.2819 12.855 11.5618 13.0187C10.8417 13.1825 10.1754 13.5274 9.6259 14.0207C9.07644 14.5141 8.66205 15.1396 8.422 15.838C7.7852 15.4795 7.06678 15.2911 6.336 15.291C5.18749 15.2968 4.08819 15.7579 3.27925 16.5733C2.47032 17.3886 2.01781 18.4915 2.021 19.64V21.03H1.994V34.271C1.994 37.8824 3.42865 41.346 5.98233 43.8997C8.53601 46.4533 11.9996 47.888 15.611 47.888C19.2225 47.888 22.686 46.4533 25.2397 43.8997C27.7934 41.346 29.228 37.8824 29.228 34.271V18.523C30.5877 19.7077 32.117 20.6825 33.765 21.415C35.7699 22.3767 37.951 22.9162 40.173 23C42.902 23 43.85 21.786 44.173 21.062C44.516 20.297 44.782 18.689 42.735 16.52C41.2349 15.0231 39.4655 13.8231 37.52 12.983ZM29.82 9.49197C30.288 8.44098 32.22 6.75898 35.363 5.55698C36.9521 4.91346 38.6424 4.55563 40.356 4.49998C41.762 4.49998 42.372 4.86198 42.434 5.02598C42.62 5.51798 40.972 7.77597 36.805 9.37397C35.2156 10.0146 33.5258 10.37 31.813 10.424C30.406 10.424 29.796 10.062 29.733 9.89398C29.7183 9.75424 29.7484 9.61345 29.819 9.49197H29.82ZM26.673 12.91H23.059V11.171H26.672V12.91H26.673ZM24.867 2.57698C25.3482 2.57936 25.8088 2.77273 26.1474 3.11458C26.4861 3.45643 26.6751 3.91878 26.673 4.39998V8.59998H23.059V4.39998C23.0574 3.91859 23.2469 3.45625 23.5859 3.11446C23.9249 2.77267 24.3856 2.57936 24.867 2.57698ZM18.7 15.486C19.1802 15.4905 19.639 15.6848 19.9763 16.0266C20.3136 16.3684 20.5019 16.8298 20.5 17.31V20.71C19.6915 20.5632 18.8745 20.467 18.054 20.422C17.754 20.422 17.342 20.422 16.887 20.461V17.31C16.8861 17.0711 16.9323 16.8344 17.0229 16.6134C17.1136 16.3924 17.2469 16.1915 17.4153 16.022C17.5837 15.8526 17.7838 15.7181 18.0043 15.6261C18.2247 15.5341 18.4611 15.4865 18.7 15.486ZM10.721 17.31C10.7153 17.0692 10.7579 16.8297 10.8461 16.6055C10.9344 16.3814 11.0665 16.1772 11.2348 16.0048C11.4031 15.8325 11.6042 15.6956 11.8262 15.6021C12.0482 15.5086 12.2866 15.4605 12.5275 15.4605C12.7684 15.4605 13.0068 15.5086 13.2288 15.6021C13.4508 15.6956 13.6519 15.8325 13.8202 16.0048C13.9885 16.1772 14.1207 16.3814 14.2089 16.6055C14.2971 16.8297 14.3397 17.0692 14.334 17.31V21.21C13.7453 21.5989 13.2731 22.1402 12.9677 22.7763C12.6623 23.4124 12.5353 24.1194 12.6 24.822C12.5815 25.4294 12.7349 26.0296 13.0423 26.5538C13.3497 27.0779 13.7989 27.5047 14.338 27.785V30.071C14.3437 30.3118 14.3011 30.5513 14.2129 30.7754C14.1247 30.9996 13.9925 31.2038 13.8242 31.3761C13.6559 31.5484 13.4548 31.6853 13.2328 31.7788C13.0108 31.8723 12.7724 31.9205 12.5315 31.9205C12.2906 31.9205 12.0522 31.8723 11.8302 31.7788C11.6082 31.6853 11.4071 31.5484 11.2388 31.3761C11.0705 31.2038 10.9384 30.9996 10.8501 30.7754C10.7619 30.5513 10.7193 30.3118 10.725 30.071V17.31H10.721ZM4.577 19.64C4.57141 19.4056 4.61274 19.1726 4.69855 18.9545C4.78436 18.7363 4.91292 18.5376 5.07667 18.3699C5.24043 18.2022 5.43606 18.0689 5.65207 17.9779C5.86808 17.8869 6.10011 17.84 6.3345 17.84C6.5689 17.84 6.80092 17.8869 7.01693 17.9779C7.23294 18.0689 7.42858 18.2022 7.59233 18.3699C7.75608 18.5376 7.88465 18.7363 7.97046 18.9545C8.05627 19.1726 8.09759 19.4056 8.092 19.64V27.84C8.09759 28.0743 8.05627 28.3074 7.97046 28.5255C7.88465 28.7436 7.75608 28.9424 7.59233 29.1101C7.42858 29.2778 7.23294 29.4111 7.01693 29.502C6.80092 29.593 6.5689 29.6399 6.3345 29.6399C6.10011 29.6399 5.86808 29.593 5.65207 29.502C5.43606 29.4111 5.24043 29.2778 5.07667 29.1101C4.91292 28.9424 4.78436 28.7436 4.69855 28.5255C4.61274 28.3074 4.57141 28.0743 4.577 27.84V19.64ZM26.677 34.27C26.6967 35.735 26.4252 37.1894 25.8781 38.5487C25.3311 39.9079 24.5195 41.145 23.4904 42.188C22.4614 43.231 21.2354 44.0591 19.8836 44.6244C18.5318 45.1896 17.0812 45.4807 15.616 45.4807C14.1508 45.4807 12.7002 45.1896 11.3484 44.6244C9.99665 44.0591 8.77064 43.231 7.74158 42.188C6.71251 41.145 5.90091 39.9079 5.35388 38.5487C4.80685 37.1894 4.5353 35.735 4.555 34.27V31.8C5.17117 32.0859 5.84695 32.2198 6.52558 32.1904C7.20422 32.161 7.86588 31.9691 8.455 31.631C8.81155 32.5923 9.49587 33.3971 10.3874 33.9034C11.279 34.4098 12.3207 34.5854 13.329 34.3992C14.3373 34.213 15.2475 33.6771 15.8995 32.8857C16.5515 32.0943 16.9033 31.0983 16.893 30.073V28.713C17.093 28.761 17.288 28.807 17.476 28.85C18.3751 28.9701 19.2392 29.2766 20.013 29.75C20.846 30.591 20.813 33.606 20.524 35.378C20.4687 35.7139 20.5484 36.058 20.7459 36.3353C20.9434 36.6125 21.2425 36.8004 21.578 36.858C21.6468 36.8693 21.7163 36.8753 21.786 36.876C22.0901 36.8743 22.3836 36.7647 22.6144 36.5667C22.8452 36.3688 22.9981 36.0952 23.046 35.795C23.201 34.845 23.87 29.995 21.82 27.928C20.7314 27.0626 19.4265 26.512 18.047 26.336C16.009 25.866 15.156 25.55 15.156 24.82C15.156 23.339 15.699 22.998 18.009 22.996C18.097 22.996 26.677 23.483 26.677 28.196V34.269V34.27ZM26.677 23.162C25.6942 22.4181 24.5954 21.8414 23.425 21.455C23.305 21.413 23.183 21.374 23.063 21.336V15.486H26.676V23.163L26.677 23.162ZM41.84 20.007C41.6051 20.1864 41.3359 20.3159 41.049 20.3875C40.7622 20.459 40.4637 20.4711 40.172 20.423C38.3121 20.334 36.489 19.8722 34.811 19.065C30.745 17.222 29.231 14.872 29.446 14.392C29.68 14.2117 29.9486 14.0817 30.235 14.0099C30.5215 13.9382 30.8197 13.9263 31.111 13.975C32.9717 14.0633 34.7955 14.5251 36.474 15.333C38.1138 16.0415 39.6083 17.0475 40.882 18.3C41.756 19.223 41.907 19.858 41.84 20.007Z" fill="white" fill-opacity="0.87"/>
</svg>
