<svg width="48" height="48" viewBox="0 0 48 48" fill="none" xmlns="http://www.w3.org/2000/svg">
<path fill-rule="evenodd" clip-rule="evenodd" d="M37.5201 12.983C37.0051 12.75 36.4881 12.543 35.9751 12.359C36.5521 12.195 37.1341 12.009 37.7121 11.787C42.0551 10.122 45.8921 6.95098 44.8231 4.11598C44.5151 3.29798 43.5231 1.92698 40.3561 1.92698C38.3328 1.98193 36.3353 2.39498 34.4561 3.14698C32.5445 3.84297 30.7737 4.8771 29.2281 6.19998V4.39998C29.2281 3.24297 28.7685 2.13335 27.9504 1.31522C27.1323 0.497095 26.0226 0.0374756 24.8656 0.0374756C23.7086 0.0374756 22.599 0.497095 21.7809 1.31522C20.9628 2.13335 20.5031 3.24297 20.5031 4.39998V13.311C19.6956 12.9365 18.7918 12.8212 17.9161 12.9809C17.0404 13.1406 16.2355 13.5675 15.6121 14.203C15.0937 13.6771 14.4496 13.2923 13.7408 13.085C13.032 12.8778 12.282 12.855 11.5619 13.0187C10.8419 13.1825 10.1755 13.5274 9.62604 14.0207C9.07657 14.5141 8.66218 15.1396 8.42214 15.838C7.78533 15.4795 7.06692 15.2911 6.33614 15.291C5.18763 15.2968 4.08833 15.7579 3.27939 16.5733C2.47045 17.3886 2.01795 18.4915 2.02114 19.64V21.03H1.99414V34.271C1.99414 37.8824 3.42878 41.346 5.98247 43.8997C8.53615 46.4533 11.9997 47.888 15.6111 47.888C19.2226 47.888 22.6861 46.4533 25.2398 43.8997C27.7935 41.346 29.2281 37.8824 29.2281 34.271V18.523C30.5879 19.7077 32.1171 20.6825 33.7651 21.415C35.77 22.3767 37.9511 22.9162 40.1731 23C42.9021 23 43.8501 21.786 44.1731 21.062C44.5161 20.297 44.7821 18.689 42.7351 16.52C41.235 15.0231 39.4657 13.8231 37.5201 12.983ZM29.8201 9.49197C30.2881 8.44098 32.2201 6.75898 35.3631 5.55698C36.9523 4.91346 38.6426 4.55563 40.3561 4.49998C41.7621 4.49998 42.3721 4.86198 42.4341 5.02598C42.6201 5.51798 40.9721 7.77597 36.8051 9.37397C35.2158 10.0146 33.5259 10.37 31.8131 10.424C30.4061 10.424 29.7961 10.062 29.7331 9.89398C29.7184 9.75424 29.7485 9.61345 29.8191 9.49197H29.8201ZM26.6731 12.91H23.0591V11.171H26.6721V12.91H26.6731ZM24.8671 2.57698C25.3483 2.57936 25.8089 2.77273 26.1476 3.11458C26.4862 3.45643 26.6753 3.91878 26.6731 4.39998V8.59998H23.0591V4.39998C23.0575 3.91859 23.247 3.45625 23.586 3.11446C23.925 2.77267 24.3858 2.57936 24.8671 2.57698ZM18.7001 15.486C19.1803 15.4905 19.6392 15.6848 19.9764 16.0266C20.3137 16.3684 20.502 16.8298 20.5001 17.31V20.71C19.6916 20.5632 18.8747 20.467 18.0541 20.422C17.7541 20.422 17.3421 20.422 16.8871 20.461V17.31C16.8862 17.0711 16.9324 16.8344 17.0231 16.6134C17.1137 16.3924 17.247 16.1915 17.4154 16.022C17.5838 15.8526 17.784 15.7181 18.0044 15.6261C18.2249 15.5341 18.4613 15.4865 18.7001 15.486ZM10.7211 17.31C10.7155 17.0692 10.758 16.8297 10.8463 16.6055C10.9345 16.3814 11.0666 16.1772 11.235 16.0048C11.4033 15.8325 11.6043 15.6956 11.8263 15.6021C12.0483 15.5086 12.2868 15.4605 12.5276 15.4605C12.7685 15.4605 13.007 15.5086 13.229 15.6021C13.451 15.6956 13.652 15.8325 13.8203 16.0048C13.9886 16.1772 14.1208 16.3814 14.209 16.6055C14.2973 16.8297 14.3398 17.0692 14.3341 17.31V21.21C13.7454 21.5989 13.2732 22.1402 12.9678 22.7763C12.6625 23.4124 12.5354 24.1194 12.6001 24.822C12.5817 25.4294 12.735 26.0296 13.0424 26.5538C13.3499 27.0779 13.799 27.5047 14.3381 27.785V30.071C14.3438 30.3118 14.3013 30.5513 14.213 30.7754C14.1248 30.9996 13.9926 31.2038 13.8243 31.3761C13.656 31.5484 13.455 31.6853 13.233 31.7788C13.011 31.8723 12.7725 31.9205 12.5316 31.9205C12.2908 31.9205 12.0523 31.8723 11.8303 31.7788C11.6083 31.6853 11.4073 31.5484 11.239 31.3761C11.0706 31.2038 10.9385 30.9996 10.8503 30.7754C10.762 30.5513 10.7195 30.3118 10.7251 30.071V17.31H10.7211ZM4.57714 19.64C4.57155 19.4056 4.61288 19.1726 4.69869 18.9545C4.7845 18.7363 4.91306 18.5376 5.07681 18.3699C5.24056 18.2022 5.4362 18.0689 5.65221 17.9779C5.86822 17.8869 6.10025 17.84 6.33464 17.84C6.56903 17.84 6.80106 17.8869 7.01707 17.9779C7.23308 18.0689 7.42872 18.2022 7.59247 18.3699C7.75622 18.5376 7.88478 18.7363 7.97059 18.9545C8.05641 19.1726 8.09773 19.4056 8.09214 19.64V27.84C8.09773 28.0743 8.05641 28.3074 7.97059 28.5255C7.88478 28.7436 7.75622 28.9424 7.59247 29.1101C7.42872 29.2778 7.23308 29.4111 7.01707 29.502C6.80106 29.593 6.56903 29.6399 6.33464 29.6399C6.10025 29.6399 5.86822 29.593 5.65221 29.502C5.4362 29.4111 5.24056 29.2778 5.07681 29.1101C4.91306 28.9424 4.7845 28.7436 4.69869 28.5255C4.61288 28.3074 4.57155 28.0743 4.57714 27.84V19.64ZM26.6771 34.27C26.6968 35.735 26.4253 37.1894 25.8783 38.5487C25.3312 39.9079 24.5196 41.145 23.4906 42.188C22.4615 43.231 21.2355 44.0591 19.8837 44.6244C18.5319 45.1896 17.0813 45.4807 15.6161 45.4807C14.1509 45.4807 12.7003 45.1896 11.3486 44.6244C9.99679 44.0591 8.77078 43.231 7.74171 42.188C6.71265 41.145 5.90104 39.9079 5.35401 38.5487C4.80699 37.1894 4.53544 35.735 4.55514 34.27V31.8C5.1713 32.0859 5.84709 32.2198 6.52572 32.1904C7.20435 32.161 7.86602 31.9691 8.45514 31.631C8.81169 32.5923 9.496 33.3971 10.3876 33.9034C11.2792 34.4098 12.3208 34.5854 13.3291 34.3992C14.3374 34.213 15.2477 33.6771 15.8996 32.8857C16.5516 32.0943 16.9034 31.0983 16.8931 30.073V28.713C17.0931 28.761 17.2881 28.807 17.4761 28.85C18.3752 28.9701 19.2393 29.2766 20.0131 29.75C20.8461 30.591 20.8131 33.606 20.5241 35.378C20.4688 35.7139 20.5486 36.058 20.746 36.3353C20.9435 36.6125 21.2426 36.8004 21.5781 36.858C21.6469 36.8693 21.7164 36.8753 21.7861 36.876C22.0902 36.8743 22.3838 36.7647 22.6145 36.5667C22.8453 36.3688 22.9983 36.0952 23.0461 35.795C23.2011 34.845 23.8701 29.995 21.8201 27.928C20.7315 27.0626 19.4266 26.512 18.0471 26.336C16.0091 25.866 15.1561 25.55 15.1561 24.82C15.1561 23.339 15.6991 22.998 18.0091 22.996C18.0971 22.996 26.6771 23.483 26.6771 28.196V34.269V34.27ZM26.6771 23.162C25.6943 22.4181 24.5956 21.8414 23.4251 21.455C23.3051 21.413 23.1831 21.374 23.0631 21.336V15.486H26.6761V23.163L26.6771 23.162ZM41.8401 20.007C41.6052 20.1864 41.336 20.3159 41.0492 20.3875C40.7623 20.459 40.4638 20.4711 40.1721 20.423C38.3122 20.334 36.4891 19.8722 34.8111 19.065C30.7451 17.222 29.2311 14.872 29.4461 14.392C29.6801 14.2117 29.9487 14.0817 30.2352 14.0099C30.5217 13.9382 30.8199 13.9263 31.1111 13.975C32.9718 14.0633 34.7957 14.5251 36.4741 15.333C38.114 16.0415 39.6085 17.0475 40.8821 18.3C41.7561 19.223 41.9071 19.858 41.8401 20.007Z" fill="black"/>
</svg>
