<svg width="20" height="20" viewBox="0 0 20 20" fill="none" xmlns="http://www.w3.org/2000/svg">
<mask id="path-1-inside-1" fill="white">
<path fill-rule="evenodd" clip-rule="evenodd" d="M16.9414 10C16.9414 10.306 16.9136 10.594 16.8766 10.882L18.8289 12.367C19.0047 12.502 19.051 12.745 18.9399 12.943L17.0894 16.057C17.0062 16.201 16.8489 16.282 16.6916 16.282C16.6361 16.282 16.5806 16.273 16.525 16.255L14.2212 15.355C13.74 15.706 13.2219 16.012 12.6575 16.237L12.3059 18.622C12.2782 18.838 12.0839 19 11.8525 19H8.15155C7.92024 19 7.72593 18.838 7.69818 18.622L7.34658 16.237C6.78218 16.012 6.26404 15.715 5.78291 15.355L3.47905 16.255C3.43278 16.273 3.37727 16.282 3.32175 16.282C3.15521 16.282 2.99792 16.201 2.91464 16.057L1.06415 12.943C0.953119 12.745 0.999382 12.502 1.17518 12.367L3.12745 10.882C3.09044 10.594 3.06268 10.297 3.06268 10C3.06268 9.703 3.09044 9.406 3.12745 9.118L1.17518 7.633C0.999382 7.498 0.943867 7.255 1.06415 7.057L2.91464 3.943C2.99792 3.799 3.15521 3.718 3.3125 3.718C3.36802 3.718 3.42353 3.727 3.47905 3.745L5.78291 4.645C6.26404 4.294 6.78218 3.988 7.34658 3.763L7.69818 1.378C7.72593 1.162 7.92024 1 8.15155 1H11.8525C12.0839 1 12.2782 1.162 12.3059 1.378L12.6575 3.763C13.2219 3.988 13.74 4.285 14.2212 4.645L16.525 3.745C16.5713 3.727 16.6268 3.718 16.6823 3.718C16.8489 3.718 17.0062 3.799 17.0894 3.943L18.9399 7.057C19.051 7.255 19.0047 7.498 18.8289 7.633L16.8766 9.118C16.9136 9.406 16.9414 9.694 16.9414 10ZM10 11C10.5523 11 11 10.5523 11 10C11 9.44771 10.5523 9 10 9C9.44771 9 9 9.44771 9 10C9 10.5523 9.44771 11 10 11Z"/>
</mask>
<path d="M16.8766 10.882L14.8929 10.6271L14.7456 11.7739L15.6658 12.4738L16.8766 10.882ZM18.8289 12.367L20.0471 10.7807L20.0397 10.7752L18.8289 12.367ZM18.9399 12.943L20.6593 13.9647L20.6721 13.9431L20.6844 13.9212L18.9399 12.943ZM17.0894 16.057L15.3701 15.0353L15.364 15.0455L15.3581 15.0558L17.0894 16.057ZM16.525 16.255L15.7973 18.1179L15.8522 18.1393L15.9082 18.1575L16.525 16.255ZM14.2212 15.355L14.9489 13.4921L13.9279 13.0933L13.0424 13.7393L14.2212 15.355ZM12.6575 16.237L11.9169 14.3792L10.8469 14.8057L10.6789 15.9453L12.6575 16.237ZM12.3059 18.622L10.3273 18.3303L10.3246 18.3487L10.3222 18.3671L12.3059 18.622ZM7.69818 18.622L9.68186 18.3671L9.6795 18.3487L9.67679 18.3303L7.69818 18.622ZM7.34658 16.237L9.3252 15.9453L9.1572 14.8057L8.08721 14.3792L7.34658 16.237ZM5.78291 15.355L6.98111 13.7536L6.09085 13.0875L5.05518 13.4921L5.78291 15.355ZM3.47905 16.255L4.20425 18.1189L4.20678 18.1179L3.47905 16.255ZM2.91464 16.057L4.646 15.0558L4.64005 15.0455L4.63398 15.0353L2.91464 16.057ZM1.06415 12.943L-0.6803 13.9212L-0.668015 13.9431L-0.655183 13.9647L1.06415 12.943ZM1.17518 12.367L-0.0356584 10.7752L-0.0429481 10.7808L1.17518 12.367ZM3.12745 10.882L4.33828 12.4738L5.25851 11.7738L5.11114 10.6271L3.12745 10.882ZM3.12745 9.118L5.11114 9.37292L5.25851 8.22615L4.33828 7.52618L3.12745 9.118ZM1.17518 7.633L-0.042961 9.21926L-0.0356454 9.22482L1.17518 7.633ZM1.06415 7.057L2.77346 8.09538L2.77851 8.08707L2.78348 8.07871L1.06415 7.057ZM2.91464 3.943L4.63398 4.96471L4.64005 4.9545L4.646 4.94421L2.91464 3.943ZM3.47905 3.745L4.20678 1.8821L4.15193 1.86067L4.0959 1.84251L3.47905 3.745ZM5.78291 4.645L5.05518 6.5079L6.07614 6.90674L6.96165 6.26073L5.78291 4.645ZM7.34658 3.763L8.0872 5.62082L9.1572 5.19426L9.3252 4.05469L7.34658 3.763ZM7.69818 1.378L9.67679 1.66969L9.6795 1.65133L9.68186 1.63292L7.69818 1.378ZM12.3059 1.378L10.3222 1.63292L10.3246 1.65133L10.3273 1.66969L12.3059 1.378ZM12.6575 3.763L10.6789 4.05469L10.8469 5.19426L11.9169 5.62082L12.6575 3.763ZM14.2212 4.645L13.023 6.24635L13.9132 6.91248L14.9489 6.5079L14.2212 4.645ZM16.525 3.745L15.7998 1.88111L15.7973 1.8821L16.525 3.745ZM17.0894 3.943L15.3581 4.9442L15.364 4.95449L15.3701 4.96471L17.0894 3.943ZM18.9399 7.057L20.6844 6.0788L20.6721 6.05688L20.6593 6.03529L18.9399 7.057ZM18.8289 7.633L20.0397 9.22484L20.047 9.21924L18.8289 7.633ZM16.8766 9.118L15.6658 7.52618L14.7456 8.22615L14.8929 9.37291L16.8766 9.118ZM18.8603 11.1369C18.9025 10.8088 18.9414 10.4266 18.9414 10H14.9414C14.9414 10.1854 14.9248 10.3792 14.8929 10.6271L18.8603 11.1369ZM20.0397 10.7752L18.0875 9.29017L15.6658 12.4738L17.6181 13.9588L20.0397 10.7752ZM20.6844 13.9212C21.2595 12.8957 21.0463 11.5481 20.047 10.7808L17.6108 13.9532C16.9631 13.4559 16.8425 12.5943 17.1955 11.9648L20.6844 13.9212ZM18.8088 17.0787L20.6593 13.9647L17.2206 11.9213L15.3701 15.0353L18.8088 17.0787ZM16.6916 18.282C17.5019 18.282 18.3506 17.8714 18.8208 17.0582L15.3581 15.0558C15.6618 14.5306 16.1958 14.282 16.6916 14.282V18.282ZM15.9082 18.1575C16.1527 18.2368 16.4161 18.282 16.6916 18.282V14.282C16.8561 14.282 17.0084 14.3092 17.1419 14.3525L15.9082 18.1575ZM13.4934 17.2179L15.7973 18.1179L17.2528 14.3921L14.9489 13.4921L13.4934 17.2179ZM13.3981 18.0948C14.1506 17.7948 14.815 17.3975 15.3999 16.9707L13.0424 13.7393C12.6651 14.0145 12.2932 14.2292 11.9169 14.3792L13.3981 18.0948ZM14.2845 18.9137L14.6361 16.5287L10.6789 15.9453L10.3273 18.3303L14.2845 18.9137ZM11.8525 21C12.9943 21 14.1218 20.1827 14.2896 18.8769L10.3222 18.3671C10.4345 17.4933 11.1734 17 11.8525 17V21ZM8.15155 21H11.8525V17H8.15155V21ZM5.71449 18.8769C5.88229 20.1827 7.00977 21 8.15155 21V17C8.8307 17 9.56958 17.4933 9.68186 18.3671L5.71449 18.8769ZM5.36797 16.5287L5.71956 18.9137L9.67679 18.3303L9.3252 15.9453L5.36797 16.5287ZM4.58472 16.9564C5.19673 17.4143 5.86753 17.8004 6.60596 18.0948L8.08721 14.3792C7.69683 14.2236 7.33135 14.0157 6.98111 13.7536L4.58472 16.9564ZM4.20678 18.1179L6.51065 17.2179L5.05518 13.4921L2.75131 14.3921L4.20678 18.1179ZM3.32175 18.282C3.57432 18.282 3.88357 18.2437 4.20425 18.1189L2.75385 14.3911C2.982 14.3023 3.18021 14.282 3.32175 14.282V18.282ZM1.18329 17.0582C1.66382 17.8892 2.52443 18.282 3.32175 18.282V14.282C3.78599 14.282 4.33201 14.5128 4.646 15.0558L1.18329 17.0582ZM-0.655183 13.9647L1.19531 17.0787L4.63398 15.0353L2.78348 11.9213L-0.655183 13.9647ZM-0.0429481 10.7808C-1.0422 11.5481 -1.25539 12.8957 -0.6803 13.9212L2.8086 11.9648C3.16162 12.5943 3.04096 13.4559 2.39331 13.9532L-0.0429481 10.7808ZM1.91663 9.29017L-0.0356456 10.7752L2.386 13.9588L4.33828 12.4738L1.91663 9.29017ZM1.06268 10C1.06268 10.4164 1.10135 10.8069 1.14376 11.1369L5.11114 10.6271C5.07953 10.3811 5.06268 10.1776 5.06268 10H1.06268ZM1.14376 8.86308C1.10135 9.19312 1.06268 9.58359 1.06268 10H5.06268C5.06268 9.82241 5.07953 9.61888 5.11114 9.37292L1.14376 8.86308ZM-0.0356454 9.22482L1.91663 10.7098L4.33828 7.52618L2.386 6.04118L-0.0356454 9.22482ZM-0.645166 6.01861C-1.324 7.13606 -0.983309 8.49711 -0.0429481 9.21924L2.39331 6.04676C2.98207 6.49889 3.21173 7.37394 2.77346 8.09538L-0.645166 6.01861ZM1.19531 2.92129L-0.655183 6.03529L2.78348 8.07871L4.63398 4.96471L1.19531 2.92129ZM3.3125 1.718C2.50216 1.718 1.65353 2.12863 1.18329 2.94179L4.646 4.94421C4.34231 5.46937 3.80825 5.718 3.3125 5.718V1.718ZM4.0959 1.84251C3.85142 1.76324 3.58801 1.718 3.3125 1.718V5.718C3.14802 5.718 2.99564 5.69077 2.86219 5.6475L4.0959 1.84251ZM6.51065 2.7821L4.20678 1.8821L2.75131 5.6079L5.05518 6.5079L6.51065 2.7821ZM6.60596 1.90518C5.85349 2.20516 5.18914 2.60252 4.60418 3.02927L6.96165 6.26073C7.33895 5.98548 7.71087 5.77084 8.0872 5.62082L6.60596 1.90518ZM5.71956 1.08631L5.36797 3.47131L9.3252 4.05469L9.67679 1.66969L5.71956 1.08631ZM8.15155 -1C7.00978 -1 5.88229 -0.182694 5.71449 1.12308L9.68186 1.63292C9.56958 2.50669 8.8307 3 8.15155 3V-1ZM11.8525 -1H8.15155V3H11.8525V-1ZM14.2896 1.12308C14.1218 -0.182696 12.9943 -1 11.8525 -1V3C11.1734 3 10.4345 2.5067 10.3222 1.63292L14.2896 1.12308ZM14.6361 3.47131L14.2845 1.08631L10.3273 1.66969L10.6789 4.05469L14.6361 3.47131ZM15.4194 3.04365C14.8074 2.58572 14.1366 2.19956 13.3981 1.90519L11.9169 5.62082C12.3073 5.77644 12.6727 5.98428 13.023 6.24635L15.4194 3.04365ZM15.7973 1.8821L13.4934 2.7821L14.9489 6.5079L17.2528 5.6079L15.7973 1.8821ZM16.6823 1.718C16.4297 1.718 16.1205 1.75635 15.7998 1.88111L17.2502 5.60889C17.0221 5.69765 16.8239 5.718 16.6823 5.718V1.718ZM18.8208 2.9418C18.3403 2.11082 17.4796 1.718 16.6823 1.718V5.718C16.2181 5.718 15.6721 5.48718 15.3581 4.9442L18.8208 2.9418ZM20.6593 6.03529L18.8088 2.92129L15.3701 4.96471L17.2206 8.07871L20.6593 6.03529ZM20.047 9.21924C21.0463 8.45187 21.2595 7.10433 20.6844 6.0788L17.1955 8.0352C16.8425 7.40567 16.9631 6.54413 17.6108 6.04676L20.047 9.21924ZM18.0875 10.7098L20.0397 9.22482L17.6181 6.04118L15.6658 7.52618L18.0875 10.7098ZM18.9414 10C18.9414 9.57336 18.9025 9.19116 18.8603 8.86309L14.8929 9.37291C14.9248 9.62084 14.9414 9.81464 14.9414 10H18.9414ZM9 10C9 9.44772 9.44772 9 10 9V13C11.6569 13 13 11.6569 13 10H9ZM10 11C9.44772 11 9 10.5523 9 10H13C13 8.34315 11.6569 7 10 7V11ZM11 10C11 10.5523 10.5523 11 10 11V7C8.34315 7 7 8.34315 7 10H11ZM10 9C10.5523 9 11 9.44772 11 10H7C7 11.6569 8.34315 13 10 13V9Z" fill="white" fill-opacity="0.54" mask="url(#path-1-inside-1)"/>
</svg>
