<svg width="20" height="20" viewBox="0 0 20 20" fill="none" xmlns="http://www.w3.org/2000/svg">
<path fill-rule="evenodd" clip-rule="evenodd" d="M12.99 1H5C4.47005 1.00158 3.96225 1.21279 3.58752 1.58752C3.21279 1.96225 3.00158 2.47005 3 3V13H5V3H12.99V1ZM15.99 5H9C8.47005 5.00158 7.96225 5.21279 7.58752 5.58752C7.21279 5.96225 7.00158 6.47005 7 7V17C7.00158 17.5299 7.21279 18.0377 7.58752 18.4125C7.96225 18.7872 8.47005 18.9984 9 19H15.99C16.5199 18.9984 17.0277 18.7872 17.4025 18.4125C17.7772 18.0377 17.9884 17.5299 17.99 17V7C17.9884 6.47005 17.7772 5.96225 17.4025 5.58752C17.0277 5.21279 16.5199 5.00158 15.99 5ZM15.99 17H9V7H15.99V17Z" fill="black" fill-opacity="0.54"/>
</svg>
