<svg width="32" height="32" viewBox="0 0 32 32" fill="none" xmlns="http://www.w3.org/2000/svg">
<path fill-rule="evenodd" clip-rule="evenodd" d="M24.375 0C29 0 32 3 32 7.625V24.375C32 29 29 32 24.375 32H7.625C3 32 0 29 0 24.375V7.625C0 3 3 0 7.625 0H24.375Z" fill="url(#paint0_radial)"/>
<rect x="9" y="10" width="12" height="8" fill="white"/>
<path d="M13 16H11V11.9812H13V16Z" fill="#347E2E"/>
<path d="M16 16H14V12H16V16Z" fill="#347E2E"/>
<path d="M19 16H17V11.9812H19V16Z" fill="#347E2E"/>
<path fill-rule="evenodd" clip-rule="evenodd" d="M25 13.7324C24.4022 13.3866 24 12.7403 24 12C24 10.8954 24.8954 10 26 10C27.1046 10 28 10.8954 28 12C28 12.7403 27.5978 13.3866 27 13.7324V20C27 21.1046 26.1046 22 25 22H23V28H7.00001C7.00001 22.147 7 12.0117 7 6.99319C7 5.33633 8.34315 4 10 4H20C21.6569 4 23 5.34315 23 7V20H25V13.7324ZM21 10H9.00001V18H21V10Z" fill="#347E2E"/>
<rect x="9" y="20" width="12" height="6" fill="#83D17D"/>
<path d="M9 7C9 6.44772 9.44772 6 10 6H20C20.5523 6 21 6.44772 21 7V8H9V7Z" fill="#83D17D"/>
<defs>
<radialGradient id="paint0_radial" cx="0" cy="0" r="1" gradientUnits="userSpaceOnUse" gradientTransform="translate(16.0982) rotate(90) scale(32)">
<stop offset="0.41989" stop-color="#6EC468"/>
<stop offset="1" stop-color="#27AE60"/>
</radialGradient>
</defs>
</svg>
