<svg width="32" height="32" viewBox="0 0 32 32" fill="none" xmlns="http://www.w3.org/2000/svg">
<path d="M6.6665 5.33325C4.45736 5.33325 2.6665 7.1241 2.6665 9.33325V23.9999C2.6665 26.2091 4.45736 27.9999 6.6665 27.9999H25.3332C27.5423 27.9999 29.3332 26.2091 29.3332 23.9999V11.9999C29.3332 9.79077 27.5423 7.99992 25.3332 7.99992H15.9998L13.3332 5.33325H6.6665Z" fill="#7E8C99" fill-opacity="0.24"/>
<rect x="4" y="14.6667" width="24" height="12" fill="white"/>
<path fill-rule="evenodd" clip-rule="evenodd" d="M14.8953 10.6666L12.2286 7.99992H6.6665C5.93012 7.99992 5.33317 8.59686 5.33317 9.33325V23.9999C5.33317 24.7363 5.93012 25.3333 6.6665 25.3333H25.3332C26.0696 25.3333 26.6665 24.7363 26.6665 23.9999V11.9999C26.6665 11.2635 26.0696 10.6666 25.3332 10.6666H14.8953ZM13.3332 5.33325L15.9998 7.99992H25.3332C27.5423 7.99992 29.3332 9.79077 29.3332 11.9999V23.9999C29.3332 26.2091 27.5423 27.9999 25.3332 27.9999H6.6665C4.45736 27.9999 2.6665 26.2091 2.6665 23.9999V9.33325C2.6665 7.1241 4.45736 5.33325 6.6665 5.33325H13.3332Z" fill="#7E8C99"/>
<path d="M25.3332 14.9999H6.6665C5.37784 14.9999 4.33317 16.0446 4.33317 17.3333V23.9999C4.33317 25.2886 5.37784 26.3333 6.6665 26.3333H25.3332C26.6218 26.3333 27.6665 25.2886 27.6665 23.9999V17.3333C27.6665 16.0446 26.6218 14.9999 25.3332 14.9999ZM3.6665 17.3333C3.6665 15.6764 5.00965 14.3333 6.6665 14.3333H25.3332C26.99 14.3333 28.3332 15.6764 28.3332 17.3333V23.9999C28.3332 25.6568 26.99 26.9999 25.3332 26.9999H6.6665C5.00965 26.9999 3.6665 25.6568 3.6665 23.9999V17.3333Z" fill="#FEEAA9" stroke="#7E8C99" stroke-width="2"/>
</svg>
