<svg width="20" height="20" viewBox="0 0 20 20" fill="none" xmlns="http://www.w3.org/2000/svg">
<path fill-rule="evenodd" clip-rule="evenodd" d="M1 5C1 3.34314 2.34314 2 4 2H8L10 4H16C17.6569 4 19 5.34314 19 7V15C19 16.6569 17.6569 18 16 18H4C2.34314 18 1 16.6569 1 15V5Z" fill="#DCE0E3"/>
<rect x="2" y="9" width="16" height="8" fill="white"/>
<path fill-rule="evenodd" clip-rule="evenodd" d="M1 5C1 3.34314 2.34314 2 4 2H8L10 4H16C17.6569 4 19 5.34314 19 7V15C19 16.6569 17.6569 18 16 18H4C2.34314 18 1 16.6569 1 15V5ZM7.17157 4L9.17157 6H16C16.5523 6 17 6.44771 17 7V8.17071C16.6872 8.06015 16.3506 8 16 8H4C3.64936 8 3.31278 8.06015 3 8.17071V5C3 4.44771 3.44771 4 4 4H7.17157ZM3 11V15C3 15.5178 3.39349 15.9436 3.89775 15.9948C3.93137 15.9983 3.96548 16 4 16H16C16.5523 16 17 15.5523 17 15V11C17 10.4477 16.5523 10 16 10H4C3.44772 10 3 10.4477 3 11Z" fill="#7E8C99"/>
</svg>
