<svg width="20" height="20" viewBox="0 0 20 20" fill="none" xmlns="http://www.w3.org/2000/svg">
<path d="M2.00885 6V5.95235L2.00432 5.90492C1.96199 5.46175 2.24944 4.95664 2.82541 4.75472L14.6241 3H14.7369H14.737C14.7484 3 14.7891 3 14.8504 3.07632C14.9166 3.15878 14.9977 3.32933 14.9977 3.6V13V13.0239L14.9988 13.0477C15.0212 13.5159 14.7178 14.0009 14.1723 14.2024L2.33418 16H2.26959H2.26948C2.25808 16 2.21745 16 2.15613 15.9237C2.08988 15.8412 2.00885 15.6707 2.00885 15.4V6Z" fill="#9C7147" stroke="#9C7147" stroke-width="2"/>
<rect x="2" y="5" width="16" height="12" rx="1" fill="#C69F79" stroke="#9C7147" stroke-width="2"/>
<circle cx="13" cy="11" r="2" fill="#9C7147"/>
</svg>
