<svg width="20" height="20" viewBox="0 0 20 20" fill="none" xmlns="http://www.w3.org/2000/svg">
<path d="M9.34634 14.6207L10 15.1853L10.6537 14.6207L13.5798 12.0933C14.9745 12.4705 16.2814 13.1575 17.3847 14.1503L17.4404 14.2144L17.5352 14.3232L17.5544 14.3453L17.575 14.3663C17.7872 14.5831 17.9593 14.9745 18 15.4475V18H2V15.4626C2 15.1094 2.15316 14.7288 2.43773 14.3543L2.60979 14.1566C3.76325 13.1528 5.0419 12.4686 6.42047 12.0936L9.34634 14.6207Z" fill="#448AFF" stroke="#2962FF" stroke-width="2"/>
<path d="M10 10C7.75662 10 6 8.02422 6 6C6 3.98319 7.80503 2 10 2C12.195 2 14 3.98319 14 6C14 7.97998 12.2371 10 10 10Z" fill="white" stroke="#7E8C99" stroke-width="2"/>
</svg>
