<svg width="16" height="16" viewBox="0 0 16 16" fill="none" xmlns="http://www.w3.org/2000/svg">
<path fill-rule="evenodd" clip-rule="evenodd" d="M1 3H15V14H1V3ZM7 2H9V3H7V2Z" fill="white"/>
<path d="M7 6H3V11H7V6Z" fill="#2979FF"/>
<path fill-rule="evenodd" clip-rule="evenodd" d="M14 15H2C1.46957 15 0.960859 14.7893 0.585786 14.4142C0.210714 14.0391 0 13.5304 0 13V4C0 3.46957 0.210714 2.96086 0.585786 2.58579C0.960859 2.21071 1.46957 2 2 2H6.087C6.17485 1.71201 6.35245 1.45965 6.59388 1.27975C6.83531 1.09984 7.12792 1.00183 7.429 1H8.571C8.87208 1.00183 9.16469 1.09984 9.40612 1.27975C9.64755 1.45965 9.82515 1.71201 9.913 2H14C14.5304 2 15.0391 2.21071 15.4142 2.58579C15.7893 2.96086 16 3.46957 16 4V13C16 13.5304 15.7893 14.0391 15.4142 14.4142C15.0391 14.7893 14.5304 15 14 15ZM9 2H7V3H9V2ZM15 4C15 3.73478 14.8946 3.48043 14.7071 3.29289C14.5196 3.10536 14.2652 3 14 3H9.913C9.82515 3.28799 9.64755 3.54035 9.40612 3.72025C9.16469 3.90015 8.87208 3.99817 8.571 4H7.429C7.12792 3.99817 6.83531 3.90015 6.59388 3.72025C6.35245 3.54035 6.17485 3.28799 6.087 3H2C1.73478 3 1.48043 3.10536 1.29289 3.29289C1.10536 3.48043 1 3.73478 1 4V13C1 13.2652 1.10536 13.5196 1.29289 13.7071C1.48043 13.8946 1.73478 14 2 14H14C14.2652 14 14.5196 13.8946 14.7071 13.7071C14.8946 13.5196 15 13.2652 15 13V4ZM9.017 7H12.986V8.005H9.017V7ZM11.986 10.005H9.017V9H11.986V10.005Z" fill="#7E8C99"/>
<path d="M9 2H7V3H9V2Z" fill="#EEEEEE"/>
</svg>
