<svg width="20" height="20" viewBox="0 0 20 20" fill="none" xmlns="http://www.w3.org/2000/svg">
<path fill-rule="evenodd" clip-rule="evenodd" d="M14.8816 12.9497C17.4318 9.5 17.6153 5.78392 14.8816 3.05025C12.1479 0.316583 7.71577 0.316582 4.9821 3.05025C2.24843 5.78392 2.43176 9.5 4.9821 12.9497C7.53243 16.3995 9.93176 19 9.93176 19C9.93176 19 12.3314 16.3995 14.8816 12.9497ZM9.93188 9C10.4842 9 10.9319 8.55228 10.9319 8C10.9319 7.44772 10.4842 7 9.93188 7C9.3796 7 8.93188 7.44772 8.93188 8C8.93188 8.55228 9.3796 9 9.93188 9Z" fill="#92D08D"/>
<path fill-rule="evenodd" clip-rule="evenodd" d="M14.8632 7.70452C14.8786 6.5663 14.4698 5.46693 13.4674 4.46447C11.5148 2.51184 8.34893 2.51184 6.39631 4.46447C5.39383 5.46695 4.98509 6.56633 5.00041 7.70454C5.01634 8.88691 5.49665 10.2814 6.59033 11.7608C7.82913 13.4365 9.0343 14.9102 9.93183 15.9669C10.8294 14.9102 12.0346 13.4365 13.2733 11.7609C14.367 10.2814 14.8473 8.88691 14.8632 7.70452ZM11.2617 17.4899C12.1955 16.3986 13.517 14.7957 14.8816 12.9497C17.4318 9.5 17.6153 5.78392 14.8816 3.05025C12.1479 0.316583 7.71577 0.316582 4.9821 3.05025C2.24843 5.78392 2.43176 9.5 4.9821 12.9497C6.34678 14.7957 7.66822 16.3985 8.60195 17.4898C9.41319 18.4379 9.93176 19 9.93176 19C9.93176 19 10.4504 18.438 11.2617 17.4899ZM9.93188 7C9.3796 7 8.93188 7.44772 8.93188 8C8.93188 8.55228 9.3796 9 9.93188 9C10.4842 9 10.9319 8.55228 10.9319 8C10.9319 7.44772 10.4842 7 9.93188 7ZM12.9319 8C12.9319 9.65685 11.5887 11 9.93188 11C8.27503 11 6.93189 9.65685 6.93189 8C6.93189 6.34315 8.27503 5 9.93188 5C11.5887 5 12.9319 6.34315 12.9319 8Z" fill="#468641"/>
</svg>
