<svg width="20" height="20" viewBox="0 0 20 20" fill="none" xmlns="http://www.w3.org/2000/svg">
<path d="M15.7996 5.51104L15.841 5.63756L15.9141 5.74884L18 8.92587V13H2V8.92587L4.08593 5.74884L4.13896 5.66807L4.17555 5.57863C4.17551 5.57873 4.17556 5.57862 4.1757 5.57832C4.17747 5.5745 4.19377 5.53951 4.23677 5.46918C4.27978 5.39884 4.33805 5.31173 4.4103 5.21239C4.55519 5.01317 4.74002 4.78706 4.93667 4.57674C5.13678 4.36275 5.32747 4.18836 5.48265 4.07575C5.5357 4.03725 5.57391 4.01374 5.59831 4H14.4048C14.43 4.01375 14.4712 4.0383 14.5296 4.08005C14.6886 4.19363 14.8832 4.36864 15.0844 4.58126C15.2828 4.79076 15.4661 5.01391 15.6052 5.20755C15.7265 5.3764 15.7794 5.47507 15.795 5.50411C15.7998 5.51313 15.801 5.51543 15.7996 5.51104Z" fill="#D8DCE0" stroke="#A6B1BC" stroke-width="2"/>
<path d="M3 9H17V14H3V9Z" fill="#A6B1BC"/>
<path d="M13 11V13H17V10L13 11ZM3 13H7V11L3 10V13Z" fill="white"/>
<path d="M15 14H14H6H5H1V17.4052C1 17.634 1.09023 17.8627 1.22556 18H3.75188C3.88722 17.817 3.97744 17.5425 3.97744 17.3137V15.9869H16.0226V17.3137C16.0226 17.5425 16.1128 17.817 16.2481 18H18.7744C18.9098 17.817 19 17.5425 19 17.3137V14H15ZM13 11H7L6 14H14L13 11Z" fill="#7E8C99"/>
</svg>
