<svg width="48" height="48" viewBox="0 0 48 48" fill="none" xmlns="http://www.w3.org/2000/svg">
<g clip-path="url(#clip0)">
<rect width="48" height="48" fill="#0071C5"/>
<path d="M24 14C23.7239 14 23.5 13.7761 23.5 13.5V6.5C23.5 6.22386 23.7239 6 24 6C24.2761 6 24.5 6.22386 24.5 6.5V13.5C24.5 13.7761 24.2761 14 24 14Z" fill="white"/>
<path d="M6.5 23.5C6.22386 23.5 6 23.7239 6 24C6 24.2761 6.22386 24.5 6.5 24.5H13.5C13.7761 24.5 14 24.2761 14 24C14 23.7239 13.7761 23.5 13.5 23.5H6.5Z" fill="white"/>
<path d="M34.5 23.5C34.2239 23.5 34 23.7239 34 24C34 24.2761 34.2239 24.5 34.5 24.5H41.5C41.7761 24.5 42 24.2761 42 24C42 23.7239 41.7761 23.5 41.5 23.5H34.5Z" fill="white"/>
<path d="M7.49713 18.1596C7.23451 18.0743 6.95243 18.218 6.8671 18.4807C6.78177 18.7433 6.92549 19.0254 7.18812 19.1107L13.8455 21.2738C14.1081 21.3591 14.3902 21.2154 14.4756 20.9528C14.5609 20.6902 14.4172 20.4081 14.1545 20.3228L7.49713 18.1596Z" fill="white"/>
<path d="M33.5244 27.0471C33.6098 26.7844 33.8919 26.6407 34.1545 26.726L40.8119 28.8892C41.0745 28.9745 41.2182 29.2566 41.1329 29.5192C41.0476 29.7818 40.7655 29.9256 40.5029 29.8402L33.8455 27.6771C33.5828 27.5918 33.4391 27.3097 33.5244 27.0471Z" fill="white"/>
<path d="M7.20514 28.9422C6.94252 29.0275 6.79879 29.3096 6.88412 29.5722C6.96946 29.8348 7.25153 29.9786 7.51416 29.8932L14.1716 27.7301C14.4342 27.6448 14.5779 27.3627 14.4926 27.1001C14.4072 26.8374 14.1252 26.6937 13.8625 26.7791L7.20514 28.9422Z" fill="white"/>
<path d="M33.5073 20.9C33.422 20.6373 33.5657 20.3553 33.8283 20.2699L40.4857 18.1068C40.7483 18.0215 41.0304 18.1652 41.1157 18.4278C41.2011 18.6905 41.0574 18.9725 40.7947 19.0579L34.1373 21.221C33.8747 21.3063 33.5926 21.1626 33.5073 20.9Z" fill="white"/>
<path d="M9.56589 33.9061C9.34248 34.0684 9.29296 34.3811 9.45527 34.6045C9.61758 34.8279 9.93027 34.8774 10.1537 34.7151L15.8168 30.6006C16.0402 30.4383 16.0897 30.1256 15.9274 29.9022C15.7651 29.6788 15.4524 29.6292 15.229 29.7916L9.56589 33.9061Z" fill="white"/>
<path d="M32.0726 18.098C31.9103 17.8746 31.9598 17.5619 32.1832 17.3996L37.8463 13.2851C38.0697 13.1228 38.3824 13.1723 38.5447 13.3957C38.707 13.6191 38.6575 13.9318 38.4341 14.0941L32.771 18.2086C32.5476 18.3709 32.2349 18.3214 32.0726 18.098Z" fill="white"/>
<path d="M38.4341 33.9061C38.6575 34.0684 38.707 34.3811 38.5447 34.6045C38.3824 34.8279 38.0697 34.8774 37.8463 34.7151L32.1832 30.6006C31.9598 30.4383 31.9103 30.1256 32.0726 29.9022C32.2349 29.6788 32.5476 29.6292 32.771 29.7916L38.4341 33.9061Z" fill="white"/>
<path d="M15.9274 18.098C16.0897 17.8746 16.0402 17.5619 15.8168 17.3996L10.1537 13.2851C9.93028 13.1228 9.6176 13.1723 9.45528 13.3957C9.29297 13.6191 9.3425 13.9318 9.5659 14.0941L15.229 18.2086C15.4524 18.3709 15.7651 18.3214 15.9274 18.098Z" fill="white"/>
<path d="M34.6655 37.8825C34.8278 38.1059 34.7782 38.4186 34.5548 38.5808C34.3314 38.7431 34.0187 38.6936 33.8564 38.4702L29.7424 32.8067C29.5801 32.5833 29.6296 32.2706 29.853 32.1083C30.0765 31.9461 30.3891 31.9956 30.5514 32.219L34.6655 37.8825Z" fill="white"/>
<path d="M18.147 15.8919C18.3704 15.7296 18.4199 15.4169 18.2577 15.1935L14.1436 9.53005C13.9813 9.30663 13.6686 9.25708 13.4452 9.41938C13.2218 9.58167 13.1722 9.89436 13.3345 10.1178L17.4486 15.7812C17.6109 16.0046 17.9236 16.0542 18.147 15.8919Z" fill="white"/>
<path d="M21.2406 13.8563C21.326 14.1189 21.1822 14.401 20.9196 14.4863C20.657 14.5716 20.3749 14.4279 20.2896 14.1653L18.1265 7.50788C18.0411 7.24525 18.1849 6.96318 18.4475 6.87784C18.7101 6.79251 18.9922 6.93624 19.0775 7.19886L21.2406 13.8563Z" fill="white"/>
<path d="M13.4452 38.5808C13.2218 38.4186 13.1722 38.1059 13.3345 37.8825L17.4486 32.219C17.6109 31.9956 17.9235 31.9461 18.147 32.1083C18.3704 32.2706 18.4199 32.5833 18.2576 32.8067L14.1436 38.4702C13.9813 38.6936 13.6686 38.7431 13.4452 38.5808Z" fill="white"/>
<path d="M29.7423 15.1935C29.5801 15.4169 29.6296 15.7296 29.853 15.8919C30.0764 16.0542 30.3891 16.0046 30.5514 15.7812L34.6655 10.1178C34.8278 9.89436 34.7782 9.58167 34.5548 9.41938C34.3314 9.25708 34.0187 9.30663 33.8564 9.53005L29.7423 15.1935Z" fill="white"/>
<path d="M29 24.5C29 26.8467 27.3833 28.8158 25.2029 29.3543L28.9224 40.8014C29.0077 41.064 29.2898 41.2077 29.5524 41.1224C29.8151 41.0371 29.9588 40.755 29.8734 40.4924L26.4564 29.9758C28.5453 29.0372 30 26.9385 30 24.5C30 21.1863 27.3137 18.5 24 18.5C20.6863 18.5 18 21.1863 18 24.5C18 26.9654 19.487 29.0835 21.613 30.0064L18.1985 40.5154C18.1131 40.7781 18.2568 41.0601 18.5195 41.1455C18.7821 41.2308 19.0642 41.0871 19.1495 40.8245L22.6043 30.1916L22.6074 30.182L22.8706 29.3719C20.6531 28.8599 19 26.873 19 24.5C19 21.7386 21.2386 19.5 24 19.5C26.7614 19.5 29 21.7386 29 24.5Z" fill="white"/>
<path d="M26.6875 13.8332C26.6021 14.0958 26.7459 14.3779 27.0085 14.4632C27.2711 14.5486 27.5532 14.4048 27.6385 14.1422L29.8016 7.48481C29.887 7.22218 29.7432 6.94011 29.4806 6.85477C29.218 6.76944 28.9359 6.91317 28.8506 7.17579L26.6875 13.8332Z" fill="white"/>
<path d="M24 14C23.7239 14 23.5 13.7761 23.5 13.5V6.5C23.5 6.22386 23.7239 6 24 6C24.2761 6 24.5 6.22386 24.5 6.5V13.5C24.5 13.7761 24.2761 14 24 14Z" stroke="white" stroke-width="0.25" stroke-linecap="round"/>
<path d="M6.5 23.5C6.22386 23.5 6 23.7239 6 24C6 24.2761 6.22386 24.5 6.5 24.5H13.5C13.7761 24.5 14 24.2761 14 24C14 23.7239 13.7761 23.5 13.5 23.5H6.5Z" stroke="white" stroke-width="0.25" stroke-linecap="round"/>
<path d="M34.5 23.5C34.2239 23.5 34 23.7239 34 24C34 24.2761 34.2239 24.5 34.5 24.5H41.5C41.7761 24.5 42 24.2761 42 24C42 23.7239 41.7761 23.5 41.5 23.5H34.5Z" stroke="white" stroke-width="0.25" stroke-linecap="round"/>
<path d="M7.49713 18.1596C7.23451 18.0743 6.95243 18.218 6.8671 18.4807C6.78177 18.7433 6.92549 19.0254 7.18812 19.1107L13.8455 21.2738C14.1081 21.3591 14.3902 21.2154 14.4756 20.9528C14.5609 20.6902 14.4172 20.4081 14.1545 20.3228L7.49713 18.1596Z" stroke="white" stroke-width="0.25" stroke-linecap="round"/>
<path d="M33.5244 27.0471C33.6098 26.7844 33.8919 26.6407 34.1545 26.726L40.8119 28.8892C41.0745 28.9745 41.2182 29.2566 41.1329 29.5192C41.0476 29.7818 40.7655 29.9256 40.5029 29.8402L33.8455 27.6771C33.5828 27.5918 33.4391 27.3097 33.5244 27.0471Z" stroke="white" stroke-width="0.25" stroke-linecap="round"/>
<path d="M7.20514 28.9422C6.94252 29.0275 6.79879 29.3096 6.88412 29.5722C6.96946 29.8348 7.25153 29.9786 7.51416 29.8932L14.1716 27.7301C14.4342 27.6448 14.5779 27.3627 14.4926 27.1001C14.4072 26.8374 14.1252 26.6937 13.8625 26.7791L7.20514 28.9422Z" stroke="white" stroke-width="0.25" stroke-linecap="round"/>
<path d="M33.5073 20.9C33.422 20.6373 33.5657 20.3553 33.8283 20.2699L40.4857 18.1068C40.7483 18.0215 41.0304 18.1652 41.1157 18.4278C41.2011 18.6905 41.0574 18.9725 40.7947 19.0579L34.1373 21.221C33.8747 21.3063 33.5926 21.1626 33.5073 20.9Z" stroke="white" stroke-width="0.25" stroke-linecap="round"/>
<path d="M9.56589 33.9061C9.34248 34.0684 9.29296 34.3811 9.45527 34.6045C9.61758 34.8279 9.93027 34.8774 10.1537 34.7151L15.8168 30.6006C16.0402 30.4383 16.0897 30.1256 15.9274 29.9022C15.7651 29.6788 15.4524 29.6292 15.229 29.7916L9.56589 33.9061Z" stroke="white" stroke-width="0.25" stroke-linecap="round"/>
<path d="M32.0726 18.098C31.9103 17.8746 31.9598 17.5619 32.1832 17.3996L37.8463 13.2851C38.0697 13.1228 38.3824 13.1723 38.5447 13.3957C38.707 13.6191 38.6575 13.9318 38.4341 14.0941L32.771 18.2086C32.5476 18.3709 32.2349 18.3214 32.0726 18.098Z" stroke="white" stroke-width="0.25" stroke-linecap="round"/>
<path d="M38.4341 33.9061C38.6575 34.0684 38.707 34.3811 38.5447 34.6045C38.3824 34.8279 38.0697 34.8774 37.8463 34.7151L32.1832 30.6006C31.9598 30.4383 31.9103 30.1256 32.0726 29.9022C32.2349 29.6788 32.5476 29.6292 32.771 29.7916L38.4341 33.9061Z" stroke="white" stroke-width="0.25" stroke-linecap="round"/>
<path d="M15.9274 18.098C16.0897 17.8746 16.0402 17.5619 15.8168 17.3996L10.1537 13.2851C9.93028 13.1228 9.6176 13.1723 9.45528 13.3957C9.29297 13.6191 9.3425 13.9318 9.5659 14.0941L15.229 18.2086C15.4524 18.3709 15.7651 18.3214 15.9274 18.098Z" stroke="white" stroke-width="0.25" stroke-linecap="round"/>
<path d="M34.6655 37.8825C34.8278 38.1059 34.7782 38.4186 34.5548 38.5808C34.3314 38.7431 34.0187 38.6936 33.8564 38.4702L29.7424 32.8067C29.5801 32.5833 29.6296 32.2706 29.853 32.1083C30.0765 31.9461 30.3891 31.9956 30.5514 32.219L34.6655 37.8825Z" stroke="white" stroke-width="0.25" stroke-linecap="round"/>
<path d="M18.147 15.8919C18.3704 15.7296 18.4199 15.4169 18.2577 15.1935L14.1436 9.53005C13.9813 9.30663 13.6686 9.25708 13.4452 9.41938C13.2218 9.58167 13.1722 9.89436 13.3345 10.1178L17.4486 15.7812C17.6109 16.0046 17.9236 16.0542 18.147 15.8919Z" stroke="white" stroke-width="0.25" stroke-linecap="round"/>
<path d="M21.2406 13.8563C21.326 14.1189 21.1822 14.401 20.9196 14.4863C20.657 14.5716 20.3749 14.4279 20.2896 14.1653L18.1265 7.50788C18.0411 7.24525 18.1849 6.96318 18.4475 6.87784C18.7101 6.79251 18.9922 6.93624 19.0775 7.19886L21.2406 13.8563Z" stroke="white" stroke-width="0.25" stroke-linecap="round"/>
<path d="M13.4452 38.5808C13.2218 38.4186 13.1722 38.1059 13.3345 37.8825L17.4486 32.219C17.6109 31.9956 17.9235 31.9461 18.147 32.1083C18.3704 32.2706 18.4199 32.5833 18.2576 32.8067L14.1436 38.4702C13.9813 38.6936 13.6686 38.7431 13.4452 38.5808Z" stroke="white" stroke-width="0.25" stroke-linecap="round"/>
<path d="M29.7423 15.1935C29.5801 15.4169 29.6296 15.7296 29.853 15.8919C30.0764 16.0542 30.3891 16.0046 30.5514 15.7812L34.6655 10.1178C34.8278 9.89436 34.7782 9.58167 34.5548 9.41938C34.3314 9.25708 34.0187 9.30663 33.8564 9.53005L29.7423 15.1935Z" stroke="white" stroke-width="0.25" stroke-linecap="round"/>
<path d="M29 24.5C29 26.8467 27.3833 28.8158 25.2029 29.3543L28.9224 40.8014C29.0077 41.064 29.2898 41.2077 29.5524 41.1224C29.8151 41.0371 29.9588 40.755 29.8734 40.4924L26.4564 29.9758C28.5453 29.0372 30 26.9385 30 24.5C30 21.1863 27.3137 18.5 24 18.5C20.6863 18.5 18 21.1863 18 24.5C18 26.9654 19.487 29.0835 21.613 30.0064L18.1985 40.5154C18.1131 40.7781 18.2568 41.0601 18.5195 41.1455C18.7821 41.2308 19.0642 41.0871 19.1495 40.8245L22.6043 30.1916L22.6074 30.182L22.8706 29.3719C20.6531 28.8599 19 26.873 19 24.5C19 21.7386 21.2386 19.5 24 19.5C26.7614 19.5 29 21.7386 29 24.5Z" stroke="white" stroke-width="0.25" stroke-linecap="round"/>
<path d="M26.6875 13.8332C26.6021 14.0958 26.7459 14.3779 27.0085 14.4632C27.2711 14.5486 27.5532 14.4048 27.6385 14.1422L29.8016 7.48481C29.887 7.22218 29.7432 6.94011 29.4806 6.85477C29.218 6.76944 28.9359 6.91317 28.8506 7.17579L26.6875 13.8332Z" stroke="white" stroke-width="0.25" stroke-linecap="round"/>
</g>
<defs>
<clipPath id="clip0">
<path d="M0 19.2C0 12.4794 0 9.11905 1.30792 6.55211C2.4584 4.29417 4.29417 2.4584 6.55211 1.30792C9.11905 0 12.4794 0 19.2 0H28.7966C35.5172 0 38.8775 0 41.4444 1.30792C43.7024 2.4584 45.5381 4.29417 46.6886 6.55211C47.9965 9.11905 47.9965 12.4794 47.9965 19.2V28.8C47.9965 35.5206 47.9965 38.8809 46.6886 41.4479C45.5381 43.7058 43.7024 45.5416 41.4444 46.6921C38.8775 48 35.5172 48 28.7965 48H19.2C12.4794 48 9.11905 48 6.55211 46.6921C4.29417 45.5416 2.4584 43.7058 1.30792 41.4479C0 38.8809 0 35.5206 0 28.8V19.2Z" fill="white"/>
</clipPath>
</defs>
</svg>
