<svg width="48" height="48" viewBox="0 0 48 48" fill="none" xmlns="http://www.w3.org/2000/svg">
<path fill-rule="evenodd" clip-rule="evenodd" d="M23.76 0.360001C10.8 0.360001 0.23999 10.92 0.23999 24.12C0.23999 37.2 10.8 47.88 23.76 47.88C36.72 47.88 47.28 37.2 47.28 24.12C47.28 10.92 36.72 0.360001 23.76 0.360001Z" fill="black"/>
<path fill-rule="evenodd" clip-rule="evenodd" d="M42.36 30.24L34.92 24L42.36 17.76L44.64 20.64L40.56 24L44.64 27.36L42.36 30.24ZM39.48 37.2L30.48 29.88H23.04V44.76H19.44V26.28H31.8L41.76 34.32L39.48 37.2ZM34.2 42.12L30.12 38.76V43.92L26.52 44.88V33.48H29.52L37.2 39.96L34.2 42.12ZM15.84 39L12.24 42.24V6.24L15.84 9.48V39ZM8.76003 34.56L5.16003 31.44V17.52L8.76003 14.16V34.56ZM19.32 3.36H22.92V18.24H30.36L39.36 10.92L41.64 13.8L31.68 21.84H19.32V3.36ZM26.52 3.84L30.12 4.8V9.96L34.2 6.6L37.2 8.76L29.52 15.24H26.52V3.84Z" fill="#FFC700"/>
</svg>
