<svg width="48" height="48" viewBox="0 0 48 48" fill="none" xmlns="http://www.w3.org/2000/svg">
<rect width="48" height="48" rx="15" fill="#0E353D"/>
<path d="M19.6447 18.5001L22.7802 19.6857C23.2868 19.87 23.8984 19.6236 23.8984 19.2373V10.3356C23.8984 10.1486 23.7462 9.97675 23.501 9.88725L20.3707 8.70255C19.8632 8.51824 19.2472 8.76369 19.2472 9.14559V18.0517C19.2472 18.2387 19.3995 18.4115 19.6447 18.5001Z" fill="white"/>
<path d="M28.5867 22.4219L25.4512 21.2363C25.2069 21.1468 25.0537 20.9749 25.0537 20.788V12.6058C25.0537 12.2239 25.6705 11.9784 26.1772 12.1627L29.3127 13.3483C29.5578 13.4369 29.7101 13.6044 29.7101 13.7914V21.9735C29.7101 22.3599 29.0933 22.6062 28.5867 22.4219Z" fill="white"/>
<path d="M28.5867 37.1098L25.4512 35.9242V35.9224C25.2069 35.8338 25.0537 35.6619 25.0537 35.4749V27.2945C25.0537 26.9082 25.6705 26.6618 26.1772 26.8462L29.3127 28.0317C29.5578 28.1212 29.7101 28.2931 29.7101 28.4801V36.6623C29.7101 37.0486 29.0933 37.2941 28.5867 37.1098Z" fill="white"/>
<path d="M22.7802 39.2975L19.6447 38.1119C19.3995 38.0224 19.2472 37.8505 19.2472 37.6636V28.7849C19.2472 28.3986 19.8632 28.1531 20.3707 28.3375L23.501 29.5222C23.7462 29.6116 23.8984 29.7836 23.8984 29.9705V38.8492C23.8984 39.2364 23.2868 39.4818 22.7802 39.2975Z" fill="white"/>
<path d="M18.0963 10.6697C18.0963 10.4827 17.9432 10.3152 17.698 10.2213L14.5634 9.03572C14.0567 8.85141 13.4399 9.09774 13.4399 9.48408V37.3304C13.4399 37.5174 13.5922 37.6901 13.8374 37.7788L16.9729 38.9652C17.4795 39.1487 18.0963 38.9032 18.0963 38.5169V10.6697Z" fill="white"/>
<path d="M31.9819 16.8767L35.1174 18.0623H35.1217C35.3668 18.1518 35.5199 18.3237 35.5199 18.5107V31.9492C35.5199 32.3355 34.9032 32.5809 34.3965 32.3966L31.261 31.211C31.0159 31.1224 30.8636 30.9505 30.8636 30.7636V17.3251C30.8636 16.9388 31.4752 16.6924 31.9819 16.8767Z" fill="white"/>
</svg>
