<svg width="173" height="51" viewBox="0 0 173 51" fill="none" xmlns="http://www.w3.org/2000/svg">
<path d="M25.0067 50.0196C38.8138 50.0196 50.0067 38.8268 50.0067 25.0196C50.0067 11.2125 38.8138 0.0196533 25.0067 0.0196533C11.1996 0.0196533 0.00671387 11.2125 0.00671387 25.0196C0.00671387 38.8268 11.1996 50.0196 25.0067 50.0196Z" fill="url(#paint0_linear)"/>
<path d="M24.9835 12.5H35.1656C35.8599 12.4946 36.5465 12.6475 37.1729 12.9468C37.7808 13.2344 38.3218 13.646 38.7608 14.1553H38.7867C39.1241 14.5488 39.3985 14.9922 39.6002 15.4692C39.8121 15.9687 39.9278 16.5034 39.9415 17.0459V17.0718C39.9424 18.0815 39.8189 19.0874 39.5743 20.0669L39.6002 19.9878C39.3726 21.2666 39.1451 22.5537 38.918 23.8496L38.2359 27.7378C38.0435 28.8599 37.8511 29.9766 37.6588 31.0879C37.4664 32.1987 37.2652 33.3071 37.0552 34.4126C36.7735 35.6641 36.1251 36.8032 35.1925 37.6841C34.2818 38.5688 33.1153 39.1435 31.8585 39.3252L31.8057 39.3511C31.6656 39.3686 31.5167 39.3818 31.3599 39.3906C31.2027 39.3994 31.0455 39.4038 30.8878 39.4033H19.1031C18.3477 39.4097 17.5987 39.2666 16.8985 38.9824C16.2154 38.7295 15.5806 38.3608 15.0225 37.8931C14.4674 37.4238 14.0006 36.8589 13.6446 36.2246C13.2764 35.5898 13.0196 34.8965 12.8853 34.1753V34.123C12.0982 29.6738 11.3018 25.2334 10.4976 20.8018C10.4278 20.3638 10.3492 19.9214 10.2618 19.4746C10.1744 19.0283 10.1041 18.5859 10.0513 18.1475C10.0343 18.0249 10.0162 17.8936 9.9991 17.7539C9.98103 17.606 9.97224 17.4565 9.97322 17.3071C9.97273 15.0254 11.5904 13.0645 13.8306 12.6304L13.8565 12.6045C14.043 12.5679 14.2315 12.5415 14.421 12.5254C14.6221 12.5083 14.8277 12.4995 15.0377 12.4995H24.984L24.9835 12.5ZM22.3311 30.8911V33.6235C22.3258 34.0122 22.4771 34.3862 22.752 34.6611C23.0255 34.9468 23.4063 35.104 23.8018 35.0937H26.1636C26.9737 35.0884 27.6285 34.4321 27.6334 33.6221V28.2114C27.6314 28.1152 27.6539 28.02 27.6993 27.9355C27.7427 27.8569 27.8131 27.7964 27.8975 27.7646C30.2828 26.3203 31.2447 23.3423 30.1544 20.7759C29.8682 20.1094 29.4591 19.5034 28.9478 18.9893C27.8946 17.9429 26.4698 17.3574 24.9854 17.3608C24.7393 17.3608 24.4942 17.3784 24.2506 17.4131C24.0054 17.4482 23.7608 17.4922 23.5157 17.5449H23.5679C21.8717 17.9038 20.4591 19.0723 19.7891 20.6714L19.7633 20.6973C19.6378 21.0239 19.5455 21.3618 19.4879 21.707C19.4263 22.0669 19.3961 22.4311 19.3961 22.7964C19.3858 23.8091 19.6441 24.8061 20.1441 25.6865C20.6168 26.5347 21.2877 27.2559 22.0992 27.7886L22.1251 27.8144C22.1885 27.8437 22.2427 27.8892 22.2823 27.9463C22.3179 28.001 22.336 28.0649 22.3345 28.1304V30.8887L22.3311 30.8911Z" fill="white"/>
<path d="M66.6707 39V14.52H82.5107V18.84H71.6387V24.564H80.3507V28.812H71.6387V34.68H82.5107V39H66.6707Z" fill="black" fill-opacity="0.87"/>
<path d="M90.5462 39H85.7222V21H90.5102V22.008C92.1422 21.048 93.6422 20.568 95.0102 20.568C97.4102 20.568 99.0662 21.276 99.9782 22.692C100.89 24.108 101.346 26.292 101.346 29.244V39H96.5222V29.388C96.5222 27.852 96.3422 26.724 95.9822 26.004C95.6222 25.26 94.9022 24.888 93.8222 24.888C92.8382 24.888 91.8902 25.056 90.9782 25.392L90.5462 25.536V39Z" fill="black" fill-opacity="0.87"/>
<path d="M105.171 46.56V21H109.959V21.972C111.519 21.036 112.887 20.568 114.063 20.568C116.487 20.568 118.275 21.3 119.427 22.764C120.579 24.204 121.155 26.664 121.155 30.144C121.155 33.624 120.519 36.048 119.247 37.416C117.975 38.76 115.887 39.432 112.983 39.432C112.191 39.432 111.339 39.36 110.427 39.216L109.995 39.144V46.56H105.171ZM113.127 24.888C112.239 24.888 111.339 25.068 110.427 25.428L109.995 25.608V35.04C111.075 35.184 111.951 35.256 112.623 35.256C114.015 35.256 114.963 34.848 115.467 34.032C115.995 33.216 116.259 31.824 116.259 29.856C116.259 26.544 115.215 24.888 113.127 24.888Z" fill="black" fill-opacity="0.87"/>
<path d="M138.091 26.616V34.104C138.139 34.68 138.235 35.088 138.379 35.328C138.523 35.544 138.823 35.7 139.279 35.796L139.135 39.432C137.911 39.432 136.927 39.348 136.183 39.18C135.463 39.012 134.731 38.676 133.987 38.172C132.259 39.012 130.495 39.432 128.695 39.432C124.975 39.432 123.115 37.464 123.115 33.528C123.115 31.608 123.631 30.252 124.663 29.46C125.695 28.644 127.279 28.164 129.415 28.02L133.267 27.732V26.616C133.267 25.872 133.099 25.368 132.763 25.104C132.427 24.816 131.887 24.672 131.143 24.672L124.375 24.96L124.231 21.612C126.799 20.916 129.235 20.568 131.539 20.568C133.867 20.568 135.535 21.048 136.543 22.008C137.575 22.968 138.091 24.504 138.091 26.616ZM129.991 31.368C128.647 31.488 127.975 32.208 127.975 33.528C127.975 34.848 128.563 35.508 129.739 35.508C130.651 35.508 131.647 35.364 132.727 35.076L133.267 34.932V31.08L129.991 31.368Z" fill="black" fill-opacity="0.87"/>
<path d="M155.163 25.5C152.187 25.116 150.099 24.924 148.899 24.924C147.723 24.924 146.955 25.032 146.595 25.248C146.259 25.464 146.091 25.812 146.091 26.292C146.091 26.748 146.319 27.072 146.775 27.264C147.255 27.432 148.455 27.696 150.375 28.056C152.319 28.392 153.699 28.956 154.515 29.748C155.331 30.54 155.739 31.824 155.739 33.6C155.739 37.488 153.327 39.432 148.503 39.432C146.919 39.432 144.999 39.216 142.743 38.784L141.591 38.568L141.735 34.536C144.711 34.92 146.775 35.112 147.927 35.112C149.103 35.112 149.895 35.004 150.303 34.788C150.735 34.548 150.951 34.2 150.951 33.744C150.951 33.288 150.723 32.952 150.267 32.736C149.835 32.52 148.683 32.256 146.811 31.944C144.963 31.632 143.583 31.104 142.671 30.36C141.759 29.616 141.303 28.296 141.303 26.4C141.303 24.48 141.951 23.04 143.247 22.08C144.543 21.096 146.211 20.604 148.251 20.604C149.667 20.604 151.599 20.832 154.047 21.288L155.235 21.504L155.163 25.5Z" fill="black" fill-opacity="0.87"/>
<path d="M171.694 25.5C168.718 25.116 166.63 24.924 165.43 24.924C164.254 24.924 163.486 25.032 163.126 25.248C162.79 25.464 162.622 25.812 162.622 26.292C162.622 26.748 162.85 27.072 163.306 27.264C163.786 27.432 164.986 27.696 166.906 28.056C168.85 28.392 170.23 28.956 171.046 29.748C171.862 30.54 172.27 31.824 172.27 33.6C172.27 37.488 169.858 39.432 165.034 39.432C163.45 39.432 161.53 39.216 159.274 38.784L158.122 38.568L158.266 34.536C161.242 34.92 163.306 35.112 164.458 35.112C165.634 35.112 166.426 35.004 166.834 34.788C167.266 34.548 167.482 34.2 167.482 33.744C167.482 33.288 167.254 32.952 166.798 32.736C166.366 32.52 165.214 32.256 163.342 31.944C161.494 31.632 160.114 31.104 159.202 30.36C158.29 29.616 157.834 28.296 157.834 26.4C157.834 24.48 158.482 23.04 159.778 22.08C161.074 21.096 162.742 20.604 164.782 20.604C166.198 20.604 168.13 20.832 170.578 21.288L171.766 21.504L171.694 25.5Z" fill="black" fill-opacity="0.87"/>
<defs>
<linearGradient id="paint0_linear" x1="25.0065" y1="0.0194531" x2="25.0065" y2="50.0194" gradientUnits="userSpaceOnUse">
<stop stop-color="#365DC9"/>
<stop offset="1" stop-color="#222C94"/>
</linearGradient>
</defs>
</svg>
