<svg width="48" height="48" viewBox="0 0 48 48" fill="none" xmlns="http://www.w3.org/2000/svg">
<path d="M42.7364 35.367C42.1159 35.6915 41.4759 35.9775 40.8202 36.2233C38.7331 37.0042 36.5221 37.4021 34.2937 37.3977C25.691 37.3977 18.1973 31.4802 18.1973 23.8865C18.2083 22.868 18.4909 21.8709 19.016 20.9981C19.5411 20.1253 20.2896 19.4085 21.1842 18.9216C13.4033 19.2488 11.4035 27.357 11.4035 32.1074C11.4035 45.5386 23.7821 46.9003 26.4491 46.9003C27.8871 46.9003 30.056 46.4821 31.3576 46.0713L31.5958 45.9913C36.6048 44.2596 40.875 40.8743 43.7035 36.3924C43.7902 36.2559 43.8289 36.0944 43.8135 35.9335C43.7981 35.7725 43.7295 35.6213 43.6186 35.5037C43.5076 35.3861 43.3607 35.3088 43.2009 35.2841C43.0412 35.2593 42.8777 35.2885 42.7364 35.367Z" fill="url(#paint0_linear)"/>
<path opacity="0.35" d="M42.7364 35.367C42.1159 35.6915 41.4759 35.9775 40.8202 36.2233C38.7331 37.0042 36.5221 37.4021 34.2937 37.3977C25.691 37.3977 18.1973 31.4802 18.1973 23.8865C18.2083 22.868 18.4909 21.8709 19.016 20.9981C19.5411 20.1253 20.2896 19.4085 21.1842 18.9216C13.4033 19.2488 11.4035 27.357 11.4035 32.1074C11.4035 45.5386 23.7821 46.9003 26.4491 46.9003C27.8871 46.9003 30.056 46.4821 31.3576 46.0713L31.5958 45.9913C36.6048 44.2596 40.875 40.8743 43.7035 36.3924C43.7902 36.2559 43.8289 36.0944 43.8135 35.9335C43.7981 35.7725 43.7295 35.6213 43.6186 35.5037C43.5076 35.3861 43.3607 35.3088 43.2009 35.2841C43.0412 35.2593 42.8777 35.2885 42.7364 35.367Z" fill="url(#paint1_radial)"/>
<path d="M19.9497 44.6168C18.3282 43.6104 16.923 42.2916 15.8157 40.7373C14.5536 39.0081 13.6851 37.0238 13.2712 34.9235C12.8572 32.8233 12.9077 30.6578 13.4193 28.5791C13.9308 26.5004 14.8909 24.5588 16.2323 22.8905C17.5737 21.2222 19.2638 19.8675 21.1841 18.9215C21.7514 18.6543 22.7203 18.1707 24.0093 18.1943C24.9174 18.2009 25.8116 18.4178 26.6219 18.8278C27.4322 19.2378 28.1365 19.8299 28.6796 20.5577C29.4138 21.5379 29.8186 22.7255 29.8359 23.95C29.8359 23.9119 34.2826 9.47894 15.2921 9.47894C7.3112 9.47894 0.748324 17.0526 0.748324 23.6973C0.716844 27.2123 1.46892 30.6901 2.94989 33.878C5.3702 39.0421 9.60268 43.1376 14.8436 45.3867C20.0845 47.6358 25.9689 47.882 31.3793 46.0785C29.4849 46.6758 27.4835 46.8551 25.5131 46.604C23.5427 46.3529 21.6502 45.6774 19.9661 44.6241L19.9497 44.6168Z" fill="url(#paint2_linear)"/>
<path opacity="0.41" d="M19.9497 44.6168C18.3282 43.6104 16.923 42.2916 15.8157 40.7373C14.5536 39.0081 13.6851 37.0238 13.2712 34.9235C12.8572 32.8233 12.9077 30.6578 13.4193 28.5791C13.9308 26.5004 14.8909 24.5588 16.2323 22.8905C17.5737 21.2222 19.2638 19.8675 21.1841 18.9215C21.7514 18.6543 22.7203 18.1707 24.0093 18.1943C24.9174 18.2009 25.8116 18.4178 26.6219 18.8278C27.4322 19.2378 28.1365 19.8299 28.6796 20.5577C29.4138 21.5379 29.8186 22.7255 29.8359 23.95C29.8359 23.9119 34.2826 9.47894 15.2921 9.47894C7.3112 9.47894 0.748324 17.0526 0.748324 23.6973C0.716844 27.2123 1.46892 30.6901 2.94989 33.878C5.3702 39.0421 9.60268 43.1376 14.8436 45.3867C20.0845 47.6358 25.9689 47.882 31.3793 46.0785C29.4849 46.6758 27.4835 46.8551 25.5131 46.604C23.5427 46.3529 21.6502 45.6774 19.9661 44.6241L19.9497 44.6168Z" fill="url(#paint3_radial)"/>
<path d="M28.4216 27.7897C28.2743 27.9806 27.8216 28.2442 27.8216 28.8187C27.8216 29.2932 28.1307 29.7495 28.6797 30.1331C31.294 31.951 36.2225 31.7111 36.2352 31.7111C38.1723 31.7064 40.0727 31.1822 41.7382 30.1931C43.4184 29.212 44.8129 27.8087 45.7833 26.1223C46.7537 24.436 47.2663 22.5252 47.2703 20.5796C47.3176 16.5055 45.8159 13.7967 45.2087 12.5969C41.3565 5.06135 33.041 0.727295 23.9984 0.727295C17.8831 0.72669 12.0133 3.13338 7.65861 7.42685C3.30391 11.7203 0.814329 17.5554 0.728333 23.6702C0.815595 17.0273 7.41848 11.6624 15.2721 11.6624C15.9084 11.6624 19.5371 11.7242 22.9076 13.4931C25.8782 15.0529 27.4344 16.9364 28.5161 18.8034C29.6396 20.7432 29.8396 23.1938 29.8396 24.1701C29.8396 25.1463 29.3415 26.5935 28.4216 27.7897Z" fill="url(#paint4_radial)"/>
<path d="M28.4216 27.7897C28.2743 27.9806 27.8216 28.2442 27.8216 28.8187C27.8216 29.2932 28.1307 29.7495 28.6797 30.1331C31.294 31.951 36.2225 31.7111 36.2352 31.7111C38.1723 31.7064 40.0727 31.1822 41.7382 30.1931C43.4184 29.212 44.8129 27.8087 45.7833 26.1223C46.7537 24.436 47.2663 22.5252 47.2703 20.5796C47.3176 16.5055 45.8159 13.7967 45.2087 12.5969C41.3565 5.06135 33.041 0.727295 23.9984 0.727295C17.8831 0.72669 12.0133 3.13338 7.65861 7.42685C3.30391 11.7203 0.814329 17.5554 0.728333 23.6702C0.815595 17.0273 7.41848 11.6624 15.2721 11.6624C15.9084 11.6624 19.5371 11.7242 22.9076 13.4931C25.8782 15.0529 27.4344 16.9364 28.5161 18.8034C29.6396 20.7432 29.8396 23.1938 29.8396 24.1701C29.8396 25.1463 29.3415 26.5935 28.4216 27.7897Z" fill="url(#paint5_radial)"/>
<defs>
<linearGradient id="paint0_linear" x1="11.4035" y1="32.9146" x2="43.8253" y2="32.9146" gradientUnits="userSpaceOnUse">
<stop stop-color="#0C59A4"/>
<stop offset="1" stop-color="#114A8B"/>
</linearGradient>
<radialGradient id="paint1_radial" cx="0" cy="0" r="1" gradientUnits="userSpaceOnUse" gradientTransform="translate(29.3106 33.1701) scale(17.3399 16.4729)">
<stop offset="0.72" stop-opacity="0"/>
<stop offset="0.95" stop-opacity="0.53"/>
<stop offset="1"/>
</radialGradient>
<linearGradient id="paint2_linear" x1="28.496" y1="18.8506" x2="8.24557" y2="40.9081" gradientUnits="userSpaceOnUse">
<stop stop-color="#1B9DE2"/>
<stop offset="0.16" stop-color="#1595DF"/>
<stop offset="0.67" stop-color="#0680D7"/>
<stop offset="1" stop-color="#0078D4"/>
</linearGradient>
<radialGradient id="paint3_radial" cx="0" cy="0" r="1" gradientUnits="userSpaceOnUse" gradientTransform="translate(13.5622 36.9065) rotate(-81.3844) scale(26.0745 21.0655)">
<stop offset="0.76" stop-opacity="0"/>
<stop offset="0.95" stop-opacity="0.5"/>
<stop offset="1"/>
</radialGradient>
<radialGradient id="paint4_radial" cx="0" cy="0" r="1" gradientUnits="userSpaceOnUse" gradientTransform="translate(5.43007 9.34028) rotate(92.2906) scale(36.8307 78.4418)">
<stop stop-color="#35C1F1"/>
<stop offset="0.11" stop-color="#34C1ED"/>
<stop offset="0.23" stop-color="#2FC2DF"/>
<stop offset="0.31" stop-color="#2BC3D2"/>
<stop offset="0.67" stop-color="#36C752"/>
</radialGradient>
<radialGradient id="paint5_radial" cx="0" cy="0" r="1" gradientUnits="userSpaceOnUse" gradientTransform="translate(44.3729 14.7995) rotate(73.7398) scale(17.6962 14.3905)">
<stop stop-color="#66EB6E"/>
<stop offset="1" stop-color="#66EB6E" stop-opacity="0"/>
</radialGradient>
</defs>
</svg>
