<svg width="178" height="42" viewBox="0 0 178 42" fill="none" xmlns="http://www.w3.org/2000/svg">
<path fill-rule="evenodd" clip-rule="evenodd" d="M20.7317 0.315002C9.42347 0.315002 0.209351 9.555 0.209351 21.105C0.209351 32.55 9.42347 41.895 20.7317 41.895C32.0399 41.895 41.2541 32.55 41.2541 21.105C41.2541 9.555 32.0399 0.315002 20.7317 0.315002ZM77.0635 22.26H85.9635L87.7435 19.215H77.0635V15.015H87.7435L89.5235 11.97H73.6082V30.03H89.8376V26.985H77.0635V22.26ZM97.2717 22.26H106.172L107.952 19.215H97.2717V15.015H107.952L109.732 11.97H93.8164V30.03H110.046V26.985H97.2717V22.26ZM139.259 22.26H148.159L149.939 19.215H139.259V15.015H149.939L151.719 11.97H135.803V30.03H152.033V26.985H139.259V22.26ZM69.734 12.075H65.127L56.227 21.105L65.127 30.135H69.734C67.5352 27.93 62.4046 22.68 60.8341 21.105C62.4046 19.53 67.5352 14.175 69.734 12.075ZM51.4105 30.03H54.8658V12.075H51.4105V30.03ZM168.995 22.785C171.613 22.68 173.916 20.79 173.916 17.43C173.916 13.02 170.88 12.075 166.692 12.075H156.012V30.135H159.467V15.015H166.168C168.995 15.015 170.461 15.435 170.461 17.535C170.461 19.635 168.995 20.055 166.168 20.055H162.503L160.828 22.995H164.912L170.042 30.135H174.335L168.995 22.785ZM124.076 12.075H114.129V30.135H117.585V15.12H124.809C126.799 15.12 128.579 15.33 128.579 17.64C128.579 19.95 126.799 20.16 124.809 20.16H120.726L118.946 23.205H124.076C127.113 23.205 132.034 23.205 132.034 17.745C132.034 12.075 127.008 12.075 124.076 12.075ZM176.639 8.925L177.267 9.87H176.953L176.325 9.03H175.906V9.87H175.592V7.77H176.429C176.743 7.77 176.848 7.77 177.058 7.875C177.162 7.98 177.267 8.085 177.267 8.295C177.267 8.505 177.162 8.61 177.058 8.715C176.953 8.82 176.848 8.82 176.639 8.925ZM176.534 8.61H176.743C176.848 8.61 176.848 8.505 176.848 8.505V8.085L176.743 7.98H175.906V8.61H176.534ZM178 8.715C178 8.925 178 9.24 177.895 9.45C177.791 9.66 177.686 9.87 177.476 9.975C177.372 10.185 177.162 10.29 176.953 10.29C176.743 10.29 176.534 10.395 176.325 10.395C176.115 10.395 175.906 10.395 175.696 10.29C175.487 10.185 175.278 10.08 175.173 9.975C175.068 9.87 174.859 9.66 174.754 9.45C174.649 9.24 174.649 9.03 174.649 8.715C174.649 8.505 174.649 8.295 174.754 7.98C174.859 7.77 174.963 7.56 175.173 7.455C175.382 7.35 175.487 7.14 175.696 7.14C175.906 7.035 176.115 7.035 176.325 7.035C176.534 7.035 176.743 7.035 176.953 7.14C177.162 7.245 177.372 7.35 177.476 7.455C177.581 7.56 177.791 7.77 177.895 7.98C178 8.295 178 8.505 178 8.715ZM177.686 8.715C177.686 8.505 177.686 8.295 177.581 8.085C177.476 7.875 177.372 7.77 177.267 7.665C177.162 7.56 176.953 7.455 176.848 7.35C176.639 7.245 176.534 7.245 176.325 7.245C176.115 7.245 175.906 7.245 175.801 7.35C175.592 7.455 175.487 7.56 175.382 7.665C175.278 7.77 175.173 7.98 175.068 8.085C174.859 8.4 174.859 8.505 174.859 8.715C174.859 8.925 174.859 9.135 174.963 9.345C175.068 9.555 175.173 9.66 175.278 9.765C175.382 9.87 175.592 9.975 175.696 10.08C175.906 10.185 176.011 10.185 176.22 10.185C176.429 10.185 176.639 10.185 176.743 10.08C176.953 9.975 177.058 9.87 177.162 9.765C177.267 9.66 177.372 9.45 177.476 9.345C177.686 9.135 177.686 8.925 177.686 8.715Z" fill="black"/>
<path fill-rule="evenodd" clip-rule="evenodd" d="M36.9611 26.46L30.4694 21L36.9611 15.54L38.9506 18.06L35.3906 21L38.9506 23.94L36.9611 26.46ZM34.4482 32.55L26.5953 26.145H20.1035V39.165H16.9623V22.995H27.747L36.4376 30.03L34.4482 32.55ZM29.8411 36.855L26.2811 33.915V38.43L23.14 39.27V29.295H25.7576L32.4588 34.965L29.8411 36.855ZM13.8211 34.125L10.68 36.96V5.46L13.8211 8.295V34.125ZM7.6435 30.24L4.50232 27.51V15.33L7.6435 12.39V30.24ZM16.8576 2.94H19.9988V15.96H26.4906L34.3435 9.555L36.3329 12.075L27.6423 19.11H16.8576V2.94ZM23.14 3.36L26.2811 4.2V8.715L29.8411 5.775L32.4588 7.665L25.7576 13.335H23.14V3.36Z" fill="#FFC700"/>
</svg>
