<svg id="svg" version="1.1" xmlns="http://www.w3.org/2000/svg" xmlns:xlink="http://www.w3.org/1999/xlink" width="400" height="400" viewBox="0, 0, 400,400"><g id="svgg"><path id="path0" d="M0.000 200.000 L 0.000 400.000 200.000 400.000 L 400.000 400.000 400.000 200.000 L 400.000 0.000 200.000 0.000 L 0.000 0.000 0.000 200.000 M338.400 11.150 C 345.405 11.847,346.800 12.486,346.800 14.996 C 346.800 15.965,349.966 16.845,355.529 17.423 C 358.281 17.708,358.315 17.743,358.729 20.635 C 358.983 22.415,359.101 22.573,360.401 22.879 C 362.458 23.362,365.172 24.881,365.430 25.693 C 365.553 26.082,365.786 26.400,365.947 26.400 C 366.776 26.400,371.304 29.793,371.717 30.724 C 371.979 31.316,372.511 32.149,372.897 32.575 C 373.284 33.002,373.600 33.484,373.600 33.647 C 373.600 33.810,373.860 34.203,374.177 34.520 C 375.353 35.696,376.800 38.138,376.806 38.956 C 376.818 40.661,377.746 41.721,379.797 42.369 C 382.338 43.172,382.706 43.932,383.014 49.027 C 383.302 53.770,384.058 56.228,385.329 56.547 C 387.489 57.088,388.418 58.811,388.836 63.046 C 389.493 69.704,389.122 339.003,388.452 340.981 C 387.939 342.498,385.942 344.892,384.903 345.236 C 384.630 345.326,384.032 347.200,383.574 349.400 C 382.421 354.933,381.622 356.475,379.287 357.674 C 377.607 358.537,377.347 358.854,376.920 360.568 C 376.290 363.093,374.912 365.052,373.475 365.466 C 372.572 365.727,372.154 366.233,371.571 367.771 C 370.306 371.105,364.734 376.024,361.195 376.929 C 360.007 377.233,358.914 377.734,358.766 378.041 C 358.618 378.348,358.212 379.267,357.864 380.082 C 357.121 381.819,356.129 382.395,351.800 383.600 C 349.234 384.314,348.237 384.828,346.770 386.195 C 345.764 387.133,344.054 388.310,342.970 388.811 L 341.000 389.721 197.079 389.761 L 53.158 389.800 52.223 388.800 C 51.709 388.250,50.915 387.055,50.458 386.144 C 49.517 384.264,48.171 383.606,45.240 383.590 C 41.171 383.569,38.678 382.229,37.548 379.453 C 36.936 377.950,36.259 377.374,34.400 376.771 C 32.077 376.017,30.124 374.549,29.819 373.328 C 29.443 371.822,28.556 370.898,27.200 370.600 C 25.784 370.289,24.934 369.347,24.078 367.140 C 23.137 364.713,22.338 363.700,21.126 363.396 C 18.815 362.816,16.859 358.845,16.793 354.600 C 16.769 353.059,16.171 352.304,14.254 351.397 C 13.403 350.994,12.196 349.959,11.571 349.096 L 10.435 347.528 10.675 341.664 C 10.924 335.568,10.157 329.390,9.068 328.720 C 7.648 327.847,7.712 319.255,9.167 315.474 C 9.796 313.840,9.717 307.392,9.053 306.080 C 7.441 302.897,7.560 293.614,9.226 292.584 C 10.071 292.062,9.659 283.173,8.700 281.226 C 7.544 278.881,7.510 272.855,8.636 270.000 C 9.605 267.546,9.904 259.257,9.073 257.921 C 7.514 255.416,7.559 248.809,9.163 244.674 C 9.749 243.164,9.720 237.367,9.121 236.274 C 7.651 233.589,7.675 225.744,9.166 221.874 C 9.795 220.241,9.719 213.398,9.058 212.080 C 7.441 208.861,7.555 200.017,9.226 198.984 C 10.040 198.481,9.663 189.582,8.747 187.690 C 7.290 184.680,7.436 177.330,9.001 174.942 C 9.803 173.718,9.846 165.650,9.058 164.080 C 7.552 161.077,7.601 155.102,9.163 151.074 C 9.765 149.521,9.721 143.360,9.100 142.274 C 7.656 139.748,7.693 131.704,9.167 127.874 C 9.796 126.240,9.717 119.792,9.053 118.480 C 7.431 115.279,7.563 106.412,9.248 105.370 C 10.169 104.801,9.636 95.552,8.549 93.255 C 7.345 90.711,7.407 85.519,8.681 82.254 C 9.163 81.018,9.396 78.426,9.605 72.000 C 9.758 67.270,9.995 63.130,10.131 62.800 C 10.267 62.470,10.646 59.978,10.974 57.263 C 11.659 51.586,12.264 50.230,14.720 48.870 C 15.708 48.323,16.469 47.582,16.568 47.070 C 17.908 40.132,18.728 38.300,20.976 37.212 C 22.664 36.395,23.600 35.095,23.600 33.568 C 23.600 31.493,24.662 30.094,26.462 29.795 C 29.030 29.370,29.548 28.962,30.049 26.971 C 30.488 25.226,31.811 24.000,33.254 24.000 C 34.420 24.000,37.200 22.300,37.200 21.587 C 37.200 19.742,40.349 18.008,44.823 17.388 C 47.821 16.973,49.402 16.104,49.958 14.567 C 50.776 12.302,53.225 11.554,62.000 10.888 C 68.691 10.381,333.183 10.631,338.400 11.150 M35.006 15.990 C 34.892 16.174,34.404 16.222,33.921 16.095 C 33.086 15.877,33.081 15.852,33.821 15.583 C 34.694 15.266,35.321 15.481,35.006 15.990 M87.060 64.004 C 82.042 64.645,82.397 58.318,82.414 146.790 C 82.431 235.188,82.608 240.251,85.723 241.647 C 87.428 242.411,88.646 245.052,89.204 249.197 C 89.908 254.422,89.917 254.442,92.264 256.609 C 94.534 258.705,95.551 261.135,95.607 264.600 C 95.629 265.950,96.808 267.600,97.750 267.600 C 98.728 267.600,101.119 269.919,101.383 271.125 C 101.752 272.801,102.947 274.375,104.420 275.122 C 106.073 275.961,107.831 278.777,108.761 282.076 C 109.390 284.308,109.594 284.599,110.729 284.894 C 112.445 285.338,114.661 287.643,115.244 289.589 C 115.660 290.977,115.912 291.222,117.161 291.454 C 119.663 291.918,122.000 294.396,122.000 296.584 C 122.000 296.923,122.295 297.200,122.656 297.200 C 123.997 297.200,126.934 299.044,129.527 301.515 C 131.039 302.955,133.285 304.591,134.698 305.280 C 136.538 306.178,137.564 307.011,138.592 308.442 C 139.452 309.639,140.560 310.623,141.479 311.007 C 143.495 311.849,144.374 312.701,145.197 314.606 C 146.084 316.658,146.505 316.961,149.311 317.565 C 151.218 317.975,152.029 318.440,153.957 320.225 C 156.038 322.151,159.835 324.385,161.046 324.396 C 161.931 324.404,163.544 326.035,163.795 327.175 C 164.143 328.762,165.324 329.427,168.400 329.768 C 172.172 330.187,174.173 331.187,175.176 333.153 C 176.156 335.074,176.899 335.524,180.254 336.225 C 183.298 336.862,186.290 338.534,187.161 340.085 C 187.512 340.710,188.160 341.305,188.600 341.405 C 197.844 343.517,209.549 342.737,210.885 339.920 C 211.885 337.813,213.361 336.966,218.103 335.778 C 221.831 334.844,222.391 334.590,222.787 333.658 C 223.691 331.529,225.029 330.485,227.979 329.606 C 229.631 329.114,231.136 328.393,231.525 327.907 C 233.451 325.500,237.257 323.600,240.153 323.600 C 241.171 323.600,242.175 322.551,242.537 321.110 C 242.825 319.962,245.309 317.600,246.227 317.600 C 247.188 317.600,250.678 315.694,250.933 315.030 C 251.333 313.987,255.825 310.953,257.779 310.406 C 259.301 309.980,259.784 309.608,260.410 308.380 C 261.359 306.520,262.865 305.299,264.614 304.971 C 266.202 304.673,266.933 303.918,267.578 301.906 C 268.116 300.230,269.479 298.978,271.169 298.607 C 272.591 298.295,273.748 297.042,274.446 295.063 C 274.892 293.798,275.379 293.332,277.194 292.439 C 279.018 291.542,279.557 291.024,280.309 289.451 C 281.031 287.938,281.580 287.387,282.987 286.765 C 284.738 285.990,286.400 284.351,286.400 283.400 C 286.400 282.446,288.141 280.711,289.824 279.990 C 291.364 279.330,291.587 279.051,292.167 277.054 C 292.836 274.754,294.139 273.415,296.261 272.847 C 297.170 272.604,297.394 272.154,298.211 268.922 C 299.397 264.228,301.093 261.600,302.934 261.600 C 303.770 261.600,304.510 259.892,305.069 256.673 C 305.734 252.839,306.343 251.605,308.370 249.976 C 310.350 248.385,310.677 247.488,310.990 242.800 C 311.360 237.255,312.554 232.302,314.425 228.555 C 315.447 226.507,316.180 224.367,316.410 222.755 C 316.924 219.157,316.954 71.656,316.441 70.307 C 315.948 69.011,312.892 65.921,310.793 64.596 L 309.216 63.600 199.308 63.652 C 138.859 63.681,88.347 63.839,87.060 64.004 M280.588 93.429 C 283.721 95.482,283.706 95.118,283.470 165.800 C 283.234 236.344,283.327 234.739,279.356 237.338 C 277.885 238.301,277.383 239.194,276.774 241.930 C 276.150 244.731,274.636 247.657,273.075 249.077 C 272.141 249.927,271.403 251.173,270.829 252.871 C 269.732 256.115,269.327 256.616,266.753 257.921 C 265.065 258.777,264.548 259.276,264.244 260.338 C 263.761 262.031,261.952 263.859,260.429 264.194 C 259.011 264.505,258.579 264.994,258.214 266.701 C 257.870 268.312,255.989 270.251,254.443 270.591 C 253.113 270.883,252.223 271.762,251.801 273.200 C 251.372 274.663,250.081 275.912,248.441 276.449 C 246.373 277.127,245.200 277.983,245.200 278.815 C 245.200 279.926,243.279 281.959,241.391 282.846 C 239.618 283.680,239.111 284.117,237.318 286.357 C 236.093 287.889,233.227 289.355,230.073 290.062 C 228.241 290.473,227.843 290.738,227.211 291.970 C 226.218 293.907,224.934 294.969,222.877 295.555 C 221.008 296.087,220.164 296.799,219.135 298.709 C 218.273 300.309,216.661 301.113,212.872 301.833 C 208.630 302.640,208.400 302.737,208.399 303.727 C 208.390 308.567,201.356 309.669,197.300 305.466 C 195.347 303.442,195.326 303.321,196.400 300.200 C 197.191 297.900,197.200 296.801,197.224 199.037 C 197.237 144.677,197.390 99.334,197.564 98.275 C 197.958 95.883,198.985 94.434,201.023 93.400 C 203.308 92.241,278.816 92.268,280.588 93.429 M22.372 379.300 C 22.348 380.389,22.288 380.470,22.000 379.800 C 21.525 378.695,21.525 378.000,22.000 378.000 C 22.220 378.000,22.387 378.585,22.372 379.300 " stroke="none" fill="#f9f9f9" fill-rule="evenodd"></path><path id="path1" d="M67.200 14.253 C 66.650 14.335,64.850 14.596,63.200 14.833 C 59.015 15.433,58.400 15.611,58.400 16.223 C 58.400 17.744,53.823 19.732,49.200 20.220 C 45.886 20.570,43.759 21.639,42.933 23.371 C 42.178 24.955,40.291 26.099,37.043 26.942 C 34.279 27.659,34.188 27.733,33.474 29.810 C 32.872 31.564,30.877 33.200,29.341 33.200 C 27.940 33.200,26.958 34.440,26.665 36.579 C 26.309 39.176,24.962 41.432,23.296 42.222 C 21.600 43.027,20.226 45.904,19.879 49.376 C 19.620 51.974,18.837 53.344,16.896 54.600 C 16.043 55.152,15.399 56.102,14.820 57.667 L 13.981 59.934 13.983 200.156 C 13.986 355.349,13.805 343.970,16.287 345.400 C 18.295 346.557,19.531 348.272,19.764 350.224 C 20.249 354.304,21.694 357.731,23.236 358.464 C 24.795 359.205,26.526 361.999,26.968 364.489 C 27.238 366.014,28.415 367.200,29.658 367.200 C 30.814 367.200,32.762 369.173,33.195 370.783 C 33.683 372.595,34.140 373.018,36.000 373.380 C 40.241 374.204,42.497 375.520,43.036 377.483 C 43.361 378.667,46.203 379.998,48.426 380.008 C 54.004 380.033,57.673 381.244,58.554 383.351 C 59.190 384.873,60.253 385.250,66.000 385.990 C 68.419 386.302,107.311 386.395,200.800 386.314 C 347.850 386.186,335.230 386.451,338.400 383.425 C 340.384 381.531,341.800 380.923,345.423 380.408 C 353.545 379.255,353.633 379.223,354.774 377.007 C 355.705 375.197,355.966 374.981,357.600 374.669 C 359.841 374.240,361.835 372.770,362.574 371.000 C 362.936 370.135,363.691 369.364,364.670 368.862 C 366.646 367.849,367.775 366.604,368.599 364.531 C 369.087 363.302,369.650 362.682,370.731 362.181 C 373.271 361.005,373.900 360.151,374.435 357.158 C 374.906 354.521,375.003 354.357,376.635 353.400 C 378.590 352.255,379.977 349.349,380.264 345.800 C 381.184 334.407,381.559 332.702,383.799 329.765 L 384.775 328.487 384.769 200.392 C 384.764 76.885,384.737 72.245,384.029 70.849 C 382.445 67.726,380.823 61.640,380.374 57.136 C 379.680 50.174,378.761 47.549,376.680 46.579 C 375.092 45.839,374.985 45.676,374.518 43.306 C 373.894 40.138,373.124 38.981,371.023 38.052 C 369.811 37.515,369.193 36.930,368.807 35.954 C 368.069 34.086,366.478 32.438,364.729 31.731 C 363.654 31.296,363.044 30.681,362.463 29.446 C 361.462 27.316,360.892 26.837,357.882 25.600 C 355.878 24.776,355.303 24.318,354.623 23.000 L 353.796 21.400 349.398 20.704 C 346.979 20.321,344.391 19.903,343.646 19.776 C 342.774 19.626,341.554 18.845,340.217 17.580 C 336.319 13.894,350.548 14.241,200.400 14.168 C 127.690 14.133,67.750 14.171,67.200 14.253 M269.733 56.900 L 309.266 57.000 310.413 58.284 C 311.384 59.371,312.679 60.139,317.980 62.774 C 320.393 63.973,320.189 56.633,320.307 146.529 C 320.431 240.277,320.521 237.876,316.821 239.789 C 315.441 240.503,314.552 243.164,313.824 248.757 C 313.238 253.266,312.702 254.376,310.635 255.356 C 308.838 256.209,308.575 256.721,307.887 260.703 C 307.252 264.378,306.536 265.711,304.572 266.869 C 303.176 267.693,302.029 269.721,301.184 272.859 C 300.756 274.450,298.973 275.995,297.562 275.999 C 296.597 276.001,295.609 277.309,294.970 279.433 C 294.289 281.694,293.526 282.632,292.071 282.995 C 290.612 283.359,289.600 284.345,289.600 285.403 C 289.600 286.962,287.913 288.937,285.989 289.630 C 284.436 290.189,284.057 290.568,283.121 292.501 C 282.142 294.520,281.842 294.802,279.921 295.512 C 278.359 296.089,277.664 296.599,277.286 297.448 C 276.127 300.048,275.731 300.604,274.690 301.090 C 274.091 301.371,273.105 301.827,272.500 302.104 C 271.778 302.435,271.026 303.391,270.312 304.886 C 269.252 307.107,269.162 307.183,266.712 307.900 C 264.307 308.605,264.177 308.710,263.651 310.354 C 263.101 312.075,261.372 313.595,259.962 313.599 C 258.946 313.601,257.183 315.351,256.371 317.165 C 255.526 319.052,254.096 319.858,249.420 321.083 C 246.900 321.743,246.633 321.915,246.218 323.146 C 245.675 324.759,244.765 325.483,242.612 326.014 C 239.707 326.732,238.343 327.666,237.570 329.469 C 236.616 331.695,233.283 333.200,229.306 333.200 C 228.125 333.200,226.401 334.605,226.398 335.570 C 226.393 337.118,224.649 338.391,221.400 339.219 C 216.122 340.564,215.859 340.690,215.000 342.286 C 214.119 343.924,213.594 344.169,207.863 345.632 C 205.145 346.325,203.906 346.880,202.518 348.028 C 199.035 350.905,196.499 351.007,195.030 348.329 C 193.919 346.302,191.702 345.321,187.602 345.041 C 183.827 344.784,182.572 344.167,181.647 342.115 C 181.005 340.692,178.603 339.201,176.946 339.198 C 173.999 339.192,170.000 336.826,170.000 335.089 C 170.000 334.427,166.558 332.805,165.126 332.791 C 164.617 332.786,163.466 332.449,162.570 332.042 C 161.044 331.349,160.640 330.798,159.877 328.371 C 159.752 327.972,158.453 327.418,156.318 326.854 C 152.155 325.754,150.590 324.828,149.833 323.016 C 149.233 321.581,148.561 321.158,144.763 319.826 C 142.928 319.182,142.413 318.576,141.700 316.213 C 141.392 315.192,140.996 314.925,138.854 314.294 C 136.661 313.648,136.166 313.304,134.685 311.388 C 133.760 310.193,132.463 309.016,131.802 308.772 C 127.060 307.024,125.402 305.826,124.855 303.752 C 124.617 302.853,123.990 302.319,122.001 301.320 C 120.600 300.616,119.245 299.626,118.991 299.120 C 118.738 298.614,118.276 297.660,117.965 297.000 C 117.583 296.188,116.688 295.457,115.200 294.739 C 113.410 293.875,112.777 293.284,111.800 291.565 C 110.968 290.100,110.048 289.136,108.800 288.419 C 107.479 287.660,106.734 286.847,106.000 285.363 C 104.455 282.240,103.718 281.293,102.304 280.621 C 100.753 279.884,99.164 277.486,98.076 274.243 C 97.365 272.123,97.132 271.833,95.748 271.358 C 93.939 270.736,93.326 270.002,92.786 267.812 C 92.447 266.441,92.079 265.063,91.370 262.513 C 91.296 262.245,90.601 261.760,89.826 261.437 C 87.932 260.645,86.907 258.816,86.574 255.635 C 86.148 251.556,85.099 249.143,83.341 248.196 C 81.004 246.938,80.336 244.916,79.973 238.004 C 79.805 234.812,79.382 231.156,79.034 229.880 C 78.685 228.605,78.400 227.238,78.400 226.842 C 78.400 226.447,78.022 225.782,77.559 225.363 C 75.488 223.489,75.602 227.817,75.579 149.920 C 75.568 110.034,75.423 76.174,75.256 74.676 C 74.930 71.743,75.217 71.102,77.523 69.600 C 78.185 69.168,78.711 68.051,79.395 65.622 C 80.503 61.691,80.943 61.250,84.729 60.274 C 86.462 59.828,87.598 59.295,87.921 58.778 C 89.439 56.347,81.786 56.426,269.733 56.900 M275.000 98.415 L 272.600 99.590 240.674 99.595 C 222.682 99.598,208.453 99.444,208.074 99.243 C 207.703 99.046,206.465 98.609,205.323 98.271 L 203.246 97.657 202.418 100.144 L 201.591 102.632 201.595 203.016 C 201.599 297.736,201.639 303.429,202.292 303.912 C 203.407 304.735,204.133 304.315,205.094 302.291 C 206.038 300.304,206.890 299.738,211.314 298.163 C 212.731 297.658,213.509 297.056,214.316 295.840 C 215.510 294.042,218.270 292.400,220.098 292.400 C 222.315 292.400,223.792 291.442,224.396 289.611 C 224.837 288.276,225.261 287.785,226.379 287.319 C 229.760 285.907,232.000 284.667,232.000 284.205 C 232.000 282.589,235.101 280.438,239.197 279.212 C 241.266 278.592,241.408 278.467,241.637 277.057 C 241.951 275.125,242.145 274.960,244.948 274.230 C 247.888 273.465,248.311 273.108,248.858 270.934 C 249.315 269.122,250.749 267.600,252.000 267.600 C 253.188 267.600,254.762 266.025,255.200 264.400 C 255.606 262.893,257.193 261.200,258.200 261.200 C 259.223 261.200,260.797 259.496,261.218 257.934 C 261.686 256.196,263.294 254.400,264.382 254.400 C 265.734 254.400,266.402 253.324,267.363 249.603 C 268.343 245.806,269.805 243.600,271.340 243.600 C 272.222 243.600,274.000 241.281,274.000 240.131 C 274.000 235.156,274.892 231.816,276.687 230.076 C 280.255 226.616,280.025 231.461,279.905 162.087 C 279.780 90.078,280.226 95.857,275.000 98.415 " stroke="none" fill="#3b8bbc" fill-rule="evenodd"></path><path id="path2" d="M66.800 13.447 C 66.250 13.527,64.270 13.794,62.400 14.041 C 58.929 14.500,56.943 15.266,53.400 17.512 C 52.177 18.288,50.240 19.022,48.413 19.403 C 44.997 20.115,42.121 21.630,41.604 22.990 C 41.120 24.262,39.986 24.884,36.000 26.063 C 34.462 26.517,32.800 27.856,32.800 28.639 C 32.800 29.500,30.874 31.474,29.508 32.012 C 27.990 32.610,26.000 34.328,26.000 35.039 C 26.000 36.639,24.188 40.066,22.931 40.843 C 21.343 41.824,20.232 43.826,19.346 47.301 C 18.521 50.538,17.878 51.747,16.437 52.774 C 15.560 53.398,14.975 54.446,14.131 56.905 L 13.000 60.200 13.000 200.200 L 13.000 340.200 13.935 343.179 C 14.647 345.445,15.234 346.497,16.389 347.579 C 18.232 349.304,18.546 349.893,19.391 353.209 C 20.356 356.994,21.432 358.982,23.121 360.100 C 24.309 360.886,24.800 361.619,25.535 363.701 C 26.524 366.501,27.340 367.446,29.687 368.504 C 30.764 368.990,31.444 369.709,32.156 371.112 C 33.400 373.569,33.690 373.794,36.583 374.547 C 39.096 375.201,40.655 376.134,41.369 377.411 C 42.455 379.354,45.055 380.549,49.587 381.190 C 53.325 381.719,54.632 382.262,56.979 384.265 C 58.826 385.840,60.035 386.206,65.284 386.777 C 71.971 387.505,328.388 387.350,333.200 386.615 C 337.672 385.933,340.615 384.993,341.305 384.029 C 342.245 382.713,343.817 382.062,348.600 381.005 C 353.745 379.868,355.036 379.283,355.583 377.844 C 356.076 376.547,358.284 374.800,359.430 374.800 C 360.567 374.800,368.279 367.421,369.360 365.298 C 369.724 364.582,370.718 363.557,371.568 363.020 C 373.381 361.876,374.800 360.031,374.800 358.818 C 374.800 357.454,375.848 355.788,377.559 354.433 C 379.325 353.034,380.349 350.548,381.363 345.200 C 382.017 341.749,383.667 335.774,384.289 334.599 C 385.960 331.449,385.928 334.265,385.816 199.000 C 385.707 67.364,385.693 66.134,384.194 63.847 C 382.992 62.013,381.530 57.731,380.979 54.429 C 380.106 49.207,379.329 46.924,378.145 46.113 C 376.137 44.737,375.189 43.471,374.941 41.836 C 374.688 40.166,374.283 39.677,367.562 32.945 C 363.981 29.358,363.435 28.803,361.786 27.072 C 360.842 26.082,359.513 25.179,358.586 24.899 C 357.437 24.553,356.613 23.894,355.594 22.510 L 354.188 20.600 349.650 19.712 C 344.560 18.716,342.387 17.826,341.805 16.500 C 341.384 15.540,340.622 15.218,336.200 14.126 C 333.630 13.492,71.077 12.830,66.800 13.447 M335.370 14.925 C 337.680 15.502,338.487 15.944,340.217 17.580 C 341.554 18.845,342.774 19.626,343.646 19.776 C 344.391 19.903,346.979 20.321,349.398 20.704 L 353.796 21.400 354.623 23.000 C 355.303 24.318,355.878 24.776,357.882 25.600 C 360.892 26.837,361.462 27.316,362.463 29.446 C 363.044 30.681,363.654 31.296,364.729 31.731 C 366.478 32.438,368.069 34.086,368.807 35.954 C 369.193 36.930,369.811 37.515,371.023 38.052 C 373.124 38.981,373.894 40.138,374.518 43.306 C 374.985 45.676,375.092 45.839,376.680 46.579 C 378.761 47.549,379.680 50.174,380.374 57.136 C 380.823 61.640,382.445 67.726,384.029 70.849 C 384.737 72.245,384.764 76.885,384.769 200.392 L 384.775 328.487 383.799 329.765 C 381.559 332.702,381.184 334.407,380.264 345.800 C 379.977 349.349,378.590 352.255,376.635 353.400 C 375.003 354.357,374.906 354.521,374.435 357.158 C 373.900 360.151,373.271 361.005,370.731 362.181 C 369.650 362.682,369.087 363.302,368.599 364.531 C 367.775 366.604,366.646 367.849,364.670 368.862 C 363.691 369.364,362.936 370.135,362.574 371.000 C 361.835 372.770,359.841 374.240,357.600 374.669 C 355.966 374.981,355.705 375.197,354.774 377.007 C 353.633 379.223,353.545 379.255,345.423 380.408 C 341.800 380.923,340.384 381.531,338.400 383.425 C 335.230 386.451,347.850 386.186,200.800 386.314 C 107.311 386.395,68.419 386.302,66.000 385.990 C 60.253 385.250,59.190 384.873,58.554 383.351 C 57.673 381.244,54.004 380.033,48.426 380.008 C 46.203 379.998,43.361 378.667,43.036 377.483 C 42.497 375.520,40.241 374.204,36.000 373.380 C 34.140 373.018,33.683 372.595,33.195 370.783 C 32.762 369.173,30.814 367.200,29.658 367.200 C 28.415 367.200,27.238 366.014,26.968 364.489 C 26.526 361.999,24.795 359.205,23.236 358.464 C 21.694 357.731,20.249 354.304,19.764 350.224 C 19.531 348.272,18.295 346.557,16.287 345.400 C 13.805 343.970,13.986 355.349,13.983 200.156 L 13.981 59.934 14.820 57.667 C 15.399 56.102,16.043 55.152,16.896 54.600 C 18.837 53.344,19.620 51.974,19.879 49.376 C 20.226 45.904,21.600 43.027,23.296 42.222 C 24.962 41.432,26.309 39.176,26.665 36.579 C 26.958 34.440,27.940 33.200,29.341 33.200 C 30.877 33.200,32.872 31.564,33.474 29.810 C 34.188 27.733,34.279 27.659,37.043 26.942 C 40.291 26.099,42.178 24.955,42.933 23.371 C 43.759 21.639,45.886 20.570,49.200 20.220 C 53.823 19.732,58.400 17.744,58.400 16.223 C 58.400 15.611,59.015 15.433,63.200 14.833 C 64.850 14.596,66.650 14.335,67.200 14.253 C 71.368 13.632,332.815 14.286,335.370 14.925 M89.553 57.287 C 88.931 57.665,88.197 58.336,87.921 58.778 C 87.598 59.295,86.462 59.828,84.729 60.274 C 80.943 61.250,80.503 61.691,79.395 65.622 C 78.711 68.051,78.185 69.168,77.523 69.600 C 75.217 71.102,74.930 71.743,75.256 74.676 C 75.423 76.174,75.568 110.034,75.579 149.920 C 75.602 227.817,75.488 223.489,77.559 225.363 C 78.022 225.782,78.400 226.447,78.400 226.842 C 78.400 227.238,78.685 228.605,79.034 229.880 C 79.382 231.156,79.805 234.812,79.973 238.004 C 80.336 244.916,81.004 246.938,83.341 248.196 C 85.099 249.143,86.148 251.556,86.574 255.635 C 86.907 258.816,87.932 260.645,89.826 261.437 C 90.601 261.760,91.296 262.245,91.370 262.513 C 92.079 265.063,92.447 266.441,92.786 267.812 C 93.326 270.002,93.939 270.736,95.748 271.358 C 97.132 271.833,97.365 272.123,98.076 274.243 C 99.164 277.486,100.753 279.884,102.304 280.621 C 103.718 281.293,104.455 282.240,106.000 285.363 C 106.734 286.847,107.479 287.660,108.800 288.419 C 110.048 289.136,110.968 290.100,111.800 291.565 C 112.777 293.284,113.410 293.875,115.200 294.739 C 116.688 295.457,117.583 296.188,117.965 297.000 C 118.276 297.660,118.738 298.614,118.991 299.120 C 119.245 299.626,120.600 300.616,122.001 301.320 C 123.990 302.319,124.617 302.853,124.855 303.752 C 125.402 305.826,127.060 307.024,131.802 308.772 C 132.463 309.016,133.760 310.193,134.685 311.388 C 136.166 313.304,136.661 313.648,138.854 314.294 C 140.996 314.925,141.392 315.192,141.700 316.213 C 142.413 318.576,142.928 319.182,144.763 319.826 C 148.561 321.158,149.233 321.581,149.833 323.016 C 150.590 324.828,152.155 325.754,156.318 326.854 C 158.453 327.418,159.752 327.972,159.877 328.371 C 160.640 330.798,161.044 331.349,162.570 332.042 C 163.466 332.449,164.617 332.786,165.126 332.791 C 166.558 332.805,170.000 334.427,170.000 335.089 C 170.000 336.826,173.999 339.192,176.946 339.198 C 178.603 339.201,181.005 340.692,181.647 342.115 C 182.572 344.167,183.827 344.784,187.602 345.041 C 191.702 345.321,193.919 346.302,195.030 348.329 C 196.499 351.007,199.035 350.905,202.518 348.028 C 203.906 346.880,205.145 346.325,207.863 345.632 C 213.594 344.169,214.119 343.924,215.000 342.286 C 215.859 340.690,216.122 340.564,221.400 339.219 C 224.649 338.391,226.393 337.118,226.398 335.570 C 226.401 334.605,228.125 333.200,229.306 333.200 C 233.283 333.200,236.616 331.695,237.570 329.469 C 238.343 327.666,239.707 326.732,242.612 326.014 C 244.765 325.483,245.675 324.759,246.218 323.146 C 246.633 321.915,246.900 321.743,249.420 321.083 C 254.096 319.858,255.526 319.052,256.371 317.165 C 257.183 315.351,258.946 313.601,259.962 313.599 C 261.372 313.595,263.101 312.075,263.651 310.354 C 264.177 308.710,264.307 308.605,266.712 307.900 C 269.162 307.183,269.252 307.107,270.312 304.886 C 271.026 303.391,271.778 302.435,272.500 302.104 C 276.039 300.482,275.852 300.664,277.286 297.448 C 277.664 296.599,278.359 296.089,279.921 295.512 C 281.842 294.802,282.142 294.520,283.121 292.501 C 284.057 290.568,284.436 290.189,285.989 289.630 C 287.913 288.937,289.600 286.962,289.600 285.403 C 289.600 284.345,290.612 283.359,292.071 282.995 C 293.526 282.632,294.289 281.694,294.970 279.433 C 295.609 277.309,296.597 276.001,297.562 275.999 C 298.973 275.995,300.756 274.450,301.184 272.859 C 302.029 269.721,303.176 267.693,304.572 266.869 C 306.536 265.711,307.252 264.378,307.887 260.703 C 308.575 256.721,308.838 256.209,310.635 255.356 C 312.702 254.376,313.238 253.266,313.824 248.757 C 314.552 243.164,315.441 240.503,316.821 239.789 C 320.521 237.876,320.431 240.277,320.307 146.529 C 320.189 56.633,320.393 63.973,317.980 62.774 C 312.679 60.139,311.384 59.371,310.413 58.284 L 309.266 57.000 269.733 56.900 C 116.868 56.514,90.731 56.571,89.553 57.287 M305.084 59.421 C 312.106 59.822,318.204 63.530,319.158 67.979 C 319.755 70.764,319.782 221.288,319.187 227.258 C 318.687 232.269,317.907 235.170,316.656 236.673 C 315.378 238.209,314.168 241.621,313.397 245.861 C 312.472 250.949,312.179 251.669,310.293 253.482 C 308.907 254.814,308.433 255.680,307.679 258.254 C 306.384 262.678,305.816 263.817,304.379 264.874 C 303.002 265.887,301.909 267.776,300.747 271.153 C 299.951 273.469,299.009 274.800,298.169 274.800 C 297.203 274.800,295.166 276.905,294.085 279.019 C 293.418 280.324,292.306 281.662,291.200 282.491 C 290.196 283.243,288.948 284.693,288.378 285.771 C 287.644 287.158,286.827 287.999,285.478 288.756 C 284.289 289.423,283.120 290.543,282.294 291.805 C 281.419 293.145,280.337 294.153,279.003 294.875 C 277.909 295.466,276.737 296.456,276.398 297.075 C 275.045 299.541,274.276 300.379,272.974 300.809 C 271.621 301.255,270.769 302.124,269.064 304.797 C 268.502 305.677,267.289 306.648,265.786 307.423 C 264.474 308.098,263.204 309.044,262.964 309.523 C 262.241 310.971,261.195 311.926,258.944 313.197 C 257.765 313.862,256.259 315.154,255.597 316.068 C 254.021 318.244,253.546 318.545,249.585 319.889 C 246.521 320.928,246.153 321.169,245.220 322.748 C 244.401 324.131,243.805 324.610,242.200 325.172 C 238.991 326.296,237.832 327.035,236.251 328.964 C 234.777 330.763,231.177 332.400,228.696 332.400 C 227.824 332.400,224.800 335.295,224.800 336.131 C 224.800 336.894,222.937 337.782,219.200 338.802 C 216.239 339.610,215.564 339.969,213.975 341.585 C 212.232 343.358,211.900 343.509,206.575 344.952 C 203.509 345.783,200.120 346.803,199.045 347.220 L 197.089 347.978 195.927 347.000 C 194.239 345.579,191.682 344.552,189.000 344.217 C 185.747 343.811,184.999 343.462,182.514 341.191 C 180.905 339.721,179.752 339.045,178.071 338.588 C 174.956 337.742,173.288 336.848,172.338 335.513 C 171.384 334.173,169.460 333.130,166.188 332.180 C 163.150 331.297,162.199 330.663,161.169 328.831 C 160.138 326.995,159.804 326.794,155.567 325.456 C 152.472 324.478,152.014 324.201,150.918 322.646 C 150.112 321.503,149.042 320.623,147.751 320.039 C 146.678 319.554,145.355 318.938,144.812 318.670 C 144.269 318.402,143.289 317.245,142.634 316.098 C 141.628 314.336,141.156 313.917,139.587 313.396 C 137.734 312.780,136.110 311.402,135.237 309.705 C 134.984 309.212,134.287 308.696,133.688 308.557 C 131.388 308.024,127.565 305.540,126.083 303.615 C 125.268 302.555,123.700 301.167,122.600 300.529 C 121.322 299.789,120.133 298.654,119.307 297.385 C 118.581 296.271,117.096 294.785,115.922 293.998 C 114.772 293.227,113.194 291.754,112.415 290.726 C 111.637 289.697,110.251 288.314,109.336 287.651 C 108.278 286.886,107.185 285.533,106.336 283.938 C 105.601 282.558,104.008 280.424,102.795 279.196 C 101.529 277.913,100.027 275.820,99.270 274.281 C 98.544 272.806,97.484 271.284,96.915 270.900 C 94.630 269.355,93.792 268.080,92.649 264.410 C 91.789 261.649,91.194 260.448,90.293 259.658 C 89.631 259.076,88.861 258.379,88.582 258.109 C 88.304 257.840,87.704 256.004,87.250 254.030 C 86.307 249.936,85.030 246.951,83.981 246.390 C 82.376 245.531,81.196 242.015,80.818 236.970 C 80.621 234.347,79.998 229.860,79.432 227.000 L 78.404 221.800 78.385 148.800 C 78.374 108.650,78.213 75.012,78.027 74.048 C 77.757 72.649,77.834 72.044,78.410 71.048 C 78.806 70.362,79.524 68.460,80.005 66.823 C 81.138 62.968,82.074 62.111,86.738 60.661 C 88.753 60.034,90.474 59.404,90.563 59.261 C 90.770 58.925,299.132 59.081,305.084 59.421 M202.715 96.686 C 202.366 97.079,201.702 98.634,201.240 100.142 L 200.400 102.884 200.400 203.228 L 200.400 303.571 201.879 304.576 C 203.594 305.741,203.950 305.567,206.039 302.540 C 207.184 300.879,208.561 300.047,212.570 298.594 C 213.797 298.150,215.232 297.170,216.370 296.000 C 217.488 294.852,218.823 293.934,219.800 293.642 C 222.853 292.732,224.642 291.570,225.033 290.245 C 225.340 289.202,225.932 288.740,228.676 287.400 C 230.761 286.382,232.803 284.983,234.291 283.552 C 235.960 281.950,237.331 281.049,239.072 280.415 C 241.195 279.640,241.606 279.318,242.230 277.933 C 243.063 276.085,244.528 274.800,245.800 274.800 C 247.113 274.800,248.696 273.378,249.793 271.214 C 250.528 269.763,251.176 269.111,252.502 268.488 C 254.456 267.569,255.046 266.971,256.200 264.737 C 256.679 263.810,257.798 262.668,258.987 261.894 C 260.365 260.997,261.348 259.926,262.195 258.400 C 262.982 256.979,263.882 255.965,264.735 255.537 C 266.390 254.706,267.600 253.626,267.600 252.980 C 267.600 250.464,269.400 246.944,271.976 244.423 L 274.680 241.778 274.881 238.989 C 275.074 236.310,276.527 232.463,277.595 231.803 C 278.325 231.352,279.212 229.253,280.009 226.091 C 281.209 221.328,281.239 104.168,280.041 99.847 C 278.964 95.962,278.788 95.842,274.956 96.396 C 271.349 96.918,205.043 96.810,203.975 96.281 C 203.573 96.082,203.123 96.227,202.715 96.686 M279.085 99.300 C 279.758 101.275,279.806 104.999,279.905 162.087 C 280.025 231.461,280.255 226.616,276.687 230.076 C 274.892 231.816,274.000 235.156,274.000 240.131 C 274.000 241.281,272.222 243.600,271.340 243.600 C 269.805 243.600,268.343 245.806,267.363 249.603 C 266.402 253.324,265.734 254.400,264.382 254.400 C 263.294 254.400,261.686 256.196,261.218 257.934 C 260.797 259.496,259.223 261.200,258.200 261.200 C 257.193 261.200,255.606 262.893,255.200 264.400 C 254.762 266.025,253.188 267.600,252.000 267.600 C 250.749 267.600,249.315 269.122,248.858 270.934 C 248.311 273.108,247.888 273.465,244.948 274.230 C 242.145 274.960,241.951 275.125,241.637 277.057 C 241.408 278.467,241.266 278.592,239.197 279.212 C 235.101 280.438,232.000 282.589,232.000 284.205 C 232.000 284.667,229.760 285.907,226.379 287.319 C 225.261 287.785,224.837 288.276,224.396 289.611 C 223.792 291.442,222.315 292.400,220.098 292.400 C 218.270 292.400,215.510 294.042,214.316 295.840 C 213.509 297.056,212.731 297.658,211.314 298.163 C 206.890 299.738,206.038 300.304,205.094 302.291 C 204.133 304.315,203.407 304.735,202.292 303.912 C 201.639 303.429,201.599 297.736,201.595 203.016 L 201.591 102.632 202.418 100.144 L 203.246 97.657 205.323 98.271 C 206.465 98.609,207.703 99.046,208.074 99.243 C 208.453 99.444,222.682 99.598,240.674 99.595 L 272.600 99.590 275.000 98.415 C 278.185 96.856,278.257 96.871,279.085 99.300 " stroke="none" fill="#6caccc" fill-rule="evenodd"></path><path id="path3" d="M62.200 12.996 C 57.547 13.648,53.748 14.961,52.238 16.437 C 51.550 17.109,50.090 17.884,48.819 18.251 C 44.201 19.583,43.004 20.174,40.783 22.216 C 39.129 23.736,37.893 24.491,36.293 24.956 C 34.099 25.594,33.606 26.015,30.862 29.595 C 30.346 30.268,29.356 31.105,28.662 31.455 C 26.520 32.535,25.202 34.046,24.933 35.731 C 24.744 36.908,24.090 37.930,22.295 39.849 C 20.176 42.114,19.777 42.816,18.752 46.088 C 17.825 49.043,17.274 50.102,15.973 51.428 C 12.884 54.575,12.437 57.002,11.892 73.600 C 11.635 81.410,11.506 89.330,11.604 91.200 C 11.703 93.070,11.767 97.120,11.746 100.200 C 11.726 103.280,11.723 108.770,11.739 112.400 C 11.756 116.030,11.767 120.980,11.763 123.400 C 11.760 125.820,11.757 131.130,11.758 135.200 C 11.761 149.634,11.760 151.068,11.743 157.400 C 11.734 160.920,11.733 166.320,11.741 169.400 C 11.749 172.480,11.742 177.970,11.725 181.600 C 11.693 188.616,11.697 195.297,11.739 206.000 C 11.754 209.630,11.763 214.670,11.761 217.200 C 11.758 219.730,11.757 225.130,11.758 229.200 C 11.759 233.270,11.760 238.400,11.760 240.600 C 11.761 242.800,11.753 247.570,11.743 251.200 C 11.733 254.830,11.742 260.230,11.763 263.200 C 11.783 266.170,11.723 270.850,11.629 273.600 C 11.534 276.350,11.594 281.300,11.762 284.600 C 11.934 287.980,11.904 291.997,11.694 293.800 C 11.468 295.742,11.462 299.751,11.679 304.000 C 11.875 307.850,11.893 313.520,11.718 316.600 C 11.543 319.680,11.523 323.910,11.674 326.000 C 11.825 328.090,12.126 332.860,12.343 336.600 C 12.826 344.917,13.249 346.411,15.856 349.018 C 17.332 350.493,17.974 351.516,18.361 353.001 C 19.733 358.264,20.077 358.960,22.420 361.200 C 23.803 362.522,24.827 363.879,24.987 364.600 C 25.392 366.418,26.264 367.532,28.291 368.817 C 29.303 369.458,30.786 370.932,31.587 372.092 C 32.856 373.928,33.345 374.296,35.377 374.945 C 37.126 375.504,38.273 376.239,39.955 377.878 C 42.822 380.672,43.582 381.051,48.151 381.970 C 52.197 382.784,53.033 383.120,55.200 384.803 C 59.630 388.243,50.738 388.056,202.400 387.901 C 346.230 387.753,338.568 387.871,341.394 385.775 C 344.560 383.427,345.983 382.767,349.722 381.915 C 353.955 380.950,353.744 381.081,357.560 377.037 C 358.308 376.245,359.627 375.384,360.490 375.126 C 361.479 374.830,362.628 374.009,363.598 372.907 C 364.445 371.945,365.855 370.639,366.732 370.003 C 367.609 369.368,368.907 367.893,369.616 366.724 C 370.325 365.556,371.630 364.060,372.516 363.400 C 373.402 362.740,374.258 361.930,374.418 361.600 C 374.578 361.270,375.127 360.040,375.638 358.867 C 376.213 357.548,377.166 356.261,378.135 355.493 C 379.998 354.017,380.493 352.928,382.014 346.947 C 382.648 344.453,383.525 341.915,383.962 341.306 C 384.448 340.631,385.159 338.174,385.787 335.000 L 386.817 329.800 386.708 197.800 L 386.600 65.800 385.705 63.167 C 385.212 61.719,384.272 59.739,383.616 58.767 C 382.959 57.795,382.242 56.100,382.022 55.000 C 380.245 46.129,380.482 46.764,378.148 44.600 C 376.628 43.190,375.751 41.961,375.172 40.433 C 374.387 38.359,373.488 37.272,368.105 31.893 C 361.921 25.714,360.885 24.800,360.066 24.800 C 359.234 24.800,356.400 22.321,356.400 21.593 C 356.400 20.729,353.752 19.535,350.294 18.839 C 346.050 17.985,344.621 17.359,342.458 15.405 C 339.124 12.393,350.300 12.616,199.800 12.550 C 93.840 12.504,65.047 12.597,62.200 12.996 M336.200 14.126 C 340.622 15.218,341.384 15.540,341.805 16.500 C 342.387 17.826,344.560 18.716,349.650 19.712 L 354.188 20.600 355.594 22.510 C 356.613 23.894,357.437 24.553,358.586 24.899 C 359.513 25.179,360.842 26.082,361.786 27.072 C 363.435 28.803,363.981 29.358,367.562 32.945 C 374.283 39.677,374.688 40.166,374.941 41.836 C 375.189 43.471,376.137 44.737,378.145 46.113 C 379.329 46.924,380.106 49.207,380.979 54.429 C 381.530 57.731,382.992 62.013,384.194 63.847 C 385.693 66.134,385.707 67.364,385.816 199.000 C 385.928 334.265,385.960 331.449,384.289 334.599 C 383.667 335.774,382.017 341.749,381.363 345.200 C 380.349 350.548,379.325 353.034,377.559 354.433 C 375.848 355.788,374.800 357.454,374.800 358.818 C 374.800 360.031,373.381 361.876,371.568 363.020 C 370.718 363.557,369.724 364.582,369.360 365.298 C 368.279 367.421,360.567 374.800,359.430 374.800 C 358.284 374.800,356.076 376.547,355.583 377.844 C 355.036 379.283,353.745 379.868,348.600 381.005 C 343.817 382.062,342.245 382.713,341.305 384.029 C 340.615 384.993,337.672 385.933,333.200 386.615 C 328.388 387.350,71.971 387.505,65.284 386.777 C 60.035 386.206,58.826 385.840,56.979 384.265 C 54.632 382.262,53.325 381.719,49.587 381.190 C 45.055 380.549,42.455 379.354,41.369 377.411 C 40.655 376.134,39.096 375.201,36.583 374.547 C 33.690 373.794,33.400 373.569,32.156 371.112 C 31.444 369.709,30.764 368.990,29.687 368.504 C 27.340 367.446,26.524 366.501,25.535 363.701 C 24.800 361.619,24.309 360.886,23.121 360.100 C 21.432 358.982,20.356 356.994,19.391 353.209 C 18.546 349.893,18.232 349.304,16.389 347.579 C 15.234 346.497,14.647 345.445,13.935 343.179 L 13.000 340.200 13.000 200.200 L 13.000 60.200 14.131 56.905 C 14.975 54.446,15.560 53.398,16.437 52.774 C 17.878 51.747,18.521 50.538,19.346 47.301 C 20.232 43.826,21.343 41.824,22.931 40.843 C 24.188 40.066,26.000 36.639,26.000 35.039 C 26.000 34.328,27.990 32.610,29.508 32.012 C 30.874 31.474,32.800 29.500,32.800 28.639 C 32.800 27.856,34.462 26.517,36.000 26.063 C 39.986 24.884,41.120 24.262,41.604 22.990 C 42.121 21.630,44.997 20.115,48.413 19.403 C 50.240 19.022,52.177 18.288,53.400 17.512 C 56.943 15.266,58.929 14.500,62.400 14.041 C 64.270 13.794,66.250 13.527,66.800 13.447 C 71.077 12.830,333.630 13.492,336.200 14.126 M90.563 59.261 C 90.474 59.404,88.753 60.034,86.738 60.661 C 82.074 62.111,81.138 62.968,80.005 66.823 C 79.524 68.460,78.806 70.362,78.410 71.048 C 77.834 72.044,77.757 72.649,78.027 74.048 C 78.213 75.012,78.374 108.650,78.385 148.800 L 78.404 221.800 79.432 227.000 C 79.998 229.860,80.621 234.347,80.818 236.970 C 81.196 242.015,82.376 245.531,83.981 246.390 C 85.030 246.951,86.307 249.936,87.250 254.030 C 87.704 256.004,88.304 257.840,88.582 258.109 C 88.861 258.379,89.631 259.076,90.293 259.658 C 91.194 260.448,91.789 261.649,92.649 264.410 C 93.792 268.080,94.630 269.355,96.915 270.900 C 97.484 271.284,98.544 272.806,99.270 274.281 C 100.027 275.820,101.529 277.913,102.795 279.196 C 104.008 280.424,105.601 282.558,106.336 283.938 C 107.185 285.533,108.278 286.886,109.336 287.651 C 110.251 288.314,111.637 289.697,112.415 290.726 C 113.194 291.754,114.772 293.227,115.922 293.998 C 117.096 294.785,118.581 296.271,119.307 297.385 C 120.133 298.654,121.322 299.789,122.600 300.529 C 123.700 301.167,125.268 302.555,126.083 303.615 C 127.565 305.540,131.388 308.024,133.688 308.557 C 134.287 308.696,134.984 309.212,135.237 309.705 C 136.110 311.402,137.734 312.780,139.587 313.396 C 141.156 313.917,141.628 314.336,142.634 316.098 C 143.289 317.245,144.269 318.402,144.812 318.670 C 145.355 318.938,146.678 319.554,147.751 320.039 C 149.042 320.623,150.112 321.503,150.918 322.646 C 152.014 324.201,152.472 324.478,155.567 325.456 C 159.804 326.794,160.138 326.995,161.169 328.831 C 162.199 330.663,163.150 331.297,166.188 332.180 C 169.460 333.130,171.384 334.173,172.338 335.513 C 173.288 336.848,174.956 337.742,178.071 338.588 C 179.752 339.045,180.905 339.721,182.514 341.191 C 184.999 343.462,185.747 343.811,189.000 344.217 C 191.682 344.552,194.239 345.579,195.927 347.000 L 197.089 347.978 199.045 347.220 C 200.120 346.803,203.509 345.783,206.575 344.952 C 211.900 343.509,212.232 343.358,213.975 341.585 C 215.564 339.969,216.239 339.610,219.200 338.802 C 222.937 337.782,224.800 336.894,224.800 336.131 C 224.800 335.295,227.824 332.400,228.696 332.400 C 231.177 332.400,234.777 330.763,236.251 328.964 C 237.832 327.035,238.991 326.296,242.200 325.172 C 243.805 324.610,244.401 324.131,245.220 322.748 C 246.153 321.169,246.521 320.928,249.585 319.889 C 253.546 318.545,254.021 318.244,255.597 316.068 C 256.259 315.154,257.765 313.862,258.944 313.197 C 261.195 311.926,262.241 310.971,262.964 309.523 C 263.204 309.044,264.474 308.098,265.786 307.423 C 267.289 306.648,268.502 305.677,269.064 304.797 C 270.769 302.124,271.621 301.255,272.974 300.809 C 274.276 300.379,275.045 299.541,276.398 297.075 C 276.737 296.456,277.909 295.466,279.003 294.875 C 280.337 294.153,281.419 293.145,282.294 291.805 C 283.120 290.543,284.289 289.423,285.478 288.756 C 286.827 287.999,287.644 287.158,288.378 285.771 C 288.948 284.693,290.196 283.243,291.200 282.491 C 292.306 281.662,293.418 280.324,294.085 279.019 C 295.166 276.905,297.203 274.800,298.169 274.800 C 299.009 274.800,299.951 273.469,300.747 271.153 C 301.909 267.776,303.002 265.887,304.379 264.874 C 305.816 263.817,306.384 262.678,307.679 258.254 C 308.433 255.680,308.907 254.814,310.293 253.482 C 312.179 251.669,312.472 250.949,313.397 245.861 C 314.168 241.621,315.378 238.209,316.656 236.673 C 317.907 235.170,318.687 232.269,319.187 227.258 C 319.782 221.288,319.755 70.764,319.158 67.979 C 318.204 63.530,312.106 59.822,305.084 59.421 C 299.132 59.081,90.770 58.925,90.563 59.261 M311.000 61.866 C 316.451 64.772,317.093 65.357,317.978 68.223 C 318.795 70.868,318.800 71.346,318.800 146.022 C 318.800 232.162,318.917 229.045,315.433 235.600 C 314.218 237.885,313.364 240.797,312.576 245.341 C 311.885 249.319,311.254 250.815,309.614 252.361 C 309.000 252.939,308.063 254.642,307.503 256.200 C 306.949 257.740,306.187 259.860,305.811 260.911 C 305.367 262.149,304.585 263.256,303.594 264.053 C 302.081 265.269,300.984 267.289,299.962 270.746 C 299.433 272.536,297.558 274.800,296.605 274.800 C 295.913 274.800,294.120 276.938,293.432 278.585 C 293.136 279.294,291.974 280.649,290.849 281.597 C 289.725 282.545,288.341 284.114,287.773 285.082 C 287.155 286.137,285.987 287.308,284.864 287.999 C 283.831 288.634,282.418 289.960,281.724 290.945 C 281.030 291.930,279.483 293.362,278.286 294.128 C 276.732 295.122,275.864 296.029,275.249 297.300 C 274.602 298.636,273.888 299.352,272.388 300.168 C 270.978 300.935,269.981 301.893,269.008 303.414 C 268.034 304.938,267.065 305.868,265.714 306.577 C 263.354 307.815,262.810 308.260,261.675 309.877 C 261.182 310.579,259.804 311.711,258.613 312.393 C 257.422 313.074,255.607 314.508,254.581 315.579 C 253.098 317.127,252.024 317.787,249.344 318.798 C 246.291 319.950,245.823 320.273,244.385 322.220 C 243.121 323.932,242.451 324.463,241.098 324.827 C 238.595 325.500,237.294 326.273,235.426 328.195 C 234.061 329.599,233.127 330.114,230.376 330.982 C 227.113 332.012,224.800 333.535,224.800 334.654 C 224.800 335.657,222.153 337.119,219.020 337.846 C 216.236 338.492,215.539 338.846,213.423 340.692 C 210.791 342.987,210.105 343.251,202.200 345.003 C 199.560 345.589,197.310 346.089,197.200 346.115 C 197.090 346.140,196.247 345.768,195.327 345.287 C 194.407 344.805,191.934 343.965,189.832 343.418 C 185.926 342.404,183.600 341.443,183.600 340.844 C 183.600 340.200,180.579 338.454,178.041 337.633 C 176.160 337.024,174.930 336.283,173.397 334.832 C 171.635 333.166,170.760 332.691,167.763 331.777 C 164.164 330.680,164.096 330.632,160.756 326.924 C 160.182 326.287,159.012 325.555,158.156 325.299 C 157.300 325.043,155.920 324.630,155.090 324.382 C 154.188 324.113,152.899 323.200,151.890 322.116 C 150.913 321.067,149.106 319.773,147.608 319.050 C 145.598 318.081,144.631 317.291,143.306 315.535 C 142.194 314.061,140.964 312.964,139.787 312.394 C 138.792 311.912,137.509 310.903,136.935 310.151 C 136.322 309.347,134.471 308.013,132.446 306.914 C 130.203 305.697,128.150 304.179,126.564 302.563 C 125.224 301.198,123.401 299.711,122.512 299.257 C 121.467 298.724,120.516 297.785,119.824 296.604 C 119.105 295.379,117.923 294.235,116.239 293.135 C 114.722 292.145,113.422 290.931,112.962 290.075 C 112.543 289.295,111.367 288.058,110.348 287.325 C 109.036 286.382,108.081 285.204,107.071 283.282 C 106.287 281.791,104.540 279.318,103.188 277.786 C 101.836 276.255,100.287 274.065,99.746 272.921 C 99.119 271.598,98.262 270.533,97.387 269.992 C 95.457 268.799,94.541 267.495,93.790 264.872 C 92.892 261.734,91.281 258.400,90.662 258.400 C 89.841 258.400,88.508 255.632,87.773 252.402 C 86.949 248.780,86.039 246.583,84.705 244.997 C 82.736 242.657,82.128 241.089,81.833 237.594 C 81.675 235.728,81.109 231.253,80.575 227.652 L 79.604 221.104 79.619 146.452 L 79.633 71.800 80.517 68.576 C 81.941 63.376,82.491 62.858,88.191 61.342 C 90.882 60.627,94.908 60.604,199.991 60.700 L 309.000 60.799 311.000 61.866 M202.114 95.893 C 199.413 98.243,199.596 90.542,199.581 202.532 C 199.568 299.156,199.600 303.737,200.283 304.492 C 202.580 307.030,203.859 306.753,206.819 303.075 C 208.471 301.023,208.843 300.786,211.946 299.804 C 214.725 298.925,215.616 298.422,217.196 296.842 C 218.243 295.795,219.707 294.717,220.450 294.446 C 223.008 293.514,224.328 292.595,225.673 290.812 C 226.717 289.429,227.589 288.802,229.533 288.041 C 231.125 287.417,232.991 286.220,234.635 284.769 C 236.061 283.510,238.200 282.020,239.388 281.458 C 240.964 280.711,241.990 279.837,243.178 278.229 C 244.821 276.006,245.709 275.315,247.568 274.818 C 248.193 274.651,249.201 273.643,250.191 272.197 C 251.188 270.740,252.485 269.448,253.600 268.798 C 254.606 268.211,255.761 267.106,256.220 266.290 C 257.312 264.347,258.817 262.747,260.319 261.933 C 260.996 261.566,261.921 260.539,262.374 259.651 C 262.827 258.762,263.862 257.533,264.673 256.918 C 267.533 254.749,268.239 253.797,269.359 250.600 C 270.278 247.977,270.852 247.039,272.540 245.400 C 274.435 243.560,274.671 243.120,275.483 239.897 C 276.027 237.740,276.845 235.697,277.612 234.583 C 279.412 231.967,280.314 229.718,280.998 226.148 C 281.753 222.202,281.919 104.027,281.175 100.320 C 280.144 95.186,279.383 94.586,274.693 95.210 C 270.948 95.708,205.017 95.592,203.993 95.086 C 203.597 94.890,202.946 95.170,202.114 95.893 M238.200 96.722 C 261.896 96.814,272.730 96.718,274.956 96.396 C 278.788 95.842,278.964 95.962,280.041 99.847 C 281.239 104.168,281.209 221.328,280.009 226.091 C 279.212 229.253,278.325 231.352,277.595 231.803 C 276.527 232.463,275.074 236.310,274.881 238.989 L 274.680 241.778 271.976 244.423 C 269.400 246.944,267.600 250.464,267.600 252.980 C 267.600 253.626,266.390 254.706,264.735 255.537 C 263.882 255.965,262.982 256.979,262.195 258.400 C 261.348 259.926,260.365 260.997,258.987 261.894 C 257.798 262.668,256.679 263.810,256.200 264.737 C 255.046 266.971,254.456 267.569,252.502 268.488 C 251.176 269.111,250.528 269.763,249.793 271.214 C 248.696 273.378,247.113 274.800,245.800 274.800 C 244.528 274.800,243.063 276.085,242.230 277.933 C 241.606 279.318,241.195 279.640,239.072 280.415 C 237.331 281.049,235.960 281.950,234.291 283.552 C 232.803 284.983,230.761 286.382,228.676 287.400 C 225.932 288.740,225.340 289.202,225.033 290.245 C 224.642 291.570,222.853 292.732,219.800 293.642 C 218.823 293.934,217.488 294.852,216.370 296.000 C 215.232 297.170,213.797 298.150,212.570 298.594 C 208.561 300.047,207.184 300.879,206.039 302.540 C 203.950 305.567,203.594 305.741,201.879 304.576 L 200.400 303.571 200.400 203.228 L 200.400 102.884 201.240 100.142 C 202.199 97.011,203.043 95.820,203.975 96.281 C 204.319 96.452,219.720 96.650,238.200 96.722 " stroke="none" fill="#76aece" fill-rule="evenodd"></path><path id="path4" d="M62.000 10.888 C 53.225 11.554,50.776 12.302,49.958 14.567 C 49.402 16.104,47.821 16.973,44.823 17.388 C 40.349 18.008,37.200 19.742,37.200 21.587 C 37.200 22.300,34.420 24.000,33.254 24.000 C 31.811 24.000,30.488 25.226,30.049 26.971 C 29.548 28.962,29.030 29.370,26.462 29.795 C 24.662 30.094,23.600 31.493,23.600 33.568 C 23.600 35.095,22.664 36.395,20.976 37.212 C 18.728 38.300,17.908 40.132,16.568 47.070 C 16.469 47.582,15.708 48.323,14.720 48.870 C 12.264 50.230,11.659 51.586,10.974 57.263 C 10.646 59.978,10.267 62.470,10.131 62.800 C 9.995 63.130,9.758 67.270,9.605 72.000 C 9.396 78.426,9.163 81.018,8.681 82.254 C 7.407 85.519,7.345 90.711,8.549 93.255 C 9.636 95.552,10.169 104.801,9.248 105.370 C 7.563 106.412,7.431 115.279,9.053 118.480 C 9.717 119.792,9.796 126.240,9.167 127.874 C 7.693 131.704,7.656 139.748,9.100 142.274 C 9.721 143.360,9.765 149.521,9.163 151.074 C 7.601 155.102,7.552 161.077,9.058 164.080 C 9.846 165.650,9.803 173.718,9.001 174.942 C 7.436 177.330,7.290 184.680,8.747 187.690 C 9.663 189.582,10.040 198.481,9.226 198.984 C 7.555 200.017,7.441 208.861,9.058 212.080 C 9.719 213.398,9.795 220.241,9.166 221.874 C 7.675 225.744,7.651 233.589,9.121 236.274 C 9.720 237.367,9.749 243.164,9.163 244.674 C 7.559 248.809,7.514 255.416,9.073 257.921 C 9.904 259.257,9.605 267.546,8.636 270.000 C 7.510 272.855,7.544 278.881,8.700 281.226 C 9.659 283.173,10.071 292.062,9.226 292.584 C 7.560 293.614,7.441 302.897,9.053 306.080 C 9.717 307.392,9.796 313.840,9.167 315.474 C 7.712 319.255,7.648 327.847,9.068 328.720 C 10.157 329.390,10.924 335.568,10.675 341.664 L 10.435 347.528 11.571 349.096 C 12.196 349.959,13.403 350.994,14.254 351.397 C 16.171 352.304,16.769 353.059,16.793 354.600 C 16.859 358.845,18.815 362.816,21.126 363.396 C 22.338 363.700,23.137 364.713,24.078 367.140 C 24.934 369.347,25.784 370.289,27.200 370.600 C 28.556 370.898,29.443 371.822,29.819 373.328 C 30.124 374.549,32.077 376.017,34.400 376.771 C 36.259 377.374,36.936 377.950,37.548 379.453 C 38.678 382.229,41.171 383.569,45.240 383.590 C 48.171 383.606,49.517 384.264,50.458 386.144 C 50.915 387.055,51.709 388.250,52.223 388.800 L 53.158 389.800 197.079 389.761 L 341.000 389.721 342.970 388.811 C 344.054 388.310,345.764 387.133,346.770 386.195 C 348.237 384.828,349.234 384.314,351.800 383.600 C 356.129 382.395,357.121 381.819,357.864 380.082 C 358.212 379.267,358.618 378.348,358.766 378.041 C 358.914 377.734,360.007 377.233,361.195 376.929 C 364.734 376.024,370.306 371.105,371.571 367.771 C 372.154 366.233,372.572 365.727,373.475 365.466 C 374.912 365.052,376.290 363.093,376.920 360.568 C 377.347 358.854,377.607 358.537,379.287 357.674 C 381.622 356.475,382.421 354.933,383.574 349.400 C 384.032 347.200,384.630 345.326,384.903 345.236 C 385.942 344.892,387.939 342.498,388.452 340.981 C 389.122 339.003,389.493 69.704,388.836 63.046 C 388.418 58.811,387.489 57.088,385.329 56.547 C 384.058 56.228,383.302 53.770,383.014 49.027 C 382.706 43.932,382.338 43.172,379.797 42.369 C 377.746 41.721,376.818 40.661,376.806 38.956 C 376.800 38.138,375.353 35.696,374.177 34.520 C 373.860 34.203,373.600 33.810,373.600 33.647 C 373.600 33.484,373.284 33.002,372.897 32.575 C 372.511 32.149,371.979 31.316,371.717 30.724 C 371.304 29.793,366.776 26.400,365.947 26.400 C 365.786 26.400,365.553 26.082,365.430 25.693 C 365.172 24.881,362.458 23.362,360.401 22.879 C 359.101 22.573,358.983 22.415,358.729 20.635 C 358.315 17.743,358.281 17.708,355.529 17.423 C 349.966 16.845,346.800 15.965,346.800 14.996 C 346.800 12.486,345.405 11.847,338.400 11.150 C 333.183 10.631,68.691 10.381,62.000 10.888 M337.382 13.332 C 340.340 13.930,341.225 14.291,342.458 15.405 C 344.621 17.359,346.050 17.985,350.294 18.839 C 353.752 19.535,356.400 20.729,356.400 21.593 C 356.400 22.321,359.234 24.800,360.066 24.800 C 360.885 24.800,361.921 25.714,368.105 31.893 C 373.488 37.272,374.387 38.359,375.172 40.433 C 375.751 41.961,376.628 43.190,378.148 44.600 C 380.482 46.764,380.245 46.129,382.022 55.000 C 382.242 56.100,382.959 57.795,383.616 58.767 C 384.272 59.739,385.212 61.719,385.705 63.167 L 386.600 65.800 386.708 197.800 L 386.817 329.800 385.787 335.000 C 385.159 338.174,384.448 340.631,383.962 341.306 C 383.525 341.915,382.648 344.453,382.014 346.947 C 380.493 352.928,379.998 354.017,378.135 355.493 C 377.166 356.261,376.213 357.548,375.638 358.867 C 375.127 360.040,374.578 361.270,374.418 361.600 C 374.258 361.930,373.402 362.740,372.516 363.400 C 371.630 364.060,370.325 365.556,369.616 366.724 C 368.907 367.893,367.609 369.368,366.732 370.003 C 365.855 370.639,364.445 371.945,363.598 372.907 C 362.628 374.009,361.479 374.830,360.490 375.126 C 359.627 375.384,358.308 376.245,357.560 377.037 C 353.744 381.081,353.955 380.950,349.722 381.915 C 345.983 382.767,344.560 383.427,341.394 385.775 C 338.568 387.871,346.230 387.753,202.400 387.901 C 50.738 388.056,59.630 388.243,55.200 384.803 C 53.033 383.120,52.197 382.784,48.151 381.970 C 43.582 381.051,42.822 380.672,39.955 377.878 C 38.273 376.239,37.126 375.504,35.377 374.945 C 33.345 374.296,32.856 373.928,31.587 372.092 C 30.786 370.932,29.303 369.458,28.291 368.817 C 26.264 367.532,25.392 366.418,24.987 364.600 C 24.827 363.879,23.803 362.522,22.420 361.200 C 20.077 358.960,19.733 358.264,18.361 353.001 C 17.974 351.516,17.332 350.493,15.856 349.018 C 13.249 346.411,12.826 344.917,12.343 336.600 C 12.126 332.860,11.825 328.090,11.674 326.000 C 11.523 323.910,11.543 319.680,11.718 316.600 C 11.893 313.520,11.875 307.850,11.679 304.000 C 11.462 299.751,11.468 295.742,11.694 293.800 C 11.904 291.997,11.934 287.980,11.762 284.600 C 11.594 281.300,11.534 276.350,11.629 273.600 C 11.723 270.850,11.783 266.170,11.763 263.200 C 11.742 260.230,11.733 254.830,11.743 251.200 C 11.753 247.570,11.761 242.800,11.760 240.600 C 11.760 238.400,11.759 233.270,11.758 229.200 C 11.757 225.130,11.758 219.730,11.761 217.200 C 11.763 214.670,11.754 209.630,11.739 206.000 C 11.697 195.297,11.693 188.616,11.725 181.600 C 11.742 177.970,11.749 172.480,11.741 169.400 C 11.733 166.320,11.734 160.920,11.743 157.400 C 11.760 151.068,11.761 149.634,11.758 135.200 C 11.757 131.130,11.760 125.820,11.763 123.400 C 11.767 120.980,11.756 116.030,11.739 112.400 C 11.723 108.770,11.726 103.280,11.746 100.200 C 11.767 97.120,11.703 93.070,11.604 91.200 C 11.506 89.330,11.635 81.410,11.892 73.600 C 12.437 57.002,12.884 54.575,15.973 51.428 C 17.274 50.102,17.825 49.043,18.752 46.088 C 19.777 42.816,20.176 42.114,22.295 39.849 C 24.090 37.930,24.744 36.908,24.933 35.731 C 25.202 34.046,26.520 32.535,28.662 31.455 C 29.356 31.105,30.346 30.268,30.862 29.595 C 33.606 26.015,34.099 25.594,36.293 24.956 C 37.893 24.491,39.129 23.736,40.783 22.216 C 43.004 20.174,44.201 19.583,48.819 18.251 C 50.090 17.884,51.550 17.109,52.238 16.437 C 53.748 14.961,57.547 13.648,62.200 12.996 C 68.794 12.072,332.736 12.394,337.382 13.332 M33.821 15.583 C 33.081 15.852,33.086 15.877,33.921 16.095 C 34.404 16.222,34.892 16.174,35.006 15.990 C 35.321 15.481,34.694 15.266,33.821 15.583 M88.191 61.342 C 82.491 62.858,81.941 63.376,80.517 68.576 L 79.633 71.800 79.619 146.452 L 79.604 221.104 80.575 227.652 C 81.109 231.253,81.675 235.728,81.833 237.594 C 82.128 241.089,82.736 242.657,84.705 244.997 C 86.039 246.583,86.949 248.780,87.773 252.402 C 88.508 255.632,89.841 258.400,90.662 258.400 C 91.281 258.400,92.892 261.734,93.790 264.872 C 94.541 267.495,95.457 268.799,97.387 269.992 C 98.262 270.533,99.119 271.598,99.746 272.921 C 100.287 274.065,101.836 276.255,103.188 277.786 C 104.540 279.318,106.287 281.791,107.071 283.282 C 108.081 285.204,109.036 286.382,110.348 287.325 C 111.367 288.058,112.543 289.295,112.962 290.075 C 113.422 290.931,114.722 292.145,116.239 293.135 C 117.923 294.235,119.105 295.379,119.824 296.604 C 120.516 297.785,121.467 298.724,122.512 299.257 C 123.401 299.711,125.224 301.198,126.564 302.563 C 128.150 304.179,130.203 305.697,132.446 306.914 C 134.471 308.013,136.322 309.347,136.935 310.151 C 137.509 310.903,138.792 311.912,139.787 312.394 C 140.964 312.964,142.194 314.061,143.306 315.535 C 144.631 317.291,145.598 318.081,147.608 319.050 C 149.106 319.773,150.913 321.067,151.890 322.116 C 152.899 323.200,154.188 324.113,155.090 324.382 C 155.920 324.630,157.300 325.043,158.156 325.299 C 159.012 325.555,160.182 326.287,160.756 326.924 C 164.096 330.632,164.164 330.680,167.763 331.777 C 170.760 332.691,171.635 333.166,173.397 334.832 C 174.930 336.283,176.160 337.024,178.041 337.633 C 180.579 338.454,183.600 340.200,183.600 340.844 C 183.600 341.443,185.926 342.404,189.832 343.418 C 191.934 343.965,194.407 344.805,195.327 345.287 C 196.247 345.768,197.090 346.140,197.200 346.115 C 197.310 346.089,199.560 345.589,202.200 345.003 C 210.105 343.251,210.791 342.987,213.423 340.692 C 215.539 338.846,216.236 338.492,219.020 337.846 C 222.153 337.119,224.800 335.657,224.800 334.654 C 224.800 333.535,227.113 332.012,230.376 330.982 C 233.127 330.114,234.061 329.599,235.426 328.195 C 237.294 326.273,238.595 325.500,241.098 324.827 C 242.451 324.463,243.121 323.932,244.385 322.220 C 245.823 320.273,246.291 319.950,249.344 318.798 C 252.024 317.787,253.098 317.127,254.581 315.579 C 255.607 314.508,257.422 313.074,258.613 312.393 C 259.804 311.711,261.182 310.579,261.675 309.877 C 262.810 308.260,263.354 307.815,265.714 306.577 C 267.065 305.868,268.034 304.938,269.008 303.414 C 269.981 301.893,270.978 300.935,272.388 300.168 C 273.888 299.352,274.602 298.636,275.249 297.300 C 275.864 296.029,276.732 295.122,278.286 294.128 C 279.483 293.362,281.030 291.930,281.724 290.945 C 282.418 289.960,283.831 288.634,284.864 287.999 C 285.987 287.308,287.155 286.137,287.773 285.082 C 288.341 284.114,289.725 282.545,290.849 281.597 C 291.974 280.649,293.136 279.294,293.432 278.585 C 294.120 276.938,295.913 274.800,296.605 274.800 C 297.558 274.800,299.433 272.536,299.962 270.746 C 300.984 267.289,302.081 265.269,303.594 264.053 C 304.585 263.256,305.367 262.149,305.811 260.911 C 306.187 259.860,306.949 257.740,307.503 256.200 C 308.063 254.642,309.000 252.939,309.614 252.361 C 311.254 250.815,311.885 249.319,312.576 245.341 C 313.364 240.797,314.218 237.885,315.433 235.600 C 318.917 229.045,318.800 232.162,318.800 146.022 C 318.800 71.346,318.795 70.868,317.978 68.223 C 317.093 65.357,316.451 64.772,311.000 61.866 L 309.000 60.799 199.991 60.700 C 94.908 60.604,90.882 60.627,88.191 61.342 M310.793 64.596 C 312.892 65.921,315.948 69.011,316.441 70.307 C 316.954 71.656,316.924 219.157,316.410 222.755 C 316.180 224.367,315.447 226.507,314.425 228.555 C 312.554 232.302,311.360 237.255,310.990 242.800 C 310.677 247.488,310.350 248.385,308.370 249.976 C 306.343 251.605,305.734 252.839,305.069 256.673 C 304.510 259.892,303.770 261.600,302.934 261.600 C 301.093 261.600,299.397 264.228,298.211 268.922 C 297.394 272.154,297.170 272.604,296.261 272.847 C 294.139 273.415,292.836 274.754,292.167 277.054 C 291.587 279.051,291.364 279.330,289.824 279.990 C 288.141 280.711,286.400 282.446,286.400 283.400 C 286.400 284.351,284.738 285.990,282.987 286.765 C 281.580 287.387,281.031 287.938,280.309 289.451 C 279.557 291.024,279.018 291.542,277.194 292.439 C 275.379 293.332,274.892 293.798,274.446 295.063 C 273.748 297.042,272.591 298.295,271.169 298.607 C 269.479 298.978,268.116 300.230,267.578 301.906 C 266.933 303.918,266.202 304.673,264.614 304.971 C 262.865 305.299,261.359 306.520,260.410 308.380 C 259.784 309.608,259.301 309.980,257.779 310.406 C 255.825 310.953,251.333 313.987,250.933 315.030 C 250.678 315.694,247.188 317.600,246.227 317.600 C 245.309 317.600,242.825 319.962,242.537 321.110 C 242.175 322.551,241.171 323.600,240.153 323.600 C 237.257 323.600,233.451 325.500,231.525 327.907 C 231.136 328.393,229.631 329.114,227.979 329.606 C 225.029 330.485,223.691 331.529,222.787 333.658 C 222.391 334.590,221.831 334.844,218.103 335.778 C 213.361 336.966,211.885 337.813,210.885 339.920 C 209.549 342.737,197.844 343.517,188.600 341.405 C 188.160 341.305,187.512 340.710,187.161 340.085 C 186.290 338.534,183.298 336.862,180.254 336.225 C 176.899 335.524,176.156 335.074,175.176 333.153 C 174.173 331.187,172.172 330.187,168.400 329.768 C 165.324 329.427,164.143 328.762,163.795 327.175 C 163.544 326.035,161.931 324.404,161.046 324.396 C 159.835 324.385,156.038 322.151,153.957 320.225 C 152.029 318.440,151.218 317.975,149.311 317.565 C 146.505 316.961,146.084 316.658,145.197 314.606 C 144.374 312.701,143.495 311.849,141.479 311.007 C 140.560 310.623,139.452 309.639,138.592 308.442 C 137.564 307.011,136.538 306.178,134.698 305.280 C 133.285 304.591,131.039 302.955,129.527 301.515 C 126.934 299.044,123.997 297.200,122.656 297.200 C 122.295 297.200,122.000 296.923,122.000 296.584 C 122.000 294.396,119.663 291.918,117.161 291.454 C 115.912 291.222,115.660 290.977,115.244 289.589 C 114.661 287.643,112.445 285.338,110.729 284.894 C 109.594 284.599,109.390 284.308,108.761 282.076 C 107.831 278.777,106.073 275.961,104.420 275.122 C 102.947 274.375,101.752 272.801,101.383 271.125 C 101.119 269.919,98.728 267.600,97.750 267.600 C 96.808 267.600,95.629 265.950,95.607 264.600 C 95.551 261.135,94.534 258.705,92.264 256.609 C 89.917 254.442,89.908 254.422,89.204 249.197 C 88.646 245.052,87.428 242.411,85.723 241.647 C 82.608 240.251,82.431 235.188,82.414 146.790 C 82.400 70.160,82.468 66.582,83.980 65.051 C 85.282 63.733,87.510 63.706,199.308 63.652 L 309.216 63.600 310.793 64.596 M201.023 93.400 C 198.985 94.434,197.958 95.883,197.564 98.275 C 197.390 99.334,197.237 144.677,197.224 199.037 C 197.200 296.801,197.191 297.900,196.400 300.200 C 195.326 303.321,195.347 303.442,197.300 305.466 C 201.356 309.669,208.390 308.567,208.399 303.727 C 208.400 302.737,208.630 302.640,212.872 301.833 C 216.661 301.113,218.273 300.309,219.135 298.709 C 220.164 296.799,221.008 296.087,222.877 295.555 C 224.934 294.969,226.218 293.907,227.211 291.970 C 227.843 290.738,228.241 290.473,230.073 290.062 C 233.227 289.355,236.093 287.889,237.318 286.357 C 239.111 284.117,239.618 283.680,241.391 282.846 C 243.279 281.959,245.200 279.926,245.200 278.815 C 245.200 277.983,246.373 277.127,248.441 276.449 C 250.081 275.912,251.372 274.663,251.801 273.200 C 252.223 271.762,253.113 270.883,254.443 270.591 C 255.989 270.251,257.870 268.312,258.214 266.701 C 258.579 264.994,259.011 264.505,260.429 264.194 C 261.952 263.859,263.761 262.031,264.244 260.338 C 264.548 259.276,265.065 258.777,266.753 257.921 C 269.327 256.616,269.732 256.115,270.829 252.871 C 271.403 251.173,272.141 249.927,273.075 249.077 C 274.636 247.657,276.150 244.731,276.774 241.930 C 277.383 239.194,277.885 238.301,279.356 237.338 C 283.327 234.739,283.234 236.344,283.470 165.800 C 283.706 95.118,283.721 95.482,280.588 93.429 C 278.816 92.268,203.308 92.241,201.023 93.400 M238.000 95.517 C 260.634 95.605,272.461 95.506,274.693 95.210 C 279.383 94.586,280.144 95.186,281.175 100.320 C 281.919 104.027,281.753 222.202,280.998 226.148 C 280.314 229.718,279.412 231.967,277.612 234.583 C 276.845 235.697,276.027 237.740,275.483 239.897 C 274.671 243.120,274.435 243.560,272.540 245.400 C 270.852 247.039,270.278 247.977,269.359 250.600 C 268.239 253.797,267.533 254.749,264.673 256.918 C 263.862 257.533,262.827 258.762,262.374 259.651 C 261.921 260.539,260.996 261.566,260.319 261.933 C 258.817 262.747,257.312 264.347,256.220 266.290 C 255.761 267.106,254.606 268.211,253.600 268.798 C 252.485 269.448,251.188 270.740,250.191 272.197 C 249.201 273.643,248.193 274.651,247.568 274.818 C 245.709 275.315,244.821 276.006,243.178 278.229 C 241.990 279.837,240.964 280.711,239.388 281.458 C 238.200 282.020,236.061 283.510,234.635 284.769 C 232.991 286.220,231.125 287.417,229.533 288.041 C 227.589 288.802,226.717 289.429,225.673 290.812 C 224.328 292.595,223.008 293.514,220.450 294.446 C 219.707 294.717,218.243 295.795,217.196 296.842 C 215.616 298.422,214.725 298.925,211.946 299.804 C 208.843 300.786,208.471 301.023,206.819 303.075 C 203.859 306.753,202.580 307.030,200.283 304.492 C 199.249 303.349,199.186 102.792,200.219 99.181 C 200.916 96.741,202.927 94.559,203.993 95.086 C 204.327 95.251,219.630 95.445,238.000 95.517 M21.628 378.500 C 21.707 379.894,22.344 380.580,22.372 379.300 C 22.387 378.585,22.220 378.000,22.000 378.000 C 21.780 378.000,21.613 378.225,21.628 378.500 " stroke="none" fill="#a8cce0" fill-rule="evenodd"></path></g></svg>