<svg width="188" height="50" viewBox="0 0 188 50" fill="none" xmlns="http://www.w3.org/2000/svg">
<g clip-path="url(#clip0)">
<path d="M56.0501 34.7645C57.3529 34.7645 58.4629 34.4732 59.3801 33.8905C60.2782 33.3316 60.9935 32.5226 61.4382 31.5628C61.8868 30.5774 62.1189 29.5073 62.1189 28.4245C62.1189 27.3418 61.8868 26.2717 61.4382 25.2863C60.9921 24.3282 60.2771 23.5205 59.3801 22.9614C58.4629 22.3846 57.3529 22.0961 56.0501 22.0961H53.7945C53.7104 22.0965 53.6299 22.13 53.5705 22.1895C53.5111 22.2489 53.4775 22.3294 53.4772 22.4134V34.4472C53.4772 34.5314 53.5106 34.6121 53.5701 34.6716C53.6296 34.7311 53.7103 34.7645 53.7945 34.7645H56.0501ZM48.6775 18.3839C48.6775 18.3421 48.6857 18.3007 48.7018 18.2621C48.7178 18.2235 48.7413 18.1885 48.7709 18.159C48.8005 18.1295 48.8357 18.1062 48.8744 18.0903C48.913 18.0745 48.9544 18.0664 48.9962 18.0666H56.4957C58.6456 18.0666 60.5204 18.5353 62.1203 19.4727C63.6706 20.3596 64.9423 21.6618 65.7922 23.2326C66.6288 24.8395 67.0656 26.6244 67.0656 28.4361C67.0656 30.2477 66.6288 32.0327 65.7922 33.6396C64.9477 35.2147 63.6747 36.5187 62.1203 37.4009C60.5224 38.3277 58.6475 38.7912 56.4957 38.7912H48.9962C48.9544 38.7914 48.913 38.7833 48.8744 38.7674C48.8357 38.7516 48.8005 38.7282 48.7709 38.6987C48.7413 38.6693 48.7178 38.6342 48.7018 38.5956C48.6857 38.557 48.6775 38.5157 48.6775 38.4739V18.3839Z" fill="#10363D"/>
<path d="M87.3807 37.4441C86.0096 36.2144 85.2885 34.5135 85.2174 32.3416C85.2158 32.2988 85.2229 32.2561 85.2382 32.2161C85.2536 32.176 85.2768 32.1395 85.3065 32.1087C85.3363 32.0779 85.372 32.0534 85.4114 32.0366C85.4508 32.0199 85.4933 32.0113 85.5361 32.0113H89.7055C89.7868 32.0112 89.8649 32.0422 89.924 32.098C89.983 32.1538 90.0184 32.2302 90.0228 32.3113C90.0718 33.293 90.3704 34.0713 90.9184 34.6462C91.5203 35.2779 92.3443 35.5938 93.3904 35.5938C94.2778 35.5938 94.9638 35.3962 95.4484 35.001C95.933 34.6058 96.1734 34.0434 96.1695 33.3136C96.1695 32.6819 95.9873 32.1738 95.6229 31.7892C95.2585 31.4046 94.6023 31.0248 93.6543 30.6499L89.9233 29.199C88.5417 28.6856 87.4956 27.9505 86.7851 26.9939C86.0745 26.0372 85.7193 24.8873 85.7193 23.5441C85.6967 22.4169 86.011 21.3086 86.6221 20.3611C87.2564 19.4164 88.1512 18.676 89.1979 18.2295C90.3132 17.7257 91.6112 17.4738 93.0918 17.4738C94.5936 17.4738 95.9166 17.7454 97.0608 18.2887C98.1492 18.7842 99.0733 19.5802 99.7245 20.5832C100.313 21.5232 100.638 22.6042 100.665 23.7128C100.667 23.7559 100.66 23.7989 100.645 23.8393C100.63 23.8798 100.607 23.9167 100.578 23.948C100.548 23.9793 100.512 24.0042 100.473 24.0213C100.433 24.0384 100.391 24.0473 100.348 24.0474H96.1868C96.1057 24.0472 96.0277 24.016 95.9687 23.9603C95.9098 23.9046 95.8743 23.8284 95.8695 23.7474C95.8234 22.9254 95.5796 22.285 95.1383 21.8264C94.6451 21.313 93.9346 21.0568 93.0067 21.0577C92.2366 21.0577 91.6309 21.2394 91.1852 21.6043C90.9661 21.7851 90.792 22.0142 90.6766 22.2738C90.5612 22.5333 90.5078 22.8161 90.5204 23.0999C90.5173 23.3765 90.5739 23.6505 90.6861 23.9033C90.7983 24.1562 90.9636 24.3819 91.1708 24.5652C91.6044 24.9709 92.3347 25.3805 93.3615 25.7939L96.7969 27.1554C98.217 27.7092 99.2679 28.4692 99.9495 29.4355C100.631 30.4018 100.972 31.5863 100.971 32.9891C100.996 34.183 100.666 35.3575 100.023 36.3639C99.369 37.35 98.444 38.1263 97.3593 38.5993C96.2142 39.1214 94.8816 39.3829 93.3615 39.3839C90.8155 39.3839 88.8219 38.7373 87.3807 37.4441Z" fill="#10363D"/>
<path d="M122.324 17.7493H126.482C126.524 17.7491 126.565 17.7572 126.604 17.773C126.642 17.7889 126.677 17.8123 126.707 17.8418C126.736 17.8713 126.76 17.9063 126.775 17.9449C126.791 17.9835 126.799 18.0249 126.799 18.0666V34.2107C126.8 34.295 126.833 34.3757 126.893 34.4351C126.953 34.4946 127.034 34.528 127.118 34.528H134.185C134.269 34.528 134.35 34.5614 134.41 34.6208C134.469 34.6803 134.503 34.761 134.503 34.8453V38.4739C134.503 38.5157 134.495 38.557 134.479 38.5956C134.463 38.6342 134.44 38.6692 134.41 38.6987C134.38 38.7282 134.345 38.7516 134.307 38.7674C134.268 38.7833 134.226 38.7913 134.185 38.7911H122.324C122.282 38.7913 122.241 38.7833 122.202 38.7674C122.164 38.7515 122.129 38.7281 122.099 38.6986C122.07 38.6691 122.046 38.6341 122.03 38.5955C122.015 38.5569 122.007 38.5156 122.007 38.4739V18.0666C122.007 18.0249 122.015 17.9835 122.03 17.9449C122.046 17.9063 122.07 17.8713 122.099 17.8418C122.129 17.8123 122.164 17.7889 122.202 17.773C122.241 17.7572 122.282 17.7491 122.324 17.7493Z" fill="#10363D"/>
<path d="M156.787 18.0666H161.194C161.252 18.0668 161.308 18.0825 161.357 18.1119C161.406 18.1414 161.447 18.1835 161.474 18.2339L167.98 30.3643C168.014 30.4264 168.067 30.4754 168.132 30.5037C168.197 30.532 168.269 30.538 168.338 30.5206C168.407 30.5033 168.467 30.4636 168.511 30.4079C168.555 30.3522 168.578 30.2836 168.579 30.2129V18.3867C168.579 18.3027 168.612 18.2222 168.672 18.1628C168.731 18.1034 168.812 18.0698 168.896 18.0695H172.849C172.891 18.0693 172.932 18.0773 172.971 18.0932C173.009 18.1091 173.045 18.1324 173.074 18.1619C173.104 18.1914 173.127 18.2264 173.143 18.265C173.159 18.3036 173.168 18.345 173.168 18.3867V38.4767C173.168 38.5185 173.159 38.5599 173.143 38.5985C173.127 38.6371 173.104 38.6721 173.074 38.7016C173.045 38.7311 173.009 38.7544 172.971 38.7703C172.932 38.7861 172.891 38.7942 172.849 38.794H168.45C168.392 38.7958 168.334 38.7813 168.283 38.7523C168.232 38.7233 168.19 38.6809 168.162 38.6296L161.655 26.4992C161.621 26.4372 161.569 26.388 161.504 26.3592C161.44 26.3305 161.368 26.3238 161.3 26.3403C161.232 26.3568 161.171 26.3955 161.127 26.4504C161.083 26.5052 161.059 26.5731 161.057 26.6434V38.4695C161.057 38.5538 161.023 38.6345 160.964 38.694C160.904 38.7534 160.823 38.7868 160.739 38.7868H156.786C156.701 38.7868 156.621 38.7534 156.561 38.6939C156.502 38.6344 156.468 38.5537 156.468 38.4695V18.3839C156.468 18.2997 156.502 18.219 156.561 18.1595C156.621 18.1 156.701 18.0666 156.786 18.0666" fill="#10363D"/>
<path d="M175.566 18.0666H187.601C187.686 18.0666 187.766 18.1 187.826 18.1594C187.886 18.2189 187.92 18.2996 187.92 18.3839V21.5971C187.92 21.6816 187.886 21.7627 187.827 21.8225C187.767 21.8823 187.686 21.9158 187.601 21.9158H180.363C180.279 21.9158 180.198 21.9492 180.138 22.0087C180.078 22.0681 180.045 22.1488 180.044 22.2331V26.3045C180.044 26.389 180.078 26.4701 180.137 26.5299C180.197 26.5896 180.278 26.6232 180.363 26.6232H187.601C187.644 26.623 187.686 26.6313 187.725 26.6476C187.764 26.6639 187.799 26.6879 187.829 26.7182C187.859 26.7484 187.882 26.7843 187.898 26.8237C187.913 26.8632 187.921 26.9053 187.92 26.9477V30.073C187.92 30.1148 187.912 30.1562 187.896 30.1947C187.88 30.2333 187.856 30.2684 187.827 30.2979C187.797 30.3273 187.762 30.3507 187.723 30.3665C187.685 30.3824 187.643 30.3905 187.601 30.3903H180.363C180.279 30.3903 180.198 30.4237 180.138 30.4831C180.078 30.5426 180.045 30.6233 180.044 30.7076V34.6318C180.044 34.6736 180.052 34.715 180.068 34.7536C180.084 34.7922 180.108 34.8272 180.138 34.8567C180.167 34.8862 180.202 34.9095 180.241 34.9254C180.28 34.9412 180.321 34.9493 180.363 34.9491H187.601C187.686 34.9491 187.767 34.9827 187.827 35.0425C187.886 35.1022 187.92 35.1833 187.92 35.2678V38.4811C187.92 38.5654 187.886 38.6461 187.826 38.7055C187.766 38.765 187.686 38.7984 187.601 38.7984H175.566C175.482 38.7984 175.401 38.7649 175.342 38.7054C175.282 38.6459 175.249 38.5652 175.249 38.4811V18.3839C175.249 18.2997 175.282 18.219 175.342 18.1595C175.401 18.1 175.482 18.0666 175.566 18.0666Z" fill="#10363D"/>
<path d="M73.3249 31.3392L75.3729 24.1022C75.3866 24.0531 75.4161 24.0099 75.4567 23.9791C75.4973 23.9483 75.5469 23.9316 75.5979 23.9316C75.6488 23.9316 75.6984 23.9483 75.7391 23.9791C75.7797 24.0099 75.8091 24.0531 75.8229 24.1022L77.8708 31.3392C77.884 31.3849 77.8864 31.4331 77.8778 31.4799C77.8691 31.5267 77.8497 31.5708 77.821 31.6088C77.7923 31.6467 77.7551 31.6775 77.7124 31.6985C77.6697 31.7196 77.6227 31.7304 77.5751 31.7301H73.6206C73.5731 31.7301 73.5263 31.7191 73.4837 31.6979C73.4412 31.6768 73.4042 31.6461 73.3755 31.6082C73.3469 31.5703 73.3274 31.5263 73.3186 31.4797C73.3098 31.433 73.312 31.3849 73.3249 31.3392ZM84.9376 38.4854L78.0496 18.2252C78.0342 18.179 78.0045 18.1387 77.9649 18.1102C77.9253 18.0818 77.8778 18.0665 77.829 18.0666H73.3379C73.2891 18.0663 73.2414 18.0815 73.2018 18.11C73.1621 18.1385 73.1325 18.1788 73.1173 18.2252L66.2581 38.4854C66.2462 38.5205 66.2428 38.5579 66.2482 38.5946C66.2537 38.6313 66.2677 38.6661 66.2893 38.6963C66.3109 38.7264 66.3393 38.751 66.3722 38.768C66.4052 38.785 66.4417 38.7939 66.4788 38.794H70.9756C71.0447 38.7941 71.112 38.7716 71.1672 38.73C71.2224 38.6883 71.2625 38.6298 71.2813 38.5633L72.1466 35.4942H79.0433L79.9086 38.5633C79.9277 38.6297 79.9678 38.6881 80.023 38.7297C80.0781 38.7713 80.1453 38.7939 80.2144 38.794H84.7112C84.7483 38.7939 84.7848 38.785 84.8177 38.768C84.8507 38.751 84.8791 38.7264 84.9007 38.6963C84.9222 38.6661 84.9363 38.6313 84.9417 38.5946C84.9471 38.5579 84.9438 38.5205 84.9319 38.4854" fill="#10363D"/>
<path d="M143.01 31.3392L145.058 24.1022C145.071 24.0531 145.101 24.0099 145.141 23.9791C145.182 23.9483 145.232 23.9316 145.283 23.9316C145.333 23.9316 145.383 23.9483 145.424 23.9791C145.464 24.0099 145.494 24.0531 145.507 24.1022L147.557 31.3392C147.57 31.385 147.571 31.4331 147.562 31.4798C147.553 31.5264 147.534 31.5704 147.505 31.6082C147.476 31.646 147.439 31.6767 147.397 31.6978C147.354 31.719 147.307 31.73 147.26 31.7301H143.305C143.258 31.729 143.212 31.7172 143.171 31.6956C143.129 31.674 143.093 31.6431 143.065 31.6054C143.037 31.5676 143.018 31.524 143.01 31.4779C143.002 31.4318 143.004 31.3843 143.017 31.3392H143.01ZM154.622 38.4854L147.734 18.2281C147.719 18.1817 147.689 18.1414 147.65 18.1129C147.61 18.0843 147.562 18.0692 147.514 18.0695H143.023C142.974 18.0692 142.926 18.0843 142.886 18.1129C142.847 18.1414 142.817 18.1817 142.802 18.2281L135.943 38.4854C135.931 38.5206 135.927 38.5582 135.933 38.5949C135.938 38.6317 135.953 38.6667 135.974 38.6968C135.996 38.727 136.025 38.7516 136.058 38.7685C136.091 38.7854 136.128 38.7941 136.165 38.794H140.66C140.73 38.7942 140.797 38.7718 140.852 38.7301C140.908 38.6885 140.948 38.6299 140.967 38.5633L141.833 35.4942H148.728L149.593 38.5633C149.612 38.6297 149.652 38.6881 149.708 38.7297C149.763 38.7713 149.83 38.7939 149.899 38.794H154.396C154.433 38.7939 154.469 38.785 154.502 38.768C154.535 38.751 154.564 38.7264 154.585 38.6963C154.607 38.6661 154.621 38.6313 154.626 38.5946C154.632 38.5579 154.628 38.5205 154.617 38.4854" fill="#10363D"/>
<path d="M119.502 18.0666H115.341C115.257 18.0666 115.176 18.1 115.116 18.1595C115.057 18.219 115.024 18.2997 115.024 18.3839V26.1271C115.024 26.169 115.015 26.2104 114.999 26.2491C114.983 26.2877 114.96 26.3229 114.93 26.3525C114.901 26.3821 114.865 26.4055 114.827 26.4216C114.788 26.4376 114.747 26.4458 114.705 26.4458H108.176C108.134 26.4458 108.093 26.4376 108.054 26.4215C108.016 26.4055 107.981 26.382 107.951 26.3524C107.922 26.3228 107.898 26.2876 107.882 26.249C107.867 26.2103 107.858 26.1689 107.859 26.1271V18.2252C107.858 18.1409 107.825 18.0602 107.765 18.0008C107.705 17.9413 107.624 17.9079 107.54 17.9079H103.379C103.295 17.9083 103.215 17.9419 103.155 18.0013C103.096 18.0607 103.062 18.1412 103.062 18.2252V38.4739C103.062 38.5579 103.096 38.6384 103.155 38.6978C103.215 38.7572 103.295 38.7908 103.379 38.7911H107.54C107.624 38.7911 107.705 38.7578 107.765 38.6983C107.825 38.6388 107.858 38.5581 107.859 38.4739V30.8777C107.859 30.7936 107.892 30.7129 107.952 30.6534C108.011 30.5939 108.092 30.5604 108.176 30.5604H114.705C114.789 30.5604 114.87 30.5938 114.93 30.6533C114.989 30.7128 115.023 30.7935 115.024 30.8777V38.4739C115.024 38.558 115.057 38.6387 115.116 38.6982C115.176 38.7577 115.257 38.7911 115.341 38.7911H119.502C119.586 38.7911 119.666 38.7577 119.726 38.6982C119.785 38.6387 119.819 38.558 119.819 38.4739V18.3839C119.819 18.2997 119.785 18.219 119.726 18.1595C119.666 18.1 119.586 18.0666 119.502 18.0666Z" fill="#10363D"/>
<path d="M10.4026 16.0489L15.6595 17.9786C16.5089 18.2786 17.5344 17.8776 17.5344 17.2488V2.76039C17.5344 2.45609 17.2791 2.1763 16.8681 2.03063L11.6199 0.102398C10.769 -0.197581 9.73633 0.201911 9.73633 0.823504V15.3192C9.73633 15.6235 9.9916 15.9047 10.4026 16.0489Z" fill="#10363D"/>
<path d="M25.3945 22.4321L20.1376 20.5025C19.728 20.3568 19.4713 20.077 19.4713 19.7727V6.45534C19.4713 5.83375 20.5054 5.43425 21.3548 5.73423L26.6117 7.66391C27.0227 7.80813 27.278 8.08071 27.278 8.38502V21.7024C27.278 22.3312 26.2439 22.7321 25.3945 22.4321Z" fill="#10363D"/>
<path d="M25.3945 46.3382L20.1376 44.4086V44.4057C19.728 44.2615 19.4713 43.9817 19.4713 43.6774V30.3629C19.4713 29.7341 20.5054 29.3331 21.3548 29.6331L26.6117 31.5628C27.0227 31.7084 27.278 31.9882 27.278 32.2925V45.6099C27.278 46.2387 26.2439 46.6382 25.3945 46.3382Z" fill="#10363D"/>
<path d="M15.6595 49.8991L10.4026 47.9694C9.9916 47.8237 9.73633 47.5439 9.73633 47.2396V32.7887C9.73633 32.1599 10.769 31.7604 11.6199 32.0603L16.8681 33.9886C17.2791 34.1342 17.5344 34.414 17.5344 34.7183V49.1693C17.5344 49.7995 16.5089 50.199 15.6595 49.8991Z" fill="#10363D"/>
<path d="M7.80669 3.3041C7.80669 2.9998 7.54997 2.72722 7.13894 2.57434L1.88353 0.644667C1.03407 0.344687 0 0.745621 0 1.37443V46.6973C0 47.0016 0.255271 47.2829 0.666301 47.4271L5.92316 49.3582C6.77262 49.6568 7.80669 49.2573 7.80669 48.6285V3.3041Z" fill="#10363D"/>
<path d="M31.0868 13.4068L36.3436 15.3365H36.3508C36.7619 15.4821 37.0186 15.7619 37.0186 16.0662V37.9388C37.0186 38.5676 35.9845 38.9671 35.1351 38.6671L29.8782 36.7374C29.4672 36.5932 29.2119 36.3134 29.2119 36.0091V14.1366C29.2119 13.5078 30.2373 13.1068 31.0868 13.4068Z" fill="#10363D"/>
</g>
<defs>
<clipPath id="clip0">
<rect width="187.92" height="50" fill="white"/>
</clipPath>
</defs>
</svg>
