<svg width="48" height="48" viewBox="0 0 48 48" fill="none" xmlns="http://www.w3.org/2000/svg">
<g clip-path="url(#clip0)">
<path d="M3.81006 0V29.4545H14.5555L24.0001 13.0909H48.0001V0H3.81006Z" fill="#DB4437"/>
<path d="M3.81006 0V29.4545H14.5555L24.0001 13.0909H48.0001V0H3.81006Z" fill="url(#paint0_linear)"/>
<path d="M14.8091 29.3454L3.94908 10.7182L3.79089 10.9909L14.5745 29.4818L14.8091 29.3454Z" fill="#3E2723" fill-opacity="0.15"/>
<path d="M0 48H22.8464L33.45 37.3964V29.4545H14.55L0 4.49454V48Z" fill="#0F9D58"/>
<path d="M0 48H22.8464L33.45 37.3964V29.4545H14.55L0 4.49454V48Z" fill="url(#paint1_linear)"/>
<path d="M33.2183 29.8091L32.9919 29.6782L22.5192 47.9918H22.8328L33.2237 29.8173L33.2183 29.8091Z" fill="#263238" fill-opacity="0.15"/>
<path d="M24 13.0909L33.45 29.4545L22.8463 48H48V13.0909H24Z" fill="#FFCD40"/>
<path d="M24 13.0909L33.45 29.4545L22.8463 48H48V13.0909H24Z" fill="url(#paint2_linear)"/>
<path d="M24 13.0909L33.45 29.4545L22.8463 48H48V13.0909H24Z" fill="#FFCD40"/>
<path d="M24 13.0909L33.45 29.4545L22.8463 48H48V13.0909H24Z" fill="url(#paint3_linear)"/>
<path d="M3.81006 0V29.4545H14.5555L24.0001 13.0909H48.0001V0H3.81006Z" fill="#DB4437"/>
<path d="M3.81006 0V29.4545H14.5555L24.0001 13.0909H48.0001V0H3.81006Z" fill="url(#paint4_linear)"/>
<path d="M24 13.0909V18.8045L45.3818 13.0909H24Z" fill="url(#paint5_radial)"/>
<path d="M0 48H22.8464L33.45 29.4545H14.55L0 4.49454V48Z" fill="#0F9D58"/>
<path d="M0 48H22.8464L33.45 29.4545H14.55L0 4.49454V48Z" fill="url(#paint6_linear)"/>
<path d="M3.81006 11.0318L19.4237 26.6427L14.5528 29.4546L3.81006 11.0318Z" fill="url(#paint7_radial)"/>
<path d="M22.8628 47.9727L28.5792 26.6454L33.4501 29.4545L22.8628 47.9727Z" fill="url(#paint8_radial)"/>
<path d="M24 34.9091C30.025 34.9091 34.9091 30.0249 34.9091 24C34.9091 17.9751 30.025 13.0909 24 13.0909C17.9751 13.0909 13.0909 17.9751 13.0909 24C13.0909 30.0249 17.9751 34.9091 24 34.9091Z" fill="#F1F1F1"/>
<path d="M24 32.7273C28.8199 32.7273 32.7272 28.8199 32.7272 24C32.7272 19.1801 28.8199 15.2727 24 15.2727C19.18 15.2727 15.2727 19.1801 15.2727 24C15.2727 28.8199 19.18 32.7273 24 32.7273Z" fill="#4285F4"/>
<path d="M24 12.8182C17.9728 12.8182 13.0909 17.7 13.0909 23.7273V24C13.0909 17.9727 17.9728 13.0909 24 13.0909H48V12.8182H24Z" fill="#3E2723" fill-opacity="0.2"/>
<path d="M33.4364 29.4545C31.5491 32.7109 28.0364 34.9091 24 34.9091C19.9636 34.9091 16.4455 32.7109 14.5636 29.4545H14.5527L0 4.49454V4.76726L14.5636 29.7273C16.4509 32.9836 19.9636 35.1818 24 35.1818C28.0364 35.1818 31.5491 32.9864 33.4364 29.7273H33.45V29.4545H33.4336H33.4364Z" fill="white" fill-opacity="0.1"/>
<path opacity="0.1" d="M24.2727 13.0909C24.2264 13.0909 24.1827 13.0964 24.1364 13.0991C30.0982 13.1727 34.9091 18.0218 34.9091 24C34.9091 29.9782 30.0982 34.8273 24.1364 34.9009C24.1827 34.9009 24.2264 34.9091 24.2727 34.9091C30.3 34.9091 35.1818 30.0273 35.1818 24C35.1818 17.9727 30.3 13.0909 24.2727 13.0909Z" fill="#3E2723"/>
<path d="M33.5454 29.8091C34.4727 28.2055 35.0099 26.3509 35.0099 24.3654C35.0106 23.2467 34.8386 22.1345 34.4999 21.0682C34.759 22.0009 34.909 22.9773 34.909 23.9945C34.909 25.98 34.3718 27.8345 33.4445 29.4382L33.4499 29.4491L22.8463 47.9945H23.1627L33.5454 29.8091Z" fill="white" fill-opacity="0.2"/>
<path d="M24 0.272727C37.2082 0.272727 47.9236 10.9445 48 24.1364C48 24.09 48.0027 24.0464 48.0027 24C48.0027 10.7455 37.2573 0 24.0027 0C10.7482 0 0 10.7455 0 24C0 24.0464 0.00272734 24.09 0.00272734 24.1364C0.0763637 10.9445 10.7918 0.272727 24 0.272727Z" fill="white" fill-opacity="0.2"/>
<path d="M24 47.7273C37.2082 47.7273 47.9236 37.0555 48 23.8636C48 23.91 48.0027 23.9536 48.0027 24C48.0027 37.2546 37.2573 48 24.0027 48C10.7482 48 0 37.2546 0 24C0 23.9536 0.00272734 23.91 0.00272734 23.8636C0.0763637 37.0555 10.7918 47.7273 24.0027 47.7273H24Z" fill="#3E2723" fill-opacity="0.15"/>
</g>
<defs>
<linearGradient id="paint0_linear" x1="5.82006" y1="18.2782" x2="20.1382" y2="9.91364" gradientUnits="userSpaceOnUse">
<stop stop-color="#A52714" stop-opacity="0.6"/>
<stop offset="0.66" stop-color="#A52714" stop-opacity="0"/>
</linearGradient>
<linearGradient id="paint1_linear" x1="28.0636" y1="42.6818" x2="12.1473" y2="33.3545" gradientUnits="userSpaceOnUse">
<stop stop-color="#055524" stop-opacity="0.4"/>
<stop offset="0.33" stop-color="#055524" stop-opacity="0"/>
</linearGradient>
<linearGradient id="paint2_linear" x1="31.0636" y1="11.4" x2="35.0727" y2="28.9364" gradientUnits="userSpaceOnUse">
<stop stop-color="#EA6100" stop-opacity="0.3"/>
<stop offset="0.66" stop-color="#EA6100" stop-opacity="0"/>
</linearGradient>
<linearGradient id="paint3_linear" x1="31.0636" y1="11.4" x2="35.0727" y2="28.9364" gradientUnits="userSpaceOnUse">
<stop stop-color="#EA6100" stop-opacity="0.3"/>
<stop offset="0.66" stop-color="#EA6100" stop-opacity="0"/>
</linearGradient>
<linearGradient id="paint4_linear" x1="5.82006" y1="18.2782" x2="20.1382" y2="9.91364" gradientUnits="userSpaceOnUse">
<stop stop-color="#A52714" stop-opacity="0.6"/>
<stop offset="0.66" stop-color="#A52714" stop-opacity="0"/>
</linearGradient>
<radialGradient id="paint5_radial" cx="0" cy="0" r="1" gradientUnits="userSpaceOnUse" gradientTransform="translate(22.9636 13.0773) scale(22.9309)">
<stop stop-color="#3E2723" stop-opacity="0.2"/>
<stop offset="1" stop-color="#3E2723" stop-opacity="0"/>
</radialGradient>
<linearGradient id="paint6_linear" x1="28.0636" y1="42.6818" x2="12.1473" y2="33.3545" gradientUnits="userSpaceOnUse">
<stop stop-color="#055524" stop-opacity="0.4"/>
<stop offset="0.33" stop-color="#055524" stop-opacity="0"/>
</linearGradient>
<radialGradient id="paint7_radial" cx="0" cy="0" r="1" gradientUnits="userSpaceOnUse" gradientTransform="translate(3.79097 11.0509) scale(21.2836)">
<stop stop-color="#3E2723" stop-opacity="0.2"/>
<stop offset="1" stop-color="#3E2723" stop-opacity="0"/>
</radialGradient>
<radialGradient id="paint8_radial" cx="0" cy="0" r="1" gradientUnits="userSpaceOnUse" gradientTransform="translate(23.9455 24.0382) scale(23.9646)">
<stop stop-color="#263238" stop-opacity="0.2"/>
<stop offset="1" stop-color="#263238" stop-opacity="0"/>
</radialGradient>
<clipPath id="clip0">
<path d="M0 24C0 10.7452 10.7452 0 24 0C37.2548 0 48 10.7452 48 24C48 37.2548 37.2548 48 24 48C10.7452 48 0 37.2548 0 24Z" fill="white"/>
</clipPath>
</defs>
</svg>
