<svg width="212" height="41" viewBox="0 0 212 41" fill="none" xmlns="http://www.w3.org/2000/svg">
<path fill-rule="evenodd" clip-rule="evenodd" d="M11.8244 6.70179V29.1036C11.8244 29.8035 11.8683 29.9345 12.5262 29.9778L16.1202 30.2844V33.7408H0.735261V30.285L4.50415 29.9784C5.11818 29.9345 5.2059 29.7596 5.2059 29.1036V13.9969C5.2059 13.3699 4.73246 13.4739 1.43761 14.5855L0.222168 10.9981L7.75214 6.70179H11.8244ZM26.3521 6.83707H28.9392C32.0502 6.83707 34.6367 7.58017 34.6367 11.7803C34.6367 16.7234 31.4373 17.3794 28.5444 17.3794H26.3521V6.83707ZM29.552 22.0598H26.3521V29.0598C26.3521 29.7602 26.3965 29.8473 27.0544 29.9345L33.3221 30.2844V33.7402H16.1395V30.2844L18.9008 29.9778C19.5136 29.8912 19.6025 29.7602 19.6025 29.1036V6.74989C19.6025 6.09396 19.5142 5.91841 18.9008 5.87452L16.1395 5.5685V2.06883H30.9987C39.1085 2.06883 41.5622 6.35609 41.5622 11.3865C41.5622 18.9978 36.9606 22.0604 29.552 22.0604V22.0598ZM54.1041 27.9667C53.0966 28.7099 51.606 29.5419 50.1154 29.5419C48.6692 29.5419 47.6172 28.8854 47.6172 27.1353C47.6172 25.3857 48.5376 24.7292 51.1229 24.5549L54.1041 24.336V27.9674V27.9667ZM74.2542 19.6117C77.7166 20.3987 81.6183 21.6239 81.6183 26.7421C81.6183 32.0785 77.2792 34.2663 71.7121 34.2663C68.1073 34.2663 64.5829 33.4101 63.3536 32.857V33.7408H55.2877L54.8491 31.3786L54.6299 31.3354C52.9644 32.9538 50.7726 34.2663 47.2657 34.2663C41.7436 34.2663 40.8659 30.5045 40.8659 27.7912C40.8659 23.4174 43.5845 21.4051 49.0633 21.0552L54.1041 20.7053V18.2992C54.1041 16.2431 53.8854 14.8434 51.1668 14.8434C49.0639 14.8434 47.9675 15.1495 47.9675 17.7744L41.7863 17.2489C41.7863 11.3438 47.1786 10.5117 51.2112 10.5117C57.8742 10.5117 60.5478 12.3063 60.5478 18.4303V29.0604C60.5478 29.7602 60.5917 29.8479 61.249 29.9351L63.0328 30.2315V26.3477L67.7227 26.6982L68.1613 29.1914C68.2046 29.5852 68.2935 29.7602 68.6876 29.8473C69.2133 30.0229 70.3969 30.285 72.063 30.285C74.3857 30.285 75.7003 29.6297 75.7003 28.0106C75.7003 26.2611 73.9471 25.7356 71.7121 25.3418C68.0303 24.6859 63.2082 23.8989 63.2082 18.1682C63.2082 12.7434 67.8543 10.5117 72.8951 10.5117C76.3576 10.5117 79.733 11.2999 80.961 11.7803V18.1237L76.2705 17.8182L75.8319 15.5427C75.7886 15.1927 75.7003 15.0184 75.3945 14.9306C74.8243 14.7563 73.7723 14.5807 72.5887 14.5807C70.3969 14.5807 69.1695 15.4116 69.1695 16.8112C69.1695 18.6052 71.5805 18.9984 74.2542 19.6117ZM201.64 27.223C200.456 28.2295 198.834 29.1042 197.344 29.1042C194.582 29.1042 193.355 26.7415 193.355 22.4987C193.355 18.6052 194.626 15.5865 197.871 15.5865C199.141 15.5865 200.544 16.1553 201.64 16.8996V27.223ZM208.916 29.979L211.019 30.2856V33.7414H202.866L202.429 31.2915L202.122 31.247C200.281 33.041 198.133 34.2657 194.933 34.2657C189.761 34.2657 186.43 30.9848 186.43 22.6298C186.43 13.837 190.856 10.5123 195.722 10.5123C198.265 10.5123 200.237 11.3871 201.903 12.6123V5.9623C201.903 5.52461 201.727 5.2186 201.333 5.08753L198.922 4.25605L199.404 0.712494H208.215V29.1469C208.215 29.8035 208.259 29.8912 208.916 29.9784V29.979ZM135.102 14.7989C134.489 14.8861 134.226 15.1056 134.051 15.6737L128.659 33.7402H121.733L118.314 19.0868H118.052L114.588 33.7408H106.698L101.175 15.631C101 15.1056 100.78 15.0178 100.254 14.8867L99.8277 14.7959V18.1237L95.1378 17.8182L94.6992 15.5427C94.6559 15.1927 94.5676 15.0184 94.2618 14.9306C93.691 14.7563 92.6396 14.5807 91.456 14.5807C89.2642 14.5807 88.0362 15.4116 88.0362 16.8112C88.0362 18.6052 90.4478 18.9996 93.1214 19.6117C96.5839 20.3987 100.486 21.6239 100.486 26.7421C100.486 32.0791 96.1465 34.2663 90.5788 34.2663C86.59 34.2663 82.689 33.216 81.8995 32.6911V26.3483L86.59 26.6982L87.0286 29.1914C87.0719 29.5852 87.1608 29.7602 87.5549 29.8473C88.0806 30.0229 89.2642 30.285 90.9303 30.285C93.2524 30.285 94.5676 29.6297 94.5676 28.0106C94.5676 26.2611 92.8144 25.7356 90.5788 25.3418C86.897 24.6859 82.0755 23.8989 82.0755 18.1682C82.0755 12.7434 86.7216 10.5117 91.7624 10.5117C94.6253 10.5117 97.4257 11.0504 99.0046 11.5091L99.1151 10.95H110.205V14.5807L107.75 14.8434L111.257 27.1353H111.564L115.464 11.5181H122.084L125.854 27.1353H126.117L129.404 14.8434L126.906 14.5807L127.475 10.95H136.681V12.2396C136.134 13.0437 135.652 13.8908 135.241 14.7725L135.102 14.7996V14.7989ZM180.427 15.8926C179.288 15.8926 177.93 16.8545 177.272 17.4239V29.0159C177.272 29.7157 177.316 29.8467 177.974 29.8912L182.313 30.2405V33.7408H167.978V30.1973L169.952 29.9345C170.565 29.8467 170.653 29.7157 170.653 29.0598V16.2419C170.653 15.7609 170.521 15.4549 170.084 15.3238L167.975 14.5843C167.907 14.4412 167.832 14.3029 167.761 14.1635L168.199 10.9494H175.913L176.439 14.4484H176.702C178.148 12.2179 180.077 10.5117 182.883 10.5117C183.89 10.5117 185.907 10.6866 186.696 10.9055V18.8674L181.437 18.6924L180.998 16.3735C180.91 15.9797 180.779 15.8926 180.427 15.8926Z" fill="#4E5F89"/>
<path fill-rule="evenodd" clip-rule="evenodd" d="M151.539 7.64569C159.503 7.64569 165.958 14.1057 165.958 22.0748C165.958 30.0439 159.503 36.504 151.539 36.504C143.575 36.504 137.119 30.0439 137.119 22.0748C137.119 14.1057 143.575 7.64569 151.539 7.64569Z" fill="#198CFF"/>
<path fill-rule="evenodd" clip-rule="evenodd" d="M133.515 22.0749C133.515 12.1133 141.584 4.03842 151.539 4.03842C161.494 4.03842 169.563 12.1133 169.563 22.0749C169.563 32.037 161.494 40.1113 151.539 40.1113C141.584 40.1113 133.515 32.037 133.515 22.0749ZM137.119 22.0749C137.119 30.044 143.575 36.504 151.539 36.504C159.503 36.504 165.958 30.044 165.958 22.0749C165.958 14.1058 159.503 7.64571 151.539 7.64571C143.575 7.64571 137.119 14.1058 137.119 22.0749Z" fill="white"/>
<path opacity="0.5" d="M132.914 22.0748C132.914 32.3682 141.253 40.7125 151.539 40.7125C161.825 40.7125 170.164 32.3682 170.164 22.0748C170.164 11.782 161.825 3.43718 151.539 3.43718C141.253 3.43718 132.914 11.782 132.914 22.0748ZM133.515 22.0748C133.515 12.1145 141.584 4.03839 151.539 4.03839C161.494 4.03839 169.563 12.1145 169.563 22.0748C169.563 32.0352 161.494 40.1113 151.539 40.1113C141.584 40.1113 133.515 32.0352 133.515 22.0748ZM137.72 22.0736C137.72 29.7103 143.907 35.9004 151.539 35.9004C159.17 35.9004 165.358 29.7103 165.358 22.0736C165.358 14.4376 159.17 8.2469 151.539 8.2469C143.907 8.2469 137.72 14.4376 137.72 22.0736ZM137.119 22.0748C137.119 14.1069 143.575 7.64568 151.539 7.64568C159.503 7.64568 165.958 14.1069 165.958 22.0748C165.958 30.0427 159.504 36.504 151.539 36.504C143.574 36.504 137.119 30.0427 137.119 22.0748Z" fill="black"/>
<path fill-rule="evenodd" clip-rule="evenodd" d="M157.739 37.1521C163.224 34.8128 167.069 29.3802 167.069 23.05C167.069 14.5837 160.192 7.72025 151.709 7.72025C143.226 7.72025 136.35 14.5837 136.35 23.05C136.35 31.4911 143.186 38.3371 151.634 38.3774C151.608 38.378 151.583 38.3798 151.557 38.3798C142.654 38.3798 135.437 31.1766 135.437 22.2913C135.437 13.4059 142.654 6.20279 151.557 6.20279C160.46 6.20279 167.677 13.4059 167.677 22.2913C167.677 28.9906 163.573 34.731 157.739 37.1521ZM151.246 38.5602C161.191 38.5602 169.253 30.5141 169.253 20.5892C169.253 19.6634 169.182 18.7543 169.047 17.8663C169.382 19.2359 169.563 20.6656 169.563 22.138C169.563 32.064 161.501 40.1089 151.556 40.1089C142.538 40.1089 135.069 33.4937 133.755 24.8609C135.676 32.723 142.776 38.5602 151.246 38.5602Z" fill="black" fill-opacity="0.1"/>
<path fill-rule="evenodd" clip-rule="evenodd" d="M151.539 11.253C157.512 11.253 162.354 16.0982 162.354 22.0749C162.354 28.0515 157.512 32.8967 151.539 32.8967C145.566 32.8967 140.724 28.0515 140.724 22.0749C140.724 16.0982 145.566 11.253 151.539 11.253Z" fill="#F2F2F2"/>
<path d="M151.539 11.253C145.566 11.253 140.724 16.0982 140.724 22.0748C140.724 28.0515 145.566 32.8967 151.539 32.8967C157.512 32.8967 162.354 28.0515 162.354 22.0748C162.354 16.0982 157.512 11.253 151.539 11.253ZM151.539 10.6518C157.843 10.6518 162.954 15.7663 162.954 22.0748C162.954 28.384 157.843 33.4979 151.539 33.4979C145.235 33.4979 140.123 28.384 140.123 22.0748C140.123 15.7663 145.235 10.6518 151.539 10.6518Z" fill="black" fill-opacity="0.25"/>
<path fill-rule="evenodd" clip-rule="evenodd" d="M156.345 22.0749C156.345 23.3505 155.839 24.5739 154.938 25.4759C154.036 26.3778 152.814 26.8846 151.539 26.8846C150.264 26.8846 149.042 26.3778 148.14 25.4759C147.239 24.5739 146.732 23.3505 146.732 22.0749C146.732 20.7993 147.239 19.5759 148.14 18.6739C149.042 17.7719 150.264 17.2652 151.539 17.2652C152.814 17.2652 154.036 17.7719 154.938 18.6739C155.839 19.5759 156.345 20.7993 156.345 22.0749Z" fill="black" fill-opacity="0.05"/>
<path d="M155.745 22.0749C155.745 20.9587 155.301 19.8883 154.513 19.099C153.724 18.3098 152.654 17.8664 151.539 17.8664C150.423 17.8664 149.354 18.3098 148.565 19.099C147.776 19.8883 147.333 20.9587 147.333 22.0749C147.333 23.191 147.776 24.2615 148.565 25.0507C149.354 25.84 150.423 26.2834 151.539 26.2834C152.654 26.2834 153.724 25.84 154.513 25.0507C155.301 24.2615 155.745 23.191 155.745 22.0749ZM156.345 22.0749C156.345 23.3505 155.839 24.5739 154.938 25.4759C154.036 26.3778 152.814 26.8846 151.539 26.8846C150.264 26.8846 149.042 26.3778 148.14 25.4759C147.239 24.5739 146.732 23.3505 146.732 22.0749C146.732 20.7993 147.239 19.5759 148.14 18.6739C149.042 17.7719 150.264 17.2652 151.539 17.2652C152.814 17.2652 154.036 17.7719 154.938 18.6739C155.839 19.5759 156.345 20.7993 156.345 22.0749Z" fill="black" fill-opacity="0.15"/>
<path d="M156.345 22.0748C156.345 20.7992 155.839 19.5759 154.938 18.6739C154.036 17.7719 152.814 17.2651 151.539 17.2651C150.264 17.2651 149.042 17.7719 148.14 18.6739C147.239 19.5759 146.732 20.7992 146.732 22.0748C146.732 23.3505 147.239 24.5738 148.14 25.4758C149.042 26.3778 150.264 26.8846 151.539 26.8846C152.814 26.8846 154.036 26.3778 154.938 25.4758C155.839 24.5738 156.345 23.3505 156.345 22.0748ZM156.946 22.0748C156.946 23.5099 156.377 24.8862 155.362 25.9009C154.348 26.9157 152.973 27.4858 151.539 27.4858C150.105 27.4858 148.729 26.9157 147.715 25.9009C146.701 24.8862 146.132 23.5099 146.132 22.0748C146.132 20.6398 146.701 19.2635 147.715 18.2487C148.729 17.234 150.105 16.6639 151.539 16.6639C152.973 16.6639 154.348 17.234 155.362 18.2487C156.377 19.2635 156.946 20.6398 156.946 22.0748Z" fill="white"/>
<path fill-rule="evenodd" clip-rule="evenodd" d="M149.136 19.8852V14.8603H153.942V23.2352L152.741 24.351L153.942 25.4669V30.4919H149.136V22.1175L150.337 21.0011L149.136 19.8852Z" fill="white"/>
<path fill-rule="evenodd" clip-rule="evenodd" d="M149.136 19.284V14.2591H153.942V22.634L152.741 23.7499L153.942 24.8657V29.8907H149.136V21.5163L150.337 20.3999L149.136 19.284Z" fill="#4D4D4D"/>
<path fill-rule="evenodd" clip-rule="evenodd" d="M149.737 19.7992V15.4615H153.341V22.8913L152.44 23.9212V24.5272L153.341 25.6749V29.8906H149.737V22.4476L150.638 21.4393V20.8297L149.737 19.7992Z" fill="#808080"/>
</svg>
