<svg width="186" height="28" viewBox="0 0 186 28" fill="none" xmlns="http://www.w3.org/2000/svg">
<g clip-path="url(#clip0)">
<path fill-rule="evenodd" clip-rule="evenodd" d="M0.226014 0.601542C0.377139 0.493042 0.617389 0.4375 0.945473 0.4375H4.03126C4.41489 0.4375 4.67451 0.485292 4.81272 0.580875C4.94964 0.676458 5.0181 0.915417 5.0181 1.29646V20.2388C5.0181 21.3018 5.28547 22.0523 5.82022 22.4888C6.35497 22.9254 7.08735 23.1437 8.02122 23.1437H15.2313C15.5323 23.1437 15.8784 23.1695 16.0838 23.3413C16.2905 23.5131 16.244 23.6203 16.3809 24.0608C16.5178 24.5025 16.7916 26.6144 16.7916 26.6144C16.7916 26.8301 16.7916 26.989 16.6496 27.135C16.5088 27.2796 16.2143 27.3959 15.9779 27.4618C15.7428 27.5263 15.2881 27.5625 14.6178 27.5625H7.23976C5.81377 27.5625 4.63318 27.3571 3.70189 26.949C2.76931 26.5395 2.02918 25.9931 1.48022 25.3111C0.930723 24.6275 0.537866 23.8316 0.329348 22.9797C0.106803 22.0831 -0.00383113 21.1625 -2.72276e-05 20.2388V1.29646C-2.72276e-05 0.942542 0.0748895 0.710042 0.226014 0.601542Z" fill="black"/>
<path fill-rule="evenodd" clip-rule="evenodd" d="M100.75 24.9985C100.75 25.6017 100.512 26.0164 100.036 26.2424C99.459 26.503 98.8625 26.7172 98.2518 26.8831C97.6137 27.06 96.9563 27.1982 96.2795 27.299C95.613 27.3983 94.9423 27.4673 94.2696 27.5056C93.6057 27.5444 92.9741 27.5625 92.3735 27.5625C90.7201 27.5625 89.3484 27.3933 88.2595 27.0536C87.1706 26.7139 86.3065 26.2618 85.6671 25.696C85.0501 25.1624 84.5894 24.4713 84.3341 23.6965C84.0807 22.9108 83.9538 22.0898 83.9582 21.2643C83.9582 20.3847 84.1016 19.5361 84.3897 18.7197C84.6792 17.8998 85.1627 17.1619 85.7989 16.5691C86.4499 15.953 87.2959 15.457 88.3344 15.0798C89.3742 14.7026 90.6452 14.5141 92.1474 14.5141H96.3544V13.8708C96.3544 13.3929 96.3053 12.9537 96.2045 12.552C96.1075 12.1547 95.907 11.7901 95.6233 11.4954C95.3339 11.1932 94.9387 10.9607 94.4388 10.7979C93.9377 10.6339 93.2867 10.5525 92.4858 10.5525C91.6333 10.5525 90.5031 10.7773 89.8767 10.9788C89.6015 11.055 89.4013 11.0666 89.276 11.0175C89.1507 10.9659 89.0629 10.8276 89.0138 10.6016L88.4868 8.45227C88.3874 8.05056 88.4997 7.78577 88.8252 7.66048C89.8767 7.25748 92.097 6.89581 93.1988 6.89581C95.8041 6.89581 97.7132 7.47448 98.9274 8.63052C100.142 9.78656 100.75 11.4722 100.75 13.6835V24.9985ZM96.3169 17.8698H92.7106C92.2843 17.8698 91.8284 17.8956 91.3401 17.946C90.8549 17.9949 90.3834 18.1352 89.9503 18.3594C89.5111 18.5867 89.1494 18.9148 88.8601 19.341C88.5721 19.7673 88.4287 20.3589 88.4287 21.1132C88.4287 22.1943 88.7917 22.9486 89.5176 23.3762C90.2448 23.8037 91.2084 24.0169 92.4109 24.0169C92.5853 24.0169 92.8294 24.0117 93.1433 23.9988C93.4559 23.9859 93.7878 23.9549 94.1379 23.9045C94.4892 23.8541 94.8586 23.7908 95.2461 23.7159C95.6336 23.641 95.9914 23.5402 96.3182 23.4136V17.8698H96.3169Z" fill="#D32D27"/>
<path fill-rule="evenodd" clip-rule="evenodd" d="M51.6667 21.4723C51.6834 22.4772 51.5078 23.3607 51.1409 24.1202C50.7863 24.8668 50.2568 25.5168 49.5974 26.0151C48.891 26.5382 48.0921 26.923 47.2427 27.1492C46.2784 27.4122 45.2843 27.5502 44.2848 27.5599C42.9463 27.5734 41.6091 27.4705 40.2884 27.2525C39.6038 27.1388 38.9424 26.9812 38.3057 26.7772C37.6968 26.5872 37.1076 26.3389 36.5464 26.0357C36.1641 25.842 36.0711 25.541 36.2661 25.1342L37.138 23.0081C37.2607 22.7795 37.3834 22.6335 37.51 22.5689C37.6353 22.503 37.8368 22.5302 38.1171 22.6516C39.0342 23.0636 40.0507 23.3775 41.1654 23.5971C42.2814 23.8167 43.2682 23.92 44.1285 23.9045C45.1877 23.8851 45.9807 23.6642 46.5052 23.2406C47.027 22.8156 47.2827 22.2783 47.2724 21.6234C47.2595 20.8949 46.9082 20.3227 46.2184 19.9068C45.5287 19.4922 44.4979 19.0452 43.1249 18.566C42.1967 18.2524 41.2857 17.8902 40.3956 17.481C39.6193 17.1194 38.9747 16.7086 38.4607 16.2527C37.9667 15.8222 37.5643 15.2969 37.2775 14.7078C37.0024 14.1343 36.8577 13.4704 36.8448 12.7161C36.8219 11.9322 36.9645 11.1523 37.2633 10.4272C37.5587 9.72797 38.0124 9.10676 38.5885 8.61245C39.1788 8.09966 39.9164 7.6902 40.7999 7.38537C41.6847 7.08182 42.7064 6.91907 43.8689 6.89841C44.9361 6.88036 46.0028 6.95643 47.0567 7.12574C48.121 7.29624 49.1492 7.57395 50.1412 7.95887C50.344 8.05574 50.4667 8.17845 50.508 8.32957C50.548 8.50385 50.5445 8.68529 50.4977 8.85787L49.6646 11.0214C49.5922 11.2242 49.4992 11.3392 49.3856 11.3663C49.2732 11.3921 49.1143 11.3702 48.9102 11.2991C47.9195 10.9633 47.0502 10.7411 46.3037 10.6274C45.5545 10.5151 44.7524 10.466 43.8934 10.4815C42.9582 10.497 42.2801 10.7049 41.8577 11.1015C41.4354 11.4993 41.2274 11.9359 41.2364 12.4138C41.2429 12.7652 41.3165 13.0661 41.4612 13.3141C41.6033 13.5634 41.8293 13.792 42.1354 14.0013C42.4429 14.208 42.8446 14.4224 43.3406 14.6394C43.8366 14.8577 44.4411 15.0863 45.1528 15.3239C45.9665 15.612 46.7609 15.9181 47.5385 16.2449C48.3135 16.5704 49.0032 16.9682 49.6052 17.4332C50.2071 17.9021 50.6966 18.4588 51.0751 19.106C51.4522 19.7531 51.6499 20.5423 51.6654 21.4723H51.6667ZM65.503 27.0019C64.6514 27.2711 63.7698 27.4342 62.8783 27.4876C62.0026 27.5367 61.3206 27.5625 60.8323 27.5625C58.7217 27.5625 57.2286 27.1272 56.3554 26.2553C55.4797 25.3835 55.0431 24.0517 55.0431 22.2589L55.1438 11.6569H52.3022C52.0412 11.6569 51.9069 11.5923 51.7984 11.4812C51.6912 11.3702 51.6357 11.2617 51.6847 11.0782C51.7364 10.8974 52.4391 9.10199 52.4391 9.10199C52.4817 9.03612 52.6716 8.61762 52.7181 8.55691C52.7956 8.45874 52.9066 8.38899 53.2115 8.38899H55.1115V4.77361C55.1115 4.2802 55.3479 4.19236 55.4629 4.09161C55.5791 3.99216 55.778 3.8927 56.0622 3.79324L58.8264 3.04795C59.0304 2.99757 59.1984 3.01695 59.3275 3.10349C59.4554 3.19132 59.5213 3.37216 59.5213 3.64599V8.38899H63.3989C63.6817 8.38899 63.8548 8.44582 63.9194 8.55691C63.984 8.66928 64.0163 8.81266 64.0163 8.98703V11.0214C64.0163 11.2462 63.984 11.4089 63.9194 11.5071C63.8548 11.6065 63.6817 11.6569 63.3989 11.6569H59.52V21.6983C59.52 22.4953 59.7137 23.043 60.0986 23.3413C60.4861 23.641 61.0764 23.7895 61.8747 23.7895C62.6172 23.7802 63.3583 23.7241 64.0938 23.6216L64.7693 23.5286C65.0264 23.4795 65.193 23.4847 65.2705 23.5467C65.348 23.61 65.3996 23.7275 65.4255 23.9019L65.8491 26.2915C65.875 26.4426 65.8814 26.5731 65.8685 26.6842C65.8556 26.7965 65.7342 26.9037 65.503 27.0019Z" fill="black"/>
<path fill-rule="evenodd" clip-rule="evenodd" d="M72.9223 26.7152C72.9223 27.0923 72.8641 27.3274 72.7466 27.4217C72.6303 27.516 72.1511 27.5625 71.7882 27.5625H69.3521C69.0679 27.5625 68.847 27.5082 68.6908 27.401C68.5358 27.2938 68.4583 27.0652 68.4583 26.7165V2.75862C68.4583 2.4525 68.5254 1.92937 68.5758 1.68396C68.6507 1.32358 68.6468 1.197 68.8315 0.965789C69.0292 0.719081 69.3301 0.549873 69.7357 0.459456C69.9708 0.407789 70.0922 0.459456 70.3945 0.459456H77.7957C79.0913 0.459456 80.2757 0.667414 81.3517 1.08462C82.4276 1.50183 83.3473 2.09212 84.112 2.85937C84.8873 3.64305 85.4955 4.57596 85.8996 5.60158C86.3272 6.66462 86.5416 7.82712 86.5416 9.09037C86.5416 9.81629 86.4305 10.6843 86.2109 11.6931C85.9913 12.7006 85.5496 13.6758 84.8896 14.6161C84.2282 15.559 83.3008 16.3573 82.1099 17.016C80.9177 17.6748 79.3496 18.0042 77.4069 18.0042H72.9223V26.7139V26.7152ZM81.8851 7.92141C81.743 7.38408 81.4963 6.89325 81.1463 6.44891C80.7976 6.00587 80.3106 5.63775 79.6893 5.34066C79.0667 5.04487 78.2762 4.89762 77.3178 4.89762H72.6755V13.8515H77.3953C79.028 13.8515 80.2202 13.4342 80.9719 12.6011C81.7224 11.768 82.0996 10.705 82.0996 9.41458C82.0996 8.95733 82.0272 8.46004 81.8851 7.92271V7.92141ZM118.308 24.1215C117.953 24.8675 117.423 25.517 116.764 26.0151C116.058 26.5381 115.259 26.9229 114.409 27.1492C113.445 27.4122 112.451 27.5503 111.451 27.5599C110.113 27.5733 108.777 27.4705 107.456 27.2525C106.772 27.1388 106.109 26.9812 105.472 26.7772C104.863 26.587 104.274 26.3387 103.713 26.0357C103.331 25.842 103.238 25.541 103.433 25.1342L104.305 23.0081C104.427 22.7795 104.55 22.6335 104.677 22.5689C104.802 22.503 105.003 22.5302 105.284 22.6516C106.201 23.0636 107.217 23.3775 108.332 23.5971C109.448 23.8167 110.435 23.92 111.294 23.9045C112.356 23.8851 113.147 23.6642 113.67 23.2406C114.194 22.8156 114.449 22.2783 114.438 21.6234C114.425 20.8949 114.075 20.324 113.385 19.9068C112.695 19.4922 111.665 19.0452 110.291 18.566C109.363 18.2524 108.452 17.8902 107.562 17.481C106.786 17.1194 106.141 16.7086 105.627 16.2527C105.133 15.8224 104.731 15.297 104.444 14.7078C104.169 14.1343 104.024 13.4704 104.011 12.7161C103.988 11.9322 104.131 11.1523 104.43 10.4272C104.725 9.72797 105.179 9.10676 105.755 8.61246C106.345 8.09966 107.083 7.69021 107.966 7.38537C108.85 7.08183 109.873 6.91908 111.035 6.89841C112.103 6.88036 113.169 6.95644 114.223 7.12575C115.288 7.29625 116.316 7.57396 117.308 7.95887C117.511 8.05575 117.633 8.17846 117.673 8.32958C117.714 8.50377 117.71 8.68517 117.664 8.85787L116.83 11.0214C116.759 11.2242 116.665 11.3392 116.552 11.3663C116.439 11.3921 116.281 11.3702 116.077 11.2991C115.086 10.9633 114.217 10.7411 113.469 10.6275C112.721 10.5151 111.919 10.466 111.06 10.4815C110.125 10.497 109.447 10.705 109.024 11.1015C108.601 11.4993 108.394 11.9359 108.403 12.4138C108.41 12.7652 108.483 13.0661 108.628 13.3141C108.77 13.5634 108.996 13.792 109.302 14.0013C109.609 14.208 110.011 14.4224 110.507 14.6394C111.003 14.8577 111.608 15.0863 112.319 15.324C113.133 15.612 113.928 15.9181 114.705 16.2449C115.48 16.5704 116.17 16.9682 116.772 17.4332C117.374 17.9021 117.863 18.4588 118.24 19.106C118.618 19.7531 118.816 20.5423 118.832 21.4723C118.85 22.4772 118.674 23.3607 118.308 24.1202V24.1215ZM134.333 21.4723C134.35 22.4772 134.174 23.3607 133.809 24.1202C133.454 24.8668 132.924 25.5167 132.264 26.0151C131.558 26.5381 130.759 26.9229 129.909 27.1492C128.945 27.4122 127.951 27.5502 126.951 27.5599C125.613 27.5734 124.277 27.4706 122.956 27.2525C122.284 27.1423 121.621 26.9834 120.972 26.7772C120.363 26.587 119.774 26.3387 119.213 26.0357C118.831 25.842 118.738 25.541 118.933 25.1342L119.805 23.0081C119.927 22.7795 120.05 22.6335 120.177 22.5689C120.302 22.503 120.503 22.5302 120.784 22.6516C121.701 23.0636 122.717 23.3775 123.832 23.5971C124.948 23.8167 125.936 23.92 126.795 23.9045C127.854 23.8851 128.647 23.6642 129.172 23.2406C129.694 22.8156 129.949 22.2783 129.939 21.6234C129.926 20.8949 129.575 20.324 128.885 19.9068C128.195 19.4922 127.165 19.0452 125.791 18.566C124.863 18.2524 123.952 17.8902 123.062 17.481C122.286 17.1194 121.641 16.7086 121.127 16.2527C120.633 15.8222 120.231 15.2969 119.944 14.7078C119.669 14.1343 119.524 13.4704 119.511 12.7161C119.489 11.9322 119.631 11.1524 119.93 10.4272C120.223 9.72975 120.666 9.12654 121.255 8.61246C121.845 8.09966 122.583 7.69021 123.468 7.38537C124.351 7.08183 125.373 6.91908 126.535 6.89841C127.596 6.88033 128.659 6.95525 129.723 7.12575C130.788 7.29625 131.816 7.57396 132.808 7.95887C133.012 8.05575 133.133 8.17846 133.175 8.32958C133.215 8.50384 133.211 8.68532 133.164 8.85787L132.331 11.0214C132.259 11.2242 132.166 11.3392 132.052 11.3663C131.939 11.3921 131.781 11.3702 131.577 11.2991C130.586 10.9633 129.717 10.7411 128.97 10.6275C128.221 10.5151 127.419 10.466 126.56 10.4815C125.626 10.497 124.945 10.705 124.524 11.1015C124.102 11.4993 123.894 11.9359 123.903 12.4138C123.91 12.7652 123.983 13.0661 124.128 13.3141C124.27 13.5634 124.496 13.792 124.802 14.0013C125.109 14.208 125.511 14.4224 126.007 14.6394C126.504 14.8577 127.108 15.0863 127.821 15.324C128.624 15.6083 129.419 15.9154 130.205 16.2449C130.98 16.5704 131.67 16.9682 132.272 17.4332C132.874 17.9021 133.363 18.4588 133.742 19.106C134.119 19.7531 134.316 20.5423 134.332 21.4723" fill="#D32D27"/>
<path fill-rule="evenodd" clip-rule="evenodd" d="M33.5833 24.9972C33.5833 25.6017 33.3456 26.0164 32.869 26.2424C32.3188 26.4943 31.7246 26.7074 31.0865 26.8831C30.4471 27.06 29.7897 27.1969 29.1128 27.299C28.4373 27.3984 27.7669 27.4669 27.103 27.5056C26.4391 27.5444 25.8075 27.5625 25.2068 27.5625C23.5535 27.5625 22.183 27.392 21.0929 27.0536C20.004 26.7139 19.1399 26.2618 18.5005 25.696C17.8831 25.1627 17.4224 24.4715 17.1675 23.6965C16.9138 22.9109 16.7869 22.0899 16.7916 21.2643C16.7916 20.3847 16.935 19.5361 17.2243 18.7197C17.5134 17.8998 17.9965 17.162 18.6323 16.5691C19.2833 15.953 20.128 15.457 21.1678 15.0798C22.2063 14.7026 23.4786 14.5141 24.9808 14.5141H29.1878V13.8708C29.1878 13.3929 29.1374 12.9537 29.0379 12.552C28.9404 12.1549 28.7399 11.7904 28.4567 11.4954C28.1673 11.1932 27.7721 10.962 27.2722 10.7979C26.7711 10.6352 26.12 10.5525 25.3192 10.5525C24.4667 10.5525 23.5406 10.6287 22.5395 10.7786C21.5372 10.9297 20.7235 11.1054 20.0983 11.3081C19.8219 11.3818 19.6204 11.3947 19.4964 11.3443C19.3711 11.2952 19.2833 11.1557 19.2329 10.931L18.7072 8.78035C18.6064 8.37865 18.7201 8.11385 19.0456 7.98856C20.1604 7.57099 21.3206 7.28615 22.5021 7.13994C23.7537 6.97719 24.9291 6.89581 26.0322 6.89581C28.6375 6.89581 30.5466 7.47448 31.7621 8.63052C32.9762 9.78656 33.5833 11.4722 33.5833 13.6835V24.9985V24.9972ZM29.1503 17.8698H25.544C25.1177 17.8698 24.6618 17.8956 24.1735 17.946C23.6853 17.9964 23.2215 18.1346 22.7837 18.3594C22.3445 18.5867 21.9828 18.9148 21.6935 19.341C21.4055 19.7686 21.2621 20.3589 21.2621 21.1132C21.2621 22.1956 21.6238 22.9486 22.351 23.3762C23.0782 23.8037 24.0418 24.0169 25.2443 24.0169C25.4187 24.0169 25.6628 24.0117 25.9767 23.9988C26.3096 23.9846 26.6416 23.9531 26.9713 23.9045C27.3226 23.8541 27.692 23.7908 28.0795 23.7159C28.467 23.641 28.8248 23.5402 29.1516 23.4136V17.8698H29.1503Z" fill="black"/>
<path fill-rule="evenodd" clip-rule="evenodd" d="M183.417 6.89582C183.417 6.18282 183.99 5.60416 184.708 5.60416C185.421 5.60416 186 6.19186 186 6.89582V26.2708C186 26.9838 185.426 27.5625 184.708 27.5625C183.995 27.5625 183.417 26.9748 183.417 26.2708V6.89582Z" fill="#D32D27"/>
<path d="M144.667 21.1042C146.807 21.1042 148.542 19.3693 148.542 17.2292C148.542 15.0891 146.807 13.3542 144.667 13.3542C142.527 13.3542 140.792 15.0891 140.792 17.2292C140.792 19.3693 142.527 21.1042 144.667 21.1042Z" fill="#D32D27"/>
<path d="M158.875 21.1042C161.015 21.1042 162.75 19.3693 162.75 17.2292C162.75 15.0891 161.015 13.3542 158.875 13.3542C156.735 13.3542 155 15.0891 155 17.2292C155 19.3693 156.735 21.1042 158.875 21.1042Z" fill="#D32D27"/>
<path d="M173.083 21.1042C175.223 21.1042 176.958 19.3693 176.958 17.2292C176.958 15.0891 175.223 13.3542 173.083 13.3542C170.943 13.3542 169.208 15.0891 169.208 17.2292C169.208 19.3693 170.943 21.1042 173.083 21.1042Z" fill="#D32D27"/>
</g>
<defs>
<clipPath id="clip0">
<rect width="186" height="27.125" fill="white" transform="translate(0 0.4375)"/>
</clipPath>
</defs>
</svg>
