<svg width="48" height="48" viewBox="0 0 48 48" fill="none" xmlns="http://www.w3.org/2000/svg">
<g clip-path="url(#clip0)">
<path d="M46.264 16.104C45.2199 13.6719 43.102 11.0459 41.4435 10.2158C42.6262 12.433 43.4471 14.8141 43.877 17.2745L43.8813 17.3135C41.1645 10.759 36.5592 8.11203 32.7958 2.35587C32.6055 2.06476 32.4152 1.77305 32.2298 1.46514C32.1238 1.28927 32.0388 1.13081 31.965 0.984959C31.809 0.692381 31.6887 0.383176 31.6067 0.0636132C31.6068 0.048867 31.6013 0.0345976 31.5912 0.0235271C31.5812 0.0124566 31.5672 0.00535988 31.5521 0.00359068C31.5373 -0.0003424 31.5217 -0.0003424 31.5069 0.00359068C31.5038 0.00359068 31.4988 0.0089927 31.4951 0.0101932C31.4914 0.0113936 31.4833 0.0167956 31.4777 0.0191965L31.487 0.00359068C25.4514 3.42487 23.4023 9.75725 23.2163 12.9264C20.8051 13.0865 18.4997 13.9464 16.6009 15.394C16.4029 15.2316 16.1959 15.0797 15.9809 14.939C15.4335 13.0837 15.4102 11.1201 15.9134 9.25306C13.6968 10.2925 11.7273 11.7662 10.1294 13.5807H10.1183C9.16597 12.412 9.23293 8.5586 9.28748 7.7537C9.00576 7.86331 8.73683 8.00154 8.48521 8.16605C7.64452 8.74691 6.8586 9.3987 6.13667 10.1138C5.31399 10.9213 4.56262 11.794 3.89043 12.723V12.7266V12.7224C2.34573 14.8421 1.24999 17.2371 0.666456 19.769L0.634216 19.9227C0.588957 20.1273 0.425898 21.1525 0.397998 21.3752C0.397998 21.3926 0.394278 21.4088 0.392418 21.4262C0.182084 22.4846 0.051746 23.5565 0.00244141 24.6332V24.7533C0.0130609 30.5746 2.27757 36.1805 6.34893 40.4644C10.4203 44.7484 16.0027 47.399 21.994 47.893C27.9854 48.387 33.9504 46.6886 38.7114 43.1329C43.4725 39.5773 46.6837 34.4229 47.7111 28.6871C47.7514 28.387 47.7842 28.0899 47.8202 27.7868C48.3151 23.8265 47.7793 19.8092 46.2615 16.1004L46.264 16.104ZM18.5688 34.3149C18.681 34.3671 18.7864 34.4235 18.9017 34.4733L18.9185 34.4835C18.8019 34.4295 18.6854 34.3733 18.5688 34.3149ZM43.882 17.3201V17.2979L43.8863 17.3225L43.882 17.3201Z" fill="url(#paint0_linear)"/>
<path d="M46.2638 16.104C45.2197 13.6719 43.1018 11.0459 41.4433 10.2158C42.626 12.433 43.4469 14.8141 43.8768 17.2745V17.2967L43.8811 17.3213C45.7336 22.4526 45.4657 28.0786 43.1334 33.0232C40.3794 38.7439 33.7157 44.6075 23.2812 44.3194C12.0097 44.0103 2.07736 35.9103 0.22358 25.3043C-0.114317 23.6315 0.22358 22.7833 0.393459 21.4238C0.161736 22.4798 0.0324221 23.5545 0.00720215 24.6338V24.7539C0.0178216 30.5752 2.28233 36.1811 6.35369 40.465C10.4251 44.749 16.0074 47.3996 21.9988 47.8936C27.9901 48.3876 33.9551 46.6892 38.7162 43.1335C43.4772 39.5779 46.6884 34.4235 47.7158 28.6877C47.7561 28.3876 47.789 28.0905 47.8249 27.7874C48.3199 23.8271 47.7841 19.8098 46.2663 16.101L46.2638 16.104Z" fill="url(#paint1_radial)"/>
<path d="M46.2638 16.104C45.2197 13.6719 43.1018 11.0459 41.4433 10.2158C42.626 12.433 43.4469 14.8141 43.8768 17.2745V17.2967L43.8811 17.3213C45.7336 22.4526 45.4657 28.0786 43.1334 33.0232C40.3794 38.7439 33.7157 44.6075 23.2812 44.3194C12.0097 44.0103 2.07736 35.9103 0.22358 25.3043C-0.114317 23.6315 0.22358 22.7833 0.393459 21.4238C0.161736 22.4798 0.0324221 23.5545 0.00720215 24.6338V24.7539C0.0178216 30.5752 2.28233 36.1811 6.35369 40.465C10.4251 44.749 16.0074 47.3996 21.9988 47.8936C27.9901 48.3876 33.9551 46.6892 38.7162 43.1335C43.4772 39.5779 46.6884 34.4235 47.7158 28.6877C47.7561 28.3876 47.789 28.0905 47.8249 27.7874C48.3199 23.8271 47.7841 19.8098 46.2663 16.101L46.2638 16.104Z" fill="url(#paint2_radial)"/>
<path d="M34.5834 18.8351C34.6354 18.8705 34.6838 18.9059 34.7328 18.9413C34.1292 17.9051 33.3778 16.9565 32.5008 16.1232C25.0299 8.89053 30.5435 0.445367 31.4729 0.013205L31.4822 0C25.4465 3.42128 23.3974 9.75366 23.2114 12.9228C23.4917 12.9042 23.7694 12.8814 24.0559 12.8814C26.1972 12.8854 28.2993 13.4383 30.1484 14.4838C31.9975 15.5293 33.5277 17.0302 34.5834 18.8339V18.8351Z" fill="url(#paint3_radial)"/>
<path d="M24.0683 20.2816C24.0286 20.8602 21.9169 22.856 21.1785 22.856C14.3461 22.856 13.2363 26.8577 13.2363 26.8577C13.5389 30.2273 15.9643 33.004 18.8963 34.4685C19.0302 34.5357 19.166 34.5964 19.3017 34.6558C19.5369 34.7566 19.7721 34.8499 20.0073 34.9355C21.0135 35.2802 22.0674 35.4771 23.1339 35.5195C35.1122 36.0633 37.431 21.6543 28.7877 17.4707C30.8265 17.2139 32.8913 17.6993 34.5815 18.8327C33.5258 17.029 31.9957 15.5281 30.1466 14.4826C28.2975 13.4371 26.1954 12.8842 24.054 12.8802C23.7688 12.8802 23.4898 12.903 23.2096 12.9216C20.7984 13.0817 18.493 13.9416 16.5942 15.3892C16.9606 15.6893 17.3742 16.0902 18.2453 16.9215C19.8759 18.4767 24.0577 20.0877 24.067 20.2768L24.0683 20.2816Z" fill="url(#paint4_radial)"/>
<path d="M24.0683 20.2816C24.0286 20.8602 21.9169 22.856 21.1785 22.856C14.3461 22.856 13.2363 26.8577 13.2363 26.8577C13.5389 30.2273 15.9643 33.004 18.8963 34.4685C19.0302 34.5357 19.166 34.5964 19.3017 34.6558C19.5369 34.7566 19.7721 34.8499 20.0073 34.9355C21.0135 35.2802 22.0674 35.4771 23.1339 35.5195C35.1122 36.0633 37.431 21.6543 28.7877 17.4707C30.8265 17.2139 32.8913 17.6993 34.5815 18.8327C33.5258 17.029 31.9957 15.5281 30.1466 14.4826C28.2975 13.4371 26.1954 12.8842 24.054 12.8802C23.7688 12.8802 23.4898 12.903 23.2096 12.9216C20.7984 13.0817 18.493 13.9416 16.5942 15.3892C16.9606 15.6893 17.3742 16.0902 18.2453 16.9215C19.8759 18.4767 24.0577 20.0877 24.067 20.2768L24.0683 20.2816Z" fill="url(#paint5_radial)"/>
<path d="M15.475 14.6215C15.6697 14.7415 15.8303 14.846 15.971 14.9402C15.4236 13.0849 15.4002 11.1213 15.9034 9.25427C13.6869 10.2937 11.7173 11.7674 10.1195 13.5819C10.2367 13.5789 13.7223 13.5183 15.475 14.6215Z" fill="url(#paint6_radial)"/>
<path d="M0.219543 25.3055C2.07395 35.9115 12.0056 44.0145 23.2771 44.3206C33.7117 44.6063 40.3766 38.7421 43.1294 33.0244C45.4616 28.0798 45.7295 22.4538 43.8771 17.3225V17.3003C43.8771 17.2829 43.8734 17.2727 43.8771 17.2781L43.8814 17.3171C44.7339 22.7053 41.903 27.9231 37.4769 31.4584L37.4633 31.4884C28.8391 38.2889 20.587 35.5903 18.9192 34.4895C18.8026 34.4355 18.6861 34.3793 18.5695 34.3209C13.542 31.9944 11.4644 27.5623 11.9108 23.7569C10.7174 23.7739 9.54444 23.4556 8.53413 22.8403C7.52383 22.2251 6.7195 21.3394 6.21861 20.2906C7.53846 19.5079 9.04335 19.0654 10.5899 19.0053C12.1365 18.9452 13.6731 19.2695 15.0535 19.9473C17.8989 21.1976 21.1365 21.3208 24.0745 20.2906C24.0652 20.1015 19.8833 18.4899 18.2527 16.9353C17.3816 16.104 16.9681 15.7037 16.6017 15.403C16.4036 15.2406 16.1967 15.0887 15.9817 14.948C15.8391 14.8538 15.6785 14.7517 15.4857 14.6293C13.7329 13.5261 10.2473 13.5867 10.132 13.5897H10.1209C9.16855 12.421 9.23551 8.5676 9.29007 7.7627C9.00834 7.87231 8.73941 8.01053 8.48779 8.17505C7.6471 8.75591 6.86118 9.4077 6.13925 10.1228C5.31363 10.928 4.55914 11.7988 3.88371 12.726V12.7296V12.7254C2.33902 14.8451 1.24328 17.2401 0.659739 19.772C0.647959 19.8194 -0.205774 23.4328 0.215203 25.3067L0.219543 25.3055Z" fill="url(#paint7_radial)"/>
<path d="M32.5001 16.1221C33.3773 16.9562 34.1287 17.9059 34.7321 18.9431C34.8641 19.0397 34.9875 19.1358 35.0923 19.2288C40.5402 24.0906 37.6857 30.9632 37.4731 31.4494C41.8986 27.9195 44.727 22.6981 43.8776 17.3081C41.1595 10.7476 36.5493 8.10065 32.7921 2.34449C32.6017 2.05338 32.4114 1.76167 32.226 1.45376C32.12 1.27789 32.0351 1.11943 31.9613 0.973576C31.8052 0.680998 31.685 0.371793 31.6029 0.0522301C31.603 0.0374839 31.5975 0.0232145 31.5875 0.012144C31.5774 0.00107357 31.5635 -0.00602317 31.5484 -0.00779238C31.5336 -0.0117255 31.5179 -0.0117255 31.5031 -0.00779238C31.5 -0.00779238 31.4951 -0.00239036 31.4913 -0.00118991C31.4876 1.05444e-05 31.4796 0.00541257 31.474 0.00781347C30.5446 0.434573 25.0322 8.88514 32.5032 16.1119L32.5001 16.1221Z" fill="url(#paint8_radial)"/>
<path d="M35.0917 19.2312C34.987 19.1382 34.8636 19.0421 34.7315 18.9455C34.6825 18.9101 34.6342 18.8747 34.5821 18.8393C32.8919 17.7059 30.8271 17.2205 28.7882 17.4773C37.431 21.6609 35.1122 36.0663 23.1345 35.5261C22.068 35.4837 21.0141 35.2868 20.0079 34.9421C19.7727 34.8569 19.5375 34.7636 19.3023 34.6624C19.1665 34.6024 19.0308 34.5423 18.8969 34.4751L18.9136 34.4853C20.5839 35.5891 28.8335 38.2859 37.4576 31.4842L37.4713 31.4542C37.6864 30.968 40.5409 24.0954 35.0905 19.2336L35.0917 19.2312Z" fill="url(#paint9_radial)"/>
<path d="M13.2369 26.8541C13.2369 26.8541 14.3461 22.8524 21.1791 22.8524C21.9175 22.8524 24.031 20.8566 24.0689 20.278C21.1309 21.3082 17.8933 21.185 15.0479 19.9347C13.6675 19.2569 12.1309 18.9326 10.5843 18.9927C9.03775 19.0528 7.53286 19.4953 6.21301 20.278C6.7139 21.3268 7.51823 22.2125 8.52853 22.8277C9.53884 23.443 10.7118 23.7614 11.9052 23.7443C11.46 27.5479 13.537 31.9794 18.5639 34.3083C18.6761 34.3605 18.7815 34.4169 18.8969 34.4667C15.9624 32.9992 13.5395 30.2237 13.2369 26.8559V26.8541Z" fill="url(#paint10_radial)"/>
<path d="M46.264 16.104C45.2199 13.6719 43.102 11.0459 41.4435 10.2158C42.6262 12.433 43.447 14.8141 43.877 17.2745L43.8813 17.3135C41.1645 10.759 36.5592 8.11203 32.7958 2.35587C32.6055 2.06476 32.4151 1.77305 32.2298 1.46514C32.1237 1.28927 32.0388 1.13081 31.965 0.984959C31.809 0.692381 31.6887 0.383176 31.6067 0.0636132C31.6068 0.048867 31.6013 0.0345976 31.5912 0.0235271C31.5811 0.0124566 31.5672 0.00535988 31.5521 0.00359068C31.5373 -0.0003424 31.5217 -0.0003424 31.5068 0.00359068C31.5037 0.00359068 31.4988 0.0089927 31.4951 0.0101932C31.4913 0.0113936 31.4833 0.0167956 31.4777 0.0191965L31.487 0.00359068C25.4513 3.42487 23.4023 9.75725 23.2163 12.9264C23.4965 12.9078 23.7743 12.885 24.0607 12.885C26.2021 12.889 28.3042 13.4419 30.1533 14.4874C32.0024 15.5329 33.5325 17.0338 34.5882 18.8375C32.898 17.7041 30.8332 17.2187 28.7944 17.4755C37.4371 21.6591 35.1183 36.0645 23.1406 35.5243C22.0741 35.4819 21.0202 35.285 20.014 34.9403C19.7788 34.8551 19.5436 34.7618 19.3084 34.6606C19.1727 34.6006 19.0369 34.5405 18.903 34.4733L18.9197 34.4835C18.8031 34.4295 18.6866 34.3733 18.57 34.3149C18.6822 34.3671 18.7876 34.4235 18.903 34.4733C15.9685 33.0052 13.5456 30.2297 13.243 26.8625C13.243 26.8625 14.3522 22.8608 21.1852 22.8608C21.9236 22.8608 24.0371 20.865 24.075 20.2864C24.0657 20.0973 19.8838 18.4857 18.2532 16.9311C17.3821 16.0998 16.9686 15.6995 16.6022 15.3988C16.4041 15.2364 16.1972 15.0845 15.9822 14.9438C15.4347 13.0885 15.4114 11.1249 15.9146 9.25786C13.698 10.2973 11.7285 11.771 10.1307 13.5855H10.1195C9.16719 12.4168 9.23415 8.5634 9.2887 7.7585C9.00698 7.86811 8.73805 8.00634 8.48643 8.17085C7.64574 8.75171 6.85982 9.4035 6.13789 10.1186C5.31521 10.9261 4.56384 11.7988 3.89165 12.7278V12.7314V12.7272C2.34695 14.8469 1.25121 17.2419 0.667677 19.7738L0.635437 19.9275C0.590177 20.1321 0.387439 21.1717 0.358299 21.395C0.172859 22.4681 0.0544319 23.5511 0.00366211 24.638V24.7581C0.0142816 30.5794 2.27879 36.1853 6.35015 40.4692C10.4215 44.7532 16.0039 47.4038 21.9952 47.8978C27.9866 48.3918 33.9516 46.6934 38.7126 43.1377C43.4737 39.5821 46.6849 34.4277 47.7123 28.6919C47.7526 28.3918 47.7854 28.0947 47.8214 27.7916C48.3163 23.8313 47.7805 19.814 46.2627 16.1052L46.264 16.104ZM43.8801 17.2991L43.8844 17.3237L43.8801 17.2991Z" fill="url(#paint11_linear)"/>
</g>
<defs>
<linearGradient id="paint0_linear" x1="43.0834" y1="7.43433" x2="4.43859" y2="45.9481" gradientUnits="userSpaceOnUse">
<stop offset="0.048" stop-color="#FFF44F"/>
<stop offset="0.111" stop-color="#FFE847"/>
<stop offset="0.225" stop-color="#FFC830"/>
<stop offset="0.368" stop-color="#FF980E"/>
<stop offset="0.401" stop-color="#FF8B16"/>
<stop offset="0.462" stop-color="#FF672A"/>
<stop offset="0.534" stop-color="#FF3647"/>
<stop offset="0.705" stop-color="#E31587"/>
</linearGradient>
<radialGradient id="paint1_radial" cx="0" cy="0" r="1" gradientUnits="userSpaceOnUse" gradientTransform="translate(41.5394 5.40201) scale(50.0956 48.4982)">
<stop offset="0.129" stop-color="#FFBD4F"/>
<stop offset="0.186" stop-color="#FFAC31"/>
<stop offset="0.247" stop-color="#FF9D17"/>
<stop offset="0.283" stop-color="#FF980E"/>
<stop offset="0.403" stop-color="#FF563B"/>
<stop offset="0.467" stop-color="#FF3750"/>
<stop offset="0.71" stop-color="#F5156C"/>
<stop offset="0.782" stop-color="#EB0878"/>
<stop offset="0.86" stop-color="#E50080"/>
</radialGradient>
<radialGradient id="paint2_radial" cx="0" cy="0" r="1" gradientUnits="userSpaceOnUse" gradientTransform="translate(22.9396 25.2094) scale(50.0956 48.4982)">
<stop offset="0.3" stop-color="#960E18"/>
<stop offset="0.351" stop-color="#B11927" stop-opacity="0.74"/>
<stop offset="0.435" stop-color="#DB293D" stop-opacity="0.343"/>
<stop offset="0.497" stop-color="#F5334B" stop-opacity="0.094"/>
<stop offset="0.53" stop-color="#FF3750" stop-opacity="0"/>
</radialGradient>
<radialGradient id="paint3_radial" cx="0" cy="0" r="1" gradientUnits="userSpaceOnUse" gradientTransform="translate(29.1398 -5.40203) scale(36.2883 35.1312)">
<stop offset="0.132" stop-color="#FFF44F"/>
<stop offset="0.252" stop-color="#FFDC3E"/>
<stop offset="0.506" stop-color="#FF9D12"/>
<stop offset="0.526" stop-color="#FF980E"/>
</radialGradient>
<radialGradient id="paint4_radial" cx="0" cy="0" r="1" gradientUnits="userSpaceOnUse" gradientTransform="translate(17.3599 37.8142) scale(23.8512 23.0907)">
<stop offset="0.353" stop-color="#3A8EE6"/>
<stop offset="0.472" stop-color="#5C79F0"/>
<stop offset="0.669" stop-color="#9059FF"/>
<stop offset="1" stop-color="#C139E6"/>
</radialGradient>
<radialGradient id="paint5_radial" cx="0" cy="0" r="1" gradientUnits="userSpaceOnUse" gradientTransform="translate(25.3628 21.0463) rotate(-13.1735) scale(12.626 14.3603)">
<stop offset="0.206" stop-color="#9059FF" stop-opacity="0"/>
<stop offset="0.278" stop-color="#8C4FF3" stop-opacity="0.064"/>
<stop offset="0.747" stop-color="#7716A8" stop-opacity="0.45"/>
<stop offset="0.975" stop-color="#6E008B" stop-opacity="0.6"/>
</radialGradient>
<radialGradient id="paint6_radial" cx="0" cy="0" r="1" gradientUnits="userSpaceOnUse" gradientTransform="translate(22.3198 3.60135) scale(17.1615 16.6142)">
<stop stop-color="#FFE226"/>
<stop offset="0.121" stop-color="#FFDB27"/>
<stop offset="0.295" stop-color="#FFC82A"/>
<stop offset="0.502" stop-color="#FFA930"/>
<stop offset="0.732" stop-color="#FF7E37"/>
<stop offset="0.792" stop-color="#FF7139"/>
</radialGradient>
<radialGradient id="paint7_radial" cx="0" cy="0" r="1" gradientUnits="userSpaceOnUse" gradientTransform="translate(35.9598 -7.20272) scale(73.2214 70.8866)">
<stop offset="0.113" stop-color="#FFF44F"/>
<stop offset="0.456" stop-color="#FF980E"/>
<stop offset="0.622" stop-color="#FF5634"/>
<stop offset="0.716" stop-color="#FF3647"/>
<stop offset="0.904" stop-color="#E31587"/>
</radialGradient>
<radialGradient id="paint8_radial" cx="0" cy="0" r="1" gradientUnits="userSpaceOnUse" gradientTransform="translate(29.8738 -3.27242) rotate(83.7791) scale(51.9659 35.2021)">
<stop stop-color="#FFF44F"/>
<stop offset="0.06" stop-color="#FFE847"/>
<stop offset="0.168" stop-color="#FFC830"/>
<stop offset="0.304" stop-color="#FF980E"/>
<stop offset="0.356" stop-color="#FF8B16"/>
<stop offset="0.455" stop-color="#FF672A"/>
<stop offset="0.57" stop-color="#FF3647"/>
<stop offset="0.737" stop-color="#E31587"/>
</radialGradient>
<radialGradient id="paint9_radial" cx="0" cy="0" r="1" gradientUnits="userSpaceOnUse" gradientTransform="translate(22.3198 9.60359) scale(45.706 44.2486)">
<stop offset="0.137" stop-color="#FFF44F"/>
<stop offset="0.48" stop-color="#FF980E"/>
<stop offset="0.592" stop-color="#FF5634"/>
<stop offset="0.655" stop-color="#FF3647"/>
<stop offset="0.904" stop-color="#E31587"/>
</radialGradient>
<radialGradient id="paint10_radial" cx="0" cy="0" r="1" gradientUnits="userSpaceOnUse" gradientTransform="translate(34.0998 12.0045) scale(50.0274 48.4322)">
<stop offset="0.094" stop-color="#FFF44F"/>
<stop offset="0.231" stop-color="#FFE141"/>
<stop offset="0.509" stop-color="#FFAF1E"/>
<stop offset="0.626" stop-color="#FF980E"/>
</radialGradient>
<linearGradient id="paint11_linear" x1="42.5998" y1="7.23625" x2="9.7609" y2="41.163" gradientUnits="userSpaceOnUse">
<stop offset="0.167" stop-color="#FFF44F" stop-opacity="0.8"/>
<stop offset="0.266" stop-color="#FFF44F" stop-opacity="0.634"/>
<stop offset="0.489" stop-color="#FFF44F" stop-opacity="0.217"/>
<stop offset="0.6" stop-color="#FFF44F" stop-opacity="0"/>
</linearGradient>
<clipPath id="clip0">
<rect width="48" height="48" fill="white"/>
</clipPath>
</defs>
</svg>
