<svg width="48" height="48" viewBox="0 0 48 48" fill="none" xmlns="http://www.w3.org/2000/svg">
<path d="M0 8C0 3.58172 3.58172 0 8 0H40C44.4183 0 48 3.58172 48 8V40C48 44.4183 44.4183 48 40 48H8C3.58172 48 0 44.4183 0 40V8Z" fill="white"/>
<path d="M47.9859 0H0.0140625C0.006296 0 0 0.006296 0 0.0140625V47.9859C0 47.9937 0.006296 48 0.0140625 48H47.9859C47.9937 48 48 47.9937 48 47.9859V0.0140625C48 0.006296 47.9937 0 47.9859 0Z" fill="#D32D27"/>
<path d="M10.125 28.125C12.4032 28.125 14.25 26.2782 14.25 24C14.25 21.7218 12.4032 19.875 10.125 19.875C7.84683 19.875 6 21.7218 6 24C6 26.2782 7.84683 28.125 10.125 28.125Z" fill="white"/>
<path d="M21.2812 28.125C23.5594 28.125 25.4062 26.2782 25.4062 24C25.4062 21.7218 23.5594 19.875 21.2812 19.875C19.0031 19.875 17.1562 21.7218 17.1562 24C17.1562 26.2782 19.0031 28.125 21.2812 28.125Z" fill="white"/>
<path d="M32.5312 28.125C34.8094 28.125 36.6562 26.2782 36.6562 24C36.6562 21.7218 34.8094 19.875 32.5312 19.875C30.2531 19.875 28.4062 21.7218 28.4062 24C28.4062 26.2782 30.2531 28.125 32.5312 28.125Z" fill="white"/>
<path d="M41.9981 15H40.1269C40.1258 15 40.125 15.0008 40.125 15.0019V32.9981C40.125 32.9992 40.1258 33 40.1269 33H41.9981C41.9992 33 42 32.9992 42 32.9981V15.0019C42 15.0008 41.9992 15 41.9981 15Z" fill="white"/>
</svg>
