<svg width="48" height="49" viewBox="0 0 48 49" fill="none" xmlns="http://www.w3.org/2000/svg">
<g clip-path="url(#clip0)">
<path d="M24.0067 48.5196C37.2616 48.5196 48.0067 37.7745 48.0067 24.5196C48.0067 11.2648 37.2616 0.519653 24.0067 0.519653C10.7519 0.519653 0.00671387 11.2648 0.00671387 24.5196C0.00671387 37.7745 10.7519 48.5196 24.0067 48.5196Z" fill="url(#paint0_linear)"/>
<path d="M23.9841 12.5H33.759C34.4255 12.4949 35.0846 12.6416 35.686 12.9289C36.2696 13.205 36.789 13.6002 37.2104 14.0891H37.2352C37.5591 14.4669 37.8226 14.8925 38.0162 15.3505C38.2196 15.83 38.3307 16.3433 38.3438 16.8641V16.8889C38.3448 17.8583 38.2262 18.8239 37.9913 19.7642L38.0162 19.6883C37.7977 20.9159 37.5793 22.1516 37.3613 23.3956L36.7065 27.1283C36.5218 28.2055 36.3371 29.2775 36.1524 30.3444C35.9677 31.4108 35.7746 32.4748 35.573 33.5361C35.3026 34.7375 34.6801 35.8311 33.7848 36.6767C32.9105 37.5261 31.7907 38.0778 30.5841 38.2522L30.5335 38.277C30.399 38.2939 30.256 38.3066 30.1055 38.315C29.9546 38.3234 29.8037 38.3277 29.6523 38.3272H18.339C17.6138 38.3333 16.8948 38.1959 16.2226 37.9231C15.5668 37.6803 14.9574 37.3264 14.4216 36.8773C13.8887 36.4269 13.4405 35.8845 13.0988 35.2756C12.7454 34.6663 12.4988 34.0006 12.3699 33.3083V33.2581C11.6143 28.9869 10.8498 24.7241 10.0777 20.4697C10.0107 20.0492 9.93523 19.6245 9.85132 19.1956C9.76741 18.7672 9.69991 18.3425 9.64929 17.9216C9.63288 17.8039 9.61554 17.6778 9.59913 17.5438C9.58179 17.4017 9.57335 17.2583 9.57429 17.1149C9.57382 14.9244 11.1268 13.0419 13.2774 12.6252L13.3023 12.6003C13.4813 12.5652 13.6623 12.5399 13.8441 12.5244C14.0373 12.508 14.2346 12.4995 14.4362 12.4995H23.9846L23.9841 12.5ZM21.4379 30.1555V32.7786C21.4327 33.1517 21.578 33.5108 21.8419 33.7747C22.1044 34.0489 22.4701 34.1998 22.8498 34.19H25.1171C25.8948 34.1848 26.5233 33.5548 26.528 32.7772V27.583C26.5262 27.4906 26.5477 27.3992 26.5913 27.3181C26.633 27.2427 26.7005 27.1845 26.7816 27.1541C29.0715 25.7675 29.9949 22.9086 28.9482 20.4449C28.6735 19.805 28.2807 19.2233 27.7899 18.7297C26.7788 17.7252 25.411 17.1631 23.986 17.1664C23.7498 17.1664 23.5144 17.1833 23.2805 17.2166C23.0452 17.2503 22.8104 17.2925 22.5751 17.3431H22.6252C20.9968 17.6877 19.6407 18.8094 18.9976 20.3445L18.9727 20.3694C18.8523 20.683 18.7637 21.0073 18.7083 21.3388C18.6493 21.6842 18.6202 22.0339 18.6202 22.3845C18.6104 23.3567 18.8583 24.3139 19.3383 25.1591C19.7921 25.9733 20.4362 26.6656 21.2152 27.177L21.2401 27.2019C21.301 27.23 21.353 27.2736 21.391 27.3284C21.4252 27.3809 21.4426 27.4423 21.4412 27.5052V30.1531L21.4379 30.1555Z" fill="white"/>
</g>
<defs>
<linearGradient id="paint0_linear" x1="24.0066" y1="0.519461" x2="24.0066" y2="48.5195" gradientUnits="userSpaceOnUse">
<stop stop-color="#365DC9"/>
<stop offset="1" stop-color="#222C94"/>
</linearGradient>
<clipPath id="clip0">
<rect width="48" height="48" fill="white" transform="translate(0 0.5)"/>
</clipPath>
</defs>
</svg>
