<svg width="48" height="48" viewBox="0 0 48 48" fill="none" xmlns="http://www.w3.org/2000/svg">
<path d="M23.8697 0.00336456C10.6869 0.00336456 0 10.6903 0 23.8731C0 36.6744 10.0781 47.1222 22.7329 47.715C23.1106 47.7328 23.4888 47.7429 23.8701 47.7429C29.9814 47.7429 35.5548 45.445 39.7779 41.6684C36.9799 43.524 33.7086 44.5917 30.2126 44.5917C24.5282 44.5917 19.4373 41.7717 16.0134 37.3247C13.374 34.2091 11.6645 29.6036 11.548 24.435V23.3109C11.6644 18.1424 13.3739 13.5359 16.0127 10.4211C19.4372 5.97412 24.5279 3.15414 30.212 3.15414C33.7088 3.15414 36.9806 4.22182 39.7789 6.07862C35.5765 2.3193 30.0368 0.0260544 23.9595 0.00348663C23.9292 0.00348663 23.8995 0.00230408 23.8692 0.00230408L23.8697 0.00336456Z" fill="url(#paint0_linear)"/>
<path d="M16.0131 10.4225C18.2036 7.83652 21.0325 6.27715 24.1232 6.27715C31.0724 6.27715 36.7048 14.1557 36.7048 23.8742C36.7048 33.5927 31.072 41.4712 24.1232 41.4712C21.0325 41.4712 18.2036 39.9125 16.0137 37.3265C19.4375 41.7734 24.528 44.5934 30.2129 44.5934C33.7091 44.5934 36.9804 43.5257 39.7781 41.6701C44.6639 37.2992 47.7404 30.9462 47.7404 23.8744C47.7404 16.8034 44.6645 10.4507 39.7799 6.08027C36.9813 4.22347 33.7095 3.15579 30.213 3.15579C24.5286 3.15579 19.4376 5.97577 16.0137 10.4227" fill="url(#paint1_linear)"/>
<defs>
<linearGradient id="paint0_linear" x1="19.89" y1="0.781453" x2="19.89" y2="47.0489" gradientUnits="userSpaceOnUse">
<stop stop-color="#FF1B2D"/>
<stop offset="0.3" stop-color="#FF1B2D"/>
<stop offset="0.614" stop-color="#FF1B2D"/>
<stop offset="1" stop-color="#A70014"/>
</linearGradient>
<linearGradient id="paint1_linear" x1="31.8762" y1="3.50896" x2="31.8762" y2="44.43" gradientUnits="userSpaceOnUse">
<stop stop-color="#9C0000"/>
<stop offset="0.7" stop-color="#FF4B4B"/>
<stop offset="1" stop-color="#FF4B4B"/>
</linearGradient>
</defs>
</svg>
