<svg width="48" height="48" viewBox="0 0 48 48" fill="none" xmlns="http://www.w3.org/2000/svg">
<path fill-rule="evenodd" clip-rule="evenodd" d="M24 5.41936C34.2619 5.41936 42.5806 13.7381 42.5806 24C42.5806 34.2619 34.2619 42.5807 24 42.5807C13.738 42.5807 5.41931 34.2619 5.41931 24C5.41931 13.7381 13.738 5.41936 24 5.41936Z" fill="#198CFF"/>
<path fill-rule="evenodd" clip-rule="evenodd" d="M0.77417 24C0.77417 11.1724 11.1724 0.7742 24 0.7742C36.8276 0.7742 47.2258 11.1724 47.2258 24C47.2258 36.8284 36.8276 47.2258 24 47.2258C11.1724 47.2258 0.77417 36.8284 0.77417 24ZM5.41933 24C5.41933 34.2619 13.738 42.5807 24 42.5807C34.2619 42.5807 42.5806 34.2619 42.5806 24C42.5806 13.7381 34.2619 5.41936 24 5.41936C13.738 5.41936 5.41933 13.7381 5.41933 24Z" fill="white"/>
<path opacity="0.5" d="M0 24C0 37.255 10.7458 48 24 48C37.2542 48 48 37.255 48 24C48 10.7458 37.2542 0 24 0C10.7458 0 0 10.7458 0 24ZM0.774194 24C0.774194 11.1739 11.1716 0.774194 24 0.774194C36.8284 0.774194 47.2258 11.1739 47.2258 24C47.2258 36.8261 36.8284 47.2258 24 47.2258C11.1716 47.2258 0.774194 36.8261 0.774194 24ZM6.19355 23.9985C6.19355 33.8323 14.1662 41.8034 24 41.8034C33.8338 41.8034 41.8064 33.8323 41.8064 23.9985C41.8064 14.1654 33.8338 6.19355 24 6.19355C14.1662 6.19355 6.19355 14.1654 6.19355 23.9985ZM5.41935 24C5.41935 13.7396 13.7373 5.41935 24 5.41935C34.2627 5.41935 42.5806 13.7396 42.5806 24C42.5806 34.2604 34.2635 42.5806 24 42.5806C13.7365 42.5806 5.41935 34.2604 5.41935 24Z" fill="black"/>
<path fill-rule="evenodd" clip-rule="evenodd" d="M31.9897 43.4152C39.0573 40.4028 44.0113 33.4072 44.0113 25.2557C44.0113 14.3536 35.1499 5.51536 24.2191 5.51536C13.2883 5.51536 4.4276 14.3536 4.4276 25.2557C4.4276 36.1254 13.2364 44.9412 24.1231 44.993C24.089 44.9938 24.0565 44.9961 24.0232 44.9961C12.5512 44.9961 3.25161 35.7205 3.25161 24.2787C3.25161 12.8369 12.5512 3.56129 24.0232 3.56129C35.4952 3.56129 44.7948 12.8369 44.7948 24.2787C44.7948 32.9056 39.5071 40.2976 31.9897 43.4152ZM23.6222 45.2284C36.4374 45.2284 46.8255 34.8674 46.8255 22.087C46.8255 20.8947 46.735 19.7241 46.5608 18.5806C46.992 20.3443 47.2258 22.1853 47.2258 24.0813C47.2258 36.8632 36.8369 47.2227 24.0225 47.2227C12.4018 47.2227 2.7778 38.7043 1.08386 27.5876C3.55973 37.7117 12.7084 45.2284 23.6222 45.2284Z" fill="black" fill-opacity="0.1"/>
<path fill-rule="evenodd" clip-rule="evenodd" d="M24.0001 10.0645C31.6963 10.0645 37.9355 16.3037 37.9355 24C37.9355 31.6963 31.6963 37.9355 24.0001 37.9355C16.3038 37.9355 10.0646 31.6963 10.0646 24C10.0646 16.3037 16.3038 10.0645 24.0001 10.0645Z" fill="#F2F2F2"/>
<path d="M24 10.0645C16.3037 10.0645 10.0645 16.3037 10.0645 24C10.0645 31.6963 16.3037 37.9355 24 37.9355C31.6962 37.9355 37.9354 31.6963 37.9354 24C37.9354 16.3037 31.6962 10.0645 24 10.0645ZM24 9.29033C32.1236 9.29033 38.7096 15.8764 38.7096 24C38.7096 32.1244 32.1236 38.7097 24 38.7097C15.8763 38.7097 9.29028 32.1244 9.29028 24C9.29028 15.8764 15.8763 9.29033 24 9.29033Z" fill="black" fill-opacity="0.25"/>
<path fill-rule="evenodd" clip-rule="evenodd" d="M30.1935 24C30.1935 25.6426 29.541 27.218 28.3795 28.3795C27.2179 29.541 25.6426 30.1936 23.9999 30.1936C22.3573 30.1936 20.782 29.541 19.6204 28.3795C18.4589 27.218 17.8064 25.6426 17.8064 24C17.8064 22.3574 18.4589 20.782 19.6204 19.6205C20.782 18.459 22.3573 17.8065 23.9999 17.8065C25.6426 17.8065 27.2179 18.459 28.3795 19.6205C29.541 20.782 30.1935 22.3574 30.1935 24Z" fill="black" fill-opacity="0.05"/>
<path d="M29.4193 24C29.4193 22.5627 28.8483 21.1843 27.832 20.1679C26.8157 19.1516 25.4372 18.5807 23.9999 18.5807C22.5626 18.5807 21.1842 19.1516 20.1679 20.1679C19.1516 21.1843 18.5806 22.5627 18.5806 24C18.5806 25.4373 19.1516 26.8157 20.1679 27.8321C21.1842 28.8484 22.5626 29.4194 23.9999 29.4194C25.4372 29.4194 26.8157 28.8484 27.832 27.8321C28.8483 26.8157 29.4193 25.4373 29.4193 24ZM30.1935 24C30.1935 25.6426 29.541 27.218 28.3795 28.3795C27.2179 29.541 25.6426 30.1936 23.9999 30.1936C22.3573 30.1936 20.782 29.541 19.6204 28.3795C18.4589 27.218 17.8064 25.6426 17.8064 24C17.8064 22.3574 18.4589 20.782 19.6204 19.6205C20.782 18.459 22.3573 17.8065 23.9999 17.8065C25.6426 17.8065 27.2179 18.459 28.3795 19.6205C29.541 20.782 30.1935 22.3574 30.1935 24Z" fill="black" fill-opacity="0.15"/>
<path d="M30.1935 24C30.1935 22.3574 29.541 20.782 28.3795 19.6205C27.218 18.459 25.6426 17.8065 24 17.8065C22.3573 17.8065 20.782 18.459 19.6205 19.6205C18.4589 20.782 17.8064 22.3574 17.8064 24C17.8064 25.6426 18.4589 27.218 19.6205 28.3795C20.782 29.541 22.3573 30.1935 24 30.1935C25.6426 30.1935 27.218 29.541 28.3795 28.3795C29.541 27.218 30.1935 25.6426 30.1935 24ZM30.9677 24C30.9677 25.848 30.2336 27.6202 28.9269 28.9269C27.6202 30.2336 25.8479 30.9677 24 30.9677C22.152 30.9677 20.3797 30.2336 19.073 28.9269C17.7663 27.6202 17.0322 25.848 17.0322 24C17.0322 22.152 17.7663 20.3798 19.073 19.0731C20.3797 17.7664 22.152 17.0323 24 17.0323C25.8479 17.0323 27.6202 17.7664 28.9269 19.0731C30.2336 20.3798 30.9677 22.152 30.9677 24Z" fill="white"/>
<path fill-rule="evenodd" clip-rule="evenodd" d="M20.9032 21.1804V14.7097H27.0967V25.4942L25.5484 26.9311L27.0967 28.368V34.8387H20.9032V24.055L22.4516 22.6173L20.9032 21.1804Z" fill="white"/>
<path fill-rule="evenodd" clip-rule="evenodd" d="M20.9032 20.4062V13.9355H27.0967V24.72L25.5484 26.1569L27.0967 27.5938V34.0645H20.9032V23.2808L22.4516 21.8431L20.9032 20.4062Z" fill="#4D4D4D"/>
<path fill-rule="evenodd" clip-rule="evenodd" d="M21.6774 21.0697V15.4839H26.3225V25.0514L25.1612 26.3775V27.1579L26.3225 28.6359V34.0645H21.6774V24.48L22.8387 23.1817V22.3966L21.6774 21.0697Z" fill="#808080"/>
</svg>
