<svg width="16" height="16" viewBox="0 0 16 16" fill="none" xmlns="http://www.w3.org/2000/svg">
<mask id="path-1-inside-1" fill="white">
<path d="M11 6V4.5C11 2.567 9.433 1 7.5 1C5.567 1 4 2.567 4 4.5V6H3V4.5C3 2.01472 5.01471 0 7.5 0C9.98529 0 12 2.01472 12 4.5V6H11Z"/>
</mask>
<path d="M11 6V4.5C11 2.567 9.433 1 7.5 1C5.567 1 4 2.567 4 4.5V6H3V4.5C3 2.01472 5.01471 0 7.5 0C9.98529 0 12 2.01472 12 4.5V6H11Z" fill="#EEEEEE"/>
<path d="M11 6H10V7H11V6ZM4 6V7H5V6H4ZM3 6H2V7H3V6ZM12 6V7H13V6H12ZM12 6V4.5H10V6H12ZM12 4.5C12 2.01472 9.98529 0 7.5 0V2C8.88072 2 10 3.11928 10 4.5H12ZM7.5 0C5.01471 0 3 2.01472 3 4.5H5C5 3.11928 6.11928 2 7.5 2V0ZM3 4.5V6H5V4.5H3ZM3 7H4V5H3V7ZM2 4.5V6H4V4.5H2ZM7.5 -1C4.46242 -1 2 1.46243 2 4.5H4C4 2.567 5.567 1 7.5 1V-1ZM13 4.5C13 1.46243 10.5376 -1 7.5 -1V1C9.433 1 11 2.567 11 4.5H13ZM13 6V4.5H11V6H13ZM11 7H12V5H11V7Z" fill="#EEEEEE" mask="url(#path-1-inside-1)"/>
<path d="M12.667 6H2.333C1.5968 6 1 6.5968 1 7.333V14.667C1 15.4032 1.5968 16 2.333 16H12.667C13.4032 16 14 15.4032 14 14.667V7.333C14 6.5968 13.4032 6 12.667 6Z" fill="#5BB254"/>
<path fill-rule="evenodd" clip-rule="evenodd" d="M8 11.9001V13.0001H7V11.9001C6.6664 11.7821 6.38523 11.55 6.20619 11.2448C6.02715 10.9396 5.96177 10.5809 6.02161 10.2322C6.08144 9.88344 6.26264 9.56707 6.53317 9.339C6.80371 9.11093 7.14616 8.98584 7.5 8.98584C7.85385 8.98584 8.1963 9.11093 8.46683 9.339C8.73737 9.56707 8.91856 9.88344 8.9784 10.2322C9.03824 10.5809 8.97286 10.9396 8.79382 11.2448C8.61478 11.55 8.33361 11.7821 8 11.9001Z" fill="#212121"/>
</svg>
