<svg width="20" height="20" viewBox="0 0 20 20" fill="none" xmlns="http://www.w3.org/2000/svg">
<path fill-rule="evenodd" clip-rule="evenodd" d="M10 17C6.63478 17 3.24609 14.79 1 10.5C3.26957 6.19471 6.6113 4 10 4C13.3496 4 16.6835 6.18706 19 10.5C16.7304 14.8435 13.3496 17 10 17ZM10 6.29412C9.14868 6.29412 8.31646 6.54076 7.60861 7.00291C6.90076 7.46506 6.34912 8.12197 6.02333 8.8905C5.69755 9.65902 5.6123 10.5047 5.77838 11.3205C5.94447 12.1364 6.35443 12.8858 6.9564 13.474C7.55838 14.0622 8.3253 14.4628 9.16026 14.625C9.99522 14.7873 10.8607 14.704 11.6472 14.3857C12.4337 14.0674 13.106 13.5283 13.579 12.8367C14.0519 12.145 14.3043 11.3318 14.3043 10.5C14.3043 9.38453 13.8508 8.31479 13.0436 7.52603C12.2364 6.73727 11.1416 6.29412 10 6.29412ZM10 13.1765C9.45825 13.1765 8.9287 13.0195 8.47825 12.7254C8.0278 12.4313 7.67674 12.0133 7.46942 11.5242C7.2621 11.0352 7.20782 10.497 7.31351 9.97781C7.4192 9.45863 7.68008 8.98178 8.06316 8.60747C8.44623 8.23315 8.93425 7.97824 9.46559 7.87496C9.99693 7.77169 10.5477 7.82473 11.0482 8.02731C11.5487 8.22988 11.9765 8.57292 12.2775 9.01306C12.5785 9.45321 12.7391 9.97064 12.7391 10.5C12.7391 11.2098 12.4505 11.8906 11.9368 12.3925C11.4232 12.8945 10.7265 13.1765 10 13.1765Z" fill="black" fill-opacity="0.54"/>
</svg>
