<svg width="20" height="20" viewBox="0 0 20 20" fill="none" xmlns="http://www.w3.org/2000/svg">
<path fill-rule="evenodd" clip-rule="evenodd" d="M3 5H7.22934C7.52575 5.5978 8.07976 6 8.71429 6H11.2857C11.9202 6 12.4743 5.5978 12.7707 5H17V16H3V5ZM17 3H12.7707C12.4743 2.4022 11.9202 2 11.2857 2H8.71429C8.07976 2 7.52575 2.4022 7.22934 3H3C1.89543 3 1 3.89543 1 5V16C1 17.1046 1.89543 18 3 18H17C18.1046 18 19 17.1046 19 16V5C19 3.89543 18.1046 3 17 3ZM16 8V10H10V8H16ZM10 12H14V14H10V12ZM9 8H5V14H9V8Z" fill="black" fill-opacity="0.54"/>
</svg>
