<svg width="20" height="20" viewBox="0 0 20 20" fill="none" xmlns="http://www.w3.org/2000/svg">
<path fill-rule="evenodd" clip-rule="evenodd" d="M19 6V14H12V16.1667C12 16.3877 12.0878 16.5997 12.244 16.756C12.4003 16.9122 12.6123 17 12.8333 17H15V19H12.8333C12.379 18.582 11.6174 18.1667 11 18.1667C10.3826 18.1667 9.62121 18.582 9.16683 19H7V17H9.16683C9.38784 17 9.59984 16.9122 9.75612 16.756C9.9124 16.5997 10.0002 16.3877 10.0002 16.1667V3.83333C10.0002 3.61232 9.9124 3.40032 9.75612 3.24404C9.59984 3.08776 9.38784 3 9.16683 3H7V1H9.16683C9.62121 1.41802 10.3826 1.83333 11 1.83333C11.6174 1.83333 12.379 1.41802 12.8333 1H15V3H12.8333C12.6123 3 12.4003 3.08776 12.244 3.24404C12.0878 3.40032 12 3.61232 12 3.83333V6H19ZM17 12V8H12V12H17ZM8 9V11H4V9H8ZM8 8H3V12H8V14H1V6H8V8Z" fill="black" fill-opacity="0.54"/>
</svg>
