<svg width="20" height="20" viewBox="0 0 20 20" fill="none" xmlns="http://www.w3.org/2000/svg">
<path d="M2 9C2.49794 5.06741 5.89108 2 9.96855 2C12.1772 2 14.4862 3 15.9921 5L16.4941 2.5L18 2V9H11.4745L11.9764 7.5L14.4862 6.5C13.5827 5.2 11.6752 4 9.96855 4C6.99741 4 4.51074 6.17158 4.02922 9H2Z" fill="black" fill-opacity="0.54"/>
<path d="M18 11C17.5021 14.9326 14.1089 18 10.0315 18C7.82281 18 5.75206 16.5 3.94499 15.5L3.44303 17.5L2.00002 18L2.00002 11H8.46267L7.96071 12.5L5.45088 13.5C6.35442 14.8 8.32477 16 10.0315 16C13.0026 16 15.4893 13.8284 15.9708 11H18Z" fill="black" fill-opacity="0.54"/>
</svg>
