<svg width="20" height="20" viewBox="0 0 20 20" fill="none" xmlns="http://www.w3.org/2000/svg">
<path fill-rule="evenodd" clip-rule="evenodd" d="M15.5 6C16.3284 6 17 5.32843 17 4.5C17 3.67157 16.3284 3 15.5 3C14.6716 3 14 3.67157 14 4.5C14 5.32843 14.6716 6 15.5 6ZM15.5 8C17.433 8 19 6.433 19 4.5C19 2.567 17.433 1 15.5 1C13.567 1 12 2.567 12 4.5L12.0002 4.53579L7.21914 7.29613C6.57744 6.50536 5.59774 6 4.5 6C2.567 6 1 7.567 1 9.5C1 11.433 2.567 13 4.5 13C5.36204 13 6.15129 12.6884 6.76123 12.1716L12.0124 15.2033C12.0042 15.3011 12 15.4001 12 15.5C12 17.433 13.567 19 15.5 19C17.433 19 19 17.433 19 15.5C19 13.567 17.433 12 15.5 12C14.3892 12 13.3993 12.5175 12.7581 13.3245L7.85666 10.4946C7.94993 10.1794 8 9.84552 8 9.5C8 9.38663 7.99461 9.27451 7.98407 9.1639L12.619 6.48794C13.2505 7.40148 14.3054 8 15.5 8ZM6 9.5C6 10.3284 5.32843 11 4.5 11C3.67157 11 3 10.3284 3 9.5C3 8.67157 3.67157 8 4.5 8C5.32843 8 6 8.67157 6 9.5ZM17 15.5C17 16.3284 16.3284 17 15.5 17C14.6716 17 14 16.3284 14 15.5C14 14.6716 14.6716 14 15.5 14C16.3284 14 17 14.6716 17 15.5Z" fill="black" fill-opacity="0.54"/>
</svg>
