<svg width="20" height="20" viewBox="0 0 20 20" fill="none" xmlns="http://www.w3.org/2000/svg">
<path fill-rule="evenodd" clip-rule="evenodd" d="M18.9998 6V14H11.9998V16.1667C11.9998 16.3877 12.0876 16.5997 12.2439 16.756C12.4001 16.9122 12.6121 17 12.8332 17H14.9998V19H12.8332C12.3788 18.582 11.6172 18.1667 10.9998 18.1667C10.3824 18.1667 9.62103 18.582 9.16665 19H6.99982V17H9.16665C9.38766 17 9.59966 16.9122 9.75594 16.756C9.91222 16.5997 9.99998 16.3877 9.99998 16.1667V3.83333C9.99998 3.61232 9.91222 3.40032 9.75594 3.24404C9.59966 3.08776 9.38766 3 9.16665 3H6.99982V0.999999H9.16665C9.62103 1.41802 10.3824 1.83333 10.9998 1.83333C11.6172 1.83333 12.3788 1.41802 12.8332 0.999999H14.9998V3H12.8332C12.6121 3 12.4001 3.08776 12.2439 3.24404C12.0876 3.40032 11.9998 3.61232 11.9998 3.83333V6H18.9998ZM16.9998 12V8H11.9998V12H16.9998ZM7.99982 9V11H3.99982V9H7.99982ZM7.99982 8H2.99982V12H7.99982V14H0.999817V6H7.99982V8Z" fill="white" fill-opacity="0.54"/>
</svg>
