<svg width="24" height="24" viewBox="0 0 24 24" fill="none" xmlns="http://www.w3.org/2000/svg">
<path fill-rule="evenodd" clip-rule="evenodd" d="M7 2H16V5H15V9.41604C16.7659 10.1876 18 11.9497 18 14H15.6875L10 8.3125V5H9V7.3125L8 6.3125V5H7V2ZM11 14.1406L12 15.1406V21.5C12 21.7761 11.7761 22 11.5 22C11.2239 22 11 21.7761 11 21.5V14.1406ZM6.9202 10.0608L10.8594 14H5C5 12.4003 5.75125 10.976 6.9202 10.0608ZM3.75 3.76562L3.03906 4.47656L17.9844 19.4219L18.6953 18.7109L3.75 3.76562Z" fill="#4F5254"/>
</svg>
