<svg width="20" height="20" viewBox="0 0 20 20" fill="none" xmlns="http://www.w3.org/2000/svg">
<path fill-rule="evenodd" clip-rule="evenodd" d="M17.2 17H2.8C2.32305 16.9986 1.86603 16.8138 1.52877 16.4859C1.19151 16.158 1.00142 15.7137 1 15.25L1.00901 4.75C1.009 4.28738 1.19744 3.84362 1.53306 3.51569C1.86868 3.18775 2.32417 3.00231 2.8 3H17.2C17.677 3.00138 18.134 3.18619 18.4712 3.51408C18.8085 3.84197 18.9986 4.2863 19 4.75V15.25C18.9986 15.7137 18.8085 16.158 18.4712 16.4859C18.134 16.8138 17.677 16.9986 17.2 17ZM3 5L10 9.125L17 5H3ZM17 7L10 11.375L3 7V15H17V7Z" fill="white" fill-opacity="0.54"/>
</svg>
