<svg width="20" height="20" viewBox="0 0 20 20" fill="none" xmlns="http://www.w3.org/2000/svg">
<path fill-rule="evenodd" clip-rule="evenodd" d="M15 3H17C18.1046 3 19 3.89543 19 5V17C19 18.1046 18.1046 19 17 19H3C1.89543 19 1 18.1046 1 17V5C1 3.89543 1.89543 3 3 3H5C5 1.89543 5.89543 1 7 1H13C14.1046 1 15 1.89543 15 3ZM3 5H17V17H3V5ZM10 16C12.7614 16 15 13.7614 15 11C15 8.23858 12.7614 6 10 6C7.23858 6 5 8.23858 5 11C5 13.7614 7.23858 16 10 16ZM9 8V10H7V12H9V14H11V12H13V10H11V8H9Z" fill="white" fill-opacity="0.54"/>
</svg>
