<svg width="20" height="20" viewBox="0 0 20 20" fill="none" xmlns="http://www.w3.org/2000/svg">
<path fill-rule="evenodd" clip-rule="evenodd" d="M11.3906 1.46904C10.6152 0.718977 9.38475 0.718978 8.60941 1.46905L7.92554 2.13062L6.98342 1.99736C5.91527 1.84628 4.91978 2.56955 4.7334 3.6321L4.569 4.56929L3.72848 5.01525C2.77553 5.52086 2.39528 6.69113 2.86905 7.66031L3.28691 8.51514L2.86905 9.36997C2.39528 10.3392 2.77553 11.5094 3.72848 12.015L3.90426 12.1083L1 17.0717L5.0539 16L6.14014 20L8.69275 15.6375C9.44231 16.2859 10.5577 16.2859 11.3073 15.6375L13.8599 20L14.9461 16L19 17.0718L16.0957 12.1083L16.2715 12.015C17.2245 11.5094 17.6047 10.3392 17.1309 9.36997L16.7131 8.51514L17.1309 7.66031C17.6047 6.69113 17.2245 5.52086 16.2715 5.01525L15.431 4.56929L15.2666 3.6321C15.0802 2.56955 14.0847 1.84628 13.0166 1.99736L12.0745 2.13062L11.3906 1.46904ZM10 2.90649L10.6839 3.56807C11.1272 3.99699 11.7437 4.1973 12.3546 4.11091L13.2967 3.97765L13.4611 4.91484C13.5677 5.52246 13.9487 6.04688 14.4936 6.33602L15.3341 6.78197L14.9163 7.63681C14.6454 8.19103 14.6454 8.83925 14.9163 9.39347L15.3341 10.2483L14.4936 10.6943C13.9487 10.9834 13.5677 11.5078 13.4611 12.1154L13.2967 13.0526L12.3546 12.9194C11.7437 12.833 11.1272 13.0333 10.6839 13.4622L10 14.1238L9.31613 13.4622C8.87276 13.0333 8.25625 12.833 7.64544 12.9194L6.70332 13.0526L6.53892 12.1154C6.43234 11.5078 6.05132 10.9834 5.50638 10.6943L4.66586 10.2483L5.08372 9.39347C5.35464 8.83926 5.35464 8.19103 5.08372 7.63681L4.66586 6.78197L5.50638 6.33602C6.05132 6.04688 6.43234 5.52246 6.53892 4.91484L6.70332 3.97765L7.64544 4.11091C8.25625 4.1973 8.87275 3.99699 9.31613 3.56807L10 2.90649Z" fill="black" fill-opacity="0.54"/>
<circle cx="10" cy="8.5" r="2.5" stroke="black" stroke-opacity="0.54" stroke-width="2"/>
</svg>
