<svg width="20" height="20" viewBox="0 0 20 20" fill="none" xmlns="http://www.w3.org/2000/svg">
<path fill-rule="evenodd" clip-rule="evenodd" d="M7.41249 17.425C7.1941 17.6432 6.91015 17.7838 6.60418 17.825L2.68745 18.3666C2.54254 18.3874 2.39482 18.3741 2.25593 18.3279C2.11705 18.2816 1.99089 18.2036 1.88738 18.1001C1.78387 17.9966 1.70588 17.8704 1.65962 17.7316C1.61336 17.5927 1.6001 17.4449 1.62086 17.3L2.16245 13.3833C2.20369 13.0773 2.3443 12.7934 2.56253 12.575L12.9792 2.15834C13.1461 1.99003 13.3447 1.85643 13.5635 1.76527C13.7823 1.6741 14.0171 1.62723 14.2541 1.62723C14.4912 1.62723 14.7259 1.6741 14.9447 1.76527C15.1636 1.85643 15.3622 1.99003 15.5291 2.15834L17.8292 4.45834C17.9975 4.62529 18.1311 4.82392 18.2222 5.04276C18.3134 5.26159 18.3603 5.49631 18.3603 5.73337C18.3603 5.97043 18.3134 6.20515 18.2222 6.42398C18.1311 6.64281 17.9975 6.84135 17.8292 7.00829L7.41249 17.425ZM14.2542 3.71179L16.2757 5.73332L14.2116 7.79739L12.1901 5.77587L14.2542 3.71179ZM10.7759 7.19008L4.1171 13.8489L3.79272 16.1948L6.13863 15.8704L12.7974 9.21161L10.7759 7.19008Z" fill="black" fill-opacity="0.54"/>
</svg>
