<svg width="20" height="20" viewBox="0 0 20 20" fill="none" xmlns="http://www.w3.org/2000/svg">
<path fill-rule="evenodd" clip-rule="evenodd" d="M13.1716 4H13V6V8H11H8H5V6V4H4V16H16V6.82843L13.1716 4ZM13 2H11H8H5H4C2.89 2 2 2.9 2 4V16C2 17.1 2.89 18 4 18H16C17.1 18 18 17.1 18 16V6L14 2H13ZM11 4H8V6H11V4ZM11 12C11 12.5523 10.5523 13 10 13C9.44772 13 9 12.5523 9 12C9 11.4477 9.44772 11 10 11C10.5523 11 11 11.4477 11 12ZM13 12C13 13.6569 11.6569 15 10 15C8.34315 15 7 13.6569 7 12C7 10.3431 8.34315 9 10 9C11.6569 9 13 10.3431 13 12Z" fill="white" fill-opacity="0.54"/>
</svg>
