<svg width="20" height="20" viewBox="0 0 20 20" fill="none" xmlns="http://www.w3.org/2000/svg">
<path fill-rule="evenodd" clip-rule="evenodd" d="M3 5V12H12V5H3ZM3 1C1.89543 1 1 1.89543 1 3V19H14V15H15C16.6569 15 18 13.6569 18 12V8.73244C18.5978 8.38663 19 7.74028 19 7C19 5.89543 18.1046 5 17 5C15.8954 5 15 5.89543 15 7C15 7.74028 15.4022 8.38663 16 8.73244V12C16 12.5523 15.5523 13 15 13H14V3C14 1.89543 13.1046 1 12 1H3ZM5.5 7H4V10H5.5V7ZM6.75 7H8.25V10H6.75V7ZM11 7H9.5V10H11V7Z" fill="white" fill-opacity="0.54"/>
</svg>
