<svg width="20" height="20" viewBox="0 0 20 20" fill="none" xmlns="http://www.w3.org/2000/svg">
<path fill-rule="evenodd" clip-rule="evenodd" d="M1 5C1 3.34314 2.34314 2 4 2H8L10 4H16C17.6569 4 19 5.34314 19 7V12.8867C18.7299 12.7207 18.4234 12.5573 18.0777 12.4059C18.3486 11.8271 18.5 11.1813 18.5 10.5C18.5 9.48924 18.1644 8.55112 17.5993 7.79885C17.4216 7.56226 17.2207 7.34354 17 7.14609V7C17 6.44771 16.5523 6 16 6H14H9.17157L7.17157 4H4C3.44771 4 3 4.44771 3 5V8.17071C3.31278 8.06015 3.64936 8 4 8H10.258C9.86717 8.58448 9.60902 9.26679 9.52761 10H4C3.44772 10 3 10.4477 3 11V15C3 15.5178 3.39349 15.9436 3.89775 15.9948C3.93137 15.9983 3.96548 16 4 16H7V18H4C2.34314 18 1 16.6569 1 15V5ZM17 14.1251C18.2473 14.6017 18.8266 15.2727 18.9659 15.4536C18.989 15.4835 19 15.5 19 15.5V18H16H9V16V15.5C9 15.5 10.25 13.625 14 13.625C15.2709 13.625 16.2547 13.8404 17 14.1251ZM16.0002 9C16.2415 9.3213 16.4072 9.70264 16.4709 10.1176C16.4901 10.2423 16.5 10.37 16.5 10.5C16.5 11.8807 15.3807 13 14 13C12.6193 13 11.5 11.8807 11.5 10.5C11.5 10.3288 11.5172 10.1616 11.55 10C11.625 9.63056 11.7815 9.29071 11.9998 9C12.4559 8.39278 13.1821 8 14 8C14.8179 8 15.5441 8.39278 16.0002 9Z" fill="white" fill-opacity="0.54"/>
</svg>
