<svg width="20" height="20" viewBox="0 0 20 20" fill="none" xmlns="http://www.w3.org/2000/svg">
<path fill-rule="evenodd" clip-rule="evenodd" d="M11 2H9V9H11V2ZM2 10C2 7.08726 3.55664 4.5381 5.8834 3.13903L6.79819 4.6637C4.9885 5.75186 3.77778 7.73454 3.77778 10C3.77778 13.4364 6.56356 16.2222 10 16.2222C13.4364 16.2222 16.2222 13.4364 16.2222 10C16.2222 7.73454 15.0115 5.75186 13.2018 4.6637L14.1166 3.13903C16.4434 4.5381 18 7.08726 18 10C18 14.4183 14.4183 18 10 18C5.58172 18 2 14.4183 2 10Z" fill="black" fill-opacity="0.54"/>
</svg>
