<svg width="20" height="20" viewBox="0 0 20 20" fill="none" xmlns="http://www.w3.org/2000/svg">
<path fill-rule="evenodd" clip-rule="evenodd" d="M11.3906 1.46909C10.6152 0.719022 9.38475 0.719023 8.60941 1.46909L7.92554 2.13066L6.98342 1.99741C5.91527 1.84632 4.91978 2.56959 4.7334 3.63214L4.569 4.56933L3.72848 5.01529C2.77553 5.52091 2.39528 6.69118 2.86905 7.66035L3.28691 8.51519L2.86905 9.37002C2.39528 10.3392 2.77553 11.5095 3.72848 12.0151L3.90426 12.1083L1 17.0718L5.0539 16L6.14014 20L8.69275 15.6375C9.44231 16.2859 10.5577 16.2859 11.3073 15.6375L13.8599 20L14.9461 16L19 17.0718L16.0957 12.1083L16.2715 12.0151C17.2245 11.5095 17.6047 10.3392 17.1309 9.37002L16.7131 8.51519L17.1309 7.66035C17.6047 6.69117 17.2245 5.5209 16.2715 5.01529L15.431 4.56933L15.2666 3.63214C15.0802 2.56959 14.0847 1.84632 13.0166 1.99741L12.0745 2.13066L11.3906 1.46909ZM10 2.90654L10.6839 3.56811C11.1272 3.99704 11.7437 4.19735 12.3546 4.11095L13.2967 3.9777L13.4611 4.91489C13.5677 5.5225 13.9487 6.04693 14.4936 6.33606L15.3341 6.78202L14.9163 7.63685C14.6454 8.19107 14.6454 8.8393 14.9163 9.39352L15.3341 10.2484L14.4936 10.6943C13.9487 10.9834 13.5677 11.5079 13.4611 12.1155L13.2967 13.0527L12.3546 12.9194C11.7437 12.833 11.1272 13.0333 10.6839 13.4623L10 14.1238L9.31613 13.4623C8.87276 13.0333 8.25625 12.833 7.64544 12.9194L6.70332 13.0527L6.53892 12.1155C6.43234 11.5079 6.05132 10.9834 5.50638 10.6943L4.66586 10.2484L5.08372 9.39352C5.35464 8.8393 5.35464 8.19107 5.08372 7.63685L4.66586 6.78202L5.50638 6.33606C6.05132 6.04693 6.43234 5.5225 6.53892 4.91489L6.70332 3.9777L7.64544 4.11095C8.25625 4.19735 8.87275 3.99704 9.31613 3.56811L10 2.90654Z" fill="white" fill-opacity="0.54"/>
<circle cx="10" cy="8.5" r="2.5" stroke="white" stroke-opacity="0.54" stroke-width="2"/>
</svg>
