<svg width="20" height="20" viewBox="0 0 20 20" fill="none" xmlns="http://www.w3.org/2000/svg">
<path fill-rule="evenodd" clip-rule="evenodd" d="M15.8332 13.325L15.8416 13.3333H10.8332V18.3333H9.16654V13.3333H4.1582L4.16654 13.325C4.16884 12.2232 4.4831 11.1445 5.07302 10.2139C5.66293 9.28334 6.50438 8.53892 7.49988 8.06671V4.16667C6.83875 4.16514 6.20505 3.90238 5.73678 3.43567C5.26851 2.96896 5.00361 2.33613 4.99988 1.67501L4.98319 1.65833H15.0082L14.9999 1.66667C14.9999 2.32971 14.7365 2.96561 14.2677 3.43445C13.7988 3.90329 13.1629 4.16667 12.4999 4.16667V8.06671C13.495 8.5394 14.3361 9.28395 14.9259 10.2144C15.5158 11.1449 15.8303 12.2233 15.8332 13.325ZM10.8332 9.24998V3.33333H9.16654V9.24998C8.51376 9.38606 7.90301 9.67651 7.38544 10.0969C6.86786 10.5174 6.45855 11.0556 6.19159 11.6667H13.8082C13.5412 11.0556 13.1319 10.5174 12.6143 10.0969C12.0967 9.67651 11.486 9.38606 10.8332 9.24998Z" fill="white" fill-opacity="0.54"/>
</svg>
