<svg width="20" height="20" viewBox="0 0 20 20" fill="none" xmlns="http://www.w3.org/2000/svg">
<path fill-rule="evenodd" clip-rule="evenodd" d="M10 19C6.35801 18.0846 2.61155 13.7655 2.04341 10.1141C2.04008 10.0927 2.03687 10.0713 2.03376 10.05L2.02667 10V10.05C2.02667 10.05 2.02541 10.0324 2.02345 10.0005C2.02161 9.97055 2.01914 9.92777 2.01651 9.87569C2.00897 9.72624 2 9.49653 2 9.25V4.75L10 1L18 4.75V9.25C18 13.4 14.08 17.975 10 19ZM10 17.1246C10.0019 17.1253 10.0038 17.126 10.0057 17.1266C11.4741 16.6412 12.9838 15.5632 14.1704 14.1371C15.4016 12.6575 15.9173 11.4645 16 10H10V2.98355L4 5.90021V10H10V17.1246Z" fill="white" fill-opacity="0.54"/>
</svg>
