<svg width="20" height="20" viewBox="0 0 20 20" fill="none" xmlns="http://www.w3.org/2000/svg">
<path fill-rule="evenodd" clip-rule="evenodd" d="M8.33317 13.75L13.3332 10L8.33317 6.25V13.75ZM9.99984 1.66666C8.35166 1.66666 6.74053 2.1554 5.37012 3.07108C3.99971 3.98676 2.9316 5.28829 2.30087 6.81101C1.67014 8.33373 1.50508 10.0093 1.82662 11.6258C2.14817 13.2423 2.94187 14.7271 4.1073 15.8925C5.27274 17.058 6.75756 17.8517 8.37407 18.1732C9.99058 18.4948 11.6661 18.3297 13.1888 17.699C14.7115 17.0682 16.0131 16.0001 16.9288 14.6297C17.8444 13.2593 18.3332 11.6482 18.3332 10C18.3332 7.78986 17.4552 5.67026 15.8924 4.10746C14.3296 2.54466 12.21 1.66666 9.99984 1.66666ZM9.99984 16.6667C8.6813 16.6667 7.39235 16.2757 6.29602 15.5431C5.1997 14.8106 4.34527 13.7694 3.84068 12.5513C3.3361 11.3331 3.20401 9.99265 3.46125 8.69944C3.71848 7.40623 4.35344 6.2183 5.28579 5.28595C6.21814 4.3536 7.40608 3.71864 8.69928 3.4614C9.99249 3.20417 11.3329 3.33625 12.5511 3.84084C13.7693 4.34542 14.8104 5.19985 15.543 6.29618C16.2755 7.39251 16.6665 8.68146 16.6665 10C16.6641 11.7674 15.961 13.4617 14.7112 14.7114C13.4615 15.9611 11.7672 16.6642 9.99984 16.6667Z" fill="#31a629"/>
</svg>
