<svg width="20" height="20" viewBox="0 0 20 20" fill="none" xmlns="http://www.w3.org/2000/svg">
<path fill-rule="evenodd" clip-rule="evenodd" d="M2.75 0C2.33579 0 2 0.335786 2 0.75C2 1.16421 2.33579 1.5 2.75 1.5H17.25C17.6642 1.5 18 1.16421 18 0.75C18 0.335786 17.6642 0 17.25 0H2.75ZM2.75 18.5C2.33579 18.5 2 18.8358 2 19.25C2 19.6642 2.33579 20 2.75 20H17.25C17.6642 20 18 19.6642 18 19.25C18 18.8358 17.6642 18.5 17.25 18.5H2.75ZM15 5H5C4.44772 5 4 5.44772 4 6V14C4 14.5523 4.44771 15 5 15H15C15.5523 15 16 14.5523 16 14V6C16 5.44771 15.5523 5 15 5ZM5 3H15C16.6569 3 18 4.34315 18 6V14C18 15.6569 16.6569 17 15 17H5C3.34315 17 2 15.6569 2 14V6C2 4.34315 3.34315 3 5 3ZM14 14V12.8292C14 11.5258 11.336 10.8772 10 10.8772C8.664 10.8772 6 11.5258 6 12.8292V14H14ZM11.5147 8.76177C11.708 8.46219 11.8073 8.11207 11.8 7.75605C11.7943 7.28574 11.6017 6.83684 11.2643 6.5077C10.9269 6.17857 10.4723 5.99603 10 6.00007C9.64244 6.00014 9.29301 6.10627 8.99625 6.30491C8.6995 6.50356 8.46888 6.78572 8.33379 7.11542C8.1987 7.44513 8.16527 7.80743 8.23775 8.15613C8.31024 8.50483 8.48537 8.82413 8.7408 9.07331C8.99623 9.32249 9.32038 9.49027 9.67194 9.55524C10.0235 9.62022 10.3865 9.57945 10.7147 9.43813C11.0429 9.29681 11.3214 9.06135 11.5147 8.76177Z" fill="black" fill-opacity="0.54"/>
</svg>
