<svg width="60" height="60" viewBox="0 0 60 60" fill="none" xmlns="http://www.w3.org/2000/svg">
<circle cx="30" cy="30" r="30" fill="#2979FF"/>
<path d="M31.5847 11C34.2822 11 36.4402 13.2254 36.4402 15.923C36.4402 18.6205 34.2148 20.8459 31.5847 20.8459C28.8872 20.8459 26.6617 18.6205 26.6617 15.8555C26.6617 13.158 28.8872 11 31.5847 11ZM38.5308 43.9771C38.3959 44.3817 38.1262 44.8538 37.8564 45.1236C36.103 46.9444 33.945 48.0234 31.3824 48.0234C30.1685 48.0234 29.022 48.0234 27.8082 47.8211C25.8525 47.5513 23.3573 45.1236 23.6945 42.5609C23.9642 40.8075 24.234 39.0542 24.5037 37.3008C25.0432 34.2661 25.5827 31.1639 26.1222 28.1292C26.1222 27.9269 26.1897 27.7246 26.1897 27.5223C26.1897 26.241 25.785 25.7689 24.5037 25.634C23.9642 25.5666 23.4247 25.4991 22.8852 25.3643C22.2783 25.162 21.9411 24.6225 22.0085 24.1504C22.0759 23.6109 22.4131 23.2737 23.0875 23.1388C23.4247 23.0714 23.8293 23.0714 24.234 23.0714C25.7176 23.0714 27.2012 23.0714 28.7523 23.0714C30.3708 23.0714 31.9219 23.0714 33.5404 23.0714C34.6868 23.0714 35.3612 23.6109 35.3612 24.7573C35.3612 25.7015 35.2263 26.6456 35.024 27.5897C34.4171 31.0965 33.7427 34.5358 33.1358 38.0426C32.9334 39.189 32.6637 40.3355 32.5288 41.4819C32.4614 42.0214 32.5288 42.6284 32.6637 43.1679C32.866 43.9097 33.4055 44.3143 34.1473 44.2469C34.7543 44.1794 35.3612 43.9771 35.9682 43.7074C36.4402 43.5051 36.8448 43.1679 37.3169 43.033C38.1262 42.7632 38.7331 43.2353 38.5308 43.9771Z" fill="white"/>
</svg>
