<svg width="229" height="140" viewBox="0 0 229 140" fill="none" xmlns="http://www.w3.org/2000/svg">
<path d="M31.974 18.3101C63.4503 2.27572 82.2503 18.3101 118.593 14.9477C154.936 11.5852 195.05 -15.584 220.9 13.5559C246.75 42.6959 196 121 142.604 132.195C89.2071 143.391 44.3547 146.376 16.6298 114.137C-11.0951 81.8977 0.497688 34.3445 31.974 18.3101Z" fill="#2979FF"/>
<rect x="77.4375" y="11.5" width="79.125" height="123" rx="7" fill="url(#paint0_linear)" stroke="#212121" stroke-width="6"/>
<rect x="96.5" y="19" width="6" height="6" rx="3" fill="#212121"/>
<rect x="105.5" y="19" width="32" height="6" rx="3" fill="#212121"/>
<path fill-rule="evenodd" clip-rule="evenodd" d="M118.481 71.7856C117.41 68.7817 115.302 66.2499 112.53 64.6377C109.759 63.0256 106.501 62.437 103.334 62.9758C100.167 63.5146 97.294 65.1461 95.2227 67.5821C93.1515 70.0181 92.0156 73.1016 92.0156 76.2878C92.0156 79.4739 93.1515 82.5574 95.2227 84.9934C97.294 87.4294 100.167 89.061 103.334 89.5997C106.501 90.1385 109.759 89.5499 112.53 87.9378C115.302 86.3257 117.41 83.7939 118.481 80.7899H126.357V86.7943C126.357 88.4511 127.7 89.7943 129.357 89.7943H132.438C134.095 89.7943 135.438 88.4511 135.438 86.7943V80.7899H138.979C140.636 80.7899 141.979 79.4468 141.979 77.7899V74.7856C141.979 73.1287 140.636 71.7856 138.979 71.7856H118.481ZM105.653 80.7899C104.755 80.7899 103.877 80.526 103.131 80.0313C102.384 79.5365 101.802 78.8334 101.458 78.0107C101.115 77.1881 101.025 76.2829 101.2 75.4095C101.375 74.5362 101.808 73.734 102.443 73.1043C103.078 72.4747 103.887 72.0459 104.768 71.8722C105.648 71.6984 106.561 71.7875 107.391 72.1283C108.221 72.469 108.93 73.0463 109.429 73.7866C109.928 74.527 110.194 75.3973 110.194 76.2878C110.19 77.4807 109.711 78.6238 108.86 79.4674C108.009 80.3109 106.857 80.7864 105.653 80.7899Z" fill="white"/>
<path fill-rule="evenodd" clip-rule="evenodd" d="M40.7153 25C31.4624 25 23.9614 32.501 23.9614 41.7539C23.9614 48.8184 28.3339 54.8617 34.5203 57.3251C33.3862 61.3624 31.1977 64.4239 28.5403 65.5401C29.723 65.8402 30.9618 65.9997 32.2379 65.9997C37.7842 65.9997 42.6268 62.9865 45.2178 58.5078H79.7463C88.9992 58.5078 96.5002 51.0068 96.5002 41.7539C96.5002 32.501 88.9993 25 79.7463 25H40.7153Z" fill="white"/>
<path d="M39.9763 45.1199L40.8839 43.5797L37.5109 41.8403L40.8839 40.0877L39.9763 38.521L36.8065 40.6852L37.0232 36.9144H35.181L35.3977 40.6852L32.2279 38.521L31.3203 40.0877L34.7069 41.8403L31.3203 43.5797L32.2279 45.1199L35.3977 43.0088L35.181 46.7264H37.0232L36.8065 43.022L39.9763 45.1199Z" fill="#2979FF"/>
<path d="M52.0406 45.1199L52.9482 43.5797L49.5752 41.8403L52.9482 40.0877L52.0406 38.521L48.8708 40.6852L49.0875 36.9144H47.2453L47.462 40.6852L44.2922 38.521L43.3846 40.0877L46.7711 41.8403L43.3846 43.5797L44.2922 45.1199L47.462 43.0088L47.2453 46.7264H49.0875L48.8708 43.022L52.0406 45.1199Z" fill="#2979FF"/>
<path d="M64.1049 45.1199L65.0125 43.5797L61.6395 41.8403L65.0125 40.0877L64.1049 38.521L60.9351 40.6852L61.1518 36.9144H59.3096L59.5263 40.6852L56.3565 38.521L55.4489 40.0877L58.8354 41.8403L55.4489 43.5797L56.3565 45.1199L59.5263 43.0088L59.3096 46.7264H61.1518L60.9351 43.022L64.1049 45.1199Z" fill="#2979FF"/>
<path d="M76.1692 45.1199L77.0768 43.5797L73.7038 41.8403L77.0768 40.0877L76.1692 38.521L72.9994 40.6852L73.2161 36.9144H71.3739L71.5906 40.6852L68.4208 38.521L67.5132 40.0877L70.8997 41.8403L67.5132 43.5797L68.4208 45.1199L71.5906 43.0088L71.3739 46.7264H73.2161L72.9994 43.022L76.1692 45.1199Z" fill="#2979FF"/>
<path d="M88.2335 45.1199L89.1411 43.5797L85.7681 41.8403L89.1411 40.0877L88.2335 38.521L85.0637 40.6852L85.2804 36.9144H83.4382L83.6549 40.6852L80.4851 38.521L79.5775 40.0877L82.964 41.8403L79.5775 43.5797L80.4851 45.1199L83.6549 43.0088L83.4382 46.7264H85.2804L85.0637 43.022L88.2335 45.1199Z" fill="#2979FF"/>
<path d="M190.5 22L193.753 30.7924C194.26 32.161 195.339 33.2401 196.708 33.7465L205.5 37L196.708 40.2535C195.339 40.7599 194.26 41.839 193.753 43.2076L190.5 52L187.247 43.2076C186.74 41.839 185.661 40.7599 184.292 40.2535L175.5 37L184.292 33.7465C185.661 33.2401 186.74 32.161 187.247 30.7924L190.5 22Z" fill="white"/>
<path d="M46.5 86L49.7535 94.7924C50.2599 96.161 51.339 97.2401 52.7076 97.7465L61.5 101L52.7076 104.253C51.339 104.76 50.2599 105.839 49.7535 107.208L46.5 116L43.2465 107.208C42.7401 105.839 41.661 104.76 40.2924 104.253L31.5 101L40.2924 97.7465C41.661 97.2401 42.7401 96.161 43.2465 94.7924L46.5 86Z" fill="white"/>
<path d="M205.5 101L208.753 109.792C209.26 111.161 210.339 112.24 211.708 112.747L220.5 116L211.708 119.253C210.339 119.76 209.26 120.839 208.753 122.208L205.5 131L202.247 122.208C201.74 120.839 200.661 119.76 199.292 119.253L190.5 116L199.292 112.747C200.661 112.24 201.74 111.161 202.247 109.792L205.5 101Z" fill="#2979FF"/>
<defs>
<linearGradient id="paint0_linear" x1="117" y1="14.5" x2="117" y2="131.5" gradientUnits="userSpaceOnUse">
<stop stop-color="#5BB254"/>
<stop offset="1" stop-color="#27AE60"/>
</linearGradient>
</defs>
</svg>
