<svg width="229" height="140" viewBox="0 0 229 140" fill="none" xmlns="http://www.w3.org/2000/svg">
<path d="M31.9738 18.3101C63.4501 2.27572 82.2501 18.3101 118.593 14.9477C154.936 11.5852 195.05 -15.584 220.9 13.5559C246.75 42.6959 196 121 142.603 132.195C89.2069 143.391 44.3545 146.376 16.6296 114.137C-11.0953 81.8977 0.497475 34.3445 31.9738 18.3101Z" fill="#448AFF"/>
<rect x="77.4375" y="11.5" width="79.125" height="123" rx="7" fill="url(#paint0_linear)" stroke="#212121" stroke-width="6"/>
<rect x="96.5" y="19" width="6" height="6" rx="3" fill="#212121"/>
<rect x="105.5" y="19" width="32" height="6" rx="3" fill="#212121"/>
<path fill-rule="evenodd" clip-rule="evenodd" d="M118.481 71.7856C117.41 68.7817 115.302 66.2499 112.53 64.6377C109.759 63.0256 106.501 62.437 103.334 62.9758C100.167 63.5146 97.294 65.1461 95.2227 67.5821C93.1515 70.0181 92.0156 73.1016 92.0156 76.2878C92.0156 79.4739 93.1515 82.5574 95.2227 84.9934C97.294 87.4294 100.167 89.061 103.334 89.5997C106.501 90.1385 109.759 89.5499 112.53 87.9378C115.302 86.3257 117.41 83.7939 118.481 80.7899H126.357V86.7943C126.357 88.4511 127.7 89.7943 129.357 89.7943H132.438C134.095 89.7943 135.438 88.4511 135.438 86.7943V80.7899H138.979C140.636 80.7899 141.979 79.4468 141.979 77.7899V74.7856C141.979 73.1287 140.636 71.7856 138.979 71.7856H118.481ZM105.653 80.7899C104.755 80.7899 103.877 80.526 103.131 80.0313C102.384 79.5365 101.802 78.8334 101.458 78.0107C101.115 77.1881 101.025 76.2829 101.2 75.4095C101.375 74.5362 101.808 73.734 102.443 73.1043C103.078 72.4747 103.887 72.0459 104.768 71.8722C105.648 71.6984 106.561 71.7875 107.391 72.1283C108.221 72.469 108.93 73.0463 109.429 73.7866C109.928 74.527 110.194 75.3973 110.194 76.2878C110.19 77.4807 109.711 78.6238 108.86 79.4674C108.009 80.3109 106.857 80.7864 105.653 80.7899Z" fill="white"/>
<path fill-rule="evenodd" clip-rule="evenodd" d="M40.7151 25C31.4622 25 23.9612 32.501 23.9612 41.7539C23.9612 48.8184 28.3337 54.8617 34.52 57.3251C33.386 61.3624 31.1974 64.4239 28.5401 65.5401C29.7228 65.8402 30.9616 65.9997 32.2377 65.9997C37.784 65.9997 42.6265 62.9865 45.2176 58.5078H79.7461C88.999 58.5078 96.5 51.0068 96.5 41.7539C96.5 32.501 88.999 25 79.7461 25H40.7151Z" fill="white"/>
<path d="M39.9762 45.1199L40.8837 43.5798L37.5108 41.8404L40.8837 40.0878L39.9762 38.5211L36.8064 40.6853L37.0231 36.9145H35.1808L35.3976 40.6853L32.2278 38.5211L31.3202 40.0878L34.7067 41.8404L31.3202 43.5798L32.2278 45.1199L35.3976 43.0088L35.1808 46.7265H37.0231L36.8064 43.0221L39.9762 45.1199Z" fill="#448AFF"/>
<path d="M52.0404 45.1199L52.948 43.5798L49.575 41.8404L52.948 40.0878L52.0404 38.5211L48.8706 40.6853L49.0874 36.9145H47.2451L47.4618 40.6853L44.2921 38.5211L43.3845 40.0878L46.771 41.8404L43.3845 43.5798L44.2921 45.1199L47.4618 43.0088L47.2451 46.7265H49.0874L48.8706 43.0221L52.0404 45.1199Z" fill="#448AFF"/>
<path d="M64.1047 45.1199L65.0123 43.5798L61.6393 41.8404L65.0123 40.0878L64.1047 38.5211L60.9349 40.6853L61.1517 36.9145H59.3094L59.5261 40.6853L56.3563 38.5211L55.4488 40.0878L58.8353 41.8404L55.4488 43.5798L56.3563 45.1199L59.5261 43.0088L59.3094 46.7265H61.1517L60.9349 43.0221L64.1047 45.1199Z" fill="#448AFF"/>
<path d="M76.169 45.1199L77.0766 43.5798L73.7036 41.8404L77.0766 40.0878L76.169 38.5211L72.9992 40.6853L73.216 36.9145H71.3737L71.5904 40.6853L68.4207 38.5211L67.5131 40.0878L70.8996 41.8404L67.5131 43.5798L68.4207 45.1199L71.5904 43.0088L71.3737 46.7265H73.216L72.9992 43.0221L76.169 45.1199Z" fill="#448AFF"/>
<path d="M88.2333 45.1199L89.1409 43.5798L85.7679 41.8404L89.1409 40.0878L88.2333 38.5211L85.0635 40.6853L85.2803 36.9145H83.438L83.6547 40.6853L80.4849 38.5211L79.5774 40.0878L82.9639 41.8404L79.5774 43.5798L80.4849 45.1199L83.6547 43.0088L83.438 46.7265H85.2803L85.0635 43.0221L88.2333 45.1199Z" fill="#448AFF"/>
<path d="M190.5 22L193.753 30.7924C194.26 32.161 195.339 33.2401 196.708 33.7465L205.5 37L196.708 40.2535C195.339 40.7599 194.26 41.839 193.753 43.2076L190.5 52L187.247 43.2076C186.74 41.839 185.661 40.7599 184.292 40.2535L175.5 37L184.292 33.7465C185.661 33.2401 186.74 32.161 187.247 30.7924L190.5 22Z" fill="white"/>
<path d="M46.5 86L49.7535 94.7924C50.2599 96.161 51.339 97.2401 52.7076 97.7465L61.5 101L52.7076 104.253C51.339 104.76 50.2599 105.839 49.7535 107.208L46.5 116L43.2465 107.208C42.7401 105.839 41.661 104.76 40.2924 104.253L31.5 101L40.2924 97.7465C41.661 97.2401 42.7401 96.161 43.2465 94.7924L46.5 86Z" fill="white"/>
<path d="M205.5 101L208.753 109.792C209.26 111.161 210.339 112.24 211.708 112.747L220.5 116L211.708 119.253C210.339 119.76 209.26 120.839 208.753 122.208L205.5 131L202.247 122.208C201.74 120.839 200.661 119.76 199.292 119.253L190.5 116L199.292 112.747C200.661 112.24 201.74 111.161 202.247 109.792L205.5 101Z" fill="#448AFF"/>
<defs>
<linearGradient id="paint0_linear" x1="117" y1="14.5" x2="117" y2="131.5" gradientUnits="userSpaceOnUse">
<stop stop-color="#5BB254"/>
<stop offset="1" stop-color="#27AE60"/>
</linearGradient>
</defs>
</svg>
