<svg width="24" height="24" viewBox="0 0 24 24" fill="none" xmlns="http://www.w3.org/2000/svg">
<path fill-rule="evenodd" clip-rule="evenodd" d="M12.5 21C8.2 21 3.87 18.11 1 12.5C3.9 6.87 8.17 4 12.5 4C16.78 4 21.04 6.86 24 12.5C21.1 18.18 16.78 21 12.5 21ZM12.5 7C11.4122 7 10.3488 7.32253 9.44434 7.92688C8.53987 8.53123 7.83498 9.39027 7.4187 10.3953C7.00242 11.4003 6.89349 12.5061 7.10571 13.573C7.31793 14.6399 7.84177 15.6198 8.61096 16.389C9.38015 17.1582 10.3601 17.6821 11.427 17.8943C12.4939 18.1065 13.5997 17.9976 14.6047 17.5813C15.6097 17.165 16.4688 16.4601 17.0731 15.5557C17.6775 14.6512 18 13.5878 18 12.5C18 11.0413 17.4205 9.64241 16.389 8.61096C15.3576 7.57951 13.9587 7 12.5 7ZM12.5 16C11.8078 16 11.1311 15.7947 10.5555 15.4102C9.97997 15.0256 9.53139 14.4789 9.26648 13.8394C9.00157 13.1998 8.93221 12.4961 9.06726 11.8171C9.20231 11.1382 9.53566 10.5146 10.0251 10.0251C10.5146 9.53566 11.1382 9.20231 11.8171 9.06726C12.4961 8.93221 13.1998 9.00157 13.8394 9.26648C14.4789 9.53139 15.0256 9.97997 15.4102 10.5555C15.7947 11.1311 16 11.8078 16 12.5C16 13.4283 15.6312 14.3185 14.9749 14.9749C14.3185 15.6312 13.4283 16 12.5 16Z" fill="black" fill-opacity="0.87"/>
</svg>
