<svg width="24" height="24" viewBox="0 0 24 24" fill="none" xmlns="http://www.w3.org/2000/svg">
<path fill-rule="evenodd" clip-rule="evenodd" d="M21.7071 20.2929L3.41422 2L1.70711 3.70711L4.06539 6.06539C2.54626 7.42834 1.16297 9.24224 0 11.5C2.87 17.11 7.2 20 11.5 20C13.2304 20 14.9674 19.539 16.6144 18.6144L20 22L21.7071 20.2929ZM14.2583 16.2583L12.7638 14.7638C12.3645 14.9185 11.9365 15 11.5 15C10.8078 15 10.1311 14.7947 9.55554 14.4102C8.97997 14.0256 8.53139 13.4789 8.26648 12.8394C8.00157 12.1998 7.93221 11.4961 8.06726 10.8171C8.10686 10.6181 8.16351 10.4237 8.23615 10.2362L6.7417 8.7417C6.62016 8.95138 6.51216 9.16964 6.4187 9.39526C6.00242 10.4003 5.89349 11.5061 6.10571 12.573C6.31793 13.6399 6.84177 14.6198 7.61096 15.389C8.38015 16.1582 9.36011 16.6821 10.427 16.8943C11.4939 17.1065 12.5997 16.9976 13.6047 16.5813C13.8304 16.4878 14.0486 16.3798 14.2583 16.2583Z" fill="black" fill-opacity="0.87"/>
<path d="M17 11.5C17 11.6604 16.993 11.8202 16.9791 11.9791L20.4185 15.4185C21.3608 14.3133 22.2304 13.0073 23 11.5C20.04 5.86 15.78 3 11.5 3C10.4824 3 9.46809 3.15851 8.47412 3.47412L11.0209 6.0209C11.1798 6.00701 11.3396 6 11.5 6C12.9587 6 14.3576 6.57951 15.389 7.61096C16.4205 8.64241 17 10.0413 17 11.5Z" fill="black" fill-opacity="0.87"/>
</svg>
