<svg width="171" height="24" viewBox="0 0 171 24" fill="none" xmlns="http://www.w3.org/2000/svg">
<path fill-rule="evenodd" clip-rule="evenodd" d="M0.498047 0.970345H10.8787C13.7658 0.970345 16.0042 1.77889 17.4964 3.26689C18.7615 4.52813 19.4428 6.30704 19.4428 8.44179V8.50675C19.4428 12.1618 17.464 14.4583 14.5768 15.5255L20.124 23.6119H14.2841L9.41812 16.3668H5.49293V23.6119H0.498047V0.970345ZM10.5543 11.9677C12.9873 11.9677 14.3822 10.6738 14.3822 8.76537V8.70083C14.3822 6.56607 12.89 5.4662 10.457 5.4662H5.49293V11.9677H10.5535H10.5543ZM22.2613 15.0406V14.976C22.2613 9.99434 26.2855 5.95158 31.7013 5.95158C37.0866 5.95158 41.0767 9.9298 41.0767 14.911V14.976C41.0767 19.9568 37.0526 24 31.6364 24C26.2526 24 22.2613 20.0214 22.2613 15.0406ZM36.2108 15.0406V14.976C36.2108 12.4204 34.3629 10.1888 31.6364 10.1888C28.8141 10.1888 27.1273 12.3559 27.1273 14.911V14.976C27.1273 17.5312 28.9751 19.7628 31.7013 19.7628C34.5251 19.7628 36.212 17.5957 36.212 15.0406H36.2108ZM49.5742 21.3476V23.6119H44.6447V0H49.5755V8.76537C50.1756 7.87979 50.9851 7.1588 51.931 6.66754C52.8769 6.17628 53.9294 5.93021 54.9933 5.95158C59.0479 5.95158 62.9082 9.12124 62.9082 14.911V14.976C62.9082 20.7658 59.1131 23.935 54.9933 23.935C53.9529 23.9573 52.9216 23.7351 51.9812 23.286C51.0408 22.8368 50.2172 22.1732 49.5755 21.3476H49.5742ZM57.9761 14.9752V14.9102C57.9761 12.0314 56.0301 10.123 53.7265 10.123C51.4229 10.123 49.5094 12.0314 49.5094 14.9102V14.9752C49.5094 17.8535 51.4233 19.7619 53.7265 19.7619C56.0297 19.7619 57.9773 17.8866 57.9773 14.976L57.9761 14.9752ZM65.6959 15.0397V14.9752C65.6959 9.99352 69.7201 5.95075 75.1363 5.95075C80.5208 5.95075 84.5113 9.92896 84.5113 14.9102V14.9752C84.5113 19.956 80.4872 23.9992 75.0714 23.9992C69.6864 24 65.6963 20.0214 65.6963 15.0406L65.6959 15.0397ZM79.645 15.0397V14.9752C79.645 12.4196 77.7971 10.188 75.0714 10.188C72.2487 10.188 70.5619 12.355 70.5619 14.9102V14.9752C70.5619 17.5303 72.4097 19.7619 75.1363 19.7619C77.9585 19.7628 79.6454 17.5957 79.6454 15.0406L79.645 15.0397ZM88.5966 0.970762H105.887V5.49848H93.5928V10.3179H104.428V14.8465H93.5928V23.6119H88.597V0.970345L88.5966 0.970762ZM108.027 15.0397V14.9752C108.027 9.99352 112.051 5.95075 117.467 5.95075C122.852 5.95075 126.842 9.92896 126.842 14.9102V14.9752C126.842 19.956 122.818 23.9992 117.402 23.9992C112.017 24 108.027 20.0214 108.027 15.0406L108.027 15.0397ZM121.976 15.0397V14.9752C121.976 12.4196 120.128 10.188 117.402 10.188C114.579 10.188 112.893 12.355 112.893 14.9102V14.9752C112.893 17.5303 114.741 19.7619 117.467 19.7619C120.289 19.7628 121.976 17.5957 121.976 15.0406L121.976 15.0397ZM130.408 6.27434H135.339V9.76883C136.344 7.37504 137.967 5.82248 140.886 5.952V11.093H140.626C137.35 11.093 135.339 13.0659 135.339 17.2063V23.6106H130.408V6.27269L130.408 6.27434ZM143.967 6.27434H148.899V8.73228C150.034 7.27697 151.527 5.95075 154.024 5.95075C156.295 5.95075 158.015 6.95338 158.923 8.7C160.448 6.92069 162.264 5.95075 164.631 5.95075C168.296 5.95075 170.503 8.15007 170.503 12.3232V23.6115H165.573V13.9407C165.573 11.6119 164.534 10.4152 162.685 10.4152C160.836 10.4152 159.701 11.6119 159.701 13.9407V23.6119H154.771V13.9407C154.771 11.6119 153.733 10.4152 151.884 10.4152C150.035 10.4152 148.899 11.6119 148.899 13.9407V23.6119H143.968V6.27393L143.967 6.27434Z" fill="white" fill-opacity="0.87"/>
</svg>
