<svg width="171" height="108" viewBox="0 0 171 108" fill="none" xmlns="http://www.w3.org/2000/svg">
<path fill-rule="evenodd" clip-rule="evenodd" d="M58 0C53.0294 0 49 4.04013 49 9.02387V43.1141C49 48.0978 53.0294 52.1379 58 52.1379H112C116.971 52.1379 121 48.0978 121 43.1141V9.02387C121 4.04013 116.971 0 112 0H58ZM56.4483 12.6207C56.4483 9.76405 58.731 7.44828 61.5468 7.44828H108.453C111.269 7.44828 113.552 9.76405 113.552 12.6207V39.5172C113.552 42.3739 111.269 44.6897 108.453 44.6897H61.5468C58.731 44.6897 56.4483 42.3739 56.4483 39.5172V12.6207Z" fill="url(#paint0_linear)"/>
<path d="M49 64C49 59.5817 52.3579 56 56.5 56H113.5C117.642 56 121 59.5817 121 64V64C121 68.4183 117.642 72 113.5 72H56.5C52.3579 72 49 68.4183 49 64V64Z" fill="url(#paint1_linear)"/>
<path d="M56.4478 12.6208C56.4478 9.76413 58.7304 7.44836 61.5463 7.44836H108.453C111.269 7.44836 113.551 9.76413 113.551 12.6208V39.5173C113.551 42.374 111.269 44.6897 108.453 44.6897H61.5463C58.7304 44.6897 56.4478 42.374 56.4478 39.5173V12.6208Z" fill="#EEEEEE"/>
<path d="M108.453 6.94836H61.5463C58.4475 6.94836 55.9478 9.4948 55.9478 12.6208V39.5173C55.9478 42.6433 58.4475 45.1897 61.5463 45.1897H108.453C111.551 45.1897 114.051 42.6433 114.051 39.5173V12.6208C114.051 9.4948 111.551 6.94836 108.453 6.94836Z" stroke="black" stroke-opacity="0.1"/>
<path d="M71.4976 33C75.6397 33 78.9976 29.6421 78.9976 25.5C78.9976 21.3579 75.6397 18 71.4976 18C67.3554 18 63.9976 21.3579 63.9976 25.5C63.9976 29.6421 67.3554 33 71.4976 33Z" fill="url(#paint2_linear)"/>
<path d="M97.4976 33C101.64 33 104.998 29.6421 104.998 25.5C104.998 21.3579 101.64 18 97.4976 18C93.3554 18 89.9975 21.3579 89.9975 25.5C89.9975 29.6421 93.3554 33 97.4976 33Z" fill="url(#paint3_linear)"/>
<path fill-rule="evenodd" clip-rule="evenodd" d="M0 84.9703H10.3807C13.2678 84.9703 15.5061 85.7789 16.9984 87.2669C18.2635 88.5281 18.9447 90.307 18.9447 92.4418V92.5068C18.9447 96.1618 16.9659 98.4583 14.0788 99.5255L19.626 107.612H13.786L8.92007 100.367H4.99488V107.612H0V84.9703ZM10.0563 95.9677C12.4892 95.9677 13.8842 94.6738 13.8842 92.7654V92.7008C13.8842 90.5661 12.3919 89.4662 9.95896 89.4662H4.99488V95.9677H10.0555H10.0563ZM21.7633 99.0405V98.976C21.7633 93.9943 25.7874 89.9516 31.2032 89.9516C36.5886 89.9516 40.5787 93.9298 40.5787 98.911V98.976C40.5787 103.957 36.5545 108 31.1383 108C25.7546 108 21.7633 104.021 21.7633 99.0405ZM35.7127 99.0405V98.976C35.7127 96.4204 33.8649 94.1888 31.1383 94.1888C28.3161 94.1888 26.6292 96.3559 26.6292 98.911V98.976C26.6292 101.531 28.4771 103.763 31.2032 103.763C34.0271 103.763 35.714 101.596 35.714 99.0405H35.7127ZM49.0762 105.348V107.612H44.1466V84H49.0774V92.7654C49.6775 91.8798 50.4871 91.1588 51.433 90.6675C52.3789 90.1763 53.4313 89.9302 54.4953 89.9516C58.5498 89.9516 62.4101 93.1212 62.4101 98.911V98.976C62.4101 104.766 58.6151 107.935 54.4953 107.935C53.4548 107.957 52.4236 107.735 51.4832 107.286C50.5428 106.837 49.7191 106.173 49.0774 105.348H49.0762ZM57.4781 98.9752V98.9102C57.4781 96.0314 55.5321 94.123 53.2285 94.123C50.9249 94.123 49.0113 96.0314 49.0113 98.9102V98.9752C49.0113 101.854 50.9253 103.762 53.2285 103.762C55.5317 103.762 57.4793 101.887 57.4793 98.976L57.4781 98.9752ZM65.1979 99.0397V98.9752C65.1979 93.9935 69.222 89.9508 74.6382 89.9508C80.0228 89.9508 84.0132 93.929 84.0132 98.9102V98.9752C84.0132 103.956 79.9891 107.999 74.5733 107.999C69.1884 108 65.1983 104.021 65.1983 99.0405L65.1979 99.0397ZM79.1469 99.0397V98.9752C79.1469 96.4196 77.2991 94.188 74.5733 94.188C71.7507 94.188 70.0638 96.355 70.0638 98.9102V98.9752C70.0638 101.53 71.9116 103.762 74.6382 103.762C77.4605 103.763 79.1473 101.596 79.1473 99.0405L79.1469 99.0397ZM88.0986 84.9708H105.389V89.4985H93.0947V94.3179H103.93V98.8465H93.0947V107.612H88.099V84.9703L88.0986 84.9708ZM107.529 99.0397V98.9752C107.529 93.9935 111.553 89.9508 116.969 89.9508C122.354 89.9508 126.344 93.929 126.344 98.9102V98.9752C126.344 103.956 122.32 107.999 116.904 107.999C111.519 108 107.529 104.021 107.529 99.0405L107.529 99.0397ZM121.478 99.0397V98.9752C121.478 96.4196 119.63 94.188 116.904 94.188C114.081 94.188 112.395 96.355 112.395 98.9102V98.9752C112.395 101.53 114.242 103.762 116.969 103.762C119.791 103.763 121.478 101.596 121.478 99.0405L121.478 99.0397ZM129.91 90.2743H134.841V93.7688C135.846 91.375 137.469 89.8225 140.388 89.952V95.093H140.128C136.852 95.093 134.841 97.0659 134.841 101.206V107.611H129.91V90.2727L129.91 90.2743ZM143.469 90.2743H148.401V92.7323C149.536 91.277 151.029 89.9508 153.526 89.9508C155.797 89.9508 157.516 90.9534 158.425 92.7C159.949 90.9207 161.766 89.9508 164.133 89.9508C167.798 89.9508 170.004 92.1501 170.004 96.3232V107.611H165.075V97.9407C165.075 95.6119 164.036 94.4152 162.187 94.4152C160.338 94.4152 159.203 95.6119 159.203 97.9407V107.612H154.273V97.9407C154.273 95.6119 153.235 94.4152 151.386 94.4152C149.537 94.4152 148.401 95.6119 148.401 97.9407V107.612H143.47V90.2739L143.469 90.2743Z" fill="black"/>
<defs>
<linearGradient id="paint0_linear" x1="85" y1="0" x2="85" y2="52.1379" gradientUnits="userSpaceOnUse">
<stop stop-color="#78EC6F"/>
<stop offset="0.0833333" stop-color="#53BE4C"/>
<stop offset="0.473958" stop-color="#5DB756"/>
<stop offset="1" stop-color="#44A83D"/>
</linearGradient>
<linearGradient id="paint1_linear" x1="85" y1="56" x2="85" y2="72" gradientUnits="userSpaceOnUse">
<stop offset="0.145833" stop-color="#5ECC56"/>
<stop offset="0.494792" stop-color="#4EAE47"/>
<stop offset="1" stop-color="#189506"/>
</linearGradient>
<linearGradient id="paint2_linear" x1="84.4976" y1="18" x2="84.4976" y2="33" gradientUnits="userSpaceOnUse">
<stop stop-color="#4F5254"/>
<stop offset="1" stop-color="#282A33"/>
</linearGradient>
<linearGradient id="paint3_linear" x1="84.4976" y1="18" x2="84.4976" y2="33" gradientUnits="userSpaceOnUse">
<stop stop-color="#4F5254"/>
<stop offset="1" stop-color="#282A33"/>
</linearGradient>
</defs>
</svg>
