<svg width="16" height="16" viewBox="0 0 16 16" fill="none" xmlns="http://www.w3.org/2000/svg">
<path fill-rule="evenodd" clip-rule="evenodd" d="M14 3C14 2.44772 13.5523 2 13 2H3C2.44772 2 2 2.44772 2 3V9C2 9.55228 2.44772 10 3 10H13C13.5523 10 14 9.55228 14 9V3ZM2 0C0.895431 0 0 0.895431 0 2V10C0 11.1046 0.895431 12 2 12H14C15.1046 12 16 11.1046 16 10V2C16 0.895431 15.1046 0 14 0H2Z" fill="url(#paint0_linear)"/>
<path d="M0 14.5C0 13.6716 0.746192 13 1.66667 13H14.3333C15.2538 13 16 13.6716 16 14.5V14.5C16 15.3284 15.2538 16 14.3333 16H1.66667C0.746192 16 0 15.3284 0 14.5V14.5Z" fill="url(#paint1_linear)"/>
<path d="M2 3C2 2.44772 2.44772 2 3 2H13C13.5523 2 14 2.44772 14 3V9C14 9.55228 13.5523 10 13 10H3C2.44772 10 2 9.55228 2 9V3Z" fill="#EEEEEE"/>
<path d="M13 1.5H3C2.17157 1.5 1.5 2.17157 1.5 3V9C1.5 9.82843 2.17157 10.5 3 10.5H13C13.8284 10.5 14.5 9.82843 14.5 9V3C14.5 2.17157 13.8284 1.5 13 1.5Z" stroke="black" stroke-opacity="0.1"/>
<path d="M4.99935 7.33333C5.91982 7.33333 6.66602 6.58714 6.66602 5.66667C6.66602 4.74619 5.91982 4 4.99935 4C4.07888 4 3.33268 4.74619 3.33268 5.66667C3.33268 6.58714 4.07888 7.33333 4.99935 7.33333Z" fill="url(#paint2_linear)"/>
<path d="M10.7771 7.33333C11.6976 7.33333 12.4438 6.58714 12.4438 5.66667C12.4438 4.74619 11.6976 4 10.7771 4C9.85665 4 9.11046 4.74619 9.11046 5.66667C9.11046 6.58714 9.85665 7.33333 10.7771 7.33333Z" fill="url(#paint3_linear)"/>
<defs>
<linearGradient id="paint0_linear" x1="8" y1="0" x2="8" y2="12" gradientUnits="userSpaceOnUse">
<stop stop-color="#78EC6F"/>
<stop offset="0.0833333" stop-color="#53BE4C"/>
<stop offset="0.473958" stop-color="#5DB756"/>
<stop offset="1" stop-color="#44A83D"/>
</linearGradient>
<linearGradient id="paint1_linear" x1="8" y1="13" x2="8" y2="16" gradientUnits="userSpaceOnUse">
<stop offset="0.145833" stop-color="#5ECC56"/>
<stop offset="0.494792" stop-color="#4EAE47"/>
<stop offset="1" stop-color="#189506"/>
</linearGradient>
<linearGradient id="paint2_linear" x1="7.88824" y1="4" x2="7.88824" y2="7.33333" gradientUnits="userSpaceOnUse">
<stop stop-color="#4F5254"/>
<stop offset="1" stop-color="#282A33"/>
</linearGradient>
<linearGradient id="paint3_linear" x1="7.88824" y1="4" x2="7.88824" y2="7.33333" gradientUnits="userSpaceOnUse">
<stop stop-color="#4F5254"/>
<stop offset="1" stop-color="#282A33"/>
</linearGradient>
</defs>
</svg>
