<svg width="171" height="24" viewBox="0 0 171 24" fill="none" xmlns="http://www.w3.org/2000/svg">
<path fill-rule="evenodd" clip-rule="evenodd" d="M0 0.970345H10.3807C13.2678 0.970345 15.5061 1.77889 16.9984 3.26689C18.2635 4.52813 18.9447 6.30704 18.9447 8.44179V8.50675C18.9447 12.1618 16.9659 14.4583 14.0788 15.5255L19.626 23.6119H13.786L8.92007 16.3668H4.99488V23.6119H0V0.970345ZM10.0563 11.9677C12.4892 11.9677 13.8842 10.6738 13.8842 8.76537V8.70083C13.8842 6.56607 12.3919 5.4662 9.95896 5.4662H4.99488V11.9677H10.0555H10.0563ZM21.7633 15.0406V14.976C21.7633 9.99434 25.7874 5.95158 31.2032 5.95158C36.5886 5.95158 40.5787 9.9298 40.5787 14.911V14.976C40.5787 19.9568 36.5545 24 31.1383 24C25.7546 24 21.7633 20.0214 21.7633 15.0406ZM35.7127 15.0406V14.976C35.7127 12.4204 33.8649 10.1888 31.1383 10.1888C28.3161 10.1888 26.6292 12.3559 26.6292 14.911V14.976C26.6292 17.5312 28.4771 19.7628 31.2032 19.7628C34.0271 19.7628 35.714 17.5957 35.714 15.0406H35.7127ZM49.0762 21.3476V23.6119H44.1466V0H49.0774V8.76537C49.6775 7.87979 50.4871 7.1588 51.433 6.66754C52.3789 6.17628 53.4313 5.93021 54.4953 5.95158C58.5498 5.95158 62.4101 9.12124 62.4101 14.911V14.976C62.4101 20.7658 58.6151 23.935 54.4953 23.935C53.4548 23.9573 52.4236 23.7351 51.4832 23.286C50.5428 22.8368 49.7191 22.1732 49.0774 21.3476H49.0762ZM57.4781 14.9752V14.9102C57.4781 12.0314 55.5321 10.123 53.2285 10.123C50.9249 10.123 49.0113 12.0314 49.0113 14.9102V14.9752C49.0113 17.8535 50.9253 19.7619 53.2285 19.7619C55.5317 19.7619 57.4793 17.8866 57.4793 14.976L57.4781 14.9752ZM65.1979 15.0397V14.9752C65.1979 9.99352 69.222 5.95075 74.6382 5.95075C80.0228 5.95075 84.0133 9.92896 84.0133 14.9102V14.9752C84.0133 19.956 79.9891 23.9992 74.5733 23.9992C69.1884 24 65.1983 20.0214 65.1983 15.0406L65.1979 15.0397ZM79.1469 15.0397V14.9752C79.1469 12.4196 77.2991 10.188 74.5733 10.188C71.7507 10.188 70.0638 12.355 70.0638 14.9102V14.9752C70.0638 17.5303 71.9116 19.7619 74.6382 19.7619C77.4605 19.7628 79.1473 17.5957 79.1473 15.0406L79.1469 15.0397ZM88.0986 0.970762H105.389V5.49848H93.0947V10.3179H103.93V14.8465H93.0947V23.6119H88.099V0.970345L88.0986 0.970762ZM107.529 15.0397V14.9752C107.529 9.99352 111.553 5.95075 116.969 5.95075C122.354 5.95075 126.344 9.92896 126.344 14.9102V14.9752C126.344 19.956 122.32 23.9992 116.904 23.9992C111.519 24 107.529 20.0214 107.529 15.0406L107.529 15.0397ZM121.478 15.0397V14.9752C121.478 12.4196 119.63 10.188 116.904 10.188C114.081 10.188 112.395 12.355 112.395 14.9102V14.9752C112.395 17.5303 114.242 19.7619 116.969 19.7619C119.791 19.7628 121.478 17.5957 121.478 15.0406L121.478 15.0397ZM129.91 6.27434H134.841V9.76883C135.846 7.37504 137.469 5.82248 140.388 5.952V11.093H140.128C136.852 11.093 134.841 13.0659 134.841 17.2063V23.6106H129.91V6.27269L129.91 6.27434ZM143.469 6.27434H148.401V8.73228C149.536 7.27697 151.029 5.95075 153.526 5.95075C155.797 5.95075 157.516 6.95338 158.425 8.7C159.949 6.92069 161.766 5.95075 164.133 5.95075C167.798 5.95075 170.005 8.15007 170.005 12.3232V23.6115H165.075V13.9407C165.075 11.6119 164.036 10.4152 162.187 10.4152C160.338 10.4152 159.203 11.6119 159.203 13.9407V23.6119H154.273V13.9407C154.273 11.6119 153.235 10.4152 151.386 10.4152C149.537 10.4152 148.401 11.6119 148.401 13.9407V23.6119H143.47V6.27393L143.469 6.27434Z" fill="black"/>
</svg>
