<svg width="20" height="20" viewBox="0 0 20 20" fill="none" xmlns="http://www.w3.org/2000/svg">
<circle cx="10" cy="10" r="8" stroke="white" stroke-width="2"/>
<path d="M11.1462 12.0914C11.1475 11.8056 11.0748 11.5810 10.9278 11.4176C10.7809 11.2541 10.5222 11.0991 10.1516 10.9526C9.7811 10.8061 9.43896 10.658 9.12526 10.5081C8.81156 10.3583 8.54156 10.1852 8.31523 9.9888C8.08886 9.79239 7.91573 9.5655 7.79576 9.3081C7.6758 9.0507 7.61670 8.73936 7.61846 8.37406C7.62146 7.76283 7.83983 7.26113 8.27363 6.86903C8.70743 6.47326 9.28436 6.24459 10.0044 6.18303L10.0100 5.03830L10.9135 5.0427L10.9078 6.20913C11.6006 6.31016 12.1429 6.5859 12.5347 7.0363C12.9303 7.48313 13.1263 8.05013 13.1230 8.73733L11.2023 8.72793C11.2042 8.35179 11.1299 8.06206 10.9793 7.8588C10.8288 7.6555 10.6133 7.5532 10.3330 7.55183C10.0830 7.5506 9.88756 7.62559 9.74663 7.77683C9.60953 7.92443 9.54036 8.13026 9.53906 8.3943C9.53776 8.66193 9.61626 8.87573 9.7746 9.03563C9.93293 9.19193 10.1879 9.34330 10.5395 9.48970C10.8911 9.63246 11.2218 9.78236 11.5317 9.93940C11.8454 10.0928 12.1154 10.2677 12.3418 10.4642C12.5681 10.6606 12.7450 10.8893 12.8726 11.1504C13.0001 11.4114 13.063 11.7246 13.0612 12.0899C13.0582 12.7083 12.8492 13.2119 12.4344 13.6004C12.0234 13.9891 11.4635 14.2142 10.7548 14.2759L10.7494 15.3663L9.846 15.3619L9.85133 14.2660C9.0259 14.1788 8.3927 13.9063 7.9517 13.4484C7.51450 12.9869 7.29773 12.3818 7.3014 11.6331L9.21633 11.6425C9.21433 12.0548 9.3075 12.3699 9.49586 12.5879C9.688 12.8022 9.96023 12.9102 10.3125 12.9119C10.5701 12.9132 10.7731 12.8419 10.9216 12.6979C11.0700 12.5503 11.1449 12.3482 11.1462 12.0914Z" fill="white"/>
</svg>
