<svg width="20" height="20" viewBox="0 0 20 20" fill="none" xmlns="http://www.w3.org/2000/svg">
<path fill-rule="evenodd" clip-rule="evenodd" d="M9.091 16.9415V15.4C8.101 15.4 7.291 14.59 7.291 13.6V12.7L3.14874 8.55774C3.05125 9.02317 3 9.5056 3 10C3 13.5579 5.65445 16.4959 9.091 16.9415ZM15.2237 14.6598C16.3285 13.4222 17 11.7895 17 10C17 7.08755 15.2213 4.59053 12.691 3.53594V3.7C12.691 4.69 11.881 5.5 10.891 5.5H9.091V7.3C9.091 7.795 8.686 8.2 8.191 8.2H6.391V10H11.791C12.286 10 12.691 10.405 12.691 10.9V13.6H13.591C14.3248 13.6 14.9404 14.0358 15.2237 14.6598ZM19 10C19 14.9706 14.9706 19 10 19C5.02944 19 1 14.9706 1 10C1 5.02944 5.02944 1 10 1C14.9706 1 19 5.02944 19 10Z" fill="white"/>
</svg>
