<svg width="20" height="20" viewBox="0 0 20 20" fill="none" xmlns="http://www.w3.org/2000/svg">
<path fill-rule="evenodd" clip-rule="evenodd" d="M4 4H5V6V8H9H11H13V6V4H13.1716L16 6.82843V16H4V4ZM4 2H5H9H11H13H14L18 6V16C18 17.1 17.1 18 16 18H4C2.89 18 2 17.1 2 16V4C2 2.9 2.89 2 4 2ZM9 6V4H11V6H9ZM11 12C11 12.5523 10.5523 13 10 13C9.44772 13 9 12.5523 9 12C9 11.4477 9.44772 11 10 11C10.5523 11 11 11.4477 11 12ZM13 12C13 13.6569 11.6569 15 10 15C8.34315 15 7 13.6569 7 12C7 10.3431 8.34315 9 10 9C11.6569 9 13 10.3431 13 12Z" fill="white"/>
</svg>
