<svg width="20" height="20" viewBox="0 0 20 20" fill="none" xmlns="http://www.w3.org/2000/svg">
<path d="M16.1917 10.8167C16.225 10.55 16.25 10.2833 16.25 10C16.25 9.71667 16.225 9.45001 16.1917 9.18334L17.95 7.80834C18.1084 7.68334 18.15 7.45834 18.05 7.275L16.3834 4.39167C16.3084 4.25834 16.1667 4.18334 16.0167 4.18334C15.9667 4.18334 15.9167 4.19167 15.875 4.20834L13.8 5.04167C13.3667 4.70834 12.9 4.43334 12.3917 4.22501L12.075 2.01667C12.05 1.81667 11.875 1.66667 11.6667 1.66667H8.33335C8.12502 1.66667 7.95002 1.81667 7.92502 2.01667L7.60835 4.22501C7.10002 4.43334 6.63335 4.71667 6.20002 5.04167L4.12502 4.20834C4.07502 4.19167 4.02502 4.18334 3.97502 4.18334C3.83335 4.18334 3.69169 4.25834 3.61669 4.39167L1.95002 7.275C1.84169 7.45834 1.89169 7.68334 2.05002 7.80834L3.80835 9.18334C3.77502 9.45001 3.75002 9.72501 3.75002 10C3.75002 10.275 3.77502 10.55 3.80835 10.8167L2.05002 12.1917C1.89169 12.3167 1.85002 12.5417 1.95002 12.725L3.61669 15.6083C3.69169 15.7417 3.83335 15.8167 3.98335 15.8167C4.03335 15.8167 4.08335 15.8083 4.12502 15.7917L6.20002 14.9583C6.63335 15.2917 7.10002 15.5667 7.60835 15.775L7.92502 17.9833C7.95002 18.1833 8.12502 18.3333 8.33335 18.3333H11.6667C11.875 18.3333 12.05 18.1833 12.075 17.9833L12.3917 15.775C12.9 15.5667 13.3667 15.2833 13.8 14.9583L15.875 15.7917C15.925 15.8083 15.975 15.8167 16.025 15.8167C16.1667 15.8167 16.3084 15.7417 16.3834 15.6083L18.05 12.725C18.15 12.5417 18.1084 12.3167 17.95 12.1917L16.1917 10.8167ZM14.5417 9.39167C14.575 9.65001 14.5834 9.82501 14.5834 10C14.5834 10.175 14.5667 10.3583 14.5417 10.6083L14.425 11.55L15.1667 12.1333L16.0667 12.8333L15.4834 13.8417L14.425 13.4167L13.5584 13.0667L12.8084 13.6333C12.45 13.9 12.1084 14.1 11.7667 14.2417L10.8834 14.6L10.75 15.5417L10.5834 16.6667H9.41669L9.25835 15.5417L9.12502 14.6L8.24169 14.2417C7.88335 14.0917 7.55002 13.9 7.21669 13.65L6.45835 13.0667L5.57502 13.425L4.51669 13.85L3.93335 12.8417L4.83335 12.1417L5.57502 11.5583L5.45835 10.6167C5.43335 10.3583 5.41669 10.1667 5.41669 10C5.41669 9.83334 5.43335 9.64167 5.45835 9.39167L5.57502 8.45001L4.83335 7.86667L3.93335 7.16667L4.51669 6.15834L5.57502 6.58334L6.44169 6.93334L7.19169 6.36667C7.55002 6.10001 7.89169 5.90001 8.23335 5.75834L9.11669 5.40001L9.25002 4.45834L9.41669 3.33334H10.575L10.7334 4.45834L10.8667 5.40001L11.75 5.75834C12.1084 5.90834 12.4417 6.10001 12.775 6.35001L13.5334 6.93334L14.4167 6.57501L15.475 6.15001L16.0584 7.15834L15.1667 7.86667L14.425 8.45001L14.5417 9.39167ZM10 6.66667C8.15835 6.66667 6.66669 8.15834 6.66669 10C6.66669 11.8417 8.15835 13.3333 10 13.3333C11.8417 13.3333 13.3334 11.8417 13.3334 10C13.3334 8.15834 11.8417 6.66667 10 6.66667ZM10 11.6667C9.08335 11.6667 8.33335 10.9167 8.33335 10C8.33335 9.08334 9.08335 8.33334 10 8.33334C10.9167 8.33334 11.6667 9.08334 11.6667 10C11.6667 10.9167 10.9167 11.6667 10 11.6667Z" fill="black" fill-opacity="0.87"/>
</svg>
