<svg width="20" height="20" viewBox="0 0 20 20" fill="none" xmlns="http://www.w3.org/2000/svg">
<circle cx="10" cy="10" r="9" fill="white"/>
<path fill-rule="evenodd" clip-rule="evenodd" d="M10 17C13.866 17 17 13.866 17 10C17 6.13401 13.866 3 10 3C6.13401 3 3 6.13401 3 10C3 13.866 6.13401 17 10 17ZM10 19C14.9706 19 19 14.9706 19 10C19 5.02944 14.9706 1 10 1C5.02944 1 1 5.02944 1 10C1 14.9706 5.02944 19 10 19Z" fill="#7E8C99"/>
<path fill-rule="evenodd" clip-rule="evenodd" d="M11.2155 5.36868C10.8558 5.12831 10.4328 5 10.0001 5C9.41993 5 8.86354 5.23045 8.45331 5.64072C8.04306 6.05096 7.81258 6.60739 7.81258 7.18756C7.81258 7.62022 7.94087 8.04318 8.18124 8.40292C8.42161 8.76267 8.76329 9.04298 9.16299 9.20855C9.56275 9.37412 10.0026 9.4175 10.4269 9.33312C10.8513 9.24868 11.241 9.04036 11.547 8.7344C11.8529 8.42847 12.0613 8.03872 12.1456 7.61436C12.2301 7.19002 12.1868 6.75012 12.0212 6.3504C11.8556 5.95067 11.5752 5.60905 11.2155 5.36868ZM10.0001 15.0003C9.13372 15.0003 8.28083 14.7961 7.51745 14.4059C6.75407 14.0157 6.10391 13.4517 5.625 12.7641C5.64686 11.3821 8.54176 10.6251 10.0001 10.6251C11.4585 10.6251 14.3534 11.3821 14.3752 12.7641C13.8963 13.4517 13.2461 14.0157 12.4828 14.4059C11.7194 14.7961 10.8665 15.0003 10.0001 15.0003Z" fill="#2979FF"/>
</svg>
