<svg width="20" height="20" viewBox="0 0 20 20" fill="none" xmlns="http://www.w3.org/2000/svg">
<path fill-rule="evenodd" clip-rule="evenodd" d="M1 5.5C1 3.567 2.567 2 4.5 2H14.5C16.433 2 18 3.567 18 5.5C18 7.433 16.433 9 14.5 9H4.5C2.567 9 1 7.433 1 5.5ZM1 14.5C1 12.567 2.567 11 4.5 11H14.5C16.433 11 18 12.567 18 14.5C18 16.433 16.433 18 14.5 18H4.5C2.567 18 1 16.433 1 14.5ZM4.5 7C5.32843 7 6 6.32843 6 5.5C6 4.67157 5.32843 4 4.5 4C3.67157 4 3 4.67157 3 5.5C3 6.32843 3.67157 7 4.5 7ZM4.5 16C5.32843 16 6 15.3284 6 14.5C6 13.6716 5.32843 13 4.5 13C3.67157 13 3 13.6716 3 14.5C3 15.3284 3.67157 16 4.5 16ZM11 5.5C11 6.32843 10.3284 7 9.5 7C8.67157 7 8 6.32843 8 5.5C8 4.67157 8.67157 4 9.5 4C10.3284 4 11 4.67157 11 5.5ZM9.5 16C10.3284 16 11 15.3284 11 14.5C11 13.6716 10.3284 13 9.5 13C8.67157 13 8 13.6716 8 14.5C8 15.3284 8.67157 16 9.5 16ZM16 5.5C16 6.32843 15.3284 7 14.5 7C13.6716 7 13 6.32843 13 5.5C13 4.67157 13.6716 4 14.5 4C15.3284 4 16 4.67157 16 5.5Z" fill="white"/>
</svg>
