<svg width="20" height="20" viewBox="0 0 20 20" fill="none" xmlns="http://www.w3.org/2000/svg">
<mask id="path-1-inside-1" fill="white">
<path fill-rule="evenodd" clip-rule="evenodd" d="M8.28074 1C7.82187 1 7.42189 1.3123 7.3106 1.75746L6.8106 3.75746L6.8079 3.76852C6.59902 3.87573 6.39624 3.99313 6.2002 4.12008L6.18825 4.11658L4.20619 3.54959C3.76502 3.42339 3.29457 3.61363 3.06514 4.01103L1.34592 6.98881C1.11648 7.3862 1.18695 7.88874 1.51683 8.20771L2.99888 9.64072L3.00856 9.64996C3.00285 9.76592 2.99996 9.88262 2.99996 10C2.99996 10.1174 3.00285 10.2341 3.00856 10.35L2.99888 10.3593L1.51683 11.7923C1.18695 12.1113 1.11648 12.6138 1.34592 13.0112L3.06514 15.989C3.29457 16.3864 3.76502 16.5766 4.20619 16.4504L6.18825 15.8834L6.2002 15.8799C6.39624 16.0069 6.59902 16.1243 6.8079 16.2315L6.8106 16.2425L7.3106 18.2425C7.42189 18.6877 7.82187 19 8.28074 19H11.7192C12.1781 19 12.578 18.6877 12.6893 18.2425L13.1893 16.2425L13.192 16.2315C13.401 16.1242 13.6038 16.0068 13.7999 15.8798L13.8117 15.8833L15.7937 16.4502C16.2349 16.5764 16.7053 16.3862 16.9348 15.9888L18.654 13.011C18.8834 12.6136 18.813 12.1111 18.4831 11.7921L17.001 10.3591L16.9914 10.3499C16.9971 10.234 17 10.1173 17 10C17 9.88268 16.9971 9.76602 16.9914 9.65012L17.001 9.64089L18.4831 8.20787C18.813 7.88891 18.8834 7.38637 18.654 6.98897L16.9348 4.01119C16.7053 3.6138 16.2349 3.42355 15.7937 3.54976L13.8117 4.11674L13.7999 4.12019C13.6038 3.9932 13.401 3.87576 13.192 3.76852L13.1893 3.75746L12.6893 1.75746C12.578 1.3123 12.1781 1 11.7192 1H8.28074ZM10 11C10.5523 11 11 10.5523 11 10C11 9.44771 10.5523 9 10 9C9.44771 9 9 9.44771 9 10C9 10.5523 9.44771 11 10 11Z"/>
</mask>
<path d="M7.3106 1.75746L9.25088 2.24254V2.24253L7.3106 1.75746ZM6.8106 3.75746L4.87028 3.27239L4.86768 3.28304L6.8106 3.75746ZM6.8079 3.76852L7.72118 5.54782L8.53407 5.13058L8.75081 4.24294L6.8079 3.76852ZM6.2002 4.12008L5.63861 6.03961L6.51811 6.29692L7.28729 5.79883L6.2002 4.12008ZM6.18825 4.11658L6.74985 2.19701L6.7383 2.19371L6.18825 4.11658ZM4.20619 3.54959L4.75625 1.62672L4.75625 1.62672L4.20619 3.54959ZM3.06514 4.01103L1.33309 3.01103L1.33309 3.01103L3.06514 4.01103ZM1.34592 6.98881L-0.386135 5.98881L-0.386135 5.98881L1.34592 6.98881ZM1.51683 8.20771L2.90706 6.76991H2.90705L1.51683 8.20771ZM2.99888 9.64072L1.60862 11.0786L1.618 11.0875L2.99888 9.64072ZM3.00856 9.64996L5.00614 9.74834L5.05113 8.83474L4.38945 8.20319L3.00856 9.64996ZM3.00856 10.35L4.38891 11.7973L5.05116 11.1657L5.00614 10.2517L3.00856 10.35ZM2.99888 10.3593L1.6185 8.91195L1.60865 8.92148L2.99888 10.3593ZM1.51683 11.7923L2.90705 13.2301H2.90705L1.51683 11.7923ZM1.34592 13.0112L3.07797 12.0112L3.07797 12.0112L1.34592 13.0112ZM3.06514 15.989L4.79719 14.989L3.06514 15.989ZM4.20619 16.4504L4.75625 18.3733L4.75625 18.3733L4.20619 16.4504ZM6.18825 15.8834L6.73831 17.8063L6.74991 17.8029L6.18825 15.8834ZM6.2002 15.8799L7.2873 14.2012L6.51808 13.7031L5.63854 13.9604L6.2002 15.8799ZM6.8079 16.2315L8.75082 15.7571L8.53407 14.8694L7.72118 14.4522L6.8079 16.2315ZM6.8106 16.2425L4.86765 16.717L4.87031 16.7276L6.8106 16.2425ZM7.3106 18.2425L5.37031 18.7276L7.3106 18.2425ZM12.6893 18.2425L14.6296 18.7276V18.7276L12.6893 18.2425ZM13.1893 16.2425L15.1296 16.7276L15.1323 16.7169L13.1893 16.2425ZM13.192 16.2315L12.2788 14.4522L11.4658 14.8694L11.2491 15.7571L13.192 16.2315ZM13.7999 15.8798L14.3614 13.9602L13.4819 13.703L12.7128 14.2011L13.7999 15.8798ZM13.8117 15.8833L13.2502 17.8029L13.2616 17.8061L13.8117 15.8833ZM15.7937 16.4502L16.3438 14.5274L16.3438 14.5274L15.7937 16.4502ZM16.9348 15.9888L18.6668 16.9888L18.6668 16.9888L16.9348 15.9888ZM18.654 13.011L20.3861 14.011V14.011L18.654 13.011ZM18.4831 11.7921L19.8733 10.3543V10.3543L18.4831 11.7921ZM17.001 10.3591L18.3913 8.92128L18.3815 8.91191L17.001 10.3591ZM16.9914 10.3499L14.9938 10.2516L14.9488 11.1655L15.6109 11.7971L16.9914 10.3499ZM16.9914 9.65012L15.6109 8.20291L14.9488 8.8345L14.9938 9.74845L16.9914 9.65012ZM17.001 9.64089L18.3815 11.0881L18.3913 11.0787L17.001 9.64089ZM18.4831 8.20787L19.8733 9.64568V9.64567L18.4831 8.20787ZM18.654 6.98897L20.3861 5.98898V5.98898L18.654 6.98897ZM16.9348 4.01119L18.6668 3.01119L18.6668 3.01119L16.9348 4.01119ZM15.7937 3.54976L16.3438 5.47263L16.3438 5.47263L15.7937 3.54976ZM13.8117 4.11674L13.2616 2.19384L13.2503 2.19716L13.8117 4.11674ZM13.7999 4.12019L12.7128 5.79892L13.4819 6.29699L14.3613 6.03977L13.7999 4.12019ZM13.192 3.76852L11.2491 4.24288L11.4658 5.13056L12.2787 5.54782L13.192 3.76852ZM13.1893 3.75746L15.1323 3.2831L15.1296 3.27239L13.1893 3.75746ZM12.6893 1.75746L14.6296 1.27239V1.27239L12.6893 1.75746ZM9.25088 2.24253C9.13959 2.6877 8.7396 3 8.28074 3V-1C6.90414 -1 5.70419 -0.0631102 5.37031 1.27239L9.25088 2.24253ZM8.75088 4.24254L9.25088 2.24254L5.37031 1.27239L4.87031 3.27239L8.75088 4.24254ZM8.75081 4.24294L8.75351 4.23189L4.86768 3.28304L4.86498 3.29409L8.75081 4.24294ZM7.28729 5.79883C7.42739 5.70812 7.57217 5.6243 7.72118 5.54782L5.89462 1.98921C5.62587 2.12716 5.36509 2.27815 5.11311 2.44132L7.28729 5.79883ZM5.62665 6.03611L5.63861 6.03961L6.7618 2.20054L6.74984 2.19704L5.62665 6.03611ZM3.65614 5.47246L5.63819 6.03945L6.7383 2.19371L4.75625 1.62672L3.65614 5.47246ZM4.79719 5.01103C4.56776 5.40842 4.09731 5.59866 3.65614 5.47246L4.75625 1.62672C3.43274 1.24811 2.02139 1.81885 1.33309 3.01103L4.79719 5.01103ZM3.07797 7.98881L4.79719 5.01103L1.33309 3.01103L-0.386135 5.98881L3.07797 7.98881ZM2.90705 6.76991C3.23694 7.08887 3.3074 7.59142 3.07797 7.98881L-0.386135 5.98881C-1.07444 7.18098 -0.863039 8.68861 0.126602 9.64551L2.90705 6.76991ZM4.38911 8.20292L2.90706 6.76991L0.126602 9.64551L1.60865 11.0785L4.38911 8.20292ZM4.38945 8.20319L4.37976 8.19395L1.618 11.0875L1.62768 11.0967L4.38945 8.20319ZM4.99996 10C4.99996 9.91545 5.00204 9.83155 5.00614 9.74834L1.01098 9.55159C1.00366 9.7003 0.999962 9.8498 0.999962 10H4.99996ZM5.00614 10.2517C5.00204 10.1685 4.99996 10.0846 4.99996 10H0.999962C0.999962 10.1502 1.00366 10.2997 1.01098 10.4484L5.00614 10.2517ZM4.37922 11.8066L4.38891 11.7973L1.62822 8.90275L1.61854 8.91199L4.37922 11.8066ZM2.90705 13.2301L4.38911 11.7971L1.60865 8.92148L0.126602 10.3545L2.90705 13.2301ZM3.07797 12.0112C3.3074 12.4086 3.23694 12.9111 2.90705 13.2301L0.126602 10.3545C-0.863039 11.3114 -1.07444 12.819 -0.386134 14.0112L3.07797 12.0112ZM4.79719 14.989L3.07797 12.0112L-0.386135 14.0112L1.33309 16.989L4.79719 14.989ZM3.65614 14.5275C4.09731 14.4013 4.56776 14.5916 4.79719 14.989L1.33309 16.989C2.02139 18.1811 3.43274 18.7519 4.75625 18.3733L3.65614 14.5275ZM5.63819 13.9606L3.65614 14.5275L4.75625 18.3733L6.7383 17.8063L5.63819 13.9606ZM5.63854 13.9604L5.62658 13.9639L6.74991 17.8029L6.76187 17.7994L5.63854 13.9604ZM7.72118 14.4522C7.57218 14.3757 7.42739 14.2919 7.2873 14.2012L5.11311 17.5587C5.36509 17.7219 5.62586 17.8728 5.89462 18.0108L7.72118 14.4522ZM8.75351 15.7681L8.75082 15.7571L4.86498 16.7059L4.86768 16.7169L8.75351 15.7681ZM9.25088 17.7575L8.75088 15.7575L4.87031 16.7276L5.37031 18.7276L9.25088 17.7575ZM8.28074 17C8.7396 17 9.13959 17.3123 9.25088 17.7575L5.37031 18.7276C5.70419 20.0631 6.90414 21 8.28074 21V17ZM11.7192 17H8.28074V21H11.7192V17ZM10.749 17.7575C10.8603 17.3123 11.2603 17 11.7192 17V21C13.0958 21 14.2957 20.0631 14.6296 18.7276L10.749 17.7575ZM11.249 15.7575L10.749 17.7575L14.6296 18.7276L15.1296 16.7276L11.249 15.7575ZM11.2491 15.7571L11.2464 15.7682L15.1323 16.7169L15.135 16.7059L11.2491 15.7571ZM12.7128 14.2011C12.5726 14.2918 12.4278 14.3757 12.2788 14.4522L14.1053 18.0108C14.3741 17.8728 14.635 17.7218 14.887 17.5585L12.7128 14.2011ZM14.3732 13.9637L14.3614 13.9602L13.2384 17.7994L13.2502 17.8028L14.3732 13.9637ZM16.3438 14.5274L14.3617 13.9604L13.2616 17.8061L15.2437 18.3731L16.3438 14.5274ZM15.2027 14.9888C15.4322 14.5914 15.9026 14.4012 16.3438 14.5274L15.2437 18.3731C16.5672 18.7517 17.9785 18.181 18.6668 16.9888L15.2027 14.9888ZM16.922 12.011L15.2027 14.9888L18.6668 16.9888L20.3861 14.011L16.922 12.011ZM17.0929 13.2299C16.763 12.911 16.6925 12.4084 16.922 12.011L20.3861 14.011C21.0744 12.8189 20.863 11.3112 19.8733 10.3543L17.0929 13.2299ZM15.6108 11.7969L17.0929 13.2299L19.8733 10.3543L18.3913 8.92131L15.6108 11.7969ZM15.6109 11.7971L15.6206 11.8063L18.3815 8.91191L18.3718 8.90268L15.6109 11.7971ZM15 10C15 10.0845 14.9979 10.1684 14.9938 10.2516L18.989 10.4482C18.9963 10.2996 19 10.1501 19 10H15ZM14.9938 9.74845C14.9979 9.83161 15 9.91548 15 10H19C19 9.84987 18.9963 9.70044 18.989 9.55178L14.9938 9.74845ZM15.6206 8.19368L15.6109 8.20291L18.3718 11.0973L18.3815 11.0881L15.6206 8.19368ZM17.0929 6.77007L15.6108 8.20309L18.3913 11.0787L19.8733 9.64568L17.0929 6.77007ZM16.922 7.98897C16.6925 7.59158 16.763 7.08904 17.0929 6.77007L19.8733 9.64567C20.863 8.68878 21.0744 7.18115 20.3861 5.98898L16.922 7.98897ZM15.2027 5.01119L16.922 7.98897L20.3861 5.98898L18.6668 3.01119L15.2027 5.01119ZM16.3438 5.47263C15.9026 5.59883 15.4322 5.40858 15.2027 5.01119L18.6668 3.01119C17.9785 1.81902 16.5672 1.24828 15.2437 1.62688L16.3438 5.47263ZM14.3617 6.03961L16.3438 5.47263L15.2437 1.62688L13.2616 2.19387L14.3617 6.03961ZM14.3613 6.03977L14.3731 6.03633L13.2503 2.19716L13.2385 2.20061L14.3613 6.03977ZM12.2787 5.54782C12.4278 5.62432 12.5726 5.70817 12.7128 5.79892L14.887 2.44146C14.635 2.27824 14.3741 2.1272 14.1053 1.98921L12.2787 5.54782ZM11.2464 4.23183L11.2491 4.24288L15.135 3.29415L15.1323 3.2831L11.2464 4.23183ZM10.749 2.24254L11.249 4.24254L15.1296 3.27239L14.6296 1.27239L10.749 2.24254ZM11.7192 3C11.2603 3 10.8603 2.6877 10.749 2.24254L14.6296 1.27239C14.2957 -0.063108 13.0958 -1 11.7192 -1V3ZM8.28074 3H11.7192V-1H8.28074V3ZM9 10C9 9.44772 9.44772 9 10 9V13C11.6569 13 13 11.6569 13 10H9ZM10 11C9.44772 11 9 10.5523 9 10H13C13 8.34315 11.6569 7 10 7V11ZM11 10C11 10.5523 10.5523 11 10 11V7C8.34315 7 7 8.34315 7 10H11ZM10 9C10.5523 9 11 9.44772 11 10H7C7 11.6569 8.34315 13 10 13V9Z" fill="white" mask="url(#path-1-inside-1)"/>
</svg>
