<svg width="20" height="20" viewBox="0 0 20 20" fill="none" xmlns="http://www.w3.org/2000/svg">
<path fill-rule="evenodd" clip-rule="evenodd" d="M17 10C17 13.866 13.866 17 10 17C6.13401 17 3 13.866 3 10C3 6.13401 6.13401 3 10 3C13.866 3 17 6.13401 17 10ZM19 10C19 14.9706 14.9706 19 10 19C5.02944 19 1 14.9706 1 10C1 5.02944 5.02944 1 10 1C14.9706 1 19 5.02944 19 10ZM10.0001 5C10.4328 5 10.8558 5.12831 11.2155 5.36868C11.5752 5.60905 11.8556 5.95067 12.0212 6.3504C12.1868 6.75012 12.2301 7.19002 12.1456 7.61436C12.0613 8.03872 11.8529 8.42847 11.547 8.7344C11.241 9.04036 10.8513 9.24868 10.4269 9.33312C10.0026 9.4175 9.56275 9.37412 9.16299 9.20855C8.76329 9.04298 8.42161 8.76266 8.18124 8.40292C7.94087 8.04318 7.81258 7.62022 7.81258 7.18756C7.81258 6.60739 8.04306 6.05096 8.45331 5.64072C8.86354 5.23045 9.41993 5 10.0001 5ZM7.51745 14.4059C8.28083 14.7961 9.13372 15.0003 10.0001 15.0003C10.8665 15.0003 11.7194 14.7961 12.4828 14.4059C13.2461 14.0157 13.8963 13.4517 14.3752 12.7641C14.3534 11.3821 11.4585 10.6251 10.0001 10.6251C8.54176 10.6251 5.64686 11.3821 5.625 12.7641C6.10391 13.4517 6.75407 14.0157 7.51745 14.4059Z" fill="#212121"/>
</svg>
