<svg width="20" height="20" viewBox="0 0 20 20" fill="none" xmlns="http://www.w3.org/2000/svg">
<mask id="path-1-inside-1" fill="white">
<path fill-rule="evenodd" clip-rule="evenodd" d="M13 7V6C13 4.34315 11.6569 3 10 3C8.34315 3 7 4.34315 7 6V7H13ZM10 1C7.23858 1 5 3.23858 5 6V9H15V6C15 3.23858 12.7614 1 10 1Z"/>
</mask>
<path fill-rule="evenodd" clip-rule="evenodd" d="M13 7V6C13 4.34315 11.6569 3 10 3C8.34315 3 7 4.34315 7 6V7H13ZM10 1C7.23858 1 5 3.23858 5 6V9H15V6C15 3.23858 12.7614 1 10 1Z" fill="#EEEEEE"/>
<path d="M13 7V9H15V7H13ZM7 7H5V9H7V7ZM5 9H3V11H5V9ZM15 9V11H17V9H15ZM11 6V7H15V6H11ZM10 5C10.5523 5 11 5.44772 11 6H15C15 3.23858 12.7614 1 10 1V5ZM9 6C9 5.44772 9.44772 5 10 5V1C7.23858 1 5 3.23858 5 6H9ZM9 7V6H5V7H9ZM13 5H7V9H13V5ZM7 6C7 4.34315 8.34315 3 10 3V-1C6.13401 -1 3 2.13401 3 6H7ZM10 3C11.6569 3 13 4.34315 13 6H17C17 2.13401 13.866 -1 10 -1V3ZM7 9V6H3V9H7ZM15 7H5V11H15V7ZM13 6V9H17V6H13Z" fill="#7E8C99" mask="url(#path-1-inside-1)"/>
<rect x="4" y="8" width="12" height="10" rx="1" fill="white" stroke="#2979FF" stroke-width="2"/>
<path fill-rule="evenodd" clip-rule="evenodd" d="M10.7638 13.7913C11.2045 13.53 11.5 13.0495 11.5 12.5C11.5 11.6716 10.8284 11 10 11C9.17157 11 8.5 11.6716 8.5 12.5C8.5 13.0495 8.79549 13.53 9.23624 13.7913L8.5 16H11.5L10.7638 13.7913Z" fill="#7E8C99"/>
</svg>
