<svg width="17" height="16" viewBox="0 0 17 16" fill="none" xmlns="http://www.w3.org/2000/svg">
<path fill-rule="evenodd" clip-rule="evenodd" d="M0.00050666 5.14619L0.00628086 5.09269C0.0694097 4.50779 0.330653 3.96209 0.746623 3.54612C1.16259 3.13015 1.7083 2.8689 2.2932 2.80578L2.3467 2.8H3.50051V2.16724C3.50154 1.59284 3.73014 1.04214 4.13639 0.635888C4.54265 0.229634 5.09335 0.00103223 5.66775 3.15905e-06L5.66954 0L10.3333 1.54972e-06C10.9077 0.00103223 11.4584 0.229634 11.8646 0.635888C12.2709 1.04214 12.4995 1.59284 12.5005 2.16724L12.5005 2.16903L12.5005 2.8H13.6475L13.6944 2.80442C14.2861 2.8602 14.8396 3.12072 15.2597 3.54082C15.6798 3.96092 15.9403 4.51445 15.9961 5.10613L16.0005 5.15296V13.1485C16.0145 13.8843 15.7381 14.5963 15.2307 15.13C14.7204 15.6669 14.018 15.9797 13.2775 15.9996L13.264 16H2.73703L2.72355 15.9996C1.98302 15.9797 1.28063 15.6669 0.770294 15.13C0.262952 14.5963 -0.013489 13.8843 0.00050666 13.1484V5.14619Z" fill="white"/>
<path fill-rule="evenodd" clip-rule="evenodd" d="M0.000506362 7V4.2C0.0391516 3.84195 0.199076 3.50788 0.453729 3.25322C0.708382 2.99857 1.04245 2.83865 1.40051 2.8H3.50051V1.16903C3.50106 0.859163 3.62439 0.562103 3.8435 0.342993C4.06261 0.123883 4.35967 0.000555154 4.66954 0H9.33148C9.64134 0.000555154 9.9384 0.123883 10.1575 0.342993C10.3766 0.562103 10.5 0.859163 10.5005 1.16903V2.8H12.6005C12.9603 2.83393 13.297 2.99236 13.5526 3.24792C13.8081 3.50349 13.9666 3.84017 14.0005 4.2V7H0.000506362ZM9.10051 1.4H4.90051V2.8H9.10051V1.4ZM2 10H4V8H10V10H12V8H14.0005V12.159C14.0118 12.635 13.834 13.096 13.5059 13.4411C13.1779 13.7862 12.7264 13.9872 12.2505 14H1.75051C1.27457 13.9872 0.823112 13.7862 0.495086 13.4411C0.167061 13.096 -0.0107821 12.635 0.000506362 12.159V8H2V10Z" transform="translate(1 1)" fill="#019536"/>
</svg>
