<svg width="16" height="16" viewBox="0 0 16 16" fill="none" xmlns="http://www.w3.org/2000/svg">
<path fill-rule="evenodd" clip-rule="evenodd" d="M16 16H0V13.375C0 12.4213 0.486591 11.668 1.09734 11.1194C1.69867 10.5792 2.48094 10.1764 3.27095 9.87728C4.85176 9.27882 6.72279 9 7.99999 9C6.80654 9 5.66192 8.52594 4.81799 7.68201C3.97407 6.83808 3.5 5.69346 3.5 4.50001C3.5 3.60998 3.76395 2.73991 4.25841 1.9999C4.75289 1.25986 5.45565 0.683178 6.27789 0.342595C7.1001 0.00202435 8.00499 -0.0871947 8.87796 0.0864505C9.75091 0.26009 10.5527 0.6887 11.182 1.31801C11.8113 1.94733 12.2399 2.7491 12.4136 3.62204C12.5872 4.49501 12.498 5.3999 12.1574 6.22211C11.8168 7.04435 11.2401 7.74711 10.5001 8.24159C9.76196 8.7348 8.89441 8.99867 8.00673 9C9.28377 9.00098 11.151 9.27987 12.729 9.87728C13.519 10.1764 14.3013 10.5792 14.9026 11.1194C15.5134 11.668 16 12.4213 16 13.375V16Z" fill="white"/>
<path fill-rule="evenodd" clip-rule="evenodd" d="M3.5 3.50001C3.5 2.80778 3.7053 2.13105 4.08988 1.55547C4.47446 0.979903 5.02104 0.53138 5.66058 0.266474C6.30012 0.00156766 7.00394 -0.0678129 7.68287 0.0672352C8.36181 0.202283 8.9854 0.535637 9.47488 1.02512C9.96437 1.5146 10.2977 2.1382 10.4328 2.81713C10.5678 3.49606 10.4984 4.19989 10.2335 4.83943C9.96862 5.47897 9.5201 6.02554 8.94453 6.41012C8.36896 6.79471 7.69223 7.00001 6.99999 7.00001C6.07174 7.00001 5.18148 6.63128 4.5251 5.9749C3.86872 5.31853 3.5 4.42827 3.5 3.50001ZM6.99999 9C9.33332 9 14 10.0417 14 12.375V14H0V12.375C0 10.0417 4.66666 9 6.99999 9Z" transform="translate(1 1)" fill="#017AFD"/>
</svg>
