<svg width="24" height="24" viewBox="0 0 24 24" fill="none" xmlns="http://www.w3.org/2000/svg">
<path fill-rule="evenodd" clip-rule="evenodd" d="M2 4.364L12.006 0L22.012 4.364V10.909C22.0038 13.8846 21.0209 16.7757 19.2139 19.1398C17.4069 21.504 14.8752 23.2111 12.006 24C9.13683 23.2111 6.60509 21.504 4.79807 19.1398C2.99105 16.7757 2.00825 13.8846 2 10.909V4.364ZM14.558 15.991L16.012 14.537L13.461 11.984L15.997 9.44698L14.543 7.99298L12.006 10.53L9.469 7.99398L8.015 9.44798L10.552 11.985L8 14.537L9.454 15.991L12.006 13.438L14.558 15.991Z" fill="#F44336"/>
</svg>
